<svg width="141" height="35" viewBox="0 0 141 35" fill="none" xmlns="http://www.w3.org/2000/svg">
<path d="M1.5 8C1.5 6.57512 1.50117 5.59667 1.56314 4.83816C1.62368 4.09716 1.73469 3.69911 1.88148 3.41103C2.21703 2.75247 2.75247 2.21703 3.41103 1.88148C3.69911 1.73469 4.09716 1.62368 4.83816 1.56314C5.59667 1.50117 6.57512 1.5 8 1.5H133C134.425 1.5 135.403 1.50117 136.162 1.56314C136.903 1.62368 137.301 1.73469 137.589 1.88148C138.248 2.21703 138.783 2.75246 139.119 3.41104C139.265 3.69911 139.376 4.09716 139.437 4.83816C139.499 5.59667 139.5 6.57512 139.5 8V27C139.5 28.4249 139.499 29.4033 139.437 30.1618C139.376 30.9028 139.265 31.3009 139.119 31.589C138.783 32.2475 138.248 32.783 137.589 33.1185C137.301 33.2653 136.903 33.3763 136.162 33.4369C135.403 33.4988 134.425 33.5 133 33.5H8C6.57512 33.5 5.59667 33.4988 4.83816 33.4369C4.09716 33.3763 3.69911 33.2653 3.41103 33.1185C2.75247 32.783 2.21703 32.2475 1.88148 31.589L0.947718 32.0647L1.88148 31.589C1.73469 31.3009 1.62368 30.9028 1.56314 30.1618C1.50117 29.4033 1.5 28.4249 1.5 27V8Z" fill="#CEB290" stroke="#CEB290" stroke-width="3"/>
</svg>
