<svg width="20" height="20" viewBox="0 0 20 20" fill="none" xmlns="http://www.w3.org/2000/svg">
<path d="M0.889718 15.6862L0.576671 13.494L0.606984 13.4635C0.90503 13.1637 1.59827 12.3897 1.59827 11.6782C1.59827 11.2744 1.37991 10.9229 1.14878 10.5507C0.86007 10.0867 0.561554 9.60707 0.561554 8.91359C0.561554 8.1034 0.970577 7.1298 1.62898 6.37265C2.39655 5.49027 3.40581 5.00433 4.47085 5.00433C5.75054 5.00433 7.25968 5.32121 8.59109 5.60082L8.60222 5.60316C9.71819 5.83816 10.6819 6.04109 11.3823 6.04109C11.4676 6.04109 11.7272 6.04109 12.8195 5.34238C13.2287 5.08078 13.6488 4.78531 13.9721 4.53164L14.0578 4.46445L14.1037 4.56308C14.2013 4.77219 14.3 4.90621 14.3009 4.90754C14.3462 4.96918 14.4161 5.00433 14.4928 5.00433C14.5435 5.00433 14.5921 4.98844 14.6332 4.95836C14.7386 4.8807 14.7614 4.7316 14.6838 4.62621C14.6537 4.58324 14.4055 4.2168 14.3854 3.81117L14.3805 3.71117L14.4801 3.72094C14.7048 3.74293 15.1752 3.96887 15.3306 4.20578C15.3747 4.27324 15.4491 4.31348 15.5297 4.31348C15.5758 4.31348 15.6206 4.30004 15.6593 4.27465C15.6898 4.25449 15.7145 4.22863 15.7325 4.19805L15.7558 4.15863L15.8014 4.1557C15.8911 4.14988 15.9832 4.14695 16.075 4.14695C17.5941 4.14695 18.9792 4.9473 19.3676 5.19262C19.4126 5.22105 19.4385 5.26828 19.4385 5.32226V6.49461C19.4385 6.7825 18.6568 7.09246 16.9405 7.09246C15.9766 7.09246 15.6763 6.91801 15.3282 6.6518C15.2863 6.61972 15.2365 6.60281 15.184 6.60281C15.1092 6.60281 15.0403 6.63683 14.9948 6.69617C14.9564 6.74648 14.9398 6.80894 14.9481 6.87191C14.9564 6.93476 14.9888 6.99058 15.0391 7.02898C15.2436 7.18527 15.4746 7.34637 15.8496 7.4489L15.957 7.47824L15.9019 7.57496C14.4234 10.1734 12.8181 10.8627 12.5113 10.9745C12.1005 11.1234 11.8094 11.4903 11.7514 11.9322C11.6323 12.8355 11.4903 14.0641 11.4903 14.7884C11.4903 15.1798 11.5706 15.5216 11.729 15.8045L11.801 15.9331H11.648C11.393 15.9331 11.1714 15.7616 11.1089 15.5159C10.9331 14.8262 10.631 13.5433 10.5828 12.7018C10.5812 12.6763 10.5755 12.651 10.566 12.627L9.87484 10.8991C9.83874 10.8082 9.75222 10.7496 9.65433 10.7496C9.62409 10.7496 9.59437 10.7553 9.56601 10.7667C9.44464 10.8154 9.38534 10.9539 9.43401 11.0755L9.80874 12.0131L9.72214 12.0422C9.32026 12.1773 8.75288 12.2429 7.98761 12.2429C7.35464 12.2429 6.6789 12.1975 6.13585 12.1609C5.75968 12.1355 5.40437 12.1115 5.10566 12.1037L4.93847 12.0993L5.03894 11.9655C5.16706 11.7946 5.27921 11.6193 5.3721 11.4442C5.40179 11.3882 5.40788 11.3239 5.38917 11.2633C5.37046 11.2026 5.32929 11.1528 5.27319 11.123C5.23843 11.1046 5.20105 11.0953 5.16206 11.0953C5.07378 11.0953 4.99331 11.1437 4.95198 11.2215C4.27226 12.5043 2.74081 13.2755 2.00476 13.6461C1.58667 13.8567 1.48745 13.9123 1.46995 14.0717C1.38823 14.8154 1.40464 15.4394 1.5187 15.9264L1.56859 16.1394L0.889718 15.6862ZM16.2203 4.87472C16.0893 4.87472 15.9827 4.98129 15.9827 5.1123C15.9827 5.24332 16.0893 5.34988 16.2203 5.34988H16.5659C16.6969 5.34988 16.8035 5.24332 16.8035 5.1123C16.8035 4.98129 16.6969 4.87472 16.5659 4.87472H16.2203Z" fill="#CEB290"/>
<path d="M19.3521 5.32222V6.49457C19.3521 6.66176 18.7624 7.00601 16.9404 7.00601C16.0035 7.00601 15.7145 6.8384 15.3805 6.58312C15.2384 6.47426 15.035 6.50148 14.9261 6.64359C14.8177 6.7857 14.8445 6.98918 14.9866 7.09758C15.2155 7.27254 15.4523 7.42976 15.8268 7.53215C14.3646 10.1019 12.7922 10.7801 12.4816 10.8933C12.0405 11.0531 11.7278 11.4471 11.6656 11.9209C11.546 12.8285 11.4039 14.0626 11.4039 14.7883C11.4039 15.2501 11.5123 15.5944 11.6536 15.8466H11.6479C11.4324 15.8466 11.2453 15.7019 11.1927 15.4946C11.0173 14.8064 10.7166 13.5274 10.6691 12.6967C10.667 12.6617 10.6592 12.6272 10.6462 12.5948L9.95508 10.8669C9.88898 10.7006 9.70023 10.6198 9.5339 10.6864C9.36804 10.7529 9.28726 10.9412 9.35379 11.1075L9.69461 11.9602C8.82074 12.254 7.28469 12.1516 6.14168 12.0747C5.7516 12.0483 5.40258 12.025 5.10797 12.0172C5.23367 11.8496 5.34855 11.6725 5.44836 11.4846C5.53215 11.3265 5.47168 11.1304 5.31359 11.0466C5.15551 10.9628 4.95937 11.0228 4.87558 11.1809C4.20906 12.4388 2.69418 13.2021 1.96586 13.5688C1.54816 13.7792 1.40734 13.85 1.38398 14.0621C1.28851 14.9308 1.33777 15.533 1.43453 15.9459L0.969724 15.6358L0.668201 13.5243C0.972732 13.2181 1.68461 12.4237 1.68461 11.6781C1.68461 11.2496 1.46 10.888 1.22199 10.5049C0.93949 10.0509 0.647888 9.58137 0.647888 8.91355C0.647888 8.12347 1.04875 7.17144 1.6941 6.42933C2.44484 5.56629 3.43101 5.09066 4.47078 5.09066C5.74508 5.09066 7.25351 5.40816 8.58437 5.68765C9.70664 5.92394 10.6759 6.12738 11.3822 6.12738C11.4833 6.12738 11.7524 6.12738 12.866 5.41508C13.2876 5.14554 13.7088 4.84789 14.0254 4.59953C14.1239 4.81078 14.2228 4.94726 14.2315 4.95894C14.295 5.04535 14.393 5.0907 14.4928 5.0907C14.5593 5.0907 14.6263 5.07039 14.6842 5.02808C14.8284 4.92183 14.8596 4.71922 14.7533 4.57496C14.7507 4.57105 14.4915 4.2082 14.4716 3.80691C14.6746 3.82679 15.1191 4.04105 15.2582 4.25312C15.3563 4.40301 15.5571 4.44492 15.7066 4.34687C15.749 4.31879 15.7827 4.28293 15.8069 4.24191C17.3961 4.1391 18.8851 4.99008 19.3213 5.26566C19.3412 5.27816 19.3521 5.29847 19.3521 5.32222ZM16.8898 5.1123C16.8898 4.93347 16.7447 4.78832 16.5659 4.78832H16.2203C16.0414 4.78832 15.8963 4.93347 15.8963 5.1123C15.8963 5.29156 16.0414 5.43629 16.2203 5.43629H16.5659C16.7447 5.43629 16.8898 5.29156 16.8898 5.1123Z" fill="#CEB290"/>
<path d="M20 5.32223V6.49457C20 7.26391 18.9706 7.65399 16.9404 7.65399C16.7832 7.65399 16.6397 7.64879 16.5084 7.63973C15.9097 8.73649 15.2164 9.65227 14.4454 10.3624C13.6544 11.0907 13.0138 11.3892 12.7028 11.502C12.4898 11.5793 12.3387 11.7724 12.308 12.0052C12.2125 12.7326 12.0518 14.0614 12.0518 14.7884C12.0518 15.6428 12.5387 15.8696 12.5434 15.8717C12.6859 15.9313 12.7671 16.083 12.7365 16.2346C12.7062 16.3857 12.5736 16.4946 12.419 16.4946H11.6479C11.1361 16.4946 10.6903 16.1495 10.5646 15.6545C10.3482 14.8043 10.0816 13.6255 10.0255 12.7871L9.93563 12.5629C9.4043 12.7482 8.71316 12.8057 7.99047 12.8057C7.35461 12.8057 6.695 12.7612 6.09848 12.7214C5.42895 12.6765 4.79652 12.6342 4.5352 12.6869C4.52137 12.6899 4.50754 12.6916 4.49371 12.6925C3.71531 13.4126 2.79133 13.8787 2.25742 14.1473C2.17234 14.1905 2.07988 14.2368 2.01422 14.2722C1.90062 15.4778 2.10578 16.0074 2.21121 16.1923H2.39738C2.57621 16.1923 2.72137 16.3374 2.72137 16.5163C2.72137 16.6955 2.57621 16.8402 2.39738 16.8402H1.70625C1.6423 16.8402 1.57969 16.8217 1.52656 16.7858L0.489844 16.0947C0.412969 16.0437 0.361992 15.9625 0.349023 15.8714L0.0034375 13.4523C-0.0116797 13.3461 0.0263281 13.2398 0.104961 13.1677C0.465234 12.8364 1.03672 12.1392 1.03672 11.6783C1.03672 11.4346 0.867383 11.1625 0.671719 10.8472C0.372344 10.3654 0 9.76629 0 8.91359C0 7.0907 1.74168 4.44274 4.47086 4.44274C5.81254 4.44274 7.35594 4.76758 8.7175 5.05352C9.75637 5.27211 10.7374 5.47813 11.3762 5.47945C11.6644 5.43887 13.1469 4.51488 13.8311 3.92309C13.8242 3.85742 13.8212 3.79004 13.8229 3.7218C13.8298 3.45656 13.9814 3.25656 14.2281 3.1866C14.537 3.09891 14.9119 3.24664 15.1076 3.34254C15.1987 3.38746 15.3737 3.48121 15.5378 3.61598C17.3564 3.40606 19.0277 4.31316 19.6679 4.71836C19.8756 4.84969 20 5.07559 20 5.32223ZM19.3521 6.49461V5.32227C19.3521 5.29852 19.3413 5.2782 19.3214 5.26566C18.8851 4.99008 17.3961 4.1391 15.807 4.24191C15.7828 4.28297 15.7491 4.31879 15.7067 4.34688C15.5573 4.44492 15.3564 4.40305 15.2583 4.25313C15.1192 4.04102 14.6747 3.82676 14.4717 3.80691C14.4916 4.2082 14.7508 4.57106 14.7534 4.57496C14.8596 4.71922 14.8285 4.92184 14.6843 5.02809C14.6264 5.07043 14.5594 5.0907 14.4929 5.0907C14.3931 5.0907 14.295 5.04535 14.2316 4.95895C14.2229 4.94727 14.124 4.81078 14.0255 4.59953C13.7089 4.84793 13.2877 5.14555 12.8661 5.41508C11.7525 6.12738 11.4834 6.12738 11.3823 6.12738C10.6761 6.12738 9.70672 5.92395 8.58445 5.68766C7.25355 5.40817 5.74516 5.09066 4.47086 5.09066C3.43113 5.09066 2.44496 5.56625 1.69418 6.42934C1.04883 7.17145 0.647969 8.12352 0.647969 8.91356C0.647969 9.58137 0.939531 10.0509 1.22207 10.5049C1.46008 10.8881 1.68469 11.2496 1.68469 11.6781C1.68469 12.4237 0.972812 13.2181 0.668281 13.5243L0.969805 15.6358L1.43461 15.9459C1.33785 15.533 1.28859 14.9308 1.38406 14.0621C1.40738 13.85 1.5482 13.7792 1.96594 13.5688C2.69422 13.2021 4.20914 12.4388 4.87566 11.1809C4.95945 11.0229 5.15559 10.9628 5.31367 11.0466C5.47176 11.1304 5.53227 11.3265 5.44844 11.4846C5.34867 11.6725 5.23375 11.8496 5.10805 12.0172C5.40266 12.025 5.75168 12.0483 6.14176 12.0747C7.28473 12.1516 8.82082 12.2539 9.69469 11.9602L9.35387 11.1075C9.28734 10.9413 9.36813 10.7529 9.53398 10.6864C9.70027 10.6198 9.88906 10.7006 9.95516 10.8669L10.6463 12.5948C10.6593 12.6271 10.667 12.6617 10.6692 12.6967C10.7167 13.5274 11.0173 14.8064 11.1927 15.4946C11.2454 15.7019 11.4325 15.8466 11.648 15.8466H11.6536C11.5124 15.5944 11.4039 15.2501 11.4039 14.7883C11.4039 14.0626 11.5461 12.8285 11.6657 11.9209C11.7279 11.4471 12.0407 11.0531 12.4817 10.8933C12.7923 10.7801 14.3646 10.1019 15.8268 7.53215C15.4523 7.42977 15.2156 7.27254 14.9867 7.09758C14.8446 6.98914 14.8178 6.7857 14.9262 6.64359C15.0351 6.50149 15.2385 6.47426 15.3806 6.58313C15.7145 6.8384 16.0035 7.00602 16.9405 7.00602C18.7624 7.00606 19.3521 6.66176 19.3521 6.49461Z" fill="#3D484A"/>
<path d="M16.5659 4.78832C16.7447 4.78832 16.8899 4.93348 16.8899 5.11231C16.8899 5.29156 16.7447 5.43629 16.5659 5.43629H16.2203C16.0415 5.43629 15.8963 5.29156 15.8963 5.11231C15.8963 4.93348 16.0415 4.78832 16.2203 4.78832H16.5659Z" fill="#3D484A"/>
</svg>
