<svg width="98" height="17" viewBox="0 0 98 17" fill="none" xmlns="http://www.w3.org/2000/svg">
<path d="M2.394 16.764C2.366 16.764 2.34267 16.7547 2.324 16.736C2.30533 16.7267 2.28667 16.7173 2.268 16.708C2.23067 16.652 2.20267 16.596 2.184 16.54C2.17467 16.484 2.16533 16.428 2.156 16.372C2.14667 16.3253 2.142 16.274 2.142 16.218C2.142 16.19 2.142 16.1573 2.142 16.12C2.142 16.092 2.13733 16.0593 2.128 16.022C2.11867 15.9753 2.10933 15.9287 2.1 15.882C2.09067 15.8447 2.08133 15.8073 2.072 15.77C2.044 15.6487 1.99267 15.5507 1.918 15.476C1.87133 15.448 1.834 15.4107 1.806 15.364C1.74067 15.2987 1.68 15.2287 1.624 15.154C1.568 15.0887 1.51667 15.0187 1.47 14.944L1.4 14.818C1.33467 14.7433 1.27867 14.664 1.232 14.58C1.19467 14.496 1.15733 14.412 1.12 14.328L1.036 14.104L0.994 14.02C0.984667 13.9453 0.970667 13.8753 0.952 13.81C0.933333 13.7353 0.914667 13.6653 0.896 13.6C0.886667 13.5533 0.877333 13.516 0.868 13.488C0.858667 13.4507 0.849333 13.4133 0.84 13.376C0.830667 13.3013 0.821333 13.2267 0.812 13.152C0.802667 13.0773 0.788667 13.0073 0.77 12.942C0.760667 12.9233 0.756 12.8907 0.756 12.844L0.714 12.452C0.704667 12.3493 0.695333 12.2513 0.686 12.158C0.676667 12.0647 0.662667 11.9713 0.644 11.878V11.822C0.644 11.7473 0.639333 11.6727 0.63 11.598C0.620667 11.5233 0.611333 11.4533 0.602 11.388C0.592667 11.3507 0.588 11.318 0.588 11.29C0.588 11.2527 0.588 11.2153 0.588 11.178C0.606667 11.1313 0.606667 11.0893 0.588 11.052C0.578667 11.0053 0.574 10.9587 0.574 10.912C0.574 10.856 0.574 10.8093 0.574 10.772C0.574 10.6787 0.569333 10.59 0.56 10.506C0.56 10.4127 0.56 10.3193 0.56 10.226C0.56 10.1233 0.56 10.0207 0.56 9.918C0.569333 9.81533 0.578667 9.71733 0.588 9.624V9.526C0.597333 9.32067 0.620667 9.12 0.658 8.924C0.695333 8.728 0.742 8.53667 0.798 8.35L0.966 7.79C0.984667 7.734 1.00333 7.68267 1.022 7.636C1.04067 7.58 1.05933 7.52867 1.078 7.482C1.106 7.40733 1.134 7.33267 1.162 7.258C1.19 7.174 1.21333 7.09467 1.232 7.02C1.25067 6.92667 1.274 6.83333 1.302 6.74C1.33 6.63733 1.35333 6.53933 1.372 6.446C1.40933 6.306 1.46067 6.17067 1.526 6.04C1.59133 5.90933 1.67533 5.79733 1.778 5.704C1.79667 5.68533 1.81533 5.66667 1.834 5.648C1.85267 5.62 1.876 5.60133 1.904 5.592C1.95067 5.564 1.99267 5.536 2.03 5.508C2.07667 5.48 2.12333 5.452 2.17 5.424C2.35667 5.32133 2.54333 5.23733 2.73 5.172L3.262 4.962C3.318 4.94333 3.38333 4.92467 3.458 4.906C3.50467 4.88733 3.55133 4.878 3.598 4.878C3.64467 4.86867 3.68667 4.85933 3.724 4.85C4.004 4.794 4.27933 4.794 4.55 4.85C4.65267 4.878 4.75533 4.92 4.858 4.976C5.03533 5.06 5.21267 5.16733 5.39 5.298C5.49267 5.382 5.59067 5.47533 5.684 5.578C5.77733 5.67133 5.85667 5.78333 5.922 5.914C5.98733 6.03533 6.048 6.15667 6.104 6.278C6.132 6.38067 6.17867 6.46933 6.244 6.544L6.412 6.796C6.43067 6.81467 6.44467 6.838 6.454 6.866C6.47267 6.894 6.48667 6.91733 6.496 6.936C6.56133 7.09467 6.58 7.26733 6.552 7.454C6.524 7.60333 6.47733 7.72467 6.412 7.818C6.37467 7.874 6.34667 7.91133 6.328 7.93C6.19733 8.07 6.132 8.24733 6.132 8.462V8.504C6.12267 8.59733 6.118 8.69533 6.118 8.798C6.118 8.89133 6.11333 8.98933 6.104 9.092V9.68C6.09467 9.72667 6.09 9.778 6.09 9.834C6.09 9.88067 6.08533 9.92733 6.076 9.974C6.06667 10.002 6.062 10.0347 6.062 10.072C6.062 10.1 6.062 10.1327 6.062 10.17C6.062 10.2633 6.03867 10.3567 5.992 10.45C5.92667 10.5433 5.838 10.576 5.726 10.548C5.642 10.52 5.586 10.464 5.558 10.38C5.54867 10.352 5.53467 10.324 5.516 10.296C5.50667 10.268 5.49733 10.2353 5.488 10.198C5.47867 10.1513 5.46933 10.1 5.46 10.044C5.46 9.988 5.46 9.93667 5.46 9.89C5.46 9.82467 5.45533 9.764 5.446 9.708C5.446 9.64267 5.446 9.57733 5.446 9.512V9.47C5.43667 9.40467 5.42733 9.344 5.418 9.288C5.418 9.22267 5.418 9.15733 5.418 9.092C5.40867 8.98933 5.39933 8.88667 5.39 8.784C5.38067 8.68133 5.36667 8.58333 5.348 8.49L5.222 8.154C5.18467 8.07933 5.14733 8.00467 5.11 7.93C5.082 7.85533 5.04933 7.78067 5.012 7.706C4.99333 7.64067 4.96533 7.58 4.928 7.524C4.89067 7.468 4.85333 7.40733 4.816 7.342C4.74133 7.202 4.65733 7.08067 4.564 6.978C4.54533 6.95933 4.52667 6.94067 4.508 6.922C4.48933 6.90333 4.47067 6.88467 4.452 6.866C4.41467 6.84733 4.37733 6.82867 4.34 6.81C4.312 6.782 4.284 6.74933 4.256 6.712C4.24667 6.70267 4.23267 6.698 4.214 6.698C4.20467 6.68867 4.19067 6.67933 4.172 6.67C3.976 6.614 3.80333 6.60933 3.654 6.656L3.444 6.698C3.40667 6.698 3.36933 6.70267 3.332 6.712C3.304 6.712 3.27133 6.71667 3.234 6.726L3.136 6.768C3.108 6.77733 3.07533 6.81 3.038 6.866C3.038 6.90333 3.02867 6.94067 3.01 6.978C3.00067 7.006 2.99133 7.034 2.982 7.062C2.982 7.08067 2.982 7.09933 2.982 7.118C2.954 7.24867 2.91667 7.37467 2.87 7.496C2.82333 7.61733 2.772 7.74333 2.716 7.874C2.69733 7.92067 2.66933 7.972 2.632 8.028C2.61333 8.056 2.59467 8.084 2.576 8.112C2.55733 8.13067 2.54333 8.16333 2.534 8.21L2.45 8.336C2.40333 8.38267 2.37067 8.448 2.352 8.532C2.324 8.60667 2.30067 8.686 2.282 8.77C2.27267 8.84467 2.25867 8.91933 2.24 8.994C2.212 9.106 2.19333 9.218 2.184 9.33C2.17467 9.442 2.16533 9.554 2.156 9.666V10.59C2.156 10.6273 2.15133 10.66 2.142 10.688C2.142 10.716 2.142 10.7487 2.142 10.786C2.142 10.8607 2.13733 10.94 2.128 11.024C2.128 11.108 2.13267 11.1873 2.142 11.262C2.15133 11.29 2.156 11.332 2.156 11.388C2.156 11.5093 2.17 11.6353 2.198 11.766C2.198 11.8033 2.20267 11.8267 2.212 11.836C2.25867 11.8827 2.268 11.9293 2.24 11.976C2.24 12.004 2.24467 12.0227 2.254 12.032C2.29133 12.1533 2.324 12.2747 2.352 12.396C2.38 12.508 2.41267 12.6247 2.45 12.746C2.48733 12.8487 2.52467 12.9513 2.562 13.054C2.60867 13.1567 2.66467 13.2593 2.73 13.362C2.80467 13.474 2.912 13.5627 3.052 13.628C3.108 13.6467 3.164 13.6653 3.22 13.684C3.276 13.7027 3.332 13.7167 3.388 13.726C3.45333 13.7353 3.514 13.7447 3.57 13.754C3.626 13.754 3.682 13.754 3.738 13.754C3.81267 13.754 3.88733 13.7493 3.962 13.74C4.03667 13.7307 4.10667 13.7213 4.172 13.712C4.27467 13.6933 4.368 13.6747 4.452 13.656C4.54533 13.6373 4.63867 13.6187 4.732 13.6C4.89067 13.572 5.03533 13.5253 5.166 13.46C5.17533 13.46 5.18933 13.4507 5.208 13.432C5.28267 13.3853 5.35267 13.3387 5.418 13.292C5.49267 13.236 5.56267 13.1753 5.628 13.11C5.684 13.054 5.74 12.998 5.796 12.942C5.86133 12.886 5.91733 12.8253 5.964 12.76L6.09 12.578C6.146 12.4753 6.20667 12.4007 6.272 12.354C6.30933 12.3167 6.33733 12.284 6.356 12.256C6.37467 12.228 6.398 12.214 6.426 12.214C6.482 12.214 6.538 12.2093 6.594 12.2C6.65 12.1907 6.71067 12.1907 6.776 12.2C6.832 12.2093 6.88333 12.228 6.93 12.256C6.986 12.2747 7.03733 12.2933 7.084 12.312C7.10267 12.3213 7.126 12.34 7.154 12.368C7.20067 12.424 7.238 12.48 7.266 12.536C7.30333 12.5827 7.32667 12.6387 7.336 12.704C7.35467 12.7787 7.364 12.83 7.364 12.858C7.37333 12.914 7.364 12.9793 7.336 13.054C7.29867 13.138 7.24267 13.2267 7.168 13.32C7.12133 13.3573 7.07467 13.404 7.028 13.46C6.98133 13.516 6.93467 13.5673 6.888 13.614C6.82267 13.6793 6.762 13.7493 6.706 13.824C6.65 13.8893 6.58467 13.9547 6.51 14.02C6.482 14.0387 6.454 14.062 6.426 14.09C6.40733 14.1087 6.38867 14.1273 6.37 14.146C6.286 14.23 6.19267 14.3047 6.09 14.37C5.99667 14.426 5.89867 14.4773 5.796 14.524L5.418 14.692C5.32467 14.7293 5.22667 14.762 5.124 14.79C5.03067 14.818 4.93267 14.846 4.83 14.874C4.73667 14.902 4.63867 14.93 4.536 14.958C4.44267 14.9767 4.34467 14.9953 4.242 15.014L3.696 15.098C3.63067 15.1073 3.56067 15.1167 3.486 15.126C3.42067 15.1447 3.35067 15.1493 3.276 15.14C3.18267 15.1307 3.08467 15.1587 2.982 15.224C2.88867 15.2707 2.83733 15.336 2.828 15.42C2.80933 15.476 2.8 15.518 2.8 15.546L2.758 15.91C2.758 15.9753 2.75333 16.0453 2.744 16.12C2.744 16.1947 2.73933 16.2693 2.73 16.344C2.72067 16.3813 2.71133 16.4187 2.702 16.456C2.69267 16.5027 2.67867 16.5493 2.66 16.596C2.61333 16.708 2.52467 16.764 2.394 16.764ZM13.5831 16.022C13.4991 16.022 13.4244 15.9893 13.3591 15.924C13.3404 15.896 13.3217 15.868 13.3031 15.84C13.2844 15.812 13.2657 15.784 13.2471 15.756C13.1631 15.56 13.1211 15.3547 13.1211 15.14L13.0791 14.804C13.0511 14.6733 13.0277 14.5427 13.0091 14.412C12.9904 14.2813 12.9577 14.1553 12.9111 14.034L12.8271 13.796C12.8271 13.7773 12.8224 13.7587 12.8131 13.74C12.8131 13.7213 12.8084 13.7027 12.7991 13.684L12.5891 12.942C12.5797 12.9233 12.5704 12.9 12.5611 12.872C12.5611 12.844 12.5517 12.8207 12.5331 12.802C12.5051 12.746 12.4817 12.69 12.4631 12.634C12.4537 12.5687 12.4397 12.5033 12.4211 12.438C12.4117 12.3913 12.4024 12.3493 12.3931 12.312C12.3837 12.2653 12.3697 12.2187 12.3511 12.172C12.3324 12.116 12.3137 12.0833 12.2951 12.074C12.2764 12.0553 12.2344 12.0553 12.1691 12.074C12.1224 12.0833 12.0711 12.0927 12.0151 12.102C11.9684 12.102 11.9217 12.1113 11.8751 12.13C11.8377 12.1393 11.7911 12.1487 11.7351 12.158C11.6884 12.158 11.6417 12.1627 11.5951 12.172L11.3991 12.214C11.3524 12.2233 11.3011 12.2373 11.2451 12.256C11.1984 12.2653 11.1517 12.27 11.1051 12.27L10.8531 12.312C10.7784 12.3307 10.6991 12.3493 10.6151 12.368C10.5311 12.3867 10.4517 12.4053 10.3771 12.424C10.1531 12.48 9.92906 12.522 9.70506 12.55C9.6304 12.5687 9.5884 12.6013 9.57906 12.648C9.56973 12.648 9.56506 12.6527 9.56506 12.662C9.50906 12.8113 9.44373 12.9607 9.36906 13.11C9.30373 13.25 9.23373 13.3947 9.15906 13.544C9.1404 13.5813 9.12173 13.6187 9.10306 13.656C9.09373 13.684 9.07973 13.7167 9.06106 13.754C9.05173 13.7727 9.0424 13.796 9.03306 13.824C9.02373 13.8427 9.0144 13.8613 9.00506 13.88C8.94906 13.9453 8.92106 14.0247 8.92106 14.118C8.91173 14.174 8.89306 14.23 8.86506 14.286C8.83706 14.3327 8.80906 14.3793 8.78106 14.426C8.77173 14.454 8.75306 14.468 8.72506 14.468C8.68773 14.4773 8.6504 14.4913 8.61306 14.51C8.57573 14.5287 8.53373 14.5473 8.48706 14.566C8.45906 14.5753 8.43106 14.5753 8.40306 14.566C8.3844 14.5567 8.36106 14.5473 8.33306 14.538C8.3144 14.5193 8.29573 14.51 8.27706 14.51C8.1744 14.5007 8.09973 14.44 8.05306 14.328C7.9784 14.1787 7.92706 14.0293 7.89906 13.88C7.88973 13.8427 7.88973 13.81 7.89906 13.782C7.91773 13.754 7.93173 13.726 7.94106 13.698C7.99706 13.6607 8.02973 13.6187 8.03906 13.572V13.558C8.03906 13.4367 8.0624 13.3247 8.10906 13.222C8.16506 13.11 8.21173 13.0027 8.24906 12.9C8.26773 12.844 8.29106 12.788 8.31906 12.732C8.34706 12.676 8.37506 12.62 8.40306 12.564C8.4404 12.4987 8.4684 12.438 8.48706 12.382C8.51506 12.3167 8.5384 12.2513 8.55706 12.186C8.58506 12.1113 8.58506 12.0413 8.55706 11.976C8.5384 11.92 8.52906 11.8687 8.52906 11.822C8.52906 11.766 8.53373 11.71 8.54306 11.654C8.54306 11.5513 8.5804 11.4627 8.65506 11.388C8.6924 11.3413 8.72973 11.304 8.76706 11.276C8.81373 11.2387 8.85573 11.2013 8.89306 11.164C8.97706 11.08 9.0424 10.968 9.08906 10.828C9.1264 10.7067 9.1544 10.5853 9.17306 10.464C9.20106 10.3333 9.22906 10.2073 9.25706 10.086C9.27573 9.96467 9.2944 9.848 9.31306 9.736C9.34106 9.61467 9.36906 9.498 9.39706 9.386C9.4064 9.33933 9.41573 9.29733 9.42506 9.26C9.44373 9.21333 9.45773 9.17133 9.46706 9.134C9.49506 9.05933 9.52306 8.98933 9.55106 8.924C9.57906 8.84933 9.59773 8.77467 9.60706 8.7C9.62573 8.66267 9.62573 8.63 9.60706 8.602C9.59773 8.55533 9.59773 8.51333 9.60706 8.476C9.62573 8.43867 9.63973 8.40133 9.64906 8.364C9.67706 8.29867 9.69573 8.23333 9.70506 8.168C9.72373 8.10267 9.74706 8.03733 9.77506 7.972C9.82173 7.85067 9.85906 7.75267 9.88706 7.678C9.9244 7.594 9.95706 7.50067 9.98506 7.398C10.0037 7.342 10.0224 7.29067 10.0411 7.244C10.0691 7.188 10.0877 7.132 10.0971 7.076C10.1251 6.992 10.1484 6.908 10.1671 6.824C10.1857 6.73067 10.1951 6.642 10.1951 6.558C10.2137 6.48333 10.2324 6.432 10.2511 6.404C10.2977 6.31067 10.3537 6.23133 10.4191 6.166C10.4937 6.10067 10.5637 6.03533 10.6291 5.97C10.6757 5.942 10.7224 5.92333 10.7691 5.914C10.8157 5.89533 10.8624 5.9 10.9091 5.928C10.9464 5.94667 10.9697 5.956 10.9791 5.956C11.0631 5.94667 11.1331 5.96533 11.1891 6.012C11.2451 6.05867 11.2917 6.11467 11.3291 6.18C11.3477 6.19867 11.3617 6.222 11.3711 6.25C11.3804 6.278 11.3897 6.30133 11.3991 6.32C11.4457 6.39467 11.4691 6.46933 11.4691 6.544C11.4691 6.58133 11.4737 6.62333 11.4831 6.67C11.4924 6.70733 11.5017 6.74933 11.5111 6.796C11.5391 6.852 11.5811 6.88 11.6371 6.88C11.6464 6.87067 11.6557 6.87067 11.6651 6.88C11.6744 6.88933 11.6791 6.89867 11.6791 6.908C11.7257 6.964 11.7397 7.02467 11.7211 7.09C11.7024 7.16467 11.6977 7.23933 11.7071 7.314C11.7257 7.37933 11.7444 7.44933 11.7631 7.524C11.8004 7.61733 11.8377 7.71067 11.8751 7.804C11.9124 7.89733 11.9497 7.99067 11.9871 8.084C12.0337 8.18667 12.0804 8.28933 12.1271 8.392C12.1737 8.49467 12.2157 8.59733 12.2531 8.7C12.2997 8.83067 12.3464 8.96133 12.3931 9.092C12.4491 9.22267 12.5097 9.35333 12.5751 9.484L12.6171 9.638C12.6264 9.67533 12.6357 9.71267 12.6451 9.75C12.6637 9.78733 12.6777 9.82467 12.6871 9.862C12.7057 9.89 12.7197 9.918 12.7291 9.946C12.7477 9.974 12.7664 9.99733 12.7851 10.016C12.8317 10.0813 12.8597 10.1513 12.8691 10.226C12.8971 10.3193 12.9391 10.4033 12.9951 10.478C13.0137 10.506 13.0417 10.52 13.0791 10.52C13.2191 10.5013 13.3591 10.4873 13.4991 10.478C13.6391 10.4593 13.7791 10.4313 13.9191 10.394C14.0217 10.366 14.1197 10.352 14.2131 10.352C14.3904 10.352 14.5537 10.4127 14.7031 10.534C14.8804 10.674 14.9737 10.8513 14.9831 11.066C14.9831 11.1127 14.9877 11.15 14.9971 11.178C14.9971 11.2433 14.9784 11.2947 14.9411 11.332C14.9317 11.36 14.9131 11.388 14.8851 11.416C14.8664 11.444 14.8477 11.472 14.8291 11.5C14.8104 11.5373 14.7917 11.5653 14.7731 11.584L14.6891 11.654C14.6797 11.6727 14.6657 11.696 14.6471 11.724C14.6284 11.7427 14.6051 11.7567 14.5771 11.766C14.5397 11.7753 14.5024 11.7893 14.4651 11.808C14.4277 11.8173 14.3857 11.822 14.3391 11.822C14.1711 11.8407 14.0217 11.836 13.8911 11.808H13.6671C13.6484 11.808 13.6204 11.8173 13.5831 11.836C13.5457 11.8547 13.5271 11.878 13.5271 11.906V11.962C13.5551 12.046 13.5737 12.1347 13.5831 12.228C13.6017 12.312 13.6297 12.3913 13.6671 12.466C13.6671 12.5033 13.6764 12.5407 13.6951 12.578C13.7417 12.662 13.7791 12.7507 13.8071 12.844C13.8351 12.928 13.8584 13.0167 13.8771 13.11C13.8771 13.1287 13.8864 13.166 13.9051 13.222C13.9331 13.2873 13.9564 13.3573 13.9751 13.432C13.9937 13.4973 14.0077 13.5673 14.0171 13.642C14.0171 13.698 14.0311 13.7493 14.0591 13.796C14.0964 13.88 14.1244 13.964 14.1431 14.048C14.1617 14.132 14.1757 14.2207 14.1851 14.314C14.1944 14.3233 14.1991 14.342 14.1991 14.37C14.1991 14.3887 14.2037 14.4073 14.2131 14.426C14.2597 14.5287 14.2924 14.6407 14.3111 14.762C14.3297 14.874 14.3531 14.986 14.3811 15.098C14.3997 15.154 14.4091 15.21 14.4091 15.266C14.4184 15.3313 14.4231 15.3967 14.4231 15.462C14.4231 15.5087 14.4091 15.56 14.3811 15.616C14.3531 15.644 14.3391 15.658 14.3391 15.658C14.2831 15.6673 14.2504 15.7 14.2411 15.756L14.1991 15.84C14.1804 15.8773 14.1524 15.9007 14.1151 15.91C14.0777 15.91 14.0451 15.924 14.0171 15.952C13.9797 15.9893 13.9284 16.008 13.8631 16.008C13.8257 16.008 13.7791 16.008 13.7231 16.008C13.6764 16.008 13.6297 16.0127 13.5831 16.022ZM10.2091 10.94C10.2651 10.9307 10.3211 10.9213 10.3771 10.912C10.4424 10.9027 10.5124 10.8933 10.5871 10.884C10.6337 10.8747 10.6944 10.8653 10.7691 10.856C10.8437 10.8467 10.9137 10.8373 10.9791 10.828C11.0444 10.8093 11.1097 10.8 11.1751 10.8C11.2404 10.7907 11.3057 10.7813 11.3711 10.772C11.4271 10.7533 11.4831 10.744 11.5391 10.744C11.5951 10.7347 11.6511 10.7253 11.7071 10.716C11.7911 10.6973 11.8237 10.6507 11.8051 10.576C11.7957 10.5013 11.7771 10.4267 11.7491 10.352C11.7304 10.268 11.6884 10.198 11.6231 10.142C11.6044 10.1233 11.5951 10.0953 11.5951 10.058V10.016C11.5764 9.94133 11.5531 9.87133 11.5251 9.806C11.5064 9.73133 11.4831 9.66133 11.4551 9.596C11.4364 9.52133 11.4131 9.456 11.3851 9.4C11.3664 9.33467 11.3431 9.26933 11.3151 9.204L11.1471 8.7C11.1191 8.63467 11.0911 8.56933 11.0631 8.504C11.0444 8.43867 11.0257 8.37333 11.0071 8.308L10.9651 8.252H10.9231L10.8951 8.294C10.8484 8.434 10.7924 8.574 10.7271 8.714C10.6711 8.854 10.6197 9.00333 10.5731 9.162C10.5731 9.18067 10.5684 9.204 10.5591 9.232C10.5497 9.26 10.5404 9.288 10.5311 9.316C10.4937 9.40933 10.4564 9.512 10.4191 9.624C10.3911 9.736 10.3677 9.848 10.3491 9.96C10.3397 10.0253 10.3304 10.0907 10.3211 10.156C10.3117 10.212 10.2977 10.2727 10.2791 10.338L10.1531 10.884C10.1437 10.8933 10.1484 10.9073 10.1671 10.926C10.1857 10.9353 10.1997 10.94 10.2091 10.94ZM16.9445 15.546C16.7392 15.5833 16.5572 15.518 16.3985 15.35C16.3705 15.322 16.3425 15.2893 16.3145 15.252C16.2958 15.2147 16.2725 15.1773 16.2445 15.14L16.2025 15.028C16.1278 14.832 16.0625 14.636 16.0065 14.44C15.9598 14.2347 15.9225 14.0293 15.8945 13.824C15.8665 13.684 15.8525 13.5533 15.8525 13.432C15.8432 13.3107 15.8292 13.1893 15.8105 13.068C15.8012 12.9467 15.7965 12.8253 15.7965 12.704C15.7965 12.648 15.7965 12.592 15.7965 12.536C15.7965 12.4707 15.7872 12.4053 15.7685 12.34V12.312C15.7592 12.2093 15.7498 12.1067 15.7405 12.004C15.7405 11.892 15.7312 11.7847 15.7125 11.682L15.6705 11.038C15.6612 10.9447 15.6518 10.856 15.6425 10.772C15.6332 10.688 15.6192 10.5993 15.6005 10.506C15.6005 10.4687 15.5958 10.436 15.5865 10.408C15.5865 10.3707 15.5865 10.3333 15.5865 10.296C15.5865 10.2213 15.5865 10.1467 15.5865 10.072C15.5865 9.99733 15.5818 9.92733 15.5725 9.862C15.5632 9.82467 15.5585 9.77333 15.5585 9.708V9.26C15.5678 9.12933 15.5632 8.99867 15.5445 8.868C15.5258 8.73733 15.5072 8.61133 15.4885 8.49L15.3625 7.734C15.3532 7.71533 15.3485 7.692 15.3485 7.664C15.3485 7.636 15.3485 7.61267 15.3485 7.594C15.3485 7.57533 15.3485 7.552 15.3485 7.524C15.3485 7.496 15.3438 7.47267 15.3345 7.454C15.3065 7.35133 15.3018 7.258 15.3205 7.174C15.3392 7.08067 15.3625 6.98733 15.3905 6.894C15.3998 6.88467 15.4138 6.86133 15.4325 6.824C15.4792 6.77733 15.5212 6.73533 15.5585 6.698C15.5958 6.65133 15.6425 6.614 15.6985 6.586C15.7545 6.56733 15.7965 6.52533 15.8245 6.46L15.8665 6.362C15.9598 6.194 16.1045 6.07733 16.3005 6.012C16.3098 6.00267 16.3192 5.998 16.3285 5.998C16.3472 5.998 16.3612 5.99333 16.3705 5.984C16.4918 5.928 16.6178 5.92333 16.7485 5.97C16.7952 5.97933 16.8418 5.99333 16.8885 6.012C16.9352 6.02133 16.9772 6.03533 17.0145 6.054C17.0798 6.082 17.1405 6.11467 17.1965 6.152C17.2525 6.18 17.3132 6.208 17.3785 6.236C17.5465 6.32 17.7145 6.404 17.8825 6.488C18.0505 6.56267 18.2185 6.63733 18.3865 6.712L18.7505 6.88C18.8065 6.908 18.8625 6.936 18.9185 6.964C18.9745 6.98267 19.0305 7.006 19.0865 7.034L19.1985 7.076C19.2545 7.11333 19.3105 7.15067 19.3665 7.188C19.4225 7.216 19.4832 7.24867 19.5485 7.286C19.6418 7.33267 19.7305 7.39333 19.8145 7.468C19.8985 7.54267 19.9732 7.61733 20.0385 7.692C20.0945 7.748 20.1272 7.79933 20.1365 7.846C20.1645 7.92067 20.1925 8 20.2205 8.084C20.2485 8.15867 20.2672 8.23333 20.2765 8.308C20.2952 8.34533 20.2952 8.38733 20.2765 8.434C20.2485 8.49933 20.2205 8.56933 20.1925 8.644C20.1738 8.70933 20.1552 8.77933 20.1365 8.854C20.0712 9.03133 19.9685 9.19 19.8285 9.33C19.7072 9.45133 19.5905 9.54933 19.4785 9.624C19.4318 9.652 19.3852 9.68467 19.3385 9.722C19.2918 9.75 19.2452 9.778 19.1985 9.806C19.0958 9.87133 18.9885 9.932 18.8765 9.988C18.7645 10.044 18.6478 10.0907 18.5265 10.128C18.4985 10.128 18.4752 10.1373 18.4565 10.156C18.3632 10.1933 18.2745 10.2307 18.1905 10.268C18.1065 10.3053 18.0225 10.3473 17.9385 10.394C17.8545 10.4407 17.7985 10.506 17.7705 10.59C17.7705 10.5993 17.7658 10.6087 17.7565 10.618C17.7565 10.618 17.7565 10.6273 17.7565 10.646C17.7472 10.7207 17.7145 10.786 17.6585 10.842C17.6118 10.898 17.5652 10.9587 17.5185 11.024C17.5185 11.0333 17.5138 11.038 17.5045 11.038C17.4952 11.038 17.4858 11.0427 17.4765 11.052L17.3085 11.136C17.2618 11.1547 17.2385 11.1967 17.2385 11.262C17.2385 11.2993 17.2385 11.3413 17.2385 11.388C17.2385 11.4253 17.2432 11.4627 17.2525 11.5L17.3085 11.808C17.3085 11.8453 17.3085 11.8827 17.3085 11.92C17.3178 11.948 17.3178 11.9853 17.3085 12.032C17.3085 12.1067 17.3085 12.186 17.3085 12.27C17.3178 12.354 17.3272 12.4333 17.3365 12.508C17.3458 12.5453 17.3505 12.5827 17.3505 12.62C17.3505 12.648 17.3505 12.6807 17.3505 12.718C17.3505 12.7647 17.3505 12.816 17.3505 12.872C17.3598 12.9187 17.3692 12.9653 17.3785 13.012C17.3785 13.0213 17.3785 13.0353 17.3785 13.054C17.3878 13.0633 17.3925 13.0773 17.3925 13.096C17.3832 13.208 17.3832 13.3247 17.3925 13.446C17.4112 13.558 17.4252 13.67 17.4345 13.782V13.838C17.4252 13.9127 17.4205 13.992 17.4205 14.076C17.4298 14.1507 17.4345 14.23 17.4345 14.314C17.4345 14.4353 17.4532 14.538 17.4905 14.622C17.5185 14.678 17.5278 14.734 17.5185 14.79C17.5092 14.846 17.4952 14.902 17.4765 14.958C17.4672 14.986 17.4532 15.014 17.4345 15.042C17.4252 15.0793 17.4112 15.112 17.3925 15.14C17.3178 15.2893 17.2198 15.406 17.0985 15.49C17.0425 15.5273 16.9912 15.546 16.9445 15.546ZM17.1125 9.428L17.1965 9.386C17.3552 9.28333 17.5138 9.19 17.6725 9.106C17.8405 9.022 18.0085 8.938 18.1765 8.854L18.4425 8.714C18.4985 8.67667 18.5498 8.644 18.5965 8.616C18.6525 8.588 18.7038 8.55533 18.7505 8.518C18.7598 8.50867 18.7738 8.48533 18.7925 8.448C18.8018 8.448 18.8065 8.44333 18.8065 8.434C18.8065 8.42467 18.8018 8.42 18.7925 8.42C18.7645 8.392 18.7505 8.378 18.7505 8.378C18.7038 8.35 18.6525 8.322 18.5965 8.294C18.5405 8.25667 18.4845 8.224 18.4285 8.196C18.3818 8.17733 18.3305 8.154 18.2745 8.126C18.2185 8.098 18.1625 8.07 18.1065 8.042C17.8825 7.93933 17.6632 7.83667 17.4485 7.734C17.3832 7.706 17.3178 7.68267 17.2525 7.664C17.1965 7.636 17.1358 7.608 17.0705 7.58C17.0705 7.58 17.0518 7.57067 17.0145 7.552C16.9772 7.552 16.9585 7.566 16.9585 7.594C16.9492 7.63133 16.9398 7.66867 16.9305 7.706C16.9212 7.734 16.9118 7.76667 16.9025 7.804V8.266C16.9025 8.35 16.9025 8.434 16.9025 8.518C16.9118 8.602 16.9258 8.68133 16.9445 8.756C16.9445 8.82133 16.9492 8.89133 16.9585 8.966C16.9678 9.03133 16.9772 9.10133 16.9865 9.176L17.0285 9.4C17.0472 9.43733 17.0752 9.44667 17.1125 9.428ZM24.0827 15.924C24.0547 15.9333 24.0267 15.9333 23.9987 15.924C23.9707 15.924 23.9474 15.924 23.9287 15.924C23.8261 15.896 23.7374 15.84 23.6627 15.756C23.5974 15.6813 23.5367 15.5927 23.4807 15.49C23.4714 15.4527 23.4574 15.4153 23.4387 15.378C23.4294 15.3407 23.4247 15.3033 23.4247 15.266V15.168C23.4061 15.0653 23.3921 14.9627 23.3827 14.86C23.3827 14.7573 23.3827 14.6547 23.3827 14.552C23.3827 14.4213 23.3827 14.2907 23.3827 14.16C23.3921 14.0293 23.3967 13.8987 23.3967 13.768C23.3967 13.7027 23.4014 13.6513 23.4107 13.614C23.4201 13.4367 23.4201 13.25 23.4107 13.054C23.4014 13.0073 23.3921 12.956 23.3827 12.9C23.3827 12.844 23.3827 12.788 23.3827 12.732C23.3921 12.6293 23.3921 12.5267 23.3827 12.424C23.3734 12.3213 23.3594 12.2187 23.3407 12.116L23.2987 11.878C23.2987 11.8593 23.2941 11.8407 23.2847 11.822C23.2847 11.794 23.2847 11.7753 23.2847 11.766C23.2101 11.486 23.1074 11.234 22.9767 11.01C22.9301 10.926 22.8787 10.842 22.8227 10.758C22.7761 10.6647 22.7294 10.5713 22.6827 10.478C22.6361 10.3847 22.5987 10.2913 22.5707 10.198C22.5521 10.0953 22.5334 9.99733 22.5147 9.904C22.5147 9.88533 22.5147 9.862 22.5147 9.834C22.5241 9.806 22.5287 9.778 22.5287 9.75C22.5287 9.694 22.5287 9.638 22.5287 9.582C22.5381 9.51667 22.5427 9.45133 22.5427 9.386C22.5427 9.32067 22.5241 9.26933 22.4867 9.232L22.4027 9.12C22.3654 9.07333 22.3327 9.02667 22.3047 8.98C22.2767 8.924 22.2441 8.87267 22.2067 8.826L22.0527 8.616C22.0154 8.56 21.9734 8.504 21.9267 8.448C21.8801 8.392 21.8334 8.33133 21.7867 8.266C21.7681 8.24733 21.7494 8.22867 21.7307 8.21C21.7121 8.182 21.6887 8.16333 21.6607 8.154C21.6234 8.14467 21.5954 8.12133 21.5767 8.084C21.5487 8.056 21.5161 8.014 21.4787 7.958C21.4227 7.86467 21.3621 7.77133 21.2967 7.678C21.2407 7.57533 21.1847 7.47733 21.1287 7.384L21.0867 7.328C21.0027 7.15067 20.9187 6.97333 20.8347 6.796C20.7601 6.60933 20.6901 6.42733 20.6247 6.25C20.5874 6.166 20.5594 6.07267 20.5407 5.97C20.5314 5.914 20.5174 5.858 20.4987 5.802C20.4801 5.746 20.4567 5.69467 20.4287 5.648C20.4007 5.60133 20.3821 5.55467 20.3727 5.508C20.3727 5.46133 20.3727 5.41467 20.3727 5.368C20.3727 5.34 20.3774 5.312 20.3867 5.284C20.4054 5.256 20.4194 5.228 20.4287 5.2C20.4567 5.15333 20.4847 5.11133 20.5127 5.074C20.5501 5.02733 20.5874 4.98533 20.6247 4.948C20.6714 4.90133 20.7227 4.878 20.7787 4.878C20.8067 4.878 20.8254 4.87333 20.8347 4.864C20.9094 4.82667 20.9841 4.81733 21.0587 4.836C21.1427 4.85467 21.2174 4.878 21.2827 4.906C21.3107 4.91533 21.3341 4.934 21.3527 4.962C21.3714 4.98067 21.3901 4.99933 21.4087 5.018L21.5627 5.27C21.5814 5.28867 21.5907 5.312 21.5907 5.34C21.6001 5.368 21.6094 5.396 21.6187 5.424C21.6281 5.44267 21.6374 5.466 21.6467 5.494C21.7121 5.634 21.7727 5.774 21.8287 5.914C21.8941 6.04467 21.9547 6.18 22.0107 6.32C22.0574 6.44133 22.1041 6.56267 22.1507 6.684C22.2067 6.796 22.2674 6.908 22.3327 7.02C22.3794 7.132 22.4354 7.23933 22.5007 7.342C22.5661 7.44467 22.6314 7.54733 22.6967 7.65C22.7341 7.68733 22.7667 7.72933 22.7947 7.776C22.8227 7.82267 22.8554 7.86933 22.8927 7.916L22.9627 8C23.0374 8.07467 23.0841 8.112 23.1027 8.112C23.1214 8.112 23.1634 8.07 23.2287 7.986C23.2661 7.93933 23.2987 7.89267 23.3267 7.846C23.3641 7.79 23.4014 7.74333 23.4387 7.706C23.5134 7.61267 23.5834 7.524 23.6487 7.44C23.7234 7.356 23.7934 7.272 23.8587 7.188C23.9614 7.06667 24.0921 6.94533 24.2507 6.824C24.3161 6.768 24.3767 6.70733 24.4327 6.642C24.4981 6.558 24.5727 6.49733 24.6567 6.46C24.7221 6.42267 24.7827 6.38533 24.8387 6.348C24.8947 6.30133 24.9507 6.25933 25.0067 6.222C25.0627 6.166 25.1234 6.11933 25.1887 6.082C25.2261 6.054 25.2587 6.026 25.2867 5.998C25.3241 5.96067 25.3567 5.92333 25.3847 5.886C25.4034 5.858 25.4221 5.83467 25.4407 5.816C25.4687 5.788 25.4967 5.76467 25.5247 5.746L25.7207 5.62C25.7394 5.61067 25.7534 5.606 25.7627 5.606C25.7721 5.59667 25.7814 5.58733 25.7907 5.578C25.8094 5.578 25.8234 5.578 25.8327 5.578C25.8421 5.56867 25.8514 5.564 25.8607 5.564C25.9074 5.54533 25.9494 5.53133 25.9867 5.522C26.0334 5.51267 26.0801 5.508 26.1267 5.508C26.1827 5.536 26.2387 5.564 26.2947 5.592C26.3507 5.62 26.3974 5.65733 26.4347 5.704C26.4534 5.71333 26.4674 5.718 26.4767 5.718C26.4954 5.718 26.5094 5.72267 26.5187 5.732C26.5281 5.74133 26.5327 5.75067 26.5327 5.76C26.5327 5.76933 26.5281 5.788 26.5187 5.816C26.5094 5.83467 26.5047 5.84867 26.5047 5.858C26.5047 5.86733 26.5141 5.872 26.5327 5.872C26.5514 5.872 26.5654 5.87667 26.5747 5.886C26.5841 5.89533 26.5934 5.9 26.6027 5.9C26.6121 5.9 26.6167 5.90933 26.6167 5.928C26.6074 6.00267 26.6167 6.082 26.6447 6.166C26.6634 6.194 26.6727 6.222 26.6727 6.25C26.6727 6.278 26.6681 6.306 26.6587 6.334L26.4767 6.67C26.4674 6.70733 26.4441 6.73533 26.4067 6.754C26.2667 6.87533 26.1267 6.96867 25.9867 7.034C25.8187 7.09 25.6787 7.16467 25.5667 7.258C25.5201 7.29533 25.4734 7.33267 25.4267 7.37C25.3801 7.398 25.3334 7.43533 25.2867 7.482C25.2681 7.50067 25.2401 7.51933 25.2027 7.538L25.1187 7.608C25.0161 7.72 24.9134 7.832 24.8107 7.944C24.7174 8.04667 24.6194 8.154 24.5167 8.266C24.4981 8.30333 24.4747 8.322 24.4467 8.322C24.4001 8.35 24.3581 8.38733 24.3207 8.434C24.2741 8.50867 24.2227 8.58333 24.1667 8.658C24.1107 8.72333 24.0687 8.80267 24.0407 8.896L23.9567 9.036C23.9474 9.04533 23.9381 9.05933 23.9287 9.078C23.9194 9.08733 23.9101 9.10133 23.9007 9.12C23.8634 9.18533 23.8587 9.25533 23.8867 9.33C23.9054 9.34867 23.9194 9.372 23.9287 9.4C23.9474 9.428 23.9614 9.456 23.9707 9.484C23.9987 9.53067 23.9941 9.57733 23.9567 9.624C23.9381 9.63333 23.9287 9.65667 23.9287 9.694C23.9474 9.73133 23.9567 9.75933 23.9567 9.778C23.9754 9.834 23.9707 9.88533 23.9427 9.932C23.9241 9.96933 23.9147 9.99267 23.9147 10.002C23.9054 10.058 23.9101 10.1093 23.9287 10.156C23.9474 10.1933 23.9661 10.24 23.9847 10.296C24.0127 10.3427 24.0454 10.3893 24.0827 10.436C24.1294 10.5293 24.1761 10.618 24.2227 10.702C24.2694 10.786 24.3114 10.8747 24.3487 10.968L24.5167 11.514C24.5354 11.598 24.5494 11.6867 24.5587 11.78C24.5681 11.864 24.5774 11.948 24.5867 12.032C24.5961 12.088 24.6054 12.144 24.6147 12.2C24.6241 12.2467 24.6241 12.298 24.6147 12.354C24.6334 12.5593 24.6381 12.7647 24.6287 12.97C24.6287 13.166 24.6287 13.3667 24.6287 13.572C24.6287 13.5907 24.6241 13.6093 24.6147 13.628C24.6054 13.7307 24.6007 13.838 24.6007 13.95C24.6007 14.062 24.5961 14.1693 24.5867 14.272C24.5867 14.3373 24.5867 14.4027 24.5867 14.468C24.5961 14.5333 24.6007 14.6033 24.6007 14.678C24.6007 14.706 24.6054 14.7247 24.6147 14.734C24.6334 14.7807 24.6474 14.832 24.6567 14.888C24.6661 14.9347 24.6754 14.9813 24.6847 15.028C24.6941 15.0653 24.6987 15.098 24.6987 15.126C24.6987 15.1633 24.6894 15.2007 24.6707 15.238C24.6427 15.3033 24.6427 15.3733 24.6707 15.448C24.6707 15.4573 24.6567 15.4713 24.6287 15.49C24.6101 15.49 24.5914 15.4947 24.5727 15.504C24.5634 15.504 24.5494 15.5133 24.5307 15.532C24.5307 15.5507 24.5261 15.5647 24.5167 15.574C24.5074 15.6207 24.4701 15.6767 24.4047 15.742C24.3674 15.7887 24.3161 15.826 24.2507 15.854C24.1947 15.882 24.1387 15.9053 24.0827 15.924ZM27.8152 15.14C27.7405 15.1307 27.6658 15.112 27.5912 15.084C27.5165 15.0653 27.4512 15.0327 27.3952 14.986C27.3858 14.9673 27.3718 14.9533 27.3532 14.944C27.3345 14.9253 27.3205 14.9113 27.3112 14.902C27.2738 14.846 27.2412 14.7853 27.2132 14.72C27.1852 14.6547 27.1665 14.5893 27.1572 14.524C27.1478 14.384 27.1618 14.244 27.1992 14.104C27.2458 13.9547 27.2785 13.8053 27.2972 13.656C27.3158 13.4973 27.3252 13.3387 27.3252 13.18C27.3345 12.9933 27.3392 12.8067 27.3392 12.62C27.3392 12.4333 27.3392 12.2513 27.3392 12.074C27.3392 12.0273 27.3345 11.9807 27.3252 11.934C27.3252 11.878 27.3205 11.8267 27.3112 11.78C27.3018 11.7333 27.2972 11.682 27.2972 11.626C27.2972 11.57 27.2972 11.5187 27.2972 11.472C27.2972 11.4253 27.2925 11.3787 27.2832 11.332C27.2832 11.276 27.2785 11.2247 27.2692 11.178C27.2598 11.1407 27.2552 11.1033 27.2552 11.066C27.2645 11.0287 27.2645 10.9913 27.2552 10.954C27.2552 10.8887 27.2552 10.8233 27.2552 10.758C27.2552 10.6927 27.2505 10.6273 27.2412 10.562C27.2318 10.5527 27.2272 10.534 27.2272 10.506V9.75C27.2178 9.70333 27.2132 9.66133 27.2132 9.624C27.2132 9.57733 27.2132 9.53067 27.2132 9.484C27.2225 9.456 27.2272 9.414 27.2272 9.358V9.19C27.2272 9.134 27.2225 9.08267 27.2132 9.036C27.2132 8.98 27.2178 8.924 27.2272 8.868V8.798C27.2178 8.72333 27.2132 8.65333 27.2132 8.588C27.2225 8.51333 27.2318 8.44333 27.2412 8.378C27.2505 8.34067 27.2552 8.28 27.2552 8.196C27.2365 8.14 27.2272 8.098 27.2272 8.07C27.2178 8.02333 27.2085 7.98133 27.1992 7.944C27.1992 7.89733 27.2038 7.85533 27.2132 7.818C27.2225 7.734 27.2038 7.64533 27.1572 7.552C27.1292 7.51467 27.1058 7.47733 27.0872 7.44C27.0778 7.39333 27.0638 7.35133 27.0452 7.314V7.272C27.0638 7.25333 27.0825 7.25333 27.1012 7.272C27.1292 7.28133 27.1432 7.27667 27.1432 7.258C27.1525 7.23933 27.1572 7.22067 27.1572 7.202C27.1572 7.174 27.1618 7.15533 27.1712 7.146C27.1805 7.118 27.1758 7.08067 27.1572 7.034C27.1478 7.006 27.1618 6.98733 27.1992 6.978C27.2178 6.94067 27.2505 6.91733 27.2972 6.908C27.3438 6.88933 27.3718 6.87533 27.3812 6.866C27.4092 6.82867 27.4418 6.81 27.4792 6.81C27.5165 6.81 27.5538 6.81 27.5912 6.81C27.6192 6.81 27.6612 6.80067 27.7172 6.782C27.7545 6.77267 27.7918 6.77267 27.8292 6.782C27.8478 6.79133 27.8665 6.80533 27.8852 6.824C27.9038 6.83333 27.9225 6.84267 27.9412 6.852C28.0345 6.88933 28.1138 6.964 28.1792 7.076C28.1978 7.12267 28.2165 7.16933 28.2352 7.216C28.2538 7.26267 28.2585 7.314 28.2492 7.37C28.2492 7.398 28.2678 7.412 28.3052 7.412H28.4172C28.4638 7.39333 28.5105 7.384 28.5572 7.384C28.6132 7.384 28.6598 7.384 28.6972 7.384H29.0612C29.1638 7.37467 29.2665 7.37933 29.3692 7.398C29.4812 7.40733 29.5885 7.42133 29.6912 7.44C29.9992 7.47733 30.2932 7.54733 30.5732 7.65C30.8812 7.74333 31.1705 7.89733 31.4412 8.112C31.5438 8.18667 31.6558 8.294 31.7772 8.434C31.8145 8.47133 31.8472 8.51333 31.8752 8.56C31.9125 8.59733 31.9452 8.63933 31.9732 8.686C32.0758 8.84467 32.1272 9.008 32.1272 9.176C32.1458 9.288 32.1458 9.39533 32.1272 9.498C32.1272 9.582 32.1085 9.65667 32.0712 9.722C32.0712 9.722 32.0665 9.72667 32.0572 9.736C32.0572 9.736 32.0572 9.74067 32.0572 9.75C32.0385 9.778 32.0245 9.81067 32.0152 9.848C32.0152 9.88533 32.0012 9.91333 31.9732 9.932L31.8472 10.086C31.8005 10.142 31.7492 10.2027 31.6932 10.268C31.6465 10.324 31.5905 10.3753 31.5252 10.422L31.3852 10.52C31.3572 10.5293 31.3292 10.5433 31.3012 10.562C31.2732 10.5807 31.2498 10.604 31.2312 10.632C31.2032 10.66 31.1705 10.6833 31.1332 10.702C31.0958 10.73 31.0538 10.758 31.0072 10.786C30.9698 10.8047 30.9278 10.8233 30.8812 10.842C30.8345 10.8607 30.8345 10.884 30.8812 10.912L30.9792 10.954C31.0258 10.982 31.0772 11.01 31.1332 11.038C31.1892 11.0567 31.2405 11.08 31.2872 11.108C31.3618 11.1453 31.4365 11.192 31.5112 11.248C31.5952 11.2947 31.6698 11.3413 31.7352 11.388L31.9032 11.542C31.9498 11.5887 31.9918 11.64 32.0292 11.696C32.0758 11.7427 32.1178 11.794 32.1552 11.85C32.2298 11.9433 32.2905 12.046 32.3372 12.158C32.3932 12.27 32.4305 12.3867 32.4492 12.508C32.4678 12.5733 32.4772 12.6433 32.4772 12.718C32.4772 12.7833 32.4678 12.8533 32.4492 12.928C32.4305 13.0027 32.4352 13.0727 32.4632 13.138C32.4725 13.166 32.4678 13.2127 32.4492 13.278L32.4072 13.46C32.3885 13.516 32.3652 13.5673 32.3372 13.614C32.3185 13.6607 32.2858 13.7073 32.2392 13.754L32.0712 13.978C32.0152 14.0433 31.9545 14.1087 31.8892 14.174C31.8332 14.2393 31.7678 14.2953 31.6932 14.342L31.5672 14.426C31.5485 14.426 31.5205 14.4353 31.4832 14.454C31.0725 14.6687 30.6478 14.7807 30.2092 14.79C30.1625 14.79 30.1252 14.7947 30.0972 14.804C30.0132 14.8133 29.9245 14.8227 29.8312 14.832C29.7472 14.832 29.6585 14.832 29.5652 14.832C29.4905 14.832 29.4112 14.8413 29.3272 14.86C29.2525 14.8693 29.1778 14.874 29.1032 14.874C29.0658 14.8833 29.0285 14.8927 28.9912 14.902C28.9538 14.902 28.9165 14.902 28.8792 14.902C28.8325 14.9113 28.7812 14.9207 28.7252 14.93C28.6785 14.9393 28.6318 14.9533 28.5852 14.972C28.5572 14.9813 28.5292 14.9907 28.5012 15C28.4825 15.0093 28.4592 15.0233 28.4312 15.042C28.3378 15.1073 28.2305 15.14 28.1092 15.14H27.8152ZM28.4312 10.478C28.4685 10.478 28.5012 10.4733 28.5292 10.464C28.5665 10.4547 28.5992 10.4453 28.6272 10.436C28.7485 10.3893 28.8652 10.3473 28.9772 10.31C29.0892 10.2633 29.2058 10.2213 29.3272 10.184C29.4672 10.1373 29.6072 10.086 29.7472 10.03C29.8872 9.96467 30.0272 9.904 30.1672 9.848C30.2792 9.80133 30.3865 9.74067 30.4892 9.666C30.6012 9.59133 30.7038 9.51667 30.7972 9.442C30.8158 9.43267 30.8298 9.42333 30.8392 9.414C30.8485 9.39533 30.8578 9.38133 30.8672 9.372C30.8858 9.344 30.8858 9.316 30.8672 9.288L30.8252 9.218C30.7878 9.19 30.7552 9.162 30.7272 9.134C30.6992 9.106 30.6618 9.078 30.6152 9.05C30.5778 9.03133 30.5405 9.008 30.5032 8.98C30.4658 8.952 30.4238 8.92867 30.3772 8.91L30.2512 8.826C30.1112 8.77 29.9712 8.72333 29.8312 8.686C29.6912 8.64867 29.5465 8.63 29.3972 8.63H28.9212C28.8465 8.63 28.7718 8.63467 28.6972 8.644C28.6225 8.65333 28.5478 8.66733 28.4732 8.686C28.4452 8.686 28.4032 8.69533 28.3472 8.714C28.2912 8.72333 28.2632 8.756 28.2632 8.812V9.134C28.2818 9.22733 28.2818 9.32533 28.2632 9.428V9.554C28.2818 9.61 28.2912 9.67067 28.2912 9.736C28.2912 9.792 28.2912 9.85267 28.2912 9.918C28.3005 10.086 28.3285 10.2633 28.3752 10.45C28.3752 10.4687 28.3938 10.478 28.4312 10.478ZM28.5432 13.712H28.5992C28.6645 13.7027 28.7298 13.698 28.7952 13.698C28.8605 13.6887 28.9258 13.6793 28.9912 13.67C29.1032 13.6513 29.2152 13.6327 29.3272 13.614C29.4485 13.5953 29.5652 13.5813 29.6772 13.572C29.8918 13.5533 30.1018 13.5253 30.3072 13.488C30.3912 13.4693 30.4705 13.4507 30.5452 13.432C30.6292 13.4133 30.7085 13.3947 30.7832 13.376C30.8298 13.3573 30.8718 13.3387 30.9092 13.32C30.9558 13.292 30.9978 13.2687 31.0352 13.25C31.1658 13.1567 31.2405 13.0167 31.2592 12.83C31.2685 12.6527 31.2032 12.508 31.0632 12.396C31.0445 12.3773 31.0072 12.3493 30.9512 12.312C30.8018 12.2093 30.6432 12.1253 30.4752 12.06C30.3072 11.9947 30.1345 11.9433 29.9572 11.906C29.8732 11.8873 29.7892 11.8733 29.7052 11.864C29.6305 11.8453 29.5512 11.8407 29.4672 11.85C29.4298 11.85 29.3878 11.8547 29.3412 11.864C29.3038 11.864 29.2665 11.864 29.2292 11.864C29.1918 11.864 29.1545 11.8687 29.1172 11.878C29.0798 11.878 29.0378 11.878 28.9912 11.878C28.9445 11.878 28.8932 11.878 28.8372 11.878C28.7905 11.878 28.7438 11.8827 28.6972 11.892H28.5712C28.5245 11.9107 28.5012 11.9387 28.5012 11.976C28.5105 12.0507 28.5152 12.13 28.5152 12.214C28.5152 12.298 28.5152 12.3773 28.5152 12.452C28.5152 12.4707 28.5152 12.4893 28.5152 12.508C28.5245 12.5267 28.5292 12.5453 28.5292 12.564V12.858C28.5198 12.914 28.5152 12.97 28.5152 13.026C28.5152 13.082 28.5152 13.1333 28.5152 13.18C28.5152 13.2453 28.5152 13.3107 28.5152 13.376C28.5245 13.432 28.5198 13.4927 28.5012 13.558C28.4918 13.5767 28.4872 13.6093 28.4872 13.656C28.4872 13.6747 28.5058 13.6933 28.5432 13.712ZM38.7147 16.022C38.6307 16.022 38.556 15.9893 38.4907 15.924C38.472 15.896 38.4534 15.868 38.4347 15.84C38.416 15.812 38.3974 15.784 38.3787 15.756C38.2947 15.56 38.2527 15.3547 38.2527 15.14L38.2107 14.804C38.1827 14.6733 38.1594 14.5427 38.1407 14.412C38.122 14.2813 38.0894 14.1553 38.0427 14.034L37.9587 13.796C37.9587 13.7773 37.954 13.7587 37.9447 13.74C37.9447 13.7213 37.94 13.7027 37.9307 13.684L37.7207 12.942C37.7114 12.9233 37.702 12.9 37.6927 12.872C37.6927 12.844 37.6834 12.8207 37.6647 12.802C37.6367 12.746 37.6134 12.69 37.5947 12.634C37.5854 12.5687 37.5714 12.5033 37.5527 12.438C37.5434 12.3913 37.534 12.3493 37.5247 12.312C37.5154 12.2653 37.5014 12.2187 37.4827 12.172C37.464 12.116 37.4454 12.0833 37.4267 12.074C37.408 12.0553 37.366 12.0553 37.3007 12.074C37.254 12.0833 37.2027 12.0927 37.1467 12.102C37.1 12.102 37.0534 12.1113 37.0067 12.13C36.9694 12.1393 36.9227 12.1487 36.8667 12.158C36.82 12.158 36.7734 12.1627 36.7267 12.172L36.5307 12.214C36.484 12.2233 36.4327 12.2373 36.3767 12.256C36.33 12.2653 36.2834 12.27 36.2367 12.27L35.9847 12.312C35.91 12.3307 35.8307 12.3493 35.7467 12.368C35.6627 12.3867 35.5834 12.4053 35.5087 12.424C35.2847 12.48 35.0607 12.522 34.8367 12.55C34.762 12.5687 34.72 12.6013 34.7107 12.648C34.7014 12.648 34.6967 12.6527 34.6967 12.662C34.6407 12.8113 34.5754 12.9607 34.5007 13.11C34.4354 13.25 34.3654 13.3947 34.2907 13.544C34.272 13.5813 34.2534 13.6187 34.2347 13.656C34.2254 13.684 34.2114 13.7167 34.1927 13.754C34.1834 13.7727 34.174 13.796 34.1647 13.824C34.1554 13.8427 34.146 13.8613 34.1367 13.88C34.0807 13.9453 34.0527 14.0247 34.0527 14.118C34.0434 14.174 34.0247 14.23 33.9967 14.286C33.9687 14.3327 33.9407 14.3793 33.9127 14.426C33.9034 14.454 33.8847 14.468 33.8567 14.468C33.8194 14.4773 33.782 14.4913 33.7447 14.51C33.7074 14.5287 33.6654 14.5473 33.6187 14.566C33.5907 14.5753 33.5627 14.5753 33.5347 14.566C33.516 14.5567 33.4927 14.5473 33.4647 14.538C33.446 14.5193 33.4274 14.51 33.4087 14.51C33.306 14.5007 33.2314 14.44 33.1847 14.328C33.11 14.1787 33.0587 14.0293 33.0307 13.88C33.0214 13.8427 33.0214 13.81 33.0307 13.782C33.0494 13.754 33.0634 13.726 33.0727 13.698C33.1287 13.6607 33.1614 13.6187 33.1707 13.572V13.558C33.1707 13.4367 33.194 13.3247 33.2407 13.222C33.2967 13.11 33.3434 13.0027 33.3807 12.9C33.3994 12.844 33.4227 12.788 33.4507 12.732C33.4787 12.676 33.5067 12.62 33.5347 12.564C33.572 12.4987 33.6 12.438 33.6187 12.382C33.6467 12.3167 33.67 12.2513 33.6887 12.186C33.7167 12.1113 33.7167 12.0413 33.6887 11.976C33.67 11.92 33.6607 11.8687 33.6607 11.822C33.6607 11.766 33.6654 11.71 33.6747 11.654C33.6747 11.5513 33.712 11.4627 33.7867 11.388C33.824 11.3413 33.8614 11.304 33.8987 11.276C33.9454 11.2387 33.9874 11.2013 34.0247 11.164C34.1087 11.08 34.174 10.968 34.2207 10.828C34.258 10.7067 34.286 10.5853 34.3047 10.464C34.3327 10.3333 34.3607 10.2073 34.3887 10.086C34.4074 9.96467 34.426 9.848 34.4447 9.736C34.4727 9.61467 34.5007 9.498 34.5287 9.386C34.538 9.33933 34.5474 9.29733 34.5567 9.26C34.5754 9.21333 34.5894 9.17133 34.5987 9.134C34.6267 9.05933 34.6547 8.98933 34.6827 8.924C34.7107 8.84933 34.7294 8.77467 34.7387 8.7C34.7574 8.66267 34.7574 8.63 34.7387 8.602C34.7294 8.55533 34.7294 8.51333 34.7387 8.476C34.7574 8.43867 34.7714 8.40133 34.7807 8.364C34.8087 8.29867 34.8274 8.23333 34.8367 8.168C34.8554 8.10267 34.8787 8.03733 34.9067 7.972C34.9534 7.85067 34.9907 7.75267 35.0187 7.678C35.056 7.594 35.0887 7.50067 35.1167 7.398C35.1354 7.342 35.154 7.29067 35.1727 7.244C35.2007 7.188 35.2194 7.132 35.2287 7.076C35.2567 6.992 35.28 6.908 35.2987 6.824C35.3174 6.73067 35.3267 6.642 35.3267 6.558C35.3454 6.48333 35.364 6.432 35.3827 6.404C35.4294 6.31067 35.4854 6.23133 35.5507 6.166C35.6254 6.10067 35.6954 6.03533 35.7607 5.97C35.8074 5.942 35.854 5.92333 35.9007 5.914C35.9474 5.89533 35.994 5.9 36.0407 5.928C36.078 5.94667 36.1014 5.956 36.1107 5.956C36.1947 5.94667 36.2647 5.96533 36.3207 6.012C36.3767 6.05867 36.4234 6.11467 36.4607 6.18C36.4794 6.19867 36.4934 6.222 36.5027 6.25C36.512 6.278 36.5214 6.30133 36.5307 6.32C36.5774 6.39467 36.6007 6.46933 36.6007 6.544C36.6007 6.58133 36.6054 6.62333 36.6147 6.67C36.624 6.70733 36.6334 6.74933 36.6427 6.796C36.6707 6.852 36.7127 6.88 36.7687 6.88C36.778 6.87067 36.7874 6.87067 36.7967 6.88C36.806 6.88933 36.8107 6.89867 36.8107 6.908C36.8574 6.964 36.8714 7.02467 36.8527 7.09C36.834 7.16467 36.8294 7.23933 36.8387 7.314C36.8574 7.37933 36.876 7.44933 36.8947 7.524C36.932 7.61733 36.9694 7.71067 37.0067 7.804C37.044 7.89733 37.0814 7.99067 37.1187 8.084C37.1654 8.18667 37.212 8.28933 37.2587 8.392C37.3054 8.49467 37.3474 8.59733 37.3847 8.7C37.4314 8.83067 37.478 8.96133 37.5247 9.092C37.5807 9.22267 37.6414 9.35333 37.7067 9.484L37.7487 9.638C37.758 9.67533 37.7674 9.71267 37.7767 9.75C37.7954 9.78733 37.8094 9.82467 37.8187 9.862C37.8374 9.89 37.8514 9.918 37.8607 9.946C37.8794 9.974 37.898 9.99733 37.9167 10.016C37.9634 10.0813 37.9914 10.1513 38.0007 10.226C38.0287 10.3193 38.0707 10.4033 38.1267 10.478C38.1454 10.506 38.1734 10.52 38.2107 10.52C38.3507 10.5013 38.4907 10.4873 38.6307 10.478C38.7707 10.4593 38.9107 10.4313 39.0507 10.394C39.1534 10.366 39.2514 10.352 39.3447 10.352C39.522 10.352 39.6854 10.4127 39.8347 10.534C40.012 10.674 40.1054 10.8513 40.1147 11.066C40.1147 11.1127 40.1194 11.15 40.1287 11.178C40.1287 11.2433 40.11 11.2947 40.0727 11.332C40.0634 11.36 40.0447 11.388 40.0167 11.416C39.998 11.444 39.9794 11.472 39.9607 11.5C39.942 11.5373 39.9234 11.5653 39.9047 11.584L39.8207 11.654C39.8114 11.6727 39.7974 11.696 39.7787 11.724C39.76 11.7427 39.7367 11.7567 39.7087 11.766C39.6714 11.7753 39.634 11.7893 39.5967 11.808C39.5594 11.8173 39.5174 11.822 39.4707 11.822C39.3027 11.8407 39.1534 11.836 39.0227 11.808H38.7987C38.78 11.808 38.752 11.8173 38.7147 11.836C38.6774 11.8547 38.6587 11.878 38.6587 11.906V11.962C38.6867 12.046 38.7054 12.1347 38.7147 12.228C38.7334 12.312 38.7614 12.3913 38.7987 12.466C38.7987 12.5033 38.808 12.5407 38.8267 12.578C38.8734 12.662 38.9107 12.7507 38.9387 12.844C38.9667 12.928 38.99 13.0167 39.0087 13.11C39.0087 13.1287 39.018 13.166 39.0367 13.222C39.0647 13.2873 39.088 13.3573 39.1067 13.432C39.1254 13.4973 39.1394 13.5673 39.1487 13.642C39.1487 13.698 39.1627 13.7493 39.1907 13.796C39.228 13.88 39.256 13.964 39.2747 14.048C39.2934 14.132 39.3074 14.2207 39.3167 14.314C39.326 14.3233 39.3307 14.342 39.3307 14.37C39.3307 14.3887 39.3354 14.4073 39.3447 14.426C39.3914 14.5287 39.424 14.6407 39.4427 14.762C39.4614 14.874 39.4847 14.986 39.5127 15.098C39.5314 15.154 39.5407 15.21 39.5407 15.266C39.55 15.3313 39.5547 15.3967 39.5547 15.462C39.5547 15.5087 39.5407 15.56 39.5127 15.616C39.4847 15.644 39.4707 15.658 39.4707 15.658C39.4147 15.6673 39.382 15.7 39.3727 15.756L39.3307 15.84C39.312 15.8773 39.284 15.9007 39.2467 15.91C39.2094 15.91 39.1767 15.924 39.1487 15.952C39.1114 15.9893 39.06 16.008 38.9947 16.008C38.9574 16.008 38.9107 16.008 38.8547 16.008C38.808 16.008 38.7614 16.0127 38.7147 16.022ZM35.3407 10.94C35.3967 10.9307 35.4527 10.9213 35.5087 10.912C35.574 10.9027 35.644 10.8933 35.7187 10.884C35.7654 10.8747 35.826 10.8653 35.9007 10.856C35.9754 10.8467 36.0454 10.8373 36.1107 10.828C36.176 10.8093 36.2414 10.8 36.3067 10.8C36.372 10.7907 36.4374 10.7813 36.5027 10.772C36.5587 10.7533 36.6147 10.744 36.6707 10.744C36.7267 10.7347 36.7827 10.7253 36.8387 10.716C36.9227 10.6973 36.9554 10.6507 36.9367 10.576C36.9274 10.5013 36.9087 10.4267 36.8807 10.352C36.862 10.268 36.82 10.198 36.7547 10.142C36.736 10.1233 36.7267 10.0953 36.7267 10.058V10.016C36.708 9.94133 36.6847 9.87133 36.6567 9.806C36.638 9.73133 36.6147 9.66133 36.5867 9.596C36.568 9.52133 36.5447 9.456 36.5167 9.4C36.498 9.33467 36.4747 9.26933 36.4467 9.204L36.2787 8.7C36.2507 8.63467 36.2227 8.56933 36.1947 8.504C36.176 8.43867 36.1574 8.37333 36.1387 8.308L36.0967 8.252H36.0547L36.0267 8.294C35.98 8.434 35.924 8.574 35.8587 8.714C35.8027 8.854 35.7514 9.00333 35.7047 9.162C35.7047 9.18067 35.7 9.204 35.6907 9.232C35.6814 9.26 35.672 9.288 35.6627 9.316C35.6254 9.40933 35.588 9.512 35.5507 9.624C35.5227 9.736 35.4994 9.848 35.4807 9.96C35.4714 10.0253 35.462 10.0907 35.4527 10.156C35.4434 10.212 35.4294 10.2727 35.4107 10.338L35.2847 10.884C35.2754 10.8933 35.28 10.9073 35.2987 10.926C35.3174 10.9353 35.3314 10.94 35.3407 10.94ZM41.7642 15.28C41.5869 15.2987 41.4422 15.2427 41.3302 15.112C41.2742 15.056 41.2229 14.9953 41.1762 14.93C41.1295 14.8647 41.0922 14.7947 41.0642 14.72C41.0175 14.5893 40.9755 14.4587 40.9382 14.328C40.9009 14.188 40.8682 14.0527 40.8402 13.922C40.8122 13.8193 40.7982 13.7213 40.7982 13.628C40.7889 13.5253 40.7749 13.4273 40.7562 13.334C40.7469 13.2313 40.7422 13.1287 40.7422 13.026C40.7422 12.97 40.7422 12.914 40.7422 12.858C40.7422 12.7927 40.7375 12.732 40.7282 12.676C40.7189 12.6387 40.7142 12.606 40.7142 12.578C40.7142 12.55 40.7142 12.5173 40.7142 12.48C40.7142 12.3493 40.7142 12.2187 40.7142 12.088C40.7142 11.948 40.7095 11.8127 40.7002 11.682C40.7002 11.6073 40.6955 11.542 40.6862 11.486C40.6769 11.4207 40.6582 11.3553 40.6302 11.29C40.5929 11.1873 40.5882 11.0753 40.6162 10.954C40.6162 10.926 40.6209 10.9073 40.6302 10.898C40.6489 10.8327 40.6582 10.7673 40.6582 10.702C40.6675 10.6367 40.6675 10.5713 40.6582 10.506C40.6489 10.4593 40.6442 10.4127 40.6442 10.366C40.6442 10.3193 40.6442 10.2773 40.6442 10.24C40.6349 10.1373 40.6302 10.0347 40.6302 9.932C40.6395 9.82 40.6489 9.71267 40.6582 9.61C40.6675 9.582 40.6722 9.554 40.6722 9.526C40.6722 9.498 40.6722 9.47 40.6722 9.442C40.6629 9.33933 40.6629 9.24133 40.6722 9.148C40.6909 9.05467 40.7049 8.96133 40.7142 8.868C40.7329 8.756 40.7515 8.64867 40.7702 8.546C40.7889 8.434 40.8122 8.322 40.8402 8.21C40.8589 8.16333 40.8682 8.112 40.8682 8.056C40.8682 8 40.8682 7.944 40.8682 7.888C40.8682 7.84133 40.8635 7.79467 40.8542 7.748C40.8542 7.70133 40.8542 7.65933 40.8542 7.622C40.8542 7.594 40.8542 7.566 40.8542 7.538C40.8542 7.51 40.8589 7.482 40.8682 7.454C40.8775 7.426 40.8822 7.398 40.8822 7.37C40.8822 7.342 40.8869 7.32333 40.8962 7.314C40.9242 7.27667 40.9475 7.244 40.9662 7.216C40.9849 7.17867 41.0129 7.146 41.0502 7.118C41.0969 7.09 41.1389 7.062 41.1762 7.034C41.2229 7.006 41.2649 6.98267 41.3022 6.964C41.3489 6.94533 41.3862 6.922 41.4142 6.894C41.4515 6.84733 41.4889 6.80533 41.5262 6.768C41.5729 6.72133 41.6102 6.67 41.6382 6.614C41.6849 6.56733 41.7315 6.516 41.7782 6.46C41.8342 6.39467 41.8949 6.34333 41.9602 6.306C41.9789 6.29667 42.0069 6.27333 42.0442 6.236C42.1562 6.13333 42.2869 6.068 42.4362 6.04C42.4642 6.03067 42.4875 6.026 42.5062 6.026C42.5342 6.01667 42.5622 6.012 42.5902 6.012L42.6882 5.97C42.7629 5.942 42.8282 5.956 42.8842 6.012C42.9029 6.04 42.9262 6.068 42.9542 6.096C42.9915 6.11467 43.0242 6.13333 43.0522 6.152C43.1269 6.21733 43.1969 6.28733 43.2622 6.362C43.3369 6.43667 43.4022 6.52067 43.4582 6.614C43.5515 6.76333 43.6309 6.91267 43.6962 7.062C43.7709 7.21133 43.8409 7.36533 43.9062 7.524L44.1582 8.126C44.1675 8.182 44.1909 8.23333 44.2282 8.28C44.3029 8.42 44.3589 8.56467 44.3962 8.714C44.4335 8.854 44.4709 8.99867 44.5082 9.148C44.5175 9.16667 44.5222 9.18533 44.5222 9.204C44.5315 9.22267 44.5362 9.24133 44.5362 9.26C44.5549 9.33467 44.5689 9.414 44.5782 9.498C44.5969 9.57267 44.6015 9.64733 44.5922 9.722C44.6015 9.806 44.5969 9.89 44.5782 9.974C44.5689 10.0487 44.5549 10.1233 44.5362 10.198C44.5082 10.2913 44.4755 10.38 44.4382 10.464C44.4009 10.5387 44.3589 10.618 44.3122 10.702C44.2935 10.758 44.2609 10.8093 44.2142 10.856C44.1675 10.9027 44.1209 10.9447 44.0742 10.982C43.9995 11.0193 43.9249 11.0753 43.8502 11.15C43.8315 11.1687 43.8082 11.1827 43.7802 11.192C43.7615 11.2013 43.7429 11.2153 43.7242 11.234C43.6589 11.262 43.5889 11.2947 43.5142 11.332C43.4395 11.36 43.3649 11.388 43.2902 11.416C43.2809 11.416 43.2762 11.4253 43.2762 11.444C43.2762 11.4533 43.2809 11.4627 43.2902 11.472L43.6682 11.738C43.7149 11.766 43.7569 11.794 43.7942 11.822C43.8315 11.8407 43.8689 11.864 43.9062 11.892L43.9902 11.934C44.1022 11.9993 44.2142 12.0693 44.3262 12.144C44.4382 12.2187 44.5455 12.2933 44.6482 12.368C44.8442 12.4893 45.0402 12.6153 45.2362 12.746C45.4322 12.8673 45.6189 13.0027 45.7962 13.152C45.9549 13.2733 46.0949 13.4133 46.2162 13.572C46.2442 13.6 46.2722 13.6327 46.3002 13.67C46.3282 13.698 46.3609 13.7213 46.3982 13.74L46.4402 13.782C46.5895 13.9127 46.6735 14.09 46.6922 14.314C46.6922 14.342 46.6875 14.37 46.6782 14.398C46.6782 14.426 46.6782 14.454 46.6782 14.482C46.6782 14.538 46.6595 14.5847 46.6222 14.622C46.5849 14.6407 46.5662 14.664 46.5662 14.692C46.5382 14.7573 46.4962 14.804 46.4402 14.832C46.3935 14.8507 46.3469 14.8787 46.3002 14.916C46.2815 14.9253 46.2489 14.93 46.2022 14.93C46.1462 14.9207 46.0855 14.9113 46.0202 14.902C45.9642 14.8927 45.9082 14.888 45.8522 14.888C45.7775 14.888 45.6982 14.8553 45.6142 14.79C45.5582 14.7433 45.5069 14.7013 45.4602 14.664C45.4135 14.6173 45.3669 14.5613 45.3202 14.496C45.1989 14.328 45.0402 14.174 44.8442 14.034C44.7509 13.9593 44.6622 13.8893 44.5782 13.824C44.4942 13.7587 44.4009 13.698 44.2982 13.642C44.2329 13.6047 44.1675 13.5673 44.1022 13.53C44.0462 13.4833 43.9809 13.4413 43.9062 13.404C43.6729 13.2453 43.4349 13.0913 43.1922 12.942C42.9495 12.7833 42.7069 12.6247 42.4642 12.466C42.4269 12.438 42.3849 12.41 42.3382 12.382C42.2915 12.354 42.2449 12.326 42.1982 12.298C42.1795 12.2793 42.1515 12.2607 42.1142 12.242C42.0769 12.242 42.0582 12.256 42.0582 12.284C42.0582 12.2933 42.0535 12.3027 42.0442 12.312C42.0442 12.312 42.0442 12.3167 42.0442 12.326C42.0442 12.354 42.0442 12.382 42.0442 12.41C42.0442 12.438 42.0489 12.466 42.0582 12.494C42.0675 12.5687 42.0722 12.6433 42.0722 12.718C42.0722 12.7833 42.0722 12.8533 42.0722 12.928C42.0722 12.984 42.0722 13.04 42.0722 13.096C42.0815 13.1427 42.0909 13.194 42.1002 13.25C42.1002 13.278 42.1002 13.3107 42.1002 13.348C42.1095 13.376 42.1142 13.404 42.1142 13.432C42.1049 13.516 42.1095 13.6 42.1282 13.684C42.1469 13.768 42.1609 13.852 42.1702 13.936L42.2542 14.3C42.2635 14.3373 42.2729 14.3793 42.2822 14.426C42.2915 14.4633 42.3009 14.5053 42.3102 14.552C42.3195 14.5893 42.3195 14.6267 42.3102 14.664C42.3102 14.692 42.3055 14.7247 42.2962 14.762C42.2962 14.7713 42.2869 14.7853 42.2682 14.804C42.2215 14.8133 42.1889 14.846 42.1702 14.902C42.1422 14.9673 42.1002 15.0233 42.0442 15.07C41.9975 15.126 41.9462 15.1773 41.8902 15.224C41.8809 15.2333 41.8622 15.2427 41.8342 15.252C41.8062 15.2613 41.7829 15.2707 41.7642 15.28ZM42.3102 10.38H42.3382C42.4409 10.3613 42.5435 10.3427 42.6462 10.324C42.7582 10.296 42.8655 10.2633 42.9682 10.226C43.0709 10.198 43.1595 10.1467 43.2342 10.072C43.2995 10.0067 43.3322 9.932 43.3322 9.848C43.3415 9.78267 43.3415 9.722 43.3322 9.666C43.3322 9.60067 43.3229 9.53533 43.3042 9.47C43.2669 9.302 43.2249 9.13867 43.1782 8.98C43.1315 8.812 43.0755 8.65333 43.0102 8.504L42.8842 8.168C42.8562 8.07467 42.8235 7.986 42.7862 7.902C42.7489 7.80867 42.7069 7.72 42.6602 7.636C42.6509 7.61733 42.6415 7.59867 42.6322 7.58C42.6229 7.552 42.6135 7.52867 42.6042 7.51L42.5482 7.454C42.5202 7.41667 42.4875 7.41667 42.4502 7.454C42.4409 7.454 42.4269 7.46333 42.4082 7.482C42.3429 7.566 42.2822 7.65467 42.2262 7.748C42.1795 7.84133 42.1515 7.944 42.1422 8.056C42.1329 8.09333 42.1235 8.13067 42.1142 8.168C42.1142 8.20533 42.1142 8.24733 42.1142 8.294V8.896C42.1049 9.02667 42.1002 9.162 42.1002 9.302C42.1095 9.442 42.1049 9.57733 42.0862 9.708C42.0769 9.736 42.0722 9.764 42.0722 9.792C42.0815 9.82 42.0862 9.848 42.0862 9.876C42.0955 9.932 42.1002 9.988 42.1002 10.044C42.1002 10.0907 42.1002 10.142 42.1002 10.198C42.1002 10.2913 42.1095 10.3473 42.1282 10.366C42.1562 10.3847 42.2169 10.3893 42.3102 10.38ZM52.969 16.022C52.885 16.022 52.8103 15.9893 52.745 15.924C52.7263 15.896 52.7077 15.868 52.689 15.84C52.6703 15.812 52.6517 15.784 52.633 15.756C52.549 15.56 52.507 15.3547 52.507 15.14L52.465 14.804C52.437 14.6733 52.4137 14.5427 52.395 14.412C52.3763 14.2813 52.3437 14.1553 52.297 14.034L52.213 13.796C52.213 13.7773 52.2083 13.7587 52.199 13.74C52.199 13.7213 52.1943 13.7027 52.185 13.684L51.975 12.942C51.9657 12.9233 51.9563 12.9 51.947 12.872C51.947 12.844 51.9377 12.8207 51.919 12.802C51.891 12.746 51.8677 12.69 51.849 12.634C51.8397 12.5687 51.8257 12.5033 51.807 12.438C51.7977 12.3913 51.7883 12.3493 51.779 12.312C51.7697 12.2653 51.7557 12.2187 51.737 12.172C51.7183 12.116 51.6997 12.0833 51.681 12.074C51.6623 12.0553 51.6203 12.0553 51.555 12.074C51.5083 12.0833 51.457 12.0927 51.401 12.102C51.3543 12.102 51.3077 12.1113 51.261 12.13C51.2237 12.1393 51.177 12.1487 51.121 12.158C51.0743 12.158 51.0277 12.1627 50.981 12.172L50.785 12.214C50.7383 12.2233 50.687 12.2373 50.631 12.256C50.5843 12.2653 50.5377 12.27 50.491 12.27L50.239 12.312C50.1643 12.3307 50.085 12.3493 50.001 12.368C49.917 12.3867 49.8377 12.4053 49.763 12.424C49.539 12.48 49.315 12.522 49.091 12.55C49.0163 12.5687 48.9743 12.6013 48.965 12.648C48.9557 12.648 48.951 12.6527 48.951 12.662C48.895 12.8113 48.8297 12.9607 48.755 13.11C48.6897 13.25 48.6197 13.3947 48.545 13.544C48.5263 13.5813 48.5077 13.6187 48.489 13.656C48.4797 13.684 48.4657 13.7167 48.447 13.754C48.4377 13.7727 48.4283 13.796 48.419 13.824C48.4097 13.8427 48.4003 13.8613 48.391 13.88C48.335 13.9453 48.307 14.0247 48.307 14.118C48.2977 14.174 48.279 14.23 48.251 14.286C48.223 14.3327 48.195 14.3793 48.167 14.426C48.1577 14.454 48.139 14.468 48.111 14.468C48.0737 14.4773 48.0363 14.4913 47.999 14.51C47.9617 14.5287 47.9197 14.5473 47.873 14.566C47.845 14.5753 47.817 14.5753 47.789 14.566C47.7703 14.5567 47.747 14.5473 47.719 14.538C47.7003 14.5193 47.6817 14.51 47.663 14.51C47.5603 14.5007 47.4857 14.44 47.439 14.328C47.3643 14.1787 47.313 14.0293 47.285 13.88C47.2757 13.8427 47.2757 13.81 47.285 13.782C47.3037 13.754 47.3177 13.726 47.327 13.698C47.383 13.6607 47.4157 13.6187 47.425 13.572V13.558C47.425 13.4367 47.4483 13.3247 47.495 13.222C47.551 13.11 47.5977 13.0027 47.635 12.9C47.6537 12.844 47.677 12.788 47.705 12.732C47.733 12.676 47.761 12.62 47.789 12.564C47.8263 12.4987 47.8543 12.438 47.873 12.382C47.901 12.3167 47.9243 12.2513 47.943 12.186C47.971 12.1113 47.971 12.0413 47.943 11.976C47.9243 11.92 47.915 11.8687 47.915 11.822C47.915 11.766 47.9197 11.71 47.929 11.654C47.929 11.5513 47.9663 11.4627 48.041 11.388C48.0783 11.3413 48.1157 11.304 48.153 11.276C48.1997 11.2387 48.2417 11.2013 48.279 11.164C48.363 11.08 48.4283 10.968 48.475 10.828C48.5123 10.7067 48.5403 10.5853 48.559 10.464C48.587 10.3333 48.615 10.2073 48.643 10.086C48.6617 9.96467 48.6803 9.848 48.699 9.736C48.727 9.61467 48.755 9.498 48.783 9.386C48.7923 9.33933 48.8017 9.29733 48.811 9.26C48.8297 9.21333 48.8437 9.17133 48.853 9.134C48.881 9.05933 48.909 8.98933 48.937 8.924C48.965 8.84933 48.9837 8.77467 48.993 8.7C49.0117 8.66267 49.0117 8.63 48.993 8.602C48.9837 8.55533 48.9837 8.51333 48.993 8.476C49.0117 8.43867 49.0257 8.40133 49.035 8.364C49.063 8.29867 49.0817 8.23333 49.091 8.168C49.1097 8.10267 49.133 8.03733 49.161 7.972C49.2077 7.85067 49.245 7.75267 49.273 7.678C49.3103 7.594 49.343 7.50067 49.371 7.398C49.3897 7.342 49.4083 7.29067 49.427 7.244C49.455 7.188 49.4737 7.132 49.483 7.076C49.511 6.992 49.5343 6.908 49.553 6.824C49.5717 6.73067 49.581 6.642 49.581 6.558C49.5997 6.48333 49.6183 6.432 49.637 6.404C49.6837 6.31067 49.7397 6.23133 49.805 6.166C49.8797 6.10067 49.9497 6.03533 50.015 5.97C50.0617 5.942 50.1083 5.92333 50.155 5.914C50.2017 5.89533 50.2483 5.9 50.295 5.928C50.3323 5.94667 50.3557 5.956 50.365 5.956C50.449 5.94667 50.519 5.96533 50.575 6.012C50.631 6.05867 50.6777 6.11467 50.715 6.18C50.7337 6.19867 50.7477 6.222 50.757 6.25C50.7663 6.278 50.7757 6.30133 50.785 6.32C50.8317 6.39467 50.855 6.46933 50.855 6.544C50.855 6.58133 50.8597 6.62333 50.869 6.67C50.8783 6.70733 50.8877 6.74933 50.897 6.796C50.925 6.852 50.967 6.88 51.023 6.88C51.0323 6.87067 51.0417 6.87067 51.051 6.88C51.0603 6.88933 51.065 6.89867 51.065 6.908C51.1117 6.964 51.1257 7.02467 51.107 7.09C51.0883 7.16467 51.0837 7.23933 51.093 7.314C51.1117 7.37933 51.1303 7.44933 51.149 7.524C51.1863 7.61733 51.2237 7.71067 51.261 7.804C51.2983 7.89733 51.3357 7.99067 51.373 8.084C51.4197 8.18667 51.4663 8.28933 51.513 8.392C51.5597 8.49467 51.6017 8.59733 51.639 8.7C51.6857 8.83067 51.7323 8.96133 51.779 9.092C51.835 9.22267 51.8957 9.35333 51.961 9.484L52.003 9.638C52.0123 9.67533 52.0217 9.71267 52.031 9.75C52.0497 9.78733 52.0637 9.82467 52.073 9.862C52.0917 9.89 52.1057 9.918 52.115 9.946C52.1337 9.974 52.1523 9.99733 52.171 10.016C52.2177 10.0813 52.2457 10.1513 52.255 10.226C52.283 10.3193 52.325 10.4033 52.381 10.478C52.3997 10.506 52.4277 10.52 52.465 10.52C52.605 10.5013 52.745 10.4873 52.885 10.478C53.025 10.4593 53.165 10.4313 53.305 10.394C53.4077 10.366 53.5057 10.352 53.599 10.352C53.7763 10.352 53.9397 10.4127 54.089 10.534C54.2663 10.674 54.3597 10.8513 54.369 11.066C54.369 11.1127 54.3737 11.15 54.383 11.178C54.383 11.2433 54.3643 11.2947 54.327 11.332C54.3177 11.36 54.299 11.388 54.271 11.416C54.2523 11.444 54.2337 11.472 54.215 11.5C54.1963 11.5373 54.1777 11.5653 54.159 11.584L54.075 11.654C54.0657 11.6727 54.0517 11.696 54.033 11.724C54.0143 11.7427 53.991 11.7567 53.963 11.766C53.9257 11.7753 53.8883 11.7893 53.851 11.808C53.8137 11.8173 53.7717 11.822 53.725 11.822C53.557 11.8407 53.4077 11.836 53.277 11.808H53.053C53.0343 11.808 53.0063 11.8173 52.969 11.836C52.9317 11.8547 52.913 11.878 52.913 11.906V11.962C52.941 12.046 52.9597 12.1347 52.969 12.228C52.9877 12.312 53.0157 12.3913 53.053 12.466C53.053 12.5033 53.0623 12.5407 53.081 12.578C53.1277 12.662 53.165 12.7507 53.193 12.844C53.221 12.928 53.2443 13.0167 53.263 13.11C53.263 13.1287 53.2723 13.166 53.291 13.222C53.319 13.2873 53.3423 13.3573 53.361 13.432C53.3797 13.4973 53.3937 13.5673 53.403 13.642C53.403 13.698 53.417 13.7493 53.445 13.796C53.4823 13.88 53.5103 13.964 53.529 14.048C53.5477 14.132 53.5617 14.2207 53.571 14.314C53.5803 14.3233 53.585 14.342 53.585 14.37C53.585 14.3887 53.5897 14.4073 53.599 14.426C53.6457 14.5287 53.6783 14.6407 53.697 14.762C53.7157 14.874 53.739 14.986 53.767 15.098C53.7857 15.154 53.795 15.21 53.795 15.266C53.8043 15.3313 53.809 15.3967 53.809 15.462C53.809 15.5087 53.795 15.56 53.767 15.616C53.739 15.644 53.725 15.658 53.725 15.658C53.669 15.6673 53.6363 15.7 53.627 15.756L53.585 15.84C53.5663 15.8773 53.5383 15.9007 53.501 15.91C53.4637 15.91 53.431 15.924 53.403 15.952C53.3657 15.9893 53.3143 16.008 53.249 16.008C53.2117 16.008 53.165 16.008 53.109 16.008C53.0623 16.008 53.0157 16.0127 52.969 16.022ZM49.595 10.94C49.651 10.9307 49.707 10.9213 49.763 10.912C49.8283 10.9027 49.8983 10.8933 49.973 10.884C50.0197 10.8747 50.0803 10.8653 50.155 10.856C50.2297 10.8467 50.2997 10.8373 50.365 10.828C50.4303 10.8093 50.4957 10.8 50.561 10.8C50.6263 10.7907 50.6917 10.7813 50.757 10.772C50.813 10.7533 50.869 10.744 50.925 10.744C50.981 10.7347 51.037 10.7253 51.093 10.716C51.177 10.6973 51.2097 10.6507 51.191 10.576C51.1817 10.5013 51.163 10.4267 51.135 10.352C51.1163 10.268 51.0743 10.198 51.009 10.142C50.9903 10.1233 50.981 10.0953 50.981 10.058V10.016C50.9623 9.94133 50.939 9.87133 50.911 9.806C50.8923 9.73133 50.869 9.66133 50.841 9.596C50.8223 9.52133 50.799 9.456 50.771 9.4C50.7523 9.33467 50.729 9.26933 50.701 9.204L50.533 8.7C50.505 8.63467 50.477 8.56933 50.449 8.504C50.4303 8.43867 50.4117 8.37333 50.393 8.308L50.351 8.252H50.309L50.281 8.294C50.2343 8.434 50.1783 8.574 50.113 8.714C50.057 8.854 50.0057 9.00333 49.959 9.162C49.959 9.18067 49.9543 9.204 49.945 9.232C49.9357 9.26 49.9263 9.288 49.917 9.316C49.8797 9.40933 49.8423 9.512 49.805 9.624C49.777 9.736 49.7537 9.848 49.735 9.96C49.7257 10.0253 49.7163 10.0907 49.707 10.156C49.6977 10.212 49.6837 10.2727 49.665 10.338L49.539 10.884C49.5297 10.8933 49.5343 10.9073 49.553 10.926C49.5717 10.9353 49.5857 10.94 49.595 10.94Z" fill="black"/>
<path d="M61.84 15V5.19H58.06V4.5H66.385V5.19H62.605V15H61.84ZM67.8653 10.395H72.5003V11.04H67.8653V10.395ZM68.0003 14.355H73.2203V15H67.2503V6.555H73.0403V7.215H68.0003V14.355ZM73.3475 15L77.2625 6.555H78.0125L81.9425 15H81.1625L77.5025 7.005H77.7875L74.1125 15H73.3475ZM74.8775 12.66L75.1175 12.03H80.0825L80.3225 12.66H74.8775ZM82.9476 15V6.555H83.5926L87.5076 13.2H87.2076L91.0776 6.555H91.7376V15H91.0026V7.71H91.1526L87.5226 13.89H87.1626L83.4876 7.71H83.6826V15H82.9476Z" fill="black"/>
</svg>
