<svg width="20" height="20" viewBox="0 0 20 20" fill="none" xmlns="http://www.w3.org/2000/svg">
<g clip-path="url(#clip0_3667_246)">
<path fill-rule="evenodd" clip-rule="evenodd" d="M18.1995 5.04699C18.3595 4.07642 17.3876 3.30981 16.481 3.69153L2.23081 9.69167C1.23713 10.11 1.18621 11.5465 2.23152 11.9798C3.00492 12.3004 4.18856 12.7705 5.37566 13.1619C6.34939 13.4829 7.41087 13.7809 8.26123 13.8653C8.49404 14.1438 8.78704 14.4113 9.08471 14.656C9.54054 15.0309 10.0895 15.4177 10.656 15.7879C11.7907 16.5293 13.0497 17.2387 13.8983 17.6997C14.9124 18.2505 16.1264 17.6163 16.3087 16.5109L18.1995 5.04699ZM3.829 10.8271L16.4321 5.52049L14.6674 16.2207C13.8353 15.7683 12.6358 15.0906 11.5677 14.3928C11.0274 14.0396 10.5339 13.6899 10.1433 13.3688C10.0042 13.2543 9.88646 13.1502 9.78837 13.0569L13.0893 9.75592C13.4147 9.4305 13.4147 8.90283 13.0893 8.57742C12.7639 8.25198 12.2362 8.25198 11.9108 8.57742L8.29559 12.1926C7.68439 12.1144 6.83236 11.8873 5.89753 11.5791C5.1781 11.3418 4.45474 11.0724 3.829 10.8271Z" fill="white"/>
</g>
<defs>
<clipPath id="clip0_3667_246">
<rect width="20" height="20" fill="white"/>
</clipPath>
</defs>
</svg>
