<svg width="464" height="229" viewBox="0 0 464 229" fill="none" xmlns="http://www.w3.org/2000/svg">
<g filter="url(#filter0_d_3667_221)">
<rect x="40" y="30" width="383.508" height="149" rx="12" fill="white"/>
</g>
<rect x="54.9808" y="45" width="41.9462" height="42" rx="7" fill="#F6F6F6"/>
<g clip-path="url(#clip0_3667_221)">
<path d="M76 54.1333C79.5333 55.1333 83.4 56.3333 85.3333 57V67.4666C85.3333 69.7333 82.8667 73.7333 76 77.7333C69.1333 73.6666 66.6667 69.7333 66.6667 67.4666V57C68.6 56.2666 72.4667 55.1333 76 54.1333ZM76 51.3333C76 51.3333 64 54.7333 64 55.3333V67.4666C64 73.6 72.8667 79 75.3333 80.4666C75.5307 80.5985 75.7627 80.6689 76 80.6689C76.2373 80.6689 76.4693 80.5985 76.6667 80.4666C79.2 79.0666 88 73.6 88 67.4666V55.3333C88 54.7333 76 51.3333 76 51.3333Z" fill="#34E1E1"/>
<path d="M73.0667 69.6L69.7333 66.3333C69.5023 66.0972 69.3623 65.7871 69.3379 65.4577C69.3135 65.1283 69.4063 64.8009 69.6 64.5333C69.7079 64.3726 69.8512 64.2388 70.0189 64.1422C70.1866 64.0455 70.3741 63.9885 70.5673 63.9757C70.7604 63.9628 70.9539 63.9943 71.1329 64.0679C71.3119 64.1414 71.4717 64.255 71.6 64.4L74 66.8L80.4 60.4C80.6568 60.2074 80.9744 60.1139 81.2945 60.1367C81.6147 60.1594 81.9159 60.2969 82.1428 60.5238C82.3698 60.7508 82.5072 61.052 82.53 61.3721C82.5527 61.6923 82.4592 62.0099 82.2667 62.2666L74.9333 69.6C74.8147 69.7293 74.6704 69.8325 74.5098 69.9032C74.3491 69.9738 74.1755 70.0103 74 70.0103C73.8245 70.0103 73.6509 69.9738 73.4902 69.9032C73.3296 69.8325 73.1853 69.7293 73.0667 69.6Z" fill="#34E1E1"/>
</g>
<path d="M63.4205 108.636C63.4205 109.557 63.2543 110.352 62.9219 111.023C62.5895 111.693 62.1335 112.21 61.554 112.574C60.9744 112.938 60.3125 113.119 59.5682 113.119C58.8239 113.119 58.1619 112.938 57.5824 112.574C57.0028 112.21 56.5469 111.693 56.2145 111.023C55.8821 110.352 55.7159 109.557 55.7159 108.636C55.7159 107.716 55.8821 106.92 56.2145 106.25C56.5469 105.58 57.0028 105.062 57.5824 104.699C58.1619 104.335 58.8239 104.153 59.5682 104.153C60.3125 104.153 60.9744 104.335 61.554 104.699C62.1335 105.062 62.5895 105.58 62.9219 106.25C63.2543 106.92 63.4205 107.716 63.4205 108.636ZM62.3977 108.636C62.3977 107.881 62.2713 107.243 62.0185 106.723C61.7685 106.203 61.429 105.81 61 105.543C60.5739 105.276 60.0966 105.142 59.5682 105.142C59.0398 105.142 58.5611 105.276 58.1321 105.543C57.706 105.81 57.3665 106.203 57.1136 106.723C56.8636 107.243 56.7386 107.881 56.7386 108.636C56.7386 109.392 56.8636 110.03 57.1136 110.55C57.3665 111.07 57.706 111.463 58.1321 111.73C58.5611 111.997 59.0398 112.131 59.5682 112.131C60.0966 112.131 60.5739 111.997 61 111.73C61.429 111.463 61.7685 111.07 62.0185 110.55C62.2713 110.03 62.3977 109.392 62.3977 108.636ZM70.519 104L71.0304 104.614C70.8315 104.807 70.6014 104.942 70.3401 105.018C70.0787 105.095 69.7832 105.142 69.4537 105.159C69.1241 105.176 68.7577 105.193 68.3543 105.21C67.8997 105.227 67.5233 105.338 67.225 105.543C66.9267 105.747 66.6966 106.043 66.5347 106.429C66.3727 106.815 66.269 107.29 66.2236 107.852H66.3088C66.5304 107.443 66.8372 107.142 67.2293 106.949C67.6213 106.756 68.0418 106.659 68.4906 106.659C69.002 106.659 69.4622 106.778 69.8713 107.017C70.2804 107.256 70.6043 107.609 70.8429 108.078C71.0815 108.547 71.2009 109.125 71.2009 109.812C71.2009 110.497 71.0787 111.088 70.8344 111.585C70.5929 112.082 70.2534 112.466 69.8159 112.736C69.3813 113.003 68.8713 113.136 68.2861 113.136C67.7009 113.136 67.1881 112.999 66.7477 112.723C66.3074 112.445 65.9651 112.033 65.7207 111.487C65.4764 110.939 65.3543 110.261 65.3543 109.455V108.756C65.3543 107.298 65.6014 106.193 66.0957 105.44C66.5929 104.687 67.3401 104.298 68.3372 104.273C68.6895 104.261 69.0034 104.259 69.279 104.264C69.5545 104.27 69.7946 104.257 69.9991 104.226C70.2037 104.195 70.377 104.119 70.519 104ZM68.2861 112.233C68.681 112.233 69.0205 112.134 69.3045 111.935C69.5915 111.736 69.8116 111.456 69.9651 111.095C70.1185 110.732 70.1952 110.304 70.1952 109.812C70.1952 109.335 70.117 108.929 69.9608 108.594C69.8074 108.259 69.5872 108.003 69.3003 107.827C69.0134 107.651 68.6696 107.562 68.269 107.562C67.9764 107.562 67.7136 107.612 67.4807 107.712C67.2477 107.811 67.0489 107.957 66.8841 108.151C66.7193 108.344 66.5915 108.58 66.5006 108.858C66.4125 109.136 66.3656 109.455 66.3599 109.812C66.3599 110.545 66.5318 111.132 66.8756 111.572C67.2193 112.013 67.6895 112.233 68.2861 112.233ZM76.0835 113.136C75.4528 113.136 74.9088 112.997 74.4514 112.719C73.9969 112.438 73.646 112.045 73.3989 111.543C73.1545 111.037 73.0324 110.449 73.0324 109.778C73.0324 109.108 73.1545 108.517 73.3989 108.006C73.646 107.491 73.9898 107.091 74.4301 106.804C74.8733 106.514 75.3903 106.369 75.9813 106.369C76.3222 106.369 76.6588 106.426 76.9912 106.54C77.3236 106.653 77.6261 106.838 77.8989 107.094C78.1716 107.347 78.3889 107.682 78.5509 108.099C78.7128 108.517 78.7938 109.031 78.7938 109.642V110.068H73.7483V109.199H77.771C77.771 108.83 77.6972 108.5 77.5494 108.21C77.4045 107.92 77.1972 107.692 76.9273 107.524C76.6602 107.357 76.3449 107.273 75.9813 107.273C75.5807 107.273 75.2341 107.372 74.9415 107.571C74.6517 107.767 74.4287 108.023 74.2724 108.338C74.1162 108.653 74.0381 108.991 74.0381 109.352V109.932C74.0381 110.426 74.1233 110.845 74.2938 111.189C74.467 111.53 74.7071 111.79 75.0139 111.969C75.3207 112.145 75.6773 112.233 76.0835 112.233C76.3477 112.233 76.5864 112.196 76.7994 112.122C77.0153 112.045 77.2014 111.932 77.3577 111.781C77.5139 111.628 77.6347 111.437 77.7199 111.21L78.6915 111.483C78.5892 111.812 78.4173 112.102 78.1759 112.352C77.9344 112.599 77.6361 112.793 77.281 112.932C76.9259 113.068 76.5267 113.136 76.0835 113.136ZM83.5827 113.136C82.969 113.136 82.4406 112.991 81.9974 112.702C81.5543 112.412 81.2134 112.013 80.9747 111.504C80.7361 110.996 80.6168 110.415 80.6168 109.761C80.6168 109.097 80.7389 108.51 80.9832 108.001C81.2304 107.49 81.5741 107.091 82.0145 106.804C82.4577 106.514 82.9747 106.369 83.5656 106.369C84.0259 106.369 84.4406 106.455 84.8099 106.625C85.1793 106.795 85.4818 107.034 85.7176 107.341C85.9534 107.648 86.0997 108.006 86.1565 108.415H85.1509C85.0741 108.116 84.9037 107.852 84.6395 107.622C84.3781 107.389 84.0259 107.273 83.5827 107.273C83.1906 107.273 82.8469 107.375 82.5514 107.58C82.2588 107.781 82.0301 108.067 81.8653 108.436C81.7034 108.803 81.6224 109.233 81.6224 109.727C81.6224 110.233 81.702 110.673 81.8611 111.048C82.023 111.423 82.2503 111.714 82.5429 111.922C82.8384 112.129 83.1849 112.233 83.5827 112.233C83.844 112.233 84.0812 112.188 84.2943 112.097C84.5074 112.006 84.6878 111.875 84.8355 111.705C84.9832 111.534 85.0884 111.33 85.1509 111.091H86.1565C86.0997 111.477 85.9591 111.825 85.7347 112.135C85.5131 112.442 85.219 112.686 84.8526 112.868C84.4889 113.047 84.0656 113.136 83.5827 113.136ZM88.2267 113V106.455H93.3744V113H92.3688V107.392H89.2324V113H88.2267ZM98.5554 113.136C97.9247 113.136 97.3807 112.997 96.9233 112.719C96.4688 112.438 96.1179 112.045 95.8707 111.543C95.6264 111.037 95.5043 110.449 95.5043 109.778C95.5043 109.108 95.6264 108.517 95.8707 108.006C96.1179 107.491 96.4616 107.091 96.902 106.804C97.3452 106.514 97.8622 106.369 98.4531 106.369C98.794 106.369 99.1307 106.426 99.4631 106.54C99.7955 106.653 100.098 106.838 100.371 107.094C100.643 107.347 100.861 107.682 101.023 108.099C101.185 108.517 101.266 109.031 101.266 109.642V110.068H96.2202V109.199H100.243C100.243 108.83 100.169 108.5 100.021 108.21C99.8764 107.92 99.669 107.692 99.3991 107.524C99.1321 107.357 98.8168 107.273 98.4531 107.273C98.0526 107.273 97.706 107.372 97.4134 107.571C97.1236 107.767 96.9006 108.023 96.7443 108.338C96.5881 108.653 96.5099 108.991 96.5099 109.352V109.932C96.5099 110.426 96.5952 110.845 96.7656 111.189C96.9389 111.53 97.179 111.79 97.4858 111.969C97.7926 112.145 98.1491 112.233 98.5554 112.233C98.8196 112.233 99.0582 112.196 99.2713 112.122C99.4872 112.045 99.6733 111.932 99.8295 111.781C99.9858 111.628 100.107 111.437 100.192 111.21L101.163 111.483C101.061 111.812 100.889 112.102 100.648 112.352C100.406 112.599 100.108 112.793 99.7528 112.932C99.3977 113.068 98.9986 113.136 98.5554 113.136ZM108.441 106.455V113H107.435V106.455H108.441ZM108.049 109.574V110.511C107.822 110.597 107.596 110.672 107.371 110.737C107.147 110.8 106.911 110.849 106.664 110.886C106.417 110.92 106.145 110.938 105.85 110.938C105.109 110.938 104.513 110.737 104.064 110.337C103.618 109.936 103.395 109.335 103.395 108.534V106.438H104.401V108.534C104.401 108.869 104.465 109.145 104.593 109.361C104.721 109.577 104.894 109.737 105.113 109.842C105.332 109.947 105.577 110 105.85 110C106.276 110 106.661 109.962 107.005 109.885C107.351 109.805 107.699 109.702 108.049 109.574ZM113.63 113.136C113 113.136 112.456 112.997 111.998 112.719C111.544 112.438 111.193 112.045 110.946 111.543C110.701 111.037 110.579 110.449 110.579 109.778C110.579 109.108 110.701 108.517 110.946 108.006C111.193 107.491 111.537 107.091 111.977 106.804C112.42 106.514 112.937 106.369 113.528 106.369C113.869 106.369 114.206 106.426 114.538 106.54C114.87 106.653 115.173 106.838 115.446 107.094C115.718 107.347 115.936 107.682 116.098 108.099C116.26 108.517 116.341 109.031 116.341 109.642V110.068H111.295V109.199H115.318C115.318 108.83 115.244 108.5 115.096 108.21C114.951 107.92 114.744 107.692 114.474 107.524C114.207 107.357 113.892 107.273 113.528 107.273C113.128 107.273 112.781 107.372 112.488 107.571C112.199 107.767 111.976 108.023 111.819 108.338C111.663 108.653 111.585 108.991 111.585 109.352V109.932C111.585 110.426 111.67 110.845 111.841 111.189C112.014 111.53 112.254 111.79 112.561 111.969C112.868 112.145 113.224 112.233 113.63 112.233C113.895 112.233 114.133 112.196 114.346 112.122C114.562 112.045 114.748 111.932 114.905 111.781C115.061 111.628 115.182 111.437 115.267 111.21L116.238 111.483C116.136 111.812 115.964 112.102 115.723 112.352C115.481 112.599 115.183 112.793 114.828 112.932C114.473 113.068 114.074 113.136 113.63 113.136ZM122.851 109.267V110.205H119.237V109.267H122.851ZM119.476 106.455V113H118.47V106.455H119.476ZM123.618 106.455V113H122.612V106.455H123.618ZM127.061 111.517L130.214 106.455H131.373V113H130.367V107.938L127.231 113H126.055V106.455H127.061V111.517ZM136.559 113.136C135.929 113.136 135.385 112.997 134.927 112.719C134.473 112.438 134.122 112.045 133.875 111.543C133.63 111.037 133.508 110.449 133.508 109.778C133.508 109.108 133.63 108.517 133.875 108.006C134.122 107.491 134.466 107.091 134.906 106.804C135.349 106.514 135.866 106.369 136.457 106.369C136.798 106.369 137.135 106.426 137.467 106.54C137.799 106.653 138.102 106.838 138.375 107.094C138.647 107.347 138.865 107.682 139.027 108.099C139.189 108.517 139.27 109.031 139.27 109.642V110.068H134.224V109.199H138.247C138.247 108.83 138.173 108.5 138.025 108.21C137.88 107.92 137.673 107.692 137.403 107.524C137.136 107.357 136.821 107.273 136.457 107.273C136.056 107.273 135.71 107.372 135.417 107.571C135.127 107.767 134.904 108.023 134.748 108.338C134.592 108.653 134.514 108.991 134.514 109.352V109.932C134.514 110.426 134.599 110.845 134.77 111.189C134.943 111.53 135.183 111.79 135.49 111.969C135.797 112.145 136.153 112.233 136.559 112.233C136.824 112.233 137.062 112.196 137.275 112.122C137.491 112.045 137.677 111.932 137.833 111.781C137.99 111.628 138.11 111.437 138.196 111.21L139.167 111.483C139.065 111.812 138.893 112.102 138.652 112.352C138.41 112.599 138.112 112.793 137.757 112.932C137.402 113.068 137.002 113.136 136.559 113.136ZM144.965 111.33H146.039C146.062 111.625 146.195 111.849 146.44 112.003C146.687 112.156 147.008 112.233 147.403 112.233C147.806 112.233 148.151 112.151 148.438 111.986C148.725 111.818 148.869 111.548 148.869 111.176C148.869 110.957 148.815 110.767 148.707 110.605C148.599 110.44 148.447 110.312 148.251 110.222C148.055 110.131 147.823 110.085 147.556 110.085H146.431V109.182H147.556C147.957 109.182 148.252 109.091 148.443 108.909C148.636 108.727 148.732 108.5 148.732 108.227C148.732 107.935 148.629 107.7 148.421 107.524C148.214 107.345 147.92 107.256 147.539 107.256C147.156 107.256 146.836 107.342 146.58 107.516C146.325 107.686 146.19 107.906 146.175 108.176H145.119C145.13 107.824 145.238 107.513 145.443 107.243C145.647 106.97 145.925 106.757 146.278 106.604C146.63 106.447 147.033 106.369 147.488 106.369C147.948 106.369 148.347 106.45 148.685 106.612C149.026 106.771 149.289 106.989 149.474 107.264C149.661 107.537 149.755 107.847 149.755 108.193C149.755 108.562 149.651 108.861 149.444 109.088C149.237 109.315 148.977 109.477 148.664 109.574V109.642C148.911 109.659 149.126 109.739 149.308 109.881C149.492 110.02 149.636 110.203 149.738 110.43C149.84 110.655 149.891 110.903 149.891 111.176C149.891 111.574 149.785 111.92 149.572 112.216C149.359 112.509 149.066 112.736 148.694 112.898C148.322 113.057 147.897 113.136 147.42 113.136C146.957 113.136 146.542 113.061 146.175 112.911C145.809 112.757 145.518 112.545 145.302 112.276C145.089 112.003 144.977 111.688 144.965 111.33ZM153.83 113.153C153.415 113.153 153.039 113.075 152.701 112.919C152.363 112.76 152.094 112.531 151.896 112.233C151.697 111.932 151.597 111.568 151.597 111.142C151.597 110.767 151.671 110.463 151.819 110.23C151.967 109.994 152.164 109.81 152.411 109.676C152.658 109.543 152.931 109.443 153.229 109.378C153.53 109.31 153.833 109.256 154.137 109.216C154.535 109.165 154.857 109.126 155.104 109.101C155.354 109.072 155.536 109.026 155.65 108.96C155.766 108.895 155.825 108.781 155.825 108.619V108.585C155.825 108.165 155.709 107.838 155.479 107.605C155.252 107.372 154.907 107.256 154.444 107.256C153.964 107.256 153.587 107.361 153.315 107.571C153.042 107.781 152.85 108.006 152.739 108.244L151.785 107.903C151.955 107.506 152.182 107.196 152.467 106.974C152.753 106.75 153.066 106.594 153.404 106.506C153.745 106.415 154.08 106.369 154.41 106.369C154.62 106.369 154.861 106.395 155.134 106.446C155.41 106.494 155.675 106.595 155.931 106.749C156.19 106.902 156.404 107.134 156.575 107.443C156.745 107.753 156.83 108.168 156.83 108.688V113H155.825V112.114H155.773C155.705 112.256 155.592 112.408 155.432 112.57C155.273 112.732 155.062 112.869 154.798 112.983C154.533 113.097 154.211 113.153 153.83 113.153ZM153.984 112.25C154.381 112.25 154.717 112.172 154.989 112.016C155.265 111.859 155.472 111.658 155.611 111.411C155.753 111.163 155.825 110.903 155.825 110.631V109.71C155.782 109.761 155.688 109.808 155.543 109.851C155.401 109.891 155.236 109.926 155.049 109.957C154.864 109.986 154.684 110.011 154.508 110.034C154.334 110.054 154.194 110.071 154.086 110.085C153.825 110.119 153.58 110.175 153.353 110.251C153.128 110.325 152.947 110.437 152.807 110.588C152.671 110.736 152.603 110.937 152.603 111.193C152.603 111.543 152.732 111.807 152.991 111.986C153.252 112.162 153.583 112.25 153.984 112.25ZM168.198 112.062L168.078 114.875H167.038V113H166.186V112.062H168.198ZM159.266 106.455H160.271V112.062H162.743V106.455H163.749V112.062H166.22V106.455H167.226V113H159.266V106.455ZM171.266 111.517L174.419 106.455H175.578V113H174.573V107.938L171.436 113H170.26V106.455H171.266V111.517ZM177.13 107.392V106.455H182.448V107.392H180.3V113H179.295V107.392H177.13ZM185.384 108.824H187.259C188.026 108.824 188.613 109.018 189.019 109.408C189.425 109.797 189.629 110.29 189.629 110.886C189.629 111.278 189.538 111.635 189.356 111.956C189.174 112.274 188.907 112.528 188.555 112.719C188.202 112.906 187.771 113 187.259 113H184.515V106.455H185.521V112.062H187.259C187.657 112.062 187.984 111.957 188.239 111.747C188.495 111.537 188.623 111.267 188.623 110.938C188.623 110.591 188.495 110.308 188.239 110.089C187.984 109.871 187.657 109.761 187.259 109.761H185.384V108.824ZM190.668 113V106.455H191.674V113H190.668ZM198.09 113V106.455H203.238V113H202.232V107.392H199.096V113H198.09ZM208.333 113.136C207.743 113.136 207.224 112.996 206.778 112.714C206.335 112.433 205.988 112.04 205.738 111.534C205.491 111.028 205.368 110.437 205.368 109.761C205.368 109.08 205.491 108.484 205.738 107.976C205.988 107.467 206.335 107.072 206.778 106.791C207.224 106.51 207.743 106.369 208.333 106.369C208.924 106.369 209.441 106.51 209.885 106.791C210.331 107.072 210.677 107.467 210.924 107.976C211.174 108.484 211.299 109.08 211.299 109.761C211.299 110.437 211.174 111.028 210.924 111.534C210.677 112.04 210.331 112.433 209.885 112.714C209.441 112.996 208.924 113.136 208.333 113.136ZM208.333 112.233C208.782 112.233 209.152 112.118 209.441 111.888C209.731 111.658 209.946 111.355 210.085 110.98C210.224 110.605 210.294 110.199 210.294 109.761C210.294 109.324 210.224 108.916 210.085 108.538C209.946 108.161 209.731 107.855 209.441 107.622C209.152 107.389 208.782 107.273 208.333 107.273C207.885 107.273 207.515 107.389 207.225 107.622C206.936 107.855 206.721 108.161 206.582 108.538C206.443 108.916 206.373 109.324 206.373 109.761C206.373 110.199 206.443 110.605 206.582 110.98C206.721 111.355 206.936 111.658 207.225 111.888C207.515 112.118 207.885 112.233 208.333 112.233ZM212.855 113V112.062H213.094C213.29 112.062 213.453 112.024 213.584 111.947C213.714 111.868 213.819 111.73 213.899 111.534C213.981 111.335 214.044 111.06 214.087 110.707C214.132 110.352 214.165 109.901 214.185 109.352L214.304 106.455H218.667V113H217.662V107.392H215.258L215.156 109.727C215.133 110.264 215.085 110.737 215.011 111.146C214.94 111.553 214.831 111.893 214.683 112.169C214.538 112.445 214.345 112.652 214.104 112.791C213.862 112.93 213.56 113 213.196 113H212.855ZM221.982 108.824H223.857C224.624 108.824 225.211 109.018 225.617 109.408C226.023 109.797 226.226 110.29 226.226 110.886C226.226 111.278 226.135 111.635 225.954 111.956C225.772 112.274 225.505 112.528 225.152 112.719C224.8 112.906 224.368 113 223.857 113H221.113V106.455H222.118V112.062H223.857C224.255 112.062 224.581 111.957 224.837 111.747C225.093 111.537 225.221 111.267 225.221 110.938C225.221 110.591 225.093 110.308 224.837 110.089C224.581 109.871 224.255 109.761 223.857 109.761H221.982V108.824ZM227.948 111.33H229.022C229.045 111.625 229.178 111.849 229.423 112.003C229.67 112.156 229.991 112.233 230.386 112.233C230.789 112.233 231.134 112.151 231.421 111.986C231.708 111.818 231.851 111.548 231.851 111.176C231.851 110.957 231.798 110.767 231.69 110.605C231.582 110.44 231.43 110.312 231.234 110.222C231.038 110.131 230.806 110.085 230.539 110.085H229.414V109.182H230.539C230.94 109.182 231.235 109.091 231.425 108.909C231.619 108.727 231.715 108.5 231.715 108.227C231.715 107.935 231.611 107.7 231.404 107.524C231.197 107.345 230.903 107.256 230.522 107.256C230.138 107.256 229.819 107.342 229.563 107.516C229.307 107.686 229.173 107.906 229.158 108.176H228.101C228.113 107.824 228.221 107.513 228.425 107.243C228.63 106.97 228.908 106.757 229.261 106.604C229.613 106.447 230.016 106.369 230.471 106.369C230.931 106.369 231.33 106.45 231.668 106.612C232.009 106.771 232.272 106.989 232.457 107.264C232.644 107.537 232.738 107.847 232.738 108.193C232.738 108.562 232.634 108.861 232.427 109.088C232.219 109.315 231.959 109.477 231.647 109.574V109.642C231.894 109.659 232.109 109.739 232.29 109.881C232.475 110.02 232.619 110.203 232.721 110.43C232.823 110.655 232.874 110.903 232.874 111.176C232.874 111.574 232.768 111.92 232.555 112.216C232.342 112.509 232.049 112.736 231.677 112.898C231.305 113.057 230.88 113.136 230.403 113.136C229.94 113.136 229.525 113.061 229.158 112.911C228.792 112.757 228.501 112.545 228.285 112.276C228.072 112.003 227.959 111.688 227.948 111.33ZM237.546 113.136C236.955 113.136 236.437 112.996 235.991 112.714C235.547 112.433 235.201 112.04 234.951 111.534C234.704 111.028 234.58 110.437 234.58 109.761C234.58 109.08 234.704 108.484 234.951 107.976C235.201 107.467 235.547 107.072 235.991 106.791C236.437 106.51 236.955 106.369 237.546 106.369C238.137 106.369 238.654 106.51 239.097 106.791C239.543 107.072 239.89 107.467 240.137 107.976C240.387 108.484 240.512 109.08 240.512 109.761C240.512 110.437 240.387 111.028 240.137 111.534C239.89 112.04 239.543 112.433 239.097 112.714C238.654 112.996 238.137 113.136 237.546 113.136ZM237.546 112.233C237.995 112.233 238.364 112.118 238.654 111.888C238.944 111.658 239.158 111.355 239.297 110.98C239.437 110.605 239.506 110.199 239.506 109.761C239.506 109.324 239.437 108.916 239.297 108.538C239.158 108.161 238.944 107.855 238.654 107.622C238.364 107.389 237.995 107.273 237.546 107.273C237.097 107.273 236.728 107.389 236.438 107.622C236.148 107.855 235.934 108.161 235.795 108.538C235.655 108.916 235.586 109.324 235.586 109.761C235.586 110.199 235.655 110.605 235.795 110.98C235.934 111.355 236.148 111.658 236.438 111.888C236.728 112.118 237.097 112.233 237.546 112.233ZM242.647 113V106.455H245.323C246.028 106.455 246.587 106.614 247.002 106.932C247.417 107.25 247.624 107.67 247.624 108.193C247.624 108.591 247.506 108.899 247.271 109.118C247.035 109.334 246.732 109.48 246.363 109.557C246.604 109.591 246.839 109.676 247.066 109.812C247.296 109.949 247.487 110.136 247.637 110.375C247.788 110.611 247.863 110.901 247.863 111.244C247.863 111.58 247.778 111.879 247.607 112.143C247.437 112.408 247.192 112.616 246.874 112.77C246.556 112.923 246.175 113 245.732 113H242.647ZM243.602 112.08H245.732C246.079 112.08 246.35 111.997 246.546 111.832C246.742 111.668 246.84 111.443 246.84 111.159C246.84 110.821 246.742 110.555 246.546 110.362C246.35 110.166 246.079 110.068 245.732 110.068H243.602V112.08ZM243.602 109.199H245.323C245.593 109.199 245.825 109.162 246.018 109.088C246.211 109.011 246.359 108.903 246.461 108.764C246.566 108.622 246.619 108.455 246.619 108.261C246.619 107.986 246.504 107.77 246.273 107.614C246.043 107.455 245.727 107.375 245.323 107.375H243.602V109.199ZM251.911 113.153C251.497 113.153 251.12 113.075 250.782 112.919C250.444 112.76 250.176 112.531 249.977 112.233C249.778 111.932 249.678 111.568 249.678 111.142C249.678 110.767 249.752 110.463 249.9 110.23C250.048 109.994 250.245 109.81 250.492 109.676C250.74 109.543 251.012 109.443 251.311 109.378C251.612 109.31 251.914 109.256 252.218 109.216C252.616 109.165 252.938 109.126 253.186 109.101C253.436 109.072 253.617 109.026 253.731 108.96C253.848 108.895 253.906 108.781 253.906 108.619V108.585C253.906 108.165 253.791 107.838 253.561 107.605C253.333 107.372 252.988 107.256 252.525 107.256C252.045 107.256 251.669 107.361 251.396 107.571C251.123 107.781 250.931 108.006 250.821 108.244L249.866 107.903C250.036 107.506 250.264 107.196 250.548 106.974C250.835 106.75 251.147 106.594 251.485 106.506C251.826 106.415 252.161 106.369 252.491 106.369C252.701 106.369 252.943 106.395 253.215 106.446C253.491 106.494 253.757 106.595 254.012 106.749C254.271 106.902 254.485 107.134 254.656 107.443C254.826 107.753 254.911 108.168 254.911 108.688V113H253.906V112.114H253.855C253.786 112.256 253.673 112.408 253.514 112.57C253.355 112.732 253.143 112.869 252.879 112.983C252.615 113.097 252.292 113.153 251.911 113.153ZM252.065 112.25C252.463 112.25 252.798 112.172 253.071 112.016C253.346 111.859 253.553 111.658 253.693 111.411C253.835 111.163 253.906 110.903 253.906 110.631V109.71C253.863 109.761 253.769 109.808 253.625 109.851C253.482 109.891 253.318 109.926 253.13 109.957C252.946 109.986 252.765 110.011 252.589 110.034C252.416 110.054 252.275 110.071 252.167 110.085C251.906 110.119 251.661 110.175 251.434 110.251C251.21 110.325 251.028 110.437 250.889 110.588C250.752 110.736 250.684 110.937 250.684 111.193C250.684 111.543 250.813 111.807 251.072 111.986C251.333 112.162 251.664 112.25 252.065 112.25ZM256.456 107.392V106.455H261.775V107.392H259.627V113H258.621V107.392H256.456ZM266.246 113.136C265.615 113.136 265.071 112.997 264.614 112.719C264.159 112.438 263.809 112.045 263.561 111.543C263.317 111.037 263.195 110.449 263.195 109.778C263.195 109.108 263.317 108.517 263.561 108.006C263.809 107.491 264.152 107.091 264.593 106.804C265.036 106.514 265.553 106.369 266.144 106.369C266.485 106.369 266.821 106.426 267.154 106.54C267.486 106.653 267.789 106.838 268.061 107.094C268.334 107.347 268.551 107.682 268.713 108.099C268.875 108.517 268.956 109.031 268.956 109.642V110.068H263.911V109.199H267.934C267.934 108.83 267.86 108.5 267.712 108.21C267.567 107.92 267.36 107.692 267.09 107.524C266.823 107.357 266.507 107.273 266.144 107.273C265.743 107.273 265.397 107.372 265.104 107.571C264.814 107.767 264.591 108.023 264.435 108.338C264.279 108.653 264.201 108.991 264.201 109.352V109.932C264.201 110.426 264.286 110.845 264.456 111.189C264.63 111.53 264.87 111.79 265.176 111.969C265.483 112.145 265.84 112.233 266.246 112.233C266.51 112.233 266.749 112.196 266.962 112.122C267.178 112.045 267.364 111.932 267.52 111.781C267.676 111.628 267.797 111.437 267.882 111.21L268.854 111.483C268.752 111.812 268.58 112.102 268.338 112.352C268.097 112.599 267.799 112.793 267.443 112.932C267.088 113.068 266.689 113.136 266.246 113.136ZM270.507 113V112.062H270.745C270.941 112.062 271.105 112.024 271.235 111.947C271.366 111.868 271.471 111.73 271.551 111.534C271.633 111.335 271.695 111.06 271.738 110.707C271.784 110.352 271.816 109.901 271.836 109.352L271.955 106.455H276.319V113H275.313V107.392H272.91L272.808 109.727C272.785 110.264 272.737 110.737 272.663 111.146C272.592 111.553 272.482 111.893 272.335 112.169C272.19 112.445 271.997 112.652 271.755 112.791C271.514 112.93 271.211 113 270.847 113H270.507ZM281.509 113.136C280.878 113.136 280.334 112.997 279.876 112.719C279.422 112.438 279.071 112.045 278.824 111.543C278.58 111.037 278.457 110.449 278.457 109.778C278.457 109.108 278.58 108.517 278.824 108.006C279.071 107.491 279.415 107.091 279.855 106.804C280.298 106.514 280.815 106.369 281.406 106.369C281.747 106.369 282.084 106.426 282.416 106.54C282.749 106.653 283.051 106.838 283.324 107.094C283.597 107.347 283.814 107.682 283.976 108.099C284.138 108.517 284.219 109.031 284.219 109.642V110.068H279.173V109.199H283.196C283.196 108.83 283.122 108.5 282.974 108.21C282.83 107.92 282.622 107.692 282.352 107.524C282.085 107.357 281.77 107.273 281.406 107.273C281.006 107.273 280.659 107.372 280.366 107.571C280.077 107.767 279.854 108.023 279.697 108.338C279.541 108.653 279.463 108.991 279.463 109.352V109.932C279.463 110.426 279.548 110.845 279.719 111.189C279.892 111.53 280.132 111.79 280.439 111.969C280.746 112.145 281.102 112.233 281.509 112.233C281.773 112.233 282.011 112.196 282.224 112.122C282.44 112.045 282.626 111.932 282.783 111.781C282.939 111.628 283.06 111.437 283.145 111.21L284.116 111.483C284.014 111.812 283.842 112.102 283.601 112.352C283.359 112.599 283.061 112.793 282.706 112.932C282.351 113.068 281.952 113.136 281.509 113.136ZM287.354 111.517L290.508 106.455H291.667V113H290.661V107.938L287.525 113H286.349V106.455H287.354V111.517ZM289.843 104.273H290.78C290.78 104.733 290.621 105.109 290.303 105.402C289.985 105.695 289.553 105.841 289.008 105.841C288.471 105.841 288.043 105.695 287.725 105.402C287.41 105.109 287.252 104.733 287.252 104.273H288.189C288.189 104.494 288.251 104.689 288.373 104.857C288.498 105.024 288.709 105.108 289.008 105.108C289.306 105.108 289.519 105.024 289.647 104.857C289.778 104.689 289.843 104.494 289.843 104.273ZM295.609 111.807L295.541 112.267C295.492 112.591 295.418 112.938 295.319 113.307C295.222 113.676 295.122 114.024 295.016 114.351C294.911 114.678 294.825 114.938 294.756 115.131H293.989C294.026 114.949 294.075 114.709 294.134 114.411C294.194 114.112 294.254 113.778 294.313 113.409C294.376 113.043 294.427 112.668 294.467 112.284L294.518 111.807H295.609ZM303.973 113.153C303.558 113.153 303.182 113.075 302.844 112.919C302.506 112.76 302.237 112.531 302.038 112.233C301.84 111.932 301.74 111.568 301.74 111.142C301.74 110.767 301.814 110.463 301.962 110.23C302.11 109.994 302.307 109.81 302.554 109.676C302.801 109.543 303.074 109.443 303.372 109.378C303.673 109.31 303.976 109.256 304.28 109.216C304.678 109.165 305 109.126 305.247 109.101C305.497 109.072 305.679 109.026 305.793 108.96C305.909 108.895 305.967 108.781 305.967 108.619V108.585C305.967 108.165 305.852 107.838 305.622 107.605C305.395 107.372 305.05 107.256 304.587 107.256C304.107 107.256 303.73 107.361 303.458 107.571C303.185 107.781 302.993 108.006 302.882 108.244L301.928 107.903C302.098 107.506 302.325 107.196 302.61 106.974C302.896 106.75 303.209 106.594 303.547 106.506C303.888 106.415 304.223 106.369 304.553 106.369C304.763 106.369 305.004 106.395 305.277 106.446C305.553 106.494 305.818 106.595 306.074 106.749C306.333 106.902 306.547 107.134 306.717 107.443C306.888 107.753 306.973 108.168 306.973 108.688V113H305.967V112.114H305.916C305.848 112.256 305.735 112.408 305.575 112.57C305.416 112.732 305.205 112.869 304.94 112.983C304.676 113.097 304.354 113.153 303.973 113.153ZM304.127 112.25C304.524 112.25 304.86 112.172 305.132 112.016C305.408 111.859 305.615 111.658 305.754 111.411C305.896 111.163 305.967 110.903 305.967 110.631V109.71C305.925 109.761 305.831 109.808 305.686 109.851C305.544 109.891 305.379 109.926 305.192 109.957C305.007 109.986 304.827 110.011 304.651 110.034C304.477 110.054 304.337 110.071 304.229 110.085C303.967 110.119 303.723 110.175 303.496 110.251C303.271 110.325 303.09 110.437 302.95 110.588C302.814 110.736 302.746 110.937 302.746 111.193C302.746 111.543 302.875 111.807 303.134 111.986C303.395 112.162 303.726 112.25 304.127 112.25ZM313.009 107.392V106.455H318.327V107.392H316.179V113H315.174V107.392H313.009ZM321.98 113.153C321.565 113.153 321.189 113.075 320.851 112.919C320.513 112.76 320.244 112.531 320.046 112.233C319.847 111.932 319.747 111.568 319.747 111.142C319.747 110.767 319.821 110.463 319.969 110.23C320.117 109.994 320.314 109.81 320.561 109.676C320.808 109.543 321.081 109.443 321.379 109.378C321.68 109.31 321.983 109.256 322.287 109.216C322.685 109.165 323.007 109.126 323.254 109.101C323.504 109.072 323.686 109.026 323.8 108.96C323.916 108.895 323.975 108.781 323.975 108.619V108.585C323.975 108.165 323.859 107.838 323.629 107.605C323.402 107.372 323.057 107.256 322.594 107.256C322.114 107.256 321.737 107.361 321.465 107.571C321.192 107.781 321 108.006 320.889 108.244L319.935 107.903C320.105 107.506 320.332 107.196 320.617 106.974C320.903 106.75 321.216 106.594 321.554 106.506C321.895 106.415 322.23 106.369 322.56 106.369C322.77 106.369 323.011 106.395 323.284 106.446C323.56 106.494 323.825 106.595 324.081 106.749C324.34 106.902 324.554 107.134 324.725 107.443C324.895 107.753 324.98 108.168 324.98 108.688V113H323.975V112.114H323.923C323.855 112.256 323.742 112.408 323.582 112.57C323.423 112.732 323.212 112.869 322.948 112.983C322.683 113.097 322.361 113.153 321.98 113.153ZM322.134 112.25C322.531 112.25 322.867 112.172 323.139 112.016C323.415 111.859 323.622 111.658 323.761 111.411C323.903 111.163 323.975 110.903 323.975 110.631V109.71C323.932 109.761 323.838 109.808 323.693 109.851C323.551 109.891 323.386 109.926 323.199 109.957C323.014 109.986 322.834 110.011 322.658 110.034C322.484 110.054 322.344 110.071 322.236 110.085C321.975 110.119 321.73 110.175 321.503 110.251C321.278 110.325 321.097 110.437 320.957 110.588C320.821 110.736 320.753 110.937 320.753 111.193C320.753 111.543 320.882 111.807 321.141 111.986C321.402 112.162 321.733 112.25 322.134 112.25ZM327.416 113V106.455H328.421V109.301H329.086L331.438 106.455H332.734L330.092 109.608L332.768 113H331.473L329.325 110.239H328.421V113H327.416ZM338.027 113L340.686 109.676L338.061 106.455H339.254L341.436 109.25H341.982V106.455H342.987V109.25H343.516L345.697 106.455H346.891L344.283 109.676L346.925 113H345.714L343.499 110.188H342.987V113H341.982V110.188H341.47L339.237 113H338.027ZM351.437 113.136C350.806 113.136 350.262 112.997 349.805 112.719C349.35 112.438 348.999 112.045 348.752 111.543C348.508 111.037 348.386 110.449 348.386 109.778C348.386 109.108 348.508 108.517 348.752 108.006C348.999 107.491 349.343 107.091 349.783 106.804C350.226 106.514 350.743 106.369 351.334 106.369C351.675 106.369 352.012 106.426 352.344 106.54C352.677 106.653 352.979 106.838 353.252 107.094C353.525 107.347 353.742 107.682 353.904 108.099C354.066 108.517 354.147 109.031 354.147 109.642V110.068H349.101V109.199H353.124C353.124 108.83 353.05 108.5 352.903 108.21C352.758 107.92 352.55 107.692 352.28 107.524C352.013 107.357 351.698 107.273 351.334 107.273C350.934 107.273 350.587 107.372 350.295 107.571C350.005 107.767 349.782 108.023 349.626 108.338C349.469 108.653 349.391 108.991 349.391 109.352V109.932C349.391 110.426 349.476 110.845 349.647 111.189C349.82 111.53 350.06 111.79 350.367 111.969C350.674 112.145 351.03 112.233 351.437 112.233C351.701 112.233 351.939 112.196 352.153 112.122C352.368 112.045 352.555 111.932 352.711 111.781C352.867 111.628 352.988 111.437 353.073 111.21L354.045 111.483C353.942 111.812 353.77 112.102 353.529 112.352C353.288 112.599 352.989 112.793 352.634 112.932C352.279 113.068 351.88 113.136 351.437 113.136ZM58.5795 128.136C57.9659 128.136 57.4375 127.991 56.9943 127.702C56.5511 127.412 56.2102 127.013 55.9716 126.504C55.733 125.996 55.6136 125.415 55.6136 124.761C55.6136 124.097 55.7358 123.51 55.9801 123.001C56.2273 122.49 56.571 122.091 57.0114 121.804C57.4545 121.514 57.9716 121.369 58.5625 121.369C59.0227 121.369 59.4375 121.455 59.8068 121.625C60.1761 121.795 60.4787 122.034 60.7145 122.341C60.9503 122.648 61.0966 123.006 61.1534 123.415H60.1477C60.071 123.116 59.9006 122.852 59.6364 122.622C59.375 122.389 59.0227 122.273 58.5795 122.273C58.1875 122.273 57.8438 122.375 57.5483 122.58C57.2557 122.781 57.027 123.067 56.8622 123.436C56.7003 123.803 56.6193 124.233 56.6193 124.727C56.6193 125.233 56.6989 125.673 56.858 126.048C57.0199 126.423 57.2472 126.714 57.5398 126.922C57.8352 127.129 58.1818 127.233 58.5795 127.233C58.8409 127.233 59.0781 127.188 59.2912 127.097C59.5043 127.006 59.6847 126.875 59.8324 126.705C59.9801 126.534 60.0852 126.33 60.1477 126.091H61.1534C61.0966 126.477 60.956 126.825 60.7315 127.135C60.5099 127.442 60.2159 127.686 59.8494 127.868C59.4858 128.047 59.0625 128.136 58.5795 128.136ZM65.8827 128.136C65.2918 128.136 64.7733 127.996 64.3273 127.714C63.8841 127.433 63.5375 127.04 63.2875 126.534C63.0403 126.028 62.9168 125.437 62.9168 124.761C62.9168 124.08 63.0403 123.484 63.2875 122.976C63.5375 122.467 63.8841 122.072 64.3273 121.791C64.7733 121.51 65.2918 121.369 65.8827 121.369C66.4736 121.369 66.9906 121.51 67.4338 121.791C67.8798 122.072 68.2264 122.467 68.4736 122.976C68.7236 123.484 68.8486 124.08 68.8486 124.761C68.8486 125.437 68.7236 126.028 68.4736 126.534C68.2264 127.04 67.8798 127.433 67.4338 127.714C66.9906 127.996 66.4736 128.136 65.8827 128.136ZM65.8827 127.233C66.3315 127.233 66.7009 127.118 66.9906 126.888C67.2804 126.658 67.4949 126.355 67.6341 125.98C67.7733 125.605 67.8429 125.199 67.8429 124.761C67.8429 124.324 67.7733 123.916 67.6341 123.538C67.4949 123.161 67.2804 122.855 66.9906 122.622C66.7009 122.389 66.3315 122.273 65.8827 122.273C65.4338 122.273 65.0645 122.389 64.7747 122.622C64.4849 122.855 64.2705 123.161 64.1312 123.538C63.992 123.916 63.9224 124.324 63.9224 124.761C63.9224 125.199 63.992 125.605 64.1312 125.98C64.2705 126.355 64.4849 126.658 64.7747 126.888C65.0645 127.118 65.4338 127.233 65.8827 127.233ZM70.2849 129.875V127.062H70.8303C70.9638 126.923 71.0789 126.773 71.1755 126.611C71.2721 126.449 71.3559 126.257 71.4269 126.036C71.5008 125.811 71.5633 125.538 71.6144 125.217C71.6656 124.893 71.711 124.503 71.7508 124.045L71.9724 121.455H76.1315V127.062H77.1371V129.875H76.1315V128H71.2906V129.875H70.2849ZM71.9724 127.062H75.1258V122.392H72.9099L72.7394 124.045C72.6684 124.73 72.5803 125.328 72.4752 125.839C72.3701 126.351 72.2025 126.759 71.9724 127.062ZM81.8163 128.136C81.1857 128.136 80.6416 127.997 80.1842 127.719C79.7297 127.438 79.3788 127.045 79.1317 126.543C78.8874 126.037 78.7652 125.449 78.7652 124.778C78.7652 124.108 78.8874 123.517 79.1317 123.006C79.3788 122.491 79.7226 122.091 80.1629 121.804C80.6061 121.514 81.1232 121.369 81.7141 121.369C82.055 121.369 82.3916 121.426 82.724 121.54C83.0564 121.653 83.3589 121.838 83.6317 122.094C83.9044 122.347 84.1217 122.682 84.2837 123.099C84.4456 123.517 84.5266 124.031 84.5266 124.642V125.068H79.4811V124.199H83.5038C83.5038 123.83 83.43 123.5 83.2822 123.21C83.1374 122.92 82.93 122.692 82.6601 122.524C82.393 122.357 82.0777 122.273 81.7141 122.273C81.3135 122.273 80.9669 122.372 80.6743 122.571C80.3845 122.767 80.1615 123.023 80.0053 123.338C79.849 123.653 79.7709 123.991 79.7709 124.352V124.932C79.7709 125.426 79.8561 125.845 80.0266 126.189C80.1999 126.53 80.4399 126.79 80.7467 126.969C81.0536 127.145 81.4101 127.233 81.8163 127.233C82.0805 127.233 82.3192 127.196 82.5322 127.122C82.7482 127.045 82.9342 126.932 83.0905 126.781C83.2467 126.628 83.3675 126.437 83.4527 126.21L84.4243 126.483C84.322 126.812 84.1501 127.102 83.9087 127.352C83.6672 127.599 83.3689 127.793 83.0138 127.932C82.6587 128.068 82.2595 128.136 81.8163 128.136ZM86.6564 130.455V121.455H87.628V122.494H87.7473C87.8212 122.381 87.9234 122.236 88.0541 122.06C88.1876 121.881 88.378 121.722 88.6251 121.582C88.8751 121.44 89.2132 121.369 89.6393 121.369C90.1905 121.369 90.6763 121.507 91.0967 121.783C91.5172 122.058 91.8453 122.449 92.0811 122.955C92.3169 123.46 92.4348 124.057 92.4348 124.744C92.4348 125.438 92.3169 126.038 92.0811 126.547C91.8453 127.053 91.5186 127.445 91.101 127.723C90.6834 127.999 90.2018 128.136 89.6564 128.136C89.2359 128.136 88.8993 128.067 88.6464 127.928C88.3936 127.786 88.199 127.625 88.0626 127.446C87.9263 127.264 87.8212 127.114 87.7473 126.994H87.6621V130.455H86.6564ZM87.645 124.727C87.645 125.222 87.7175 125.658 87.8624 126.036C88.0072 126.411 88.2189 126.705 88.4973 126.918C88.7757 127.128 89.1166 127.233 89.52 127.233C89.9405 127.233 90.2913 127.122 90.5726 126.901C90.8567 126.676 91.0697 126.375 91.2118 125.997C91.3567 125.616 91.4291 125.193 91.4291 124.727C91.4291 124.267 91.3581 123.852 91.2161 123.483C91.0768 123.111 90.8652 122.817 90.5811 122.601C90.2999 122.382 89.9462 122.273 89.52 122.273C89.1109 122.273 88.7672 122.376 88.4888 122.584C88.2104 122.788 88.0001 123.075 87.8581 123.445C87.7161 123.811 87.645 124.239 87.645 124.727ZM93.8903 128L96.5494 124.676L93.9244 121.455H95.1175L97.2994 124.25H97.8448V121.455H98.8505V124.25H99.3789L101.561 121.455H102.754L100.146 124.676L102.788 128H101.578L99.3619 125.188H98.8505V128H97.8448V125.188H97.3335L95.1005 128H93.8903ZM105.831 126.517L108.984 121.455H110.143V128H109.138V122.938L106.001 128H104.825V121.455H105.831V126.517ZM116.165 126.636L118.449 121.455H119.403L116.574 128H115.756L112.977 121.455H113.915L116.165 126.636ZM113.591 121.455V128H112.585V121.455H113.591ZM118.739 128V121.455H119.744V128H118.739ZM124.844 128.136C124.253 128.136 123.735 127.996 123.289 127.714C122.846 127.433 122.499 127.04 122.249 126.534C122.002 126.028 121.878 125.437 121.878 124.761C121.878 124.08 122.002 123.484 122.249 122.976C122.499 122.467 122.846 122.072 123.289 121.791C123.735 121.51 124.253 121.369 124.844 121.369C125.435 121.369 125.952 121.51 126.396 121.791C126.842 122.072 127.188 122.467 127.435 122.976C127.685 123.484 127.81 124.08 127.81 124.761C127.81 125.437 127.685 126.028 127.435 126.534C127.188 127.04 126.842 127.433 126.396 127.714C125.952 127.996 125.435 128.136 124.844 128.136ZM124.844 127.233C125.293 127.233 125.663 127.118 125.952 126.888C126.242 126.658 126.457 126.355 126.596 125.98C126.735 125.605 126.805 125.199 126.805 124.761C126.805 124.324 126.735 123.916 126.596 123.538C126.457 123.161 126.242 122.855 125.952 122.622C125.663 122.389 125.293 122.273 124.844 122.273C124.396 122.273 124.026 122.389 123.736 122.622C123.447 122.855 123.232 123.161 123.093 123.538C122.954 123.916 122.884 124.324 122.884 124.761C122.884 125.199 122.954 125.605 123.093 125.98C123.232 126.355 123.447 126.658 123.736 126.888C124.026 127.118 124.396 127.233 124.844 127.233ZM133.985 121.455V122.392H130.951V128H129.945V121.455H133.985ZM138.373 128.136C137.782 128.136 137.263 127.996 136.817 127.714C136.374 127.433 136.027 127.04 135.777 126.534C135.53 126.028 135.407 125.437 135.407 124.761C135.407 124.08 135.53 123.484 135.777 122.976C136.027 122.467 136.374 122.072 136.817 121.791C137.263 121.51 137.782 121.369 138.373 121.369C138.963 121.369 139.48 121.51 139.924 121.791C140.37 122.072 140.716 122.467 140.963 122.976C141.213 123.484 141.338 124.08 141.338 124.761C141.338 125.437 141.213 126.028 140.963 126.534C140.716 127.04 140.37 127.433 139.924 127.714C139.48 127.996 138.963 128.136 138.373 128.136ZM138.373 127.233C138.821 127.233 139.191 127.118 139.48 126.888C139.77 126.658 139.985 126.355 140.124 125.98C140.263 125.605 140.333 125.199 140.333 124.761C140.333 124.324 140.263 123.916 140.124 123.538C139.985 123.161 139.77 122.855 139.48 122.622C139.191 122.389 138.821 122.273 138.373 122.273C137.924 122.273 137.554 122.389 137.265 122.622C136.975 122.855 136.76 123.161 136.621 123.538C136.482 123.916 136.412 124.324 136.412 124.761C136.412 125.199 136.482 125.605 136.621 125.98C136.76 126.355 136.975 126.658 137.265 126.888C137.554 127.118 137.924 127.233 138.373 127.233ZM147.039 126.33H148.113C148.136 126.625 148.27 126.849 148.514 127.003C148.761 127.156 149.082 127.233 149.477 127.233C149.88 127.233 150.226 127.151 150.512 126.986C150.799 126.818 150.943 126.548 150.943 126.176C150.943 125.957 150.889 125.767 150.781 125.605C150.673 125.44 150.521 125.312 150.325 125.222C150.129 125.131 149.897 125.085 149.63 125.085H148.505V124.182H149.63C150.031 124.182 150.326 124.091 150.517 123.909C150.71 123.727 150.807 123.5 150.807 123.227C150.807 122.935 150.703 122.7 150.495 122.524C150.288 122.345 149.994 122.256 149.613 122.256C149.23 122.256 148.91 122.342 148.655 122.516C148.399 122.686 148.264 122.906 148.25 123.176H147.193C147.204 122.824 147.312 122.513 147.517 122.243C147.721 121.97 148 121.757 148.352 121.604C148.704 121.447 149.108 121.369 149.562 121.369C150.022 121.369 150.422 121.45 150.76 121.612C151.101 121.771 151.363 121.989 151.548 122.264C151.736 122.537 151.829 122.847 151.829 123.193C151.829 123.562 151.726 123.861 151.518 124.088C151.311 124.315 151.051 124.477 150.738 124.574V124.642C150.986 124.659 151.2 124.739 151.382 124.881C151.566 125.02 151.71 125.203 151.812 125.43C151.914 125.655 151.966 125.903 151.966 126.176C151.966 126.574 151.859 126.92 151.646 127.216C151.433 127.509 151.14 127.736 150.768 127.898C150.396 128.057 149.971 128.136 149.494 128.136C149.031 128.136 148.616 128.061 148.25 127.911C147.883 127.757 147.592 127.545 147.376 127.276C147.163 127.003 147.051 126.688 147.039 126.33ZM155.904 128.153C155.49 128.153 155.113 128.075 154.775 127.919C154.437 127.76 154.169 127.531 153.97 127.233C153.771 126.932 153.671 126.568 153.671 126.142C153.671 125.767 153.745 125.463 153.893 125.23C154.041 124.994 154.238 124.81 154.485 124.676C154.733 124.543 155.005 124.443 155.304 124.378C155.605 124.31 155.907 124.256 156.211 124.216C156.609 124.165 156.931 124.126 157.179 124.101C157.429 124.072 157.61 124.026 157.724 123.96C157.84 123.895 157.899 123.781 157.899 123.619V123.585C157.899 123.165 157.784 122.838 157.554 122.605C157.326 122.372 156.981 122.256 156.518 122.256C156.038 122.256 155.662 122.361 155.389 122.571C155.116 122.781 154.924 123.006 154.813 123.244L153.859 122.903C154.029 122.506 154.257 122.196 154.541 121.974C154.828 121.75 155.14 121.594 155.478 121.506C155.819 121.415 156.154 121.369 156.484 121.369C156.694 121.369 156.936 121.395 157.208 121.446C157.484 121.494 157.75 121.595 158.005 121.749C158.264 121.902 158.478 122.134 158.649 122.443C158.819 122.753 158.904 123.168 158.904 123.688V128H157.899V127.114H157.848C157.779 127.256 157.666 127.408 157.507 127.57C157.348 127.732 157.136 127.869 156.872 127.983C156.608 128.097 156.285 128.153 155.904 128.153ZM156.058 127.25C156.456 127.25 156.791 127.172 157.063 127.016C157.339 126.859 157.546 126.658 157.686 126.411C157.828 126.163 157.899 125.903 157.899 125.631V124.71C157.856 124.761 157.762 124.808 157.617 124.851C157.475 124.891 157.311 124.926 157.123 124.957C156.938 124.986 156.758 125.011 156.582 125.034C156.409 125.054 156.268 125.071 156.16 125.085C155.899 125.119 155.654 125.175 155.427 125.251C155.203 125.325 155.021 125.437 154.882 125.588C154.745 125.736 154.677 125.937 154.677 126.193C154.677 126.543 154.806 126.807 155.065 126.986C155.326 127.162 155.657 127.25 156.058 127.25ZM161.34 128V121.455H166.488V128H165.482V122.392H162.346V128H161.34ZM168.924 130.455V121.455H169.896V122.494H170.015C170.089 122.381 170.191 122.236 170.322 122.06C170.456 121.881 170.646 121.722 170.893 121.582C171.143 121.44 171.481 121.369 171.907 121.369C172.458 121.369 172.944 121.507 173.365 121.783C173.785 122.058 174.113 122.449 174.349 122.955C174.585 123.46 174.703 124.057 174.703 124.744C174.703 125.438 174.585 126.038 174.349 126.547C174.113 127.053 173.787 127.445 173.369 127.723C172.951 127.999 172.47 128.136 171.924 128.136C171.504 128.136 171.167 128.067 170.914 127.928C170.662 127.786 170.467 127.625 170.331 127.446C170.194 127.264 170.089 127.114 170.015 126.994H169.93V130.455H168.924ZM169.913 124.727C169.913 125.222 169.985 125.658 170.13 126.036C170.275 126.411 170.487 126.705 170.765 126.918C171.044 127.128 171.385 127.233 171.788 127.233C172.208 127.233 172.559 127.122 172.841 126.901C173.125 126.676 173.338 126.375 173.48 125.997C173.625 125.616 173.697 125.193 173.697 124.727C173.697 124.267 173.626 123.852 173.484 123.483C173.345 123.111 173.133 122.817 172.849 122.601C172.568 122.382 172.214 122.273 171.788 122.273C171.379 122.273 171.035 122.376 170.757 122.584C170.478 122.788 170.268 123.075 170.126 123.445C169.984 123.811 169.913 124.239 169.913 124.727ZM179.496 128.136C178.905 128.136 178.387 127.996 177.941 127.714C177.497 127.433 177.151 127.04 176.901 126.534C176.654 126.028 176.53 125.437 176.53 124.761C176.53 124.08 176.654 123.484 176.901 122.976C177.151 122.467 177.497 122.072 177.941 121.791C178.387 121.51 178.905 121.369 179.496 121.369C180.087 121.369 180.604 121.51 181.047 121.791C181.493 122.072 181.84 122.467 182.087 122.976C182.337 123.484 182.462 124.08 182.462 124.761C182.462 125.437 182.337 126.028 182.087 126.534C181.84 127.04 181.493 127.433 181.047 127.714C180.604 127.996 180.087 128.136 179.496 128.136ZM179.496 127.233C179.945 127.233 180.314 127.118 180.604 126.888C180.894 126.658 181.108 126.355 181.247 125.98C181.387 125.605 181.456 125.199 181.456 124.761C181.456 124.324 181.387 123.916 181.247 123.538C181.108 123.161 180.894 122.855 180.604 122.622C180.314 122.389 179.945 122.273 179.496 122.273C179.047 122.273 178.678 122.389 178.388 122.622C178.098 122.855 177.884 123.161 177.745 123.538C177.605 123.916 177.536 124.324 177.536 124.761C177.536 125.199 177.605 125.605 177.745 125.98C177.884 126.355 178.098 126.658 178.388 126.888C178.678 127.118 179.047 127.233 179.496 127.233ZM187.256 128.136C186.642 128.136 186.114 127.991 185.671 127.702C185.228 127.412 184.887 127.013 184.648 126.504C184.41 125.996 184.29 125.415 184.29 124.761C184.29 124.097 184.412 123.51 184.657 123.001C184.904 122.49 185.248 122.091 185.688 121.804C186.131 121.514 186.648 121.369 187.239 121.369C187.699 121.369 188.114 121.455 188.483 121.625C188.853 121.795 189.155 122.034 189.391 122.341C189.627 122.648 189.773 123.006 189.83 123.415H188.824C188.748 123.116 188.577 122.852 188.313 122.622C188.052 122.389 187.699 122.273 187.256 122.273C186.864 122.273 186.52 122.375 186.225 122.58C185.932 122.781 185.704 123.067 185.539 123.436C185.377 123.803 185.296 124.233 185.296 124.727C185.296 125.233 185.375 125.673 185.535 126.048C185.696 126.423 185.924 126.714 186.216 126.922C186.512 127.129 186.858 127.233 187.256 127.233C187.517 127.233 187.755 127.188 187.968 127.097C188.181 127.006 188.361 126.875 188.509 126.705C188.657 126.534 188.762 126.33 188.824 126.091H189.83C189.773 126.477 189.633 126.825 189.408 127.135C189.187 127.442 188.892 127.686 188.526 127.868C188.162 128.047 187.739 128.136 187.256 128.136ZM194.559 128.136C193.968 128.136 193.45 127.996 193.004 127.714C192.561 127.433 192.214 127.04 191.964 126.534C191.717 126.028 191.593 125.437 191.593 124.761C191.593 124.08 191.717 123.484 191.964 122.976C192.214 122.467 192.561 122.072 193.004 121.791C193.45 121.51 193.968 121.369 194.559 121.369C195.15 121.369 195.667 121.51 196.11 121.791C196.556 122.072 196.903 122.467 197.15 122.976C197.4 123.484 197.525 124.08 197.525 124.761C197.525 125.437 197.4 126.028 197.15 126.534C196.903 127.04 196.556 127.433 196.11 127.714C195.667 127.996 195.15 128.136 194.559 128.136ZM194.559 127.233C195.008 127.233 195.377 127.118 195.667 126.888C195.957 126.658 196.171 126.355 196.311 125.98C196.45 125.605 196.519 125.199 196.519 124.761C196.519 124.324 196.45 123.916 196.311 123.538C196.171 123.161 195.957 122.855 195.667 122.622C195.377 122.389 195.008 122.273 194.559 122.273C194.11 122.273 193.741 122.389 193.451 122.622C193.162 122.855 192.947 123.161 192.808 123.538C192.669 123.916 192.599 124.324 192.599 124.761C192.599 125.199 192.669 125.605 192.808 125.98C192.947 126.355 193.162 126.658 193.451 126.888C193.741 127.118 194.11 127.233 194.559 127.233ZM199.66 128V121.455H202.336C203.041 121.455 203.601 121.614 204.015 121.932C204.43 122.25 204.638 122.67 204.638 123.193C204.638 123.591 204.52 123.899 204.284 124.118C204.048 124.334 203.746 124.48 203.376 124.557C203.618 124.591 203.852 124.676 204.079 124.812C204.309 124.949 204.5 125.136 204.65 125.375C204.801 125.611 204.876 125.901 204.876 126.244C204.876 126.58 204.791 126.879 204.621 127.143C204.45 127.408 204.206 127.616 203.888 127.77C203.569 127.923 203.189 128 202.746 128H199.66ZM200.615 127.08H202.746C203.092 127.08 203.363 126.997 203.559 126.832C203.755 126.668 203.853 126.443 203.853 126.159C203.853 125.821 203.755 125.555 203.559 125.362C203.363 125.166 203.092 125.068 202.746 125.068H200.615V127.08ZM200.615 124.199H202.336C202.606 124.199 202.838 124.162 203.031 124.088C203.224 124.011 203.372 123.903 203.474 123.764C203.579 123.622 203.632 123.455 203.632 123.261C203.632 122.986 203.517 122.77 203.287 122.614C203.057 122.455 202.74 122.375 202.336 122.375H200.615V124.199ZM211.979 126.517L215.133 121.455H216.292V128H215.286V122.938L212.15 128H210.974V121.455H211.979V126.517ZM225.368 128.136C224.777 128.136 224.258 127.996 223.812 127.714C223.369 127.433 223.023 127.04 222.773 126.534C222.526 126.028 222.402 125.437 222.402 124.761C222.402 124.08 222.526 123.484 222.773 122.976C223.023 122.467 223.369 122.072 223.812 121.791C224.258 121.51 224.777 121.369 225.368 121.369C225.959 121.369 226.476 121.51 226.919 121.791C227.365 122.072 227.712 122.467 227.959 122.976C228.209 123.484 228.334 124.08 228.334 124.761C228.334 125.437 228.209 126.028 227.959 126.534C227.712 127.04 227.365 127.433 226.919 127.714C226.476 127.996 225.959 128.136 225.368 128.136ZM225.368 127.233C225.817 127.233 226.186 127.118 226.476 126.888C226.766 126.658 226.98 126.355 227.119 125.98C227.258 125.605 227.328 125.199 227.328 124.761C227.328 124.324 227.258 123.916 227.119 123.538C226.98 123.161 226.766 122.855 226.476 122.622C226.186 122.389 225.817 122.273 225.368 122.273C224.919 122.273 224.55 122.389 224.26 122.622C223.97 122.855 223.756 123.161 223.616 123.538C223.477 123.916 223.408 124.324 223.408 124.761C223.408 125.199 223.477 125.605 223.616 125.98C223.756 126.355 223.97 126.658 224.26 126.888C224.55 127.118 224.919 127.233 225.368 127.233ZM229.613 122.392V121.455H234.932V122.392H232.784V128H231.778V122.392H229.613ZM236.999 128V121.455H239.675C240.379 121.455 240.939 121.614 241.354 121.932C241.768 122.25 241.976 122.67 241.976 123.193C241.976 123.591 241.858 123.899 241.622 124.118C241.386 124.334 241.084 124.48 240.714 124.557C240.956 124.591 241.19 124.676 241.418 124.812C241.648 124.949 241.838 125.136 241.989 125.375C242.139 125.611 242.214 125.901 242.214 126.244C242.214 126.58 242.129 126.879 241.959 127.143C241.788 127.408 241.544 127.616 241.226 127.77C240.908 127.923 240.527 128 240.084 128H236.999ZM237.953 127.08H240.084C240.43 127.08 240.702 126.997 240.898 126.832C241.094 126.668 241.192 126.443 241.192 126.159C241.192 125.821 241.094 125.555 240.898 125.362C240.702 125.166 240.43 125.068 240.084 125.068H237.953V127.08ZM237.953 124.199H239.675C239.945 124.199 240.176 124.162 240.369 124.088C240.562 124.011 240.71 123.903 240.812 123.764C240.918 123.622 240.97 123.455 240.97 123.261C240.97 122.986 240.855 122.77 240.625 122.614C240.395 122.455 240.078 122.375 239.675 122.375H237.953V124.199ZM247.081 128.136C246.451 128.136 245.906 127.997 245.449 127.719C244.995 127.438 244.644 127.045 244.397 126.543C244.152 126.037 244.03 125.449 244.03 124.778C244.03 124.108 244.152 123.517 244.397 123.006C244.644 122.491 244.987 122.091 245.428 121.804C245.871 121.514 246.388 121.369 246.979 121.369C247.32 121.369 247.656 121.426 247.989 121.54C248.321 121.653 248.624 121.838 248.897 122.094C249.169 122.347 249.387 122.682 249.549 123.099C249.71 123.517 249.791 124.031 249.791 124.642V125.068H244.746V124.199H248.769C248.769 123.83 248.695 123.5 248.547 123.21C248.402 122.92 248.195 122.692 247.925 122.524C247.658 122.357 247.343 122.273 246.979 122.273C246.578 122.273 246.232 122.372 245.939 122.571C245.649 122.767 245.426 123.023 245.27 123.338C245.114 123.653 245.036 123.991 245.036 124.352V124.932C245.036 125.426 245.121 125.845 245.291 126.189C245.465 126.53 245.705 126.79 246.012 126.969C246.318 127.145 246.675 127.233 247.081 127.233C247.345 127.233 247.584 127.196 247.797 127.122C248.013 127.045 248.199 126.932 248.355 126.781C248.512 126.628 248.632 126.437 248.718 126.21L249.689 126.483C249.587 126.812 249.415 127.102 249.174 127.352C248.932 127.599 248.634 127.793 248.279 127.932C247.924 128.068 247.524 128.136 247.081 128.136ZM251.312 122.392V121.455H256.63V122.392H254.482V128H253.477V122.392H251.312ZM261.016 128.136C260.425 128.136 259.907 127.996 259.461 127.714C259.018 127.433 258.671 127.04 258.421 126.534C258.174 126.028 258.05 125.437 258.05 124.761C258.05 124.08 258.174 123.484 258.421 122.976C258.671 122.467 259.018 122.072 259.461 121.791C259.907 121.51 260.425 121.369 261.016 121.369C261.607 121.369 262.124 121.51 262.567 121.791C263.013 122.072 263.36 122.467 263.607 122.976C263.857 123.484 263.982 124.08 263.982 124.761C263.982 125.437 263.857 126.028 263.607 126.534C263.36 127.04 263.013 127.433 262.567 127.714C262.124 127.996 261.607 128.136 261.016 128.136ZM261.016 127.233C261.465 127.233 261.834 127.118 262.124 126.888C262.414 126.658 262.628 126.355 262.768 125.98C262.907 125.605 262.976 125.199 262.976 124.761C262.976 124.324 262.907 123.916 262.768 123.538C262.628 123.161 262.414 122.855 262.124 122.622C261.834 122.389 261.465 122.273 261.016 122.273C260.567 122.273 260.198 122.389 259.908 122.622C259.619 122.855 259.404 123.161 259.265 123.538C259.126 123.916 259.056 124.324 259.056 124.761C259.056 125.199 259.126 125.605 259.265 125.98C259.404 126.355 259.619 126.658 259.908 126.888C260.198 127.118 260.567 127.233 261.016 127.233ZM266.117 128V121.455H268.793C269.498 121.455 270.058 121.614 270.472 121.932C270.887 122.25 271.095 122.67 271.095 123.193C271.095 123.591 270.977 123.899 270.741 124.118C270.505 124.334 270.203 124.48 269.833 124.557C270.075 124.591 270.309 124.676 270.536 124.812C270.766 124.949 270.957 125.136 271.107 125.375C271.258 125.611 271.333 125.901 271.333 126.244C271.333 126.58 271.248 126.879 271.078 127.143C270.907 127.408 270.663 127.616 270.345 127.77C270.026 127.923 269.646 128 269.203 128H266.117ZM267.072 127.08H269.203C269.549 127.08 269.82 126.997 270.016 126.832C270.212 126.668 270.311 126.443 270.311 126.159C270.311 125.821 270.212 125.555 270.016 125.362C269.82 125.166 269.549 125.068 269.203 125.068H267.072V127.08ZM267.072 124.199H268.793C269.063 124.199 269.295 124.162 269.488 124.088C269.681 124.011 269.829 123.903 269.931 123.764C270.036 123.622 270.089 123.455 270.089 123.261C270.089 122.986 269.974 122.77 269.744 122.614C269.514 122.455 269.197 122.375 268.793 122.375H267.072V124.199ZM281.811 124.267V125.205H278.198V124.267H281.811ZM278.436 121.455V128H277.431V121.455H278.436ZM282.578 121.455V128H281.573V121.455H282.578ZM286.941 128.153C286.526 128.153 286.15 128.075 285.812 127.919C285.474 127.76 285.205 127.531 285.006 127.233C284.808 126.932 284.708 126.568 284.708 126.142C284.708 125.767 284.782 125.463 284.93 125.23C285.077 124.994 285.275 124.81 285.522 124.676C285.769 124.543 286.042 124.443 286.34 124.378C286.641 124.31 286.944 124.256 287.248 124.216C287.646 124.165 287.968 124.126 288.215 124.101C288.465 124.072 288.647 124.026 288.761 123.96C288.877 123.895 288.935 123.781 288.935 123.619V123.585C288.935 123.165 288.82 122.838 288.59 122.605C288.363 122.372 288.018 122.256 287.555 122.256C287.075 122.256 286.698 122.361 286.425 122.571C286.153 122.781 285.961 123.006 285.85 123.244L284.896 122.903C285.066 122.506 285.293 122.196 285.577 121.974C285.864 121.75 286.177 121.594 286.515 121.506C286.856 121.415 287.191 121.369 287.521 121.369C287.731 121.369 287.972 121.395 288.245 121.446C288.521 121.494 288.786 121.595 289.042 121.749C289.3 121.902 289.515 122.134 289.685 122.443C289.856 122.753 289.941 123.168 289.941 123.688V128H288.935V127.114H288.884C288.816 127.256 288.702 127.408 288.543 127.57C288.384 127.732 288.173 127.869 287.908 127.983C287.644 128.097 287.322 128.153 286.941 128.153ZM287.095 127.25C287.492 127.25 287.827 127.172 288.1 127.016C288.376 126.859 288.583 126.658 288.722 126.411C288.864 126.163 288.935 125.903 288.935 125.631V124.71C288.893 124.761 288.799 124.808 288.654 124.851C288.512 124.891 288.347 124.926 288.16 124.957C287.975 124.986 287.795 125.011 287.619 125.034C287.445 125.054 287.305 125.071 287.197 125.085C286.935 125.119 286.691 125.175 286.464 125.251C286.239 125.325 286.058 125.437 285.918 125.588C285.782 125.736 285.714 125.937 285.714 126.193C285.714 126.543 285.843 126.807 286.102 126.986C286.363 127.162 286.694 127.25 287.095 127.25ZM300.732 124.267V125.205H297.119V124.267H300.732ZM297.357 121.455V128H296.352V121.455H297.357ZM301.499 121.455V128H300.494V121.455H301.499ZM306.68 128.136C306.05 128.136 305.506 127.997 305.048 127.719C304.594 127.438 304.243 127.045 303.996 126.543C303.751 126.037 303.629 125.449 303.629 124.778C303.629 124.108 303.751 123.517 303.996 123.006C304.243 122.491 304.587 122.091 305.027 121.804C305.47 121.514 305.987 121.369 306.578 121.369C306.919 121.369 307.256 121.426 307.588 121.54C307.92 121.653 308.223 121.838 308.496 122.094C308.768 122.347 308.986 122.682 309.148 123.099C309.31 123.517 309.391 124.031 309.391 124.642V125.068H304.345V124.199H308.368C308.368 123.83 308.294 123.5 308.146 123.21C308.001 122.92 307.794 122.692 307.524 122.524C307.257 122.357 306.942 122.273 306.578 122.273C306.178 122.273 305.831 122.372 305.538 122.571C305.249 122.767 305.026 123.023 304.869 123.338C304.713 123.653 304.635 123.991 304.635 124.352V124.932C304.635 125.426 304.72 125.845 304.891 126.189C305.064 126.53 305.304 126.79 305.611 126.969C305.918 127.145 306.274 127.233 306.68 127.233C306.945 127.233 307.183 127.196 307.396 127.122C307.612 127.045 307.798 126.932 307.955 126.781C308.111 126.628 308.232 126.437 308.317 126.21L309.288 126.483C309.186 126.812 309.014 127.102 308.773 127.352C308.531 127.599 308.233 127.793 307.878 127.932C307.523 128.068 307.124 128.136 306.68 128.136ZM314.18 128.136C313.589 128.136 313.07 127.996 312.624 127.714C312.181 127.433 311.834 127.04 311.584 126.534C311.337 126.028 311.214 125.437 311.214 124.761C311.214 124.08 311.337 123.484 311.584 122.976C311.834 122.467 312.181 122.072 312.624 121.791C313.07 121.51 313.589 121.369 314.18 121.369C314.77 121.369 315.288 121.51 315.731 121.791C316.177 122.072 316.523 122.467 316.77 122.976C317.02 123.484 317.145 124.08 317.145 124.761C317.145 125.437 317.02 126.028 316.77 126.534C316.523 127.04 316.177 127.433 315.731 127.714C315.288 127.996 314.77 128.136 314.18 128.136ZM314.18 127.233C314.628 127.233 314.998 127.118 315.288 126.888C315.577 126.658 315.792 126.355 315.931 125.98C316.07 125.605 316.14 125.199 316.14 124.761C316.14 124.324 316.07 123.916 315.931 123.538C315.792 123.161 315.577 122.855 315.288 122.622C314.998 122.389 314.628 122.273 314.18 122.273C313.731 122.273 313.361 122.389 313.072 122.622C312.782 122.855 312.567 123.161 312.428 123.538C312.289 123.916 312.219 124.324 312.219 124.761C312.219 125.199 312.289 125.605 312.428 125.98C312.567 126.355 312.782 126.658 313.072 126.888C313.361 127.118 313.731 127.233 314.18 127.233ZM324.139 119L324.65 119.614C324.451 119.807 324.221 119.942 323.96 120.018C323.698 120.095 323.403 120.142 323.073 120.159C322.744 120.176 322.377 120.193 321.974 120.21C321.519 120.227 321.143 120.338 320.845 120.543C320.546 120.747 320.316 121.043 320.154 121.429C319.992 121.815 319.889 122.29 319.843 122.852H319.928C320.15 122.443 320.457 122.142 320.849 121.949C321.241 121.756 321.661 121.659 322.11 121.659C322.622 121.659 323.082 121.778 323.491 122.017C323.9 122.256 324.224 122.609 324.462 123.078C324.701 123.547 324.82 124.125 324.82 124.812C324.82 125.497 324.698 126.088 324.454 126.585C324.212 127.082 323.873 127.466 323.435 127.736C323.001 128.003 322.491 128.136 321.906 128.136C321.32 128.136 320.808 127.999 320.367 127.723C319.927 127.445 319.585 127.033 319.34 126.487C319.096 125.939 318.974 125.261 318.974 124.455V123.756C318.974 122.298 319.221 121.193 319.715 120.44C320.212 119.687 320.96 119.298 321.957 119.273C322.309 119.261 322.623 119.259 322.899 119.264C323.174 119.27 323.414 119.257 323.619 119.226C323.823 119.195 323.997 119.119 324.139 119ZM321.906 127.233C322.301 127.233 322.64 127.134 322.924 126.935C323.211 126.736 323.431 126.456 323.585 126.095C323.738 125.732 323.815 125.304 323.815 124.812C323.815 124.335 323.737 123.929 323.58 123.594C323.427 123.259 323.207 123.003 322.92 122.827C322.633 122.651 322.289 122.562 321.889 122.562C321.596 122.562 321.333 122.612 321.1 122.712C320.867 122.811 320.668 122.957 320.504 123.151C320.339 123.344 320.211 123.58 320.12 123.858C320.032 124.136 319.985 124.455 319.979 124.812C319.979 125.545 320.151 126.132 320.495 126.572C320.839 127.013 321.309 127.233 321.906 127.233ZM327.709 121.455L329.277 124.131L330.845 121.455H332.004L329.891 124.727L332.004 128H330.845L329.277 125.46L327.709 128H326.55L328.629 124.727L326.55 121.455H327.709ZM336.429 128.136C335.838 128.136 335.319 127.996 334.873 127.714C334.43 127.433 334.084 127.04 333.834 126.534C333.586 126.028 333.463 125.437 333.463 124.761C333.463 124.08 333.586 123.484 333.834 122.976C334.084 122.467 334.43 122.072 334.873 121.791C335.319 121.51 335.838 121.369 336.429 121.369C337.02 121.369 337.537 121.51 337.98 121.791C338.426 122.072 338.773 122.467 339.02 122.976C339.27 123.484 339.395 124.08 339.395 124.761C339.395 125.437 339.27 126.028 339.02 126.534C338.773 127.04 338.426 127.433 337.98 127.714C337.537 127.996 337.02 128.136 336.429 128.136ZM336.429 127.233C336.878 127.233 337.247 127.118 337.537 126.888C337.826 126.658 338.041 126.355 338.18 125.98C338.319 125.605 338.389 125.199 338.389 124.761C338.389 124.324 338.319 123.916 338.18 123.538C338.041 123.161 337.826 122.855 337.537 122.622C337.247 122.389 336.878 122.273 336.429 122.273C335.98 122.273 335.611 122.389 335.321 122.622C335.031 122.855 334.817 123.161 334.677 123.538C334.538 123.916 334.469 124.324 334.469 124.761C334.469 125.199 334.538 125.605 334.677 125.98C334.817 126.355 335.031 126.658 335.321 126.888C335.611 127.118 335.98 127.233 336.429 127.233ZM340.831 129.875V127.062H341.376C341.51 126.923 341.625 126.773 341.722 126.611C341.818 126.449 341.902 126.257 341.973 126.036C342.047 125.811 342.109 125.538 342.161 125.217C342.212 124.893 342.257 124.503 342.297 124.045L342.518 121.455H346.678V127.062H347.683V129.875H346.678V128H341.837V129.875H340.831ZM342.518 127.062H345.672V122.392H343.456L343.286 124.045C343.214 124.73 343.126 125.328 343.021 125.839C342.916 126.351 342.749 126.759 342.518 127.062ZM350.624 126.517L353.777 121.455H354.936V128H353.931V122.938L350.794 128H349.618V121.455H350.624V126.517ZM360.958 126.636L363.242 121.455H364.196L361.367 128H360.549L357.77 121.455H358.708L360.958 126.636ZM358.384 121.455V128H357.378V121.455H358.384ZM363.532 128V121.455H364.537V128H363.532ZM367.848 123.824H369.723C370.49 123.824 371.076 124.018 371.483 124.408C371.889 124.797 372.092 125.29 372.092 125.886C372.092 126.278 372.001 126.635 371.819 126.956C371.637 127.274 371.37 127.528 371.018 127.719C370.666 127.906 370.234 128 369.723 128H366.978V121.455H367.984V127.062H369.723C370.12 127.062 370.447 126.957 370.703 126.747C370.958 126.537 371.086 126.267 371.086 125.938C371.086 125.591 370.958 125.308 370.703 125.089C370.447 124.871 370.12 124.761 369.723 124.761H367.848V123.824ZM373.132 128V121.455H374.137V128H373.132ZM379.323 128.136C378.692 128.136 378.148 127.997 377.69 127.719C377.236 127.438 376.885 127.045 376.638 126.543C376.394 126.037 376.271 125.449 376.271 124.778C376.271 124.108 376.394 123.517 376.638 123.006C376.885 122.491 377.229 122.091 377.669 121.804C378.112 121.514 378.629 121.369 379.22 121.369C379.561 121.369 379.898 121.426 380.23 121.54C380.563 121.653 380.865 121.838 381.138 122.094C381.411 122.347 381.628 122.682 381.79 123.099C381.952 123.517 382.033 124.031 382.033 124.642V125.068H376.987V124.199H381.01C381.01 123.83 380.936 123.5 380.788 123.21C380.644 122.92 380.436 122.692 380.166 122.524C379.899 122.357 379.584 122.273 379.22 122.273C378.82 122.273 378.473 122.372 378.181 122.571C377.891 122.767 377.668 123.023 377.511 123.338C377.355 123.653 377.277 123.991 377.277 124.352V124.932C377.277 125.426 377.362 125.845 377.533 126.189C377.706 126.53 377.946 126.79 378.253 126.969C378.56 127.145 378.916 127.233 379.323 127.233C379.587 127.233 379.825 127.196 380.038 127.122C380.254 127.045 380.44 126.932 380.597 126.781C380.753 126.628 380.874 126.437 380.959 126.21L381.931 126.483C381.828 126.812 381.656 127.102 381.415 127.352C381.173 127.599 380.875 127.793 380.52 127.932C380.165 128.068 379.766 128.136 379.323 128.136ZM55.9205 143V136.455H61.0682V143H60.0625V137.392H56.9261V143H55.9205ZM66.1639 143.136C65.573 143.136 65.0545 142.996 64.6085 142.714C64.1653 142.433 63.8187 142.04 63.5687 141.534C63.3216 141.028 63.198 140.437 63.198 139.761C63.198 139.08 63.3216 138.484 63.5687 137.976C63.8187 137.467 64.1653 137.072 64.6085 136.791C65.0545 136.51 65.573 136.369 66.1639 136.369C66.7548 136.369 67.2719 136.51 67.7151 136.791C68.1611 137.072 68.5077 137.467 68.7548 137.976C69.0048 138.484 69.1298 139.08 69.1298 139.761C69.1298 140.437 69.0048 141.028 68.7548 141.534C68.5077 142.04 68.1611 142.433 67.7151 142.714C67.2719 142.996 66.7548 143.136 66.1639 143.136ZM66.1639 142.233C66.6128 142.233 66.9821 142.118 67.2719 141.888C67.5616 141.658 67.7761 141.355 67.9153 140.98C68.0545 140.605 68.1241 140.199 68.1241 139.761C68.1241 139.324 68.0545 138.916 67.9153 138.538C67.7761 138.161 67.5616 137.855 67.2719 137.622C66.9821 137.389 66.6128 137.273 66.1639 137.273C65.7151 137.273 65.3457 137.389 65.056 137.622C64.7662 137.855 64.5517 138.161 64.4125 138.538C64.2733 138.916 64.2037 139.324 64.2037 139.761C64.2037 140.199 64.2733 140.605 64.4125 140.98C64.5517 141.355 64.7662 141.658 65.056 141.888C65.3457 142.118 65.7151 142.233 66.1639 142.233ZM70.6854 143V142.062H70.9241C71.1201 142.062 71.2835 142.024 71.4141 141.947C71.5448 141.868 71.6499 141.73 71.7295 141.534C71.8119 141.335 71.8744 141.06 71.917 140.707C71.9624 140.352 71.9951 139.901 72.015 139.352L72.1343 136.455H76.4979V143H75.4923V137.392H73.0888L72.9866 139.727C72.9638 140.264 72.9156 140.737 72.8417 141.146C72.7707 141.553 72.6613 141.893 72.5136 142.169C72.3687 142.445 72.1755 142.652 71.934 142.791C71.6925 142.93 71.39 143 71.0263 143H70.6854ZM79.8124 138.824H81.6874C82.4545 138.824 83.0411 139.018 83.4474 139.408C83.8536 139.797 84.0567 140.29 84.0567 140.886C84.0567 141.278 83.9658 141.635 83.784 141.956C83.6022 142.274 83.3352 142.528 82.9829 142.719C82.6306 142.906 82.1988 143 81.6874 143H78.9431V136.455H79.9488V142.062H81.6874C82.0852 142.062 82.4119 141.957 82.6675 141.747C82.9232 141.537 83.0511 141.267 83.0511 140.938C83.0511 140.591 82.9232 140.308 82.6675 140.089C82.4119 139.871 82.0852 139.761 81.6874 139.761H79.8124V138.824ZM85.7786 141.33H86.8524C86.8751 141.625 87.0087 141.849 87.253 142.003C87.5001 142.156 87.8212 142.233 88.2161 142.233C88.6195 142.233 88.9646 142.151 89.2516 141.986C89.5385 141.818 89.682 141.548 89.682 141.176C89.682 140.957 89.628 140.767 89.52 140.605C89.4121 140.44 89.2601 140.312 89.0641 140.222C88.868 140.131 88.6365 140.085 88.3695 140.085H87.2445V139.182H88.3695C88.77 139.182 89.0655 139.091 89.2558 138.909C89.449 138.727 89.5456 138.5 89.5456 138.227C89.5456 137.935 89.4419 137.7 89.2345 137.524C89.0271 137.345 88.7331 137.256 88.3524 137.256C87.9689 137.256 87.6493 137.342 87.3936 137.516C87.1379 137.686 87.003 137.906 86.9888 138.176H85.932C85.9433 137.824 86.0513 137.513 86.2558 137.243C86.4604 136.97 86.7388 136.757 87.0911 136.604C87.4433 136.447 87.8467 136.369 88.3013 136.369C88.7615 136.369 89.1607 136.45 89.4987 136.612C89.8396 136.771 90.1024 136.989 90.2871 137.264C90.4746 137.537 90.5683 137.847 90.5683 138.193C90.5683 138.562 90.4646 138.861 90.2572 139.088C90.0499 139.315 89.7899 139.477 89.4774 139.574V139.642C89.7246 139.659 89.9391 139.739 90.1209 139.881C90.3055 140.02 90.449 140.203 90.5513 140.43C90.6536 140.655 90.7047 140.903 90.7047 141.176C90.7047 141.574 90.5982 141.92 90.3851 142.216C90.172 142.509 89.8794 142.736 89.5072 142.898C89.1351 143.057 88.7104 143.136 88.2331 143.136C87.77 143.136 87.3553 143.061 86.9888 142.911C86.6223 142.757 86.3311 142.545 86.1152 142.276C85.9021 142.003 85.7899 141.688 85.7786 141.33ZM95.3764 143.136C94.7855 143.136 94.267 142.996 93.821 142.714C93.3778 142.433 93.0312 142.04 92.7812 141.534C92.5341 141.028 92.4105 140.437 92.4105 139.761C92.4105 139.08 92.5341 138.484 92.7812 137.976C93.0312 137.467 93.3778 137.072 93.821 136.791C94.267 136.51 94.7855 136.369 95.3764 136.369C95.9673 136.369 96.4844 136.51 96.9276 136.791C97.3736 137.072 97.7202 137.467 97.9673 137.976C98.2173 138.484 98.3423 139.08 98.3423 139.761C98.3423 140.437 98.2173 141.028 97.9673 141.534C97.7202 142.04 97.3736 142.433 96.9276 142.714C96.4844 142.996 95.9673 143.136 95.3764 143.136ZM95.3764 142.233C95.8253 142.233 96.1946 142.118 96.4844 141.888C96.7741 141.658 96.9886 141.355 97.1278 140.98C97.267 140.605 97.3366 140.199 97.3366 139.761C97.3366 139.324 97.267 138.916 97.1278 138.538C96.9886 138.161 96.7741 137.855 96.4844 137.622C96.1946 137.389 95.8253 137.273 95.3764 137.273C94.9276 137.273 94.5582 137.389 94.2685 137.622C93.9787 137.855 93.7642 138.161 93.625 138.538C93.4858 138.916 93.4162 139.324 93.4162 139.761C93.4162 140.199 93.4858 140.605 93.625 140.98C93.7642 141.355 93.9787 141.658 94.2685 141.888C94.5582 142.118 94.9276 142.233 95.3764 142.233ZM100.477 143V136.455H103.154C103.858 136.455 104.418 136.614 104.833 136.932C105.247 137.25 105.455 137.67 105.455 138.193C105.455 138.591 105.337 138.899 105.101 139.118C104.865 139.334 104.563 139.48 104.193 139.557C104.435 139.591 104.669 139.676 104.897 139.812C105.127 139.949 105.317 140.136 105.468 140.375C105.618 140.611 105.693 140.901 105.693 141.244C105.693 141.58 105.608 141.879 105.438 142.143C105.267 142.408 105.023 142.616 104.705 142.77C104.387 142.923 104.006 143 103.563 143H100.477ZM101.432 142.08H103.563C103.909 142.08 104.181 141.997 104.377 141.832C104.573 141.668 104.671 141.443 104.671 141.159C104.671 140.821 104.573 140.555 104.377 140.362C104.181 140.166 103.909 140.068 103.563 140.068H101.432V142.08ZM101.432 139.199H103.154C103.424 139.199 103.655 139.162 103.848 139.088C104.041 139.011 104.189 138.903 104.291 138.764C104.397 138.622 104.449 138.455 104.449 138.261C104.449 137.986 104.334 137.77 104.104 137.614C103.874 137.455 103.557 137.375 103.154 137.375H101.432V139.199ZM109.742 143.153C109.327 143.153 108.951 143.075 108.613 142.919C108.275 142.76 108.006 142.531 107.807 142.233C107.608 141.932 107.509 141.568 107.509 141.142C107.509 140.767 107.583 140.463 107.731 140.23C107.878 139.994 108.076 139.81 108.323 139.676C108.57 139.543 108.843 139.443 109.141 139.378C109.442 139.31 109.745 139.256 110.049 139.216C110.446 139.165 110.769 139.126 111.016 139.101C111.266 139.072 111.448 139.026 111.562 138.96C111.678 138.895 111.736 138.781 111.736 138.619V138.585C111.736 138.165 111.621 137.838 111.391 137.605C111.164 137.372 110.819 137.256 110.356 137.256C109.875 137.256 109.499 137.361 109.226 137.571C108.954 137.781 108.762 138.006 108.651 138.244L107.696 137.903C107.867 137.506 108.094 137.196 108.378 136.974C108.665 136.75 108.978 136.594 109.316 136.506C109.657 136.415 109.992 136.369 110.321 136.369C110.532 136.369 110.773 136.395 111.046 136.446C111.321 136.494 111.587 136.595 111.843 136.749C112.101 136.902 112.316 137.134 112.486 137.443C112.657 137.753 112.742 138.168 112.742 138.688V143H111.736V142.114H111.685C111.617 142.256 111.503 142.408 111.344 142.57C111.185 142.732 110.973 142.869 110.709 142.983C110.445 143.097 110.123 143.153 109.742 143.153ZM109.895 142.25C110.293 142.25 110.628 142.172 110.901 142.016C111.177 141.859 111.384 141.658 111.523 141.411C111.665 141.163 111.736 140.903 111.736 140.631V139.71C111.694 139.761 111.6 139.808 111.455 139.851C111.313 139.891 111.148 139.926 110.961 139.957C110.776 139.986 110.596 140.011 110.419 140.034C110.246 140.054 110.106 140.071 109.998 140.085C109.736 140.119 109.492 140.175 109.265 140.251C109.04 140.325 108.858 140.437 108.719 140.588C108.583 140.736 108.515 140.937 108.515 141.193C108.515 141.543 108.644 141.807 108.902 141.986C109.164 142.162 109.495 142.25 109.895 142.25ZM114.287 137.392V136.455H119.605V137.392H117.457V143H116.452V137.392H114.287ZM124.076 143.136C123.446 143.136 122.902 142.997 122.444 142.719C121.99 142.438 121.639 142.045 121.392 141.543C121.148 141.037 121.025 140.449 121.025 139.778C121.025 139.108 121.148 138.517 121.392 138.006C121.639 137.491 121.983 137.091 122.423 136.804C122.866 136.514 123.383 136.369 123.974 136.369C124.315 136.369 124.652 136.426 124.984 136.54C125.317 136.653 125.619 136.838 125.892 137.094C126.165 137.347 126.382 137.682 126.544 138.099C126.706 138.517 126.787 139.031 126.787 139.642V140.068H121.741V139.199H125.764C125.764 138.83 125.69 138.5 125.542 138.21C125.398 137.92 125.19 137.692 124.92 137.524C124.653 137.357 124.338 137.273 123.974 137.273C123.574 137.273 123.227 137.372 122.934 137.571C122.645 137.767 122.422 138.023 122.265 138.338C122.109 138.653 122.031 138.991 122.031 139.352V139.932C122.031 140.426 122.116 140.845 122.287 141.189C122.46 141.53 122.7 141.79 123.007 141.969C123.314 142.145 123.67 142.233 124.076 142.233C124.341 142.233 124.579 142.196 124.792 142.122C125.008 142.045 125.194 141.932 125.351 141.781C125.507 141.628 125.628 141.437 125.713 141.21L126.684 141.483C126.582 141.812 126.41 142.102 126.169 142.352C125.927 142.599 125.629 142.793 125.274 142.932C124.919 143.068 124.52 143.136 124.076 143.136ZM128.337 143V142.062H128.576C128.772 142.062 128.935 142.024 129.066 141.947C129.196 141.868 129.301 141.73 129.381 141.534C129.463 141.335 129.526 141.06 129.569 140.707C129.614 140.352 129.647 139.901 129.667 139.352L129.786 136.455H134.15V143H133.144V137.392H130.74L130.638 139.727C130.615 140.264 130.567 140.737 130.493 141.146C130.422 141.553 130.313 141.893 130.165 142.169C130.02 142.445 129.827 142.652 129.586 142.791C129.344 142.93 129.042 143 128.678 143H128.337ZM139.731 139.318V140.256H136.271V139.318H139.731ZM137.123 136.455V143H136.117V136.455H137.123ZM141.742 143.136C141.151 143.136 140.633 142.996 140.187 142.714C139.744 142.433 139.397 142.04 139.147 141.534C138.9 141.028 138.776 140.437 138.776 139.761C138.776 139.08 138.9 138.484 139.147 137.976C139.397 137.467 139.744 137.072 140.187 136.791C140.633 136.51 141.151 136.369 141.742 136.369C142.333 136.369 142.85 136.51 143.294 136.791C143.74 137.072 144.086 137.467 144.333 137.976C144.583 138.484 144.708 139.08 144.708 139.761C144.708 140.437 144.583 141.028 144.333 141.534C144.086 142.04 143.74 142.433 143.294 142.714C142.85 142.996 142.333 143.136 141.742 143.136ZM141.742 142.233C142.191 142.233 142.561 142.118 142.85 141.888C143.14 141.658 143.355 141.355 143.494 140.98C143.633 140.605 143.703 140.199 143.703 139.761C143.703 139.324 143.633 138.916 143.494 138.538C143.355 138.161 143.14 137.855 142.85 137.622C142.561 137.389 142.191 137.273 141.742 137.273C141.294 137.273 140.924 137.389 140.634 137.622C140.345 137.855 140.13 138.161 139.991 138.538C139.852 138.916 139.782 139.324 139.782 139.761C139.782 140.199 139.852 140.605 139.991 140.98C140.13 141.355 140.345 141.658 140.634 141.888C140.924 142.118 141.294 142.233 141.742 142.233ZM151.278 139.318C151.278 138.244 151.417 137.257 151.695 136.357C151.976 135.453 152.377 134.622 152.897 133.864H153.783C153.579 134.145 153.387 134.491 153.208 134.903C153.032 135.312 152.877 135.763 152.744 136.254C152.61 136.743 152.505 137.249 152.428 137.771C152.354 138.294 152.317 138.81 152.317 139.318C152.317 139.994 152.383 140.68 152.513 141.376C152.644 142.072 152.82 142.719 153.042 143.315C153.263 143.912 153.511 144.398 153.783 144.773H152.897C152.377 144.014 151.976 143.185 151.695 142.284C151.417 141.381 151.278 140.392 151.278 139.318ZM155.458 141.33H156.532C156.555 141.625 156.688 141.849 156.933 142.003C157.18 142.156 157.501 142.233 157.896 142.233C158.299 142.233 158.644 142.151 158.931 141.986C159.218 141.818 159.362 141.548 159.362 141.176C159.362 140.957 159.308 140.767 159.2 140.605C159.092 140.44 158.94 140.312 158.744 140.222C158.548 140.131 158.316 140.085 158.049 140.085H156.924V139.182H158.049C158.45 139.182 158.745 139.091 158.936 138.909C159.129 138.727 159.225 138.5 159.225 138.227C159.225 137.935 159.122 137.7 158.914 137.524C158.707 137.345 158.413 137.256 158.032 137.256C157.649 137.256 157.329 137.342 157.073 137.516C156.818 137.686 156.683 137.906 156.668 138.176H155.612C155.623 137.824 155.731 137.513 155.936 137.243C156.14 136.97 156.418 136.757 156.771 136.604C157.123 136.447 157.526 136.369 157.981 136.369C158.441 136.369 158.84 136.45 159.178 136.612C159.519 136.771 159.782 136.989 159.967 137.264C160.154 137.537 160.248 137.847 160.248 138.193C160.248 138.562 160.144 138.861 159.937 139.088C159.73 139.315 159.47 139.477 159.157 139.574V139.642C159.404 139.659 159.619 139.739 159.801 139.881C159.985 140.02 160.129 140.203 160.231 140.43C160.333 140.655 160.384 140.903 160.384 141.176C160.384 141.574 160.278 141.92 160.065 142.216C159.852 142.509 159.559 142.736 159.187 142.898C158.815 143.057 158.39 143.136 157.913 143.136C157.45 143.136 157.035 143.061 156.668 142.911C156.302 142.757 156.011 142.545 155.795 142.276C155.582 142.003 155.47 141.688 155.458 141.33ZM166.778 139.267V140.205H163.164V139.267H166.778ZM163.403 136.455V143H162.397V136.455H163.403ZM167.545 136.455V143H166.539V136.455H167.545ZM171.908 143.153C171.493 143.153 171.116 143.075 170.778 142.919C170.44 142.76 170.172 142.531 169.973 142.233C169.774 141.932 169.675 141.568 169.675 141.142C169.675 140.767 169.748 140.463 169.896 140.23C170.044 139.994 170.241 139.81 170.488 139.676C170.736 139.543 171.008 139.443 171.307 139.378C171.608 139.31 171.91 139.256 172.214 139.216C172.612 139.165 172.935 139.126 173.182 139.101C173.432 139.072 173.613 139.026 173.727 138.96C173.844 138.895 173.902 138.781 173.902 138.619V138.585C173.902 138.165 173.787 137.838 173.557 137.605C173.329 137.372 172.984 137.256 172.521 137.256C172.041 137.256 171.665 137.361 171.392 137.571C171.119 137.781 170.927 138.006 170.817 138.244L169.862 137.903C170.033 137.506 170.26 137.196 170.544 136.974C170.831 136.75 171.143 136.594 171.481 136.506C171.822 136.415 172.158 136.369 172.487 136.369C172.697 136.369 172.939 136.395 173.212 136.446C173.487 136.494 173.753 136.595 174.008 136.749C174.267 136.902 174.481 137.134 174.652 137.443C174.822 137.753 174.908 138.168 174.908 138.688V143H173.902V142.114H173.851C173.783 142.256 173.669 142.408 173.51 142.57C173.351 142.732 173.139 142.869 172.875 142.983C172.611 143.097 172.288 143.153 171.908 143.153ZM172.061 142.25C172.459 142.25 172.794 142.172 173.067 142.016C173.342 141.859 173.55 141.658 173.689 141.411C173.831 141.163 173.902 140.903 173.902 140.631V139.71C173.859 139.761 173.765 139.808 173.621 139.851C173.479 139.891 173.314 139.926 173.126 139.957C172.942 139.986 172.761 140.011 172.585 140.034C172.412 140.054 172.271 140.071 172.163 140.085C171.902 140.119 171.658 140.175 171.43 140.251C171.206 140.325 171.024 140.437 170.885 140.588C170.748 140.736 170.68 140.937 170.68 141.193C170.68 141.543 170.81 141.807 171.068 141.986C171.329 142.162 171.66 142.25 172.061 142.25ZM181.724 139.267V140.205H178.11V139.267H181.724ZM178.349 136.455V143H177.343V136.455H178.349ZM182.491 136.455V143H181.485V136.455H182.491ZM185.933 141.517L189.087 136.455H190.246V143H189.24V137.938L186.104 143H184.927V136.455H185.933V141.517ZM196.625 143V137.375H194.886C194.494 137.375 194.186 137.466 193.962 137.648C193.737 137.83 193.625 138.08 193.625 138.398C193.625 138.71 193.726 138.956 193.928 139.135C194.132 139.314 194.412 139.403 194.767 139.403H196.881V140.341H194.767C194.324 140.341 193.942 140.263 193.621 140.107C193.3 139.95 193.053 139.727 192.879 139.438C192.706 139.145 192.619 138.798 192.619 138.398C192.619 137.994 192.71 137.648 192.892 137.358C193.074 137.068 193.334 136.845 193.672 136.689C194.013 136.533 194.418 136.455 194.886 136.455H197.58V143H196.625ZM192.261 143L194.119 139.744H195.21L193.352 143H192.261ZM203.111 133.864L200.299 144.312H199.378L202.191 133.864H203.111ZM205.909 141.517L209.062 136.455H210.221V143H209.216V137.938L206.079 143H204.903V136.455H205.909V141.517ZM217.044 139.267V140.205H213.43V139.267H217.044ZM213.669 136.455V143H212.663V136.455H213.669ZM217.811 136.455V143H216.805V136.455H217.811ZM222.907 143.136C222.293 143.136 221.765 142.991 221.322 142.702C220.878 142.412 220.538 142.013 220.299 141.504C220.06 140.996 219.941 140.415 219.941 139.761C219.941 139.097 220.063 138.51 220.307 138.001C220.555 137.49 220.898 137.091 221.339 136.804C221.782 136.514 222.299 136.369 222.89 136.369C223.35 136.369 223.765 136.455 224.134 136.625C224.503 136.795 224.806 137.034 225.042 137.341C225.278 137.648 225.424 138.006 225.481 138.415H224.475C224.398 138.116 224.228 137.852 223.964 137.622C223.702 137.389 223.35 137.273 222.907 137.273C222.515 137.273 222.171 137.375 221.876 137.58C221.583 137.781 221.354 138.067 221.19 138.436C221.028 138.803 220.947 139.233 220.947 139.727C220.947 140.233 221.026 140.673 221.185 141.048C221.347 141.423 221.575 141.714 221.867 141.922C222.163 142.129 222.509 142.233 222.907 142.233C223.168 142.233 223.405 142.188 223.619 142.097C223.832 142.006 224.012 141.875 224.16 141.705C224.307 141.534 224.413 141.33 224.475 141.091H225.481C225.424 141.477 225.283 141.825 225.059 142.135C224.837 142.442 224.543 142.686 224.177 142.868C223.813 143.047 223.39 143.136 222.907 143.136ZM227.035 137.392V136.455H232.353V137.392H230.206V143H229.2V137.392H227.035ZM234.42 145.455V136.455H235.392V137.494H235.511C235.585 137.381 235.688 137.236 235.818 137.06C235.952 136.881 236.142 136.722 236.389 136.582C236.639 136.44 236.977 136.369 237.403 136.369C237.955 136.369 238.44 136.507 238.861 136.783C239.281 137.058 239.609 137.449 239.845 137.955C240.081 138.46 240.199 139.057 240.199 139.744C240.199 140.438 240.081 141.038 239.845 141.547C239.609 142.053 239.283 142.445 238.865 142.723C238.447 142.999 237.966 143.136 237.42 143.136C237 143.136 236.663 143.067 236.411 142.928C236.158 142.786 235.963 142.625 235.827 142.446C235.69 142.264 235.585 142.114 235.511 141.994H235.426V145.455H234.42ZM235.409 139.727C235.409 140.222 235.482 140.658 235.626 141.036C235.771 141.411 235.983 141.705 236.261 141.918C236.54 142.128 236.881 142.233 237.284 142.233C237.705 142.233 238.055 142.122 238.337 141.901C238.621 141.676 238.834 141.375 238.976 140.997C239.121 140.616 239.193 140.193 239.193 139.727C239.193 139.267 239.122 138.852 238.98 138.483C238.841 138.111 238.629 137.817 238.345 137.601C238.064 137.382 237.71 137.273 237.284 137.273C236.875 137.273 236.531 137.376 236.253 137.584C235.974 137.788 235.764 138.075 235.622 138.445C235.48 138.811 235.409 139.239 235.409 139.727ZM242.746 145.455C242.576 145.455 242.424 145.44 242.29 145.412C242.157 145.386 242.064 145.361 242.013 145.335L242.269 144.449C242.513 144.511 242.729 144.534 242.917 144.517C243.104 144.5 243.27 144.416 243.415 144.266C243.563 144.118 243.698 143.878 243.82 143.545L244.008 143.034L241.587 136.455H242.678L244.485 141.67H244.553L246.36 136.455H247.451L244.672 143.955C244.547 144.293 244.393 144.572 244.208 144.794C244.023 145.018 243.809 145.185 243.564 145.293C243.323 145.401 243.05 145.455 242.746 145.455ZM249.378 143V136.455H250.384V139.301H251.049L253.401 136.455H254.696L252.054 139.608L254.731 143H253.435L251.287 140.239H250.384V143H249.378ZM261.571 136.455V142.062H262.492V145.114H261.486V143H256.424V136.455H257.429V142.062H260.566V136.455H261.571ZM265.646 141.517L268.8 136.455H269.959V143H268.953V137.938L265.817 143H264.641V136.455H265.646V141.517ZM273.407 141.517L276.56 136.455H277.719V143H276.713V137.938L273.577 143H272.401V136.455H273.407V141.517ZM282.309 139.318C282.309 140.392 282.168 141.381 281.887 142.284C281.609 143.185 281.209 144.014 280.689 144.773H279.803C280.008 144.491 280.198 144.145 280.374 143.733C280.553 143.324 280.709 142.875 280.843 142.386C280.976 141.895 281.08 141.388 281.154 140.865C281.231 140.339 281.269 139.824 281.269 139.318C281.269 138.642 281.204 137.956 281.073 137.26C280.942 136.564 280.766 135.918 280.545 135.321C280.323 134.724 280.076 134.239 279.803 133.864H280.689C281.209 134.622 281.609 135.453 281.887 136.357C282.168 137.257 282.309 138.244 282.309 139.318Z" fill="black"/>
<path d="M109.296 73.008L110.096 71.152C110.576 71.44 111.088 71.664 111.632 71.824C112.186 71.9733 112.725 72.0587 113.248 72.08C113.781 72.0907 114.261 72.0373 114.688 71.92C115.125 71.8027 115.472 71.6267 115.728 71.392C115.994 71.1573 116.128 70.8587 116.128 70.496C116.128 70.0693 115.952 69.7547 115.6 69.552C115.248 69.3387 114.778 69.232 114.192 69.232H111.456V67.28H114C114.522 67.28 114.928 67.1733 115.216 66.96C115.514 66.7467 115.664 66.4533 115.664 66.08C115.664 65.76 115.557 65.504 115.344 65.312C115.13 65.1093 114.837 64.96 114.464 64.864C114.101 64.768 113.69 64.7253 113.232 64.736C112.773 64.7467 112.298 64.8213 111.808 64.96C111.317 65.0987 110.848 65.2907 110.4 65.536L109.616 63.536C110.341 63.1627 111.104 62.9067 111.904 62.768C112.714 62.6187 113.493 62.5813 114.24 62.656C114.997 62.72 115.68 62.8907 116.288 63.168C116.896 63.4347 117.381 63.7867 117.744 64.224C118.106 64.6613 118.288 65.1787 118.288 65.776C118.288 66.3093 118.149 66.784 117.872 67.2C117.594 67.616 117.205 67.936 116.704 68.16C116.213 68.384 115.648 68.496 115.008 68.496L115.072 67.92C115.818 67.92 116.464 68.048 117.008 68.304C117.562 68.5493 117.989 68.896 118.288 69.344C118.597 69.7813 118.752 70.288 118.752 70.864C118.752 71.3973 118.608 71.8773 118.32 72.304C118.042 72.72 117.658 73.072 117.168 73.36C116.677 73.648 116.117 73.8613 115.488 74C114.858 74.1387 114.186 74.1973 113.472 74.176C112.768 74.1547 112.058 74.0533 111.344 73.872C110.629 73.68 109.946 73.392 109.296 73.008ZM125.764 74V72.32L125.604 71.952V68.944C125.604 68.4107 125.438 67.9947 125.108 67.696C124.788 67.3973 124.292 67.248 123.62 67.248C123.161 67.248 122.708 67.3227 122.26 67.472C121.822 67.6107 121.449 67.8027 121.14 68.048L120.244 66.304C120.713 65.9733 121.278 65.7173 121.94 65.536C122.601 65.3547 123.273 65.264 123.956 65.264C125.268 65.264 126.286 65.5733 127.012 66.192C127.737 66.8107 128.1 67.776 128.1 69.088V74H125.764ZM123.14 74.128C122.468 74.128 121.892 74.016 121.412 73.792C120.932 73.5573 120.564 73.2427 120.308 72.848C120.052 72.4533 119.924 72.0107 119.924 71.52C119.924 71.008 120.046 70.56 120.292 70.176C120.548 69.792 120.948 69.4933 121.492 69.28C122.036 69.056 122.745 68.944 123.62 68.944H125.908V70.4H123.892C123.305 70.4 122.9 70.496 122.676 70.688C122.462 70.88 122.356 71.12 122.356 71.408C122.356 71.728 122.478 71.984 122.724 72.176C122.98 72.3573 123.326 72.448 123.764 72.448C124.18 72.448 124.553 72.352 124.884 72.16C125.214 71.9573 125.454 71.664 125.604 71.28L125.988 72.432C125.806 72.9867 125.476 73.408 124.996 73.696C124.516 73.984 123.897 74.128 123.14 74.128ZM136.14 71.952L135.596 72.528V65.392H138.092V72.528L137.516 71.952H141.484L140.924 72.528V65.392H143.404V74H130.268V65.392H132.748V72.528L132.188 71.952H136.14ZM142.284 75.712V73.424L142.844 74H140.86V71.952H144.604V75.712H142.284ZM145.799 74V65.392H148.279V70.512L152.471 65.392H154.759V74H152.279V68.88L148.103 74H145.799ZM158.998 74V66.864L159.558 67.44H156.086V65.392H164.39V67.44H160.918L161.478 66.864V74H158.998ZM166.936 77.232C166.488 77.232 166.045 77.1627 165.608 77.024C165.171 76.8853 164.813 76.6933 164.536 76.448L165.448 74.672C165.64 74.8427 165.859 74.976 166.104 75.072C166.36 75.168 166.611 75.216 166.856 75.216C167.208 75.216 167.485 75.1307 167.688 74.96C167.901 74.8 168.093 74.528 168.264 74.144L168.712 73.088L168.904 72.816L171.992 65.392H174.392L170.504 74.528C170.227 75.2213 169.907 75.7653 169.544 76.16C169.192 76.5547 168.797 76.832 168.36 76.992C167.933 77.152 167.459 77.232 166.936 77.232ZM168.408 74.336L164.568 65.392H167.144L170.12 72.592L168.408 74.336Z" fill="black"/>
<defs>
<filter id="filter0_d_3667_221" x="0" y="0" width="463.508" height="229" filterUnits="userSpaceOnUse" color-interpolation-filters="sRGB">
<feFlood flood-opacity="0" result="BackgroundImageFix"/>
<feColorMatrix in="SourceAlpha" type="matrix" values="0 0 0 0 0 0 0 0 0 0 0 0 0 0 0 0 0 0 127 0" result="hardAlpha"/>
<feOffset dy="10"/>
<feGaussianBlur stdDeviation="20"/>
<feColorMatrix type="matrix" values="0 0 0 0 0.494444 0 0 0 0 0.608547 0 0 0 0 0.741667 0 0 0 0.35 0"/>
<feBlend mode="normal" in2="BackgroundImageFix" result="effect1_dropShadow_3667_221"/>
<feBlend mode="normal" in="SourceGraphic" in2="effect1_dropShadow_3667_221" result="shape"/>
</filter>
<clipPath id="clip0_3667_221">
<rect width="32" height="32" fill="white" transform="translate(60 50)"/>
</clipPath>
</defs>
</svg>
