<svg width="464" height="229" viewBox="0 0 464 229" fill="none" xmlns="http://www.w3.org/2000/svg">
<g filter="url(#filter0_d_3667_222)">
<rect x="40.49" y="30" width="383.508" height="149" rx="12" fill="white"/>
</g>
<rect x="55.4709" y="45" width="41.9462" height="42" rx="7" fill="#F6F6F6"/>
<g clip-path="url(#clip0_3667_222)">
<path d="M73.0811 67.1667C72.7717 67.1667 72.475 67.2896 72.2562 67.5084C72.0374 67.7272 71.9145 68.0239 71.9145 68.3334V70.6667H66.0811V68.3334C66.0811 68.0239 65.9582 67.7272 65.7394 67.5084C65.5206 67.2896 65.2239 67.1667 64.9145 67.1667C64.6051 67.1667 64.3083 67.2896 64.0895 67.5084C63.8707 67.7272 63.7478 68.0239 63.7478 68.3334V76.5C63.7478 76.8094 63.8707 77.1062 64.0895 77.325C64.3083 77.5438 64.6051 77.6667 64.9145 77.6667H73.0811C73.3906 77.6667 73.6873 77.5438 73.9061 77.325C74.1249 77.1062 74.2478 76.8094 74.2478 76.5V68.3334C74.2478 68.0239 74.1249 67.7272 73.9061 67.5084C73.6873 67.2896 73.3906 67.1667 73.0811 67.1667Z" fill="#34E0E0"/>
<path d="M87.0811 67.1667C86.7717 67.1667 86.475 67.2896 86.2562 67.5084C86.0374 67.7272 85.9145 68.0239 85.9145 68.3334V70.6667H80.0811V68.3334C80.0811 68.0239 79.9582 67.7272 79.7394 67.5084C79.5206 67.2896 79.2239 67.1667 78.9145 67.1667C78.6051 67.1667 78.3083 67.2896 78.0895 67.5084C77.8707 67.7272 77.7478 68.0239 77.7478 68.3334V76.5C77.7478 76.8094 77.8707 77.1062 78.0895 77.325C78.3083 77.5438 78.6051 77.6667 78.9145 77.6667H87.0811C87.3906 77.6667 87.6873 77.5438 87.9061 77.325C88.1249 77.1062 88.2478 76.8094 88.2478 76.5V68.3334C88.2478 68.0239 88.1249 67.7272 87.9061 67.5084C87.6873 67.2896 87.3906 67.1667 87.0811 67.1667Z" fill="#34E0E0"/>
<path d="M81.8311 61.3334V62.0334L80.3144 60.5167C80.2022 60.3899 80.0624 60.2905 79.9057 60.2261C79.7491 60.1618 79.5798 60.1341 79.4108 60.1454C79.2418 60.1567 79.0777 60.2065 78.931 60.2911C78.7843 60.3757 78.6589 60.4928 78.5644 60.6334C78.395 60.8675 78.3137 61.1539 78.3351 61.4422C78.3564 61.7304 78.479 62.0018 78.6811 62.2084L82.1811 65.65C82.2849 65.7632 82.4111 65.8535 82.5517 65.9153C82.6923 65.9771 82.8442 66.009 82.9978 66.009C83.1514 66.009 83.3032 65.9771 83.4438 65.9153C83.5844 65.8535 83.7106 65.7632 83.8144 65.65L87.3144 62.2084C87.5166 62.0018 87.6391 61.7304 87.6605 61.4422C87.6818 61.1539 87.6006 60.8675 87.4311 60.6334C87.3367 60.4928 87.2113 60.3757 87.0646 60.2911C86.9179 60.2065 86.7537 60.1567 86.5848 60.1454C86.4158 60.1341 86.2465 60.1618 86.0898 60.2261C85.9332 60.2905 85.7934 60.3899 85.6811 60.5167L84.1644 62.0334V61.3334C84.1644 59.1674 83.304 57.0902 81.7725 55.5586C80.2409 54.0271 78.1637 53.1667 75.9978 53.1667C73.8318 53.1667 71.7546 54.0271 70.2231 55.5586C68.6915 57.0902 67.8311 59.1674 67.8311 61.3334V64.8334C67.8311 65.1428 67.954 65.4395 68.1728 65.6583C68.3916 65.8771 68.6884 66 68.9978 66C69.3072 66 69.6039 65.8771 69.8227 65.6583C70.0415 65.4395 70.1644 65.1428 70.1644 64.8334V61.3334C70.1644 59.7863 70.779 58.3025 71.873 57.2086C72.967 56.1146 74.4507 55.5 75.9978 55.5C77.5449 55.5 79.0286 56.1146 80.1226 57.2086C81.2165 58.3025 81.8311 59.7863 81.8311 61.3334Z" fill="#34E0E0"/>
</g>
<path d="M55.3046 115.114V112.062H55.8671C56.0603 111.886 56.2421 111.638 56.4126 111.317C56.5859 110.993 56.7322 110.561 56.8515 110.021C56.9737 109.479 57.0546 108.79 57.0944 107.955L57.2819 104.273H62.4637V112.062H63.4694V115.097H62.4637V113H56.3103V115.114H55.3046ZM57.1285 112.062H61.458V105.21H58.2364L58.1001 107.955C58.066 108.591 58.0063 109.168 57.9211 109.685C57.8359 110.199 57.7265 110.655 57.593 111.053C57.4595 111.447 57.3046 111.784 57.1285 112.062ZM68.1891 113.136C67.5982 113.136 67.0797 112.996 66.6337 112.714C66.1905 112.433 65.8439 112.04 65.5939 111.534C65.3467 111.028 65.2232 110.437 65.2232 109.761C65.2232 109.08 65.3467 108.484 65.5939 107.976C65.8439 107.467 66.1905 107.072 66.6337 106.791C67.0797 106.51 67.5982 106.369 68.1891 106.369C68.78 106.369 69.297 106.51 69.7402 106.791C70.1862 107.072 70.5328 107.467 70.78 107.976C71.03 108.484 71.155 109.08 71.155 109.761C71.155 110.437 71.03 111.028 70.78 111.534C70.5328 112.04 70.1862 112.433 69.7402 112.714C69.297 112.996 68.78 113.136 68.1891 113.136ZM68.1891 112.233C68.6379 112.233 69.0072 112.118 69.297 111.888C69.5868 111.658 69.8013 111.355 69.9405 110.98C70.0797 110.605 70.1493 110.199 70.1493 109.761C70.1493 109.324 70.0797 108.916 69.9405 108.538C69.8013 108.161 69.5868 107.855 69.297 107.622C69.0072 107.389 68.6379 107.273 68.1891 107.273C67.7402 107.273 67.3709 107.389 67.0811 107.622C66.7913 107.855 66.5769 108.161 66.4376 108.538C66.2984 108.916 66.2288 109.324 66.2288 109.761C66.2288 110.199 66.2984 110.605 66.4376 110.98C66.5769 111.355 66.7913 111.658 67.0811 111.888C67.3709 112.118 67.7402 112.233 68.1891 112.233ZM78.1481 104L78.6595 104.614C78.4606 104.807 78.2305 104.942 77.9691 105.018C77.7077 105.095 77.4123 105.142 77.0827 105.159C76.7532 105.176 76.3867 105.193 75.9833 105.21C75.5288 105.227 75.1523 105.338 74.8541 105.543C74.5558 105.747 74.3256 106.043 74.1637 106.429C74.0018 106.815 73.8981 107.29 73.8526 107.852H73.9379C74.1595 107.443 74.4663 107.142 74.8583 106.949C75.2504 106.756 75.6708 106.659 76.1197 106.659C76.631 106.659 77.0913 106.778 77.5004 107.017C77.9095 107.256 78.2333 107.609 78.472 108.078C78.7106 108.547 78.8299 109.125 78.8299 109.812C78.8299 110.497 78.7077 111.088 78.4634 111.585C78.222 112.082 77.8825 112.466 77.445 112.736C77.0103 113.003 76.5004 113.136 75.9151 113.136C75.3299 113.136 74.8171 112.999 74.3768 112.723C73.9364 112.445 73.5941 112.033 73.3498 111.487C73.1055 110.939 72.9833 110.261 72.9833 109.455V108.756C72.9833 107.298 73.2305 106.193 73.7248 105.44C74.222 104.687 74.9691 104.298 75.9663 104.273C76.3185 104.261 76.6325 104.259 76.908 104.264C77.1836 104.27 77.4237 104.257 77.6282 104.226C77.8327 104.195 78.006 104.119 78.1481 104ZM75.9151 112.233C76.31 112.233 76.6495 112.134 76.9336 111.935C77.2205 111.736 77.4407 111.456 77.5941 111.095C77.7475 110.732 77.8242 110.304 77.8242 109.812C77.8242 109.335 77.7461 108.929 77.5898 108.594C77.4364 108.259 77.2163 108.003 76.9293 107.827C76.6424 107.651 76.2987 107.562 75.8981 107.562C75.6055 107.562 75.3427 107.612 75.1097 107.712C74.8768 107.811 74.6779 107.957 74.5131 108.151C74.3484 108.344 74.2205 108.58 74.1296 108.858C74.0416 109.136 73.9947 109.455 73.989 109.812C73.989 110.545 74.1609 111.132 74.5046 111.572C74.8484 112.013 75.3185 112.233 75.9151 112.233ZM82.8944 113.153C82.4796 113.153 82.1032 113.075 81.7651 112.919C81.4271 112.76 81.1586 112.531 80.9597 112.233C80.7609 111.932 80.6614 111.568 80.6614 111.142C80.6614 110.767 80.7353 110.463 80.883 110.23C81.0308 109.994 81.2282 109.81 81.4754 109.676C81.7225 109.543 81.9952 109.443 82.2935 109.378C82.5947 109.31 82.8972 109.256 83.2012 109.216C83.5989 109.165 83.9214 109.126 84.1685 109.101C84.4185 109.072 84.6004 109.026 84.714 108.96C84.8305 108.895 84.8887 108.781 84.8887 108.619V108.585C84.8887 108.165 84.7737 107.838 84.5435 107.605C84.3163 107.372 83.9711 107.256 83.508 107.256C83.0279 107.256 82.6515 107.361 82.3788 107.571C82.106 107.781 81.9143 108.006 81.8035 108.244L80.8489 107.903C81.0194 107.506 81.2467 107.196 81.5308 106.974C81.8177 106.75 82.1302 106.594 82.4683 106.506C82.8092 106.415 83.1444 106.369 83.4739 106.369C83.6842 106.369 83.9256 106.395 84.1984 106.446C84.4739 106.494 84.7396 106.595 84.9952 106.749C85.2538 106.902 85.4683 107.134 85.6387 107.443C85.8092 107.753 85.8944 108.168 85.8944 108.688V113H84.8887V112.114H84.8376C84.7694 112.256 84.6558 112.408 84.4967 112.57C84.3376 112.732 84.1259 112.869 83.8617 112.983C83.5975 113.097 83.2751 113.153 82.8944 113.153ZM83.0478 112.25C83.4455 112.25 83.7808 112.172 84.0535 112.016C84.3291 111.859 84.5364 111.658 84.6756 111.411C84.8177 111.163 84.8887 110.903 84.8887 110.631V109.71C84.8461 109.761 84.7523 109.808 84.6075 109.851C84.4654 109.891 84.3006 109.926 84.1131 109.957C83.9285 109.986 83.7481 110.011 83.5719 110.034C83.3987 110.054 83.258 110.071 83.1501 110.085C82.8887 110.119 82.6444 110.175 82.4171 110.251C82.1927 110.325 82.0109 110.437 81.8717 110.588C81.7353 110.736 81.6671 110.937 81.6671 111.193C81.6671 111.543 81.7964 111.807 82.0549 111.986C82.3163 112.162 82.6472 112.25 83.0478 112.25ZM88.33 113V106.455H91.0061C91.7107 106.455 92.2703 106.614 92.6851 106.932C93.0999 107.25 93.3073 107.67 93.3073 108.193C93.3073 108.591 93.1894 108.899 92.9536 109.118C92.7178 109.334 92.4152 109.48 92.0459 109.557C92.2874 109.591 92.5217 109.676 92.749 109.812C92.9791 109.949 93.1695 110.136 93.32 110.375C93.4706 110.611 93.5459 110.901 93.5459 111.244C93.5459 111.58 93.4607 111.879 93.2902 112.143C93.1198 112.408 92.8754 112.616 92.5573 112.77C92.2391 112.923 91.8584 113 91.4152 113H88.33ZM89.2845 112.08H91.4152C91.7618 112.08 92.0331 111.997 92.2291 111.832C92.4251 111.668 92.5232 111.443 92.5232 111.159C92.5232 110.821 92.4251 110.555 92.2291 110.362C92.0331 110.166 91.7618 110.068 91.4152 110.068H89.2845V112.08ZM89.2845 109.199H91.0061C91.276 109.199 91.5075 109.162 91.7007 109.088C91.8939 109.011 92.0416 108.903 92.1439 108.764C92.249 108.622 92.3016 108.455 92.3016 108.261C92.3016 107.986 92.1865 107.77 91.9564 107.614C91.7263 107.455 91.4095 107.375 91.0061 107.375H89.2845V109.199ZM95.0887 113V112.062H95.3273C95.5234 112.062 95.6867 112.024 95.8174 111.947C95.9481 111.868 96.0532 111.73 96.1327 111.534C96.2151 111.335 96.2776 111.06 96.3202 110.707C96.3657 110.352 96.3984 109.901 96.4183 109.352L96.5376 106.455H100.901V113H99.8955V107.392H97.4921L97.3898 109.727C97.3671 110.264 97.3188 110.737 97.245 111.146C97.1739 111.553 97.0646 111.893 96.9168 112.169C96.772 112.445 96.5788 112.652 96.3373 112.791C96.0958 112.93 95.7933 113 95.4296 113H95.0887ZM106.091 113.136C105.46 113.136 104.916 112.997 104.459 112.719C104.004 112.438 103.653 112.045 103.406 111.543C103.162 111.037 103.04 110.449 103.04 109.778C103.04 109.108 103.162 108.517 103.406 108.006C103.653 107.491 103.997 107.091 104.437 106.804C104.88 106.514 105.398 106.369 105.988 106.369C106.329 106.369 106.666 106.426 106.998 106.54C107.331 106.653 107.633 106.838 107.906 107.094C108.179 107.347 108.396 107.682 108.558 108.099C108.72 108.517 108.801 109.031 108.801 109.642V110.068H103.755V109.199H107.778C107.778 108.83 107.704 108.5 107.557 108.21C107.412 107.92 107.204 107.692 106.934 107.524C106.667 107.357 106.352 107.273 105.988 107.273C105.588 107.273 105.241 107.372 104.949 107.571C104.659 107.767 104.436 108.023 104.28 108.338C104.123 108.653 104.045 108.991 104.045 109.352V109.932C104.045 110.426 104.13 110.845 104.301 111.189C104.474 111.53 104.714 111.79 105.021 111.969C105.328 112.145 105.684 112.233 106.091 112.233C106.355 112.233 106.594 112.196 106.807 112.122C107.023 112.045 107.209 111.932 107.365 111.781C107.521 111.628 107.642 111.437 107.727 111.21L108.699 111.483C108.596 111.812 108.425 112.102 108.183 112.352C107.942 112.599 107.643 112.793 107.288 112.932C106.933 113.068 106.534 113.136 106.091 113.136ZM115.311 109.267V110.205H111.698V109.267H115.311ZM111.936 106.455V113H110.931V106.455H111.936ZM116.078 106.455V113H115.073V106.455H116.078ZM119.521 111.517L122.674 106.455H123.833V113H122.828V107.938L119.691 113H118.515V106.455H119.521V111.517ZM129.02 113.136C128.389 113.136 127.845 112.997 127.388 112.719C126.933 112.438 126.582 112.045 126.335 111.543C126.091 111.037 125.968 110.449 125.968 109.778C125.968 109.108 126.091 108.517 126.335 108.006C126.582 107.491 126.926 107.091 127.366 106.804C127.809 106.514 128.326 106.369 128.917 106.369C129.258 106.369 129.595 106.426 129.927 106.54C130.26 106.653 130.562 106.838 130.835 107.094C131.108 107.347 131.325 107.682 131.487 108.099C131.649 108.517 131.73 109.031 131.73 109.642V110.068H126.684V109.199H130.707C130.707 108.83 130.633 108.5 130.486 108.21C130.341 107.92 130.133 107.692 129.863 107.524C129.596 107.357 129.281 107.273 128.917 107.273C128.517 107.273 128.17 107.372 127.878 107.571C127.588 107.767 127.365 108.023 127.209 108.338C127.052 108.653 126.974 108.991 126.974 109.352V109.932C126.974 110.426 127.059 110.845 127.23 111.189C127.403 111.53 127.643 111.79 127.95 111.969C128.257 112.145 128.613 112.233 129.02 112.233C129.284 112.233 129.522 112.196 129.736 112.122C129.951 112.045 130.138 111.932 130.294 111.781C130.45 111.628 130.571 111.437 130.656 111.21L131.628 111.483C131.525 111.812 131.353 112.102 131.112 112.352C130.87 112.599 130.572 112.793 130.217 112.932C129.862 113.068 129.463 113.136 129.02 113.136ZM140.494 113.136C139.88 113.136 139.352 112.991 138.909 112.702C138.465 112.412 138.124 112.013 137.886 111.504C137.647 110.996 137.528 110.415 137.528 109.761C137.528 109.097 137.65 108.51 137.894 108.001C138.141 107.49 138.485 107.091 138.926 106.804C139.369 106.514 139.886 106.369 140.477 106.369C140.937 106.369 141.352 106.455 141.721 106.625C142.09 106.795 142.393 107.034 142.629 107.341C142.864 107.648 143.011 108.006 143.068 108.415H142.062C141.985 108.116 141.815 107.852 141.551 107.622C141.289 107.389 140.937 107.273 140.494 107.273C140.102 107.273 139.758 107.375 139.463 107.58C139.17 107.781 138.941 108.067 138.776 108.436C138.614 108.803 138.534 109.233 138.534 109.727C138.534 110.233 138.613 110.673 138.772 111.048C138.934 111.423 139.161 111.714 139.454 111.922C139.749 112.129 140.096 112.233 140.494 112.233C140.755 112.233 140.992 112.188 141.205 112.097C141.418 112.006 141.599 111.875 141.747 111.705C141.894 111.534 141.999 111.33 142.062 111.091H143.068C143.011 111.477 142.87 111.825 142.646 112.135C142.424 112.442 142.13 112.686 141.764 112.868C141.4 113.047 140.977 113.136 140.494 113.136ZM145.138 113V106.455H147.814C148.518 106.455 149.078 106.614 149.493 106.932C149.908 107.25 150.115 107.67 150.115 108.193C150.115 108.591 149.997 108.899 149.761 109.118C149.526 109.334 149.223 109.48 148.854 109.557C149.095 109.591 149.33 109.676 149.557 109.812C149.787 109.949 149.977 110.136 150.128 110.375C150.278 110.611 150.354 110.901 150.354 111.244C150.354 111.58 150.268 111.879 150.098 112.143C149.928 112.408 149.683 112.616 149.365 112.77C149.047 112.923 148.666 113 148.223 113H145.138ZM146.092 112.08H148.223C148.57 112.08 148.841 111.997 149.037 111.832C149.233 111.668 149.331 111.443 149.331 111.159C149.331 110.821 149.233 110.555 149.037 110.362C148.841 110.166 148.57 110.068 148.223 110.068H146.092V112.08ZM146.092 109.199H147.814C148.084 109.199 148.315 109.162 148.509 109.088C148.702 109.011 148.849 108.903 148.952 108.764C149.057 108.622 149.109 108.455 149.109 108.261C149.109 107.986 148.994 107.77 148.764 107.614C148.534 107.455 148.217 107.375 147.814 107.375H146.092V109.199ZM155.135 113.136C154.544 113.136 154.026 112.996 153.58 112.714C153.137 112.433 152.79 112.04 152.54 111.534C152.293 111.028 152.169 110.437 152.169 109.761C152.169 109.08 152.293 108.484 152.54 107.976C152.79 107.467 153.137 107.072 153.58 106.791C154.026 106.51 154.544 106.369 155.135 106.369C155.726 106.369 156.243 106.51 156.686 106.791C157.132 107.072 157.479 107.467 157.726 107.976C157.976 108.484 158.101 109.08 158.101 109.761C158.101 110.437 157.976 111.028 157.726 111.534C157.479 112.04 157.132 112.433 156.686 112.714C156.243 112.996 155.726 113.136 155.135 113.136ZM155.135 112.233C155.584 112.233 155.953 112.118 156.243 111.888C156.533 111.658 156.747 111.355 156.887 110.98C157.026 110.605 157.095 110.199 157.095 109.761C157.095 109.324 157.026 108.916 156.887 108.538C156.747 108.161 156.533 107.855 156.243 107.622C155.953 107.389 155.584 107.273 155.135 107.273C154.686 107.273 154.317 107.389 154.027 107.622C153.737 107.855 153.523 108.161 153.384 108.538C153.245 108.916 153.175 109.324 153.175 109.761C153.175 110.199 153.245 110.605 153.384 110.98C153.523 111.355 153.737 111.658 154.027 111.888C154.317 112.118 154.686 112.233 155.135 112.233ZM162.981 113.136C162.35 113.136 161.806 112.997 161.348 112.719C160.894 112.438 160.543 112.045 160.296 111.543C160.052 111.037 159.929 110.449 159.929 109.778C159.929 109.108 160.052 108.517 160.296 108.006C160.543 107.491 160.887 107.091 161.327 106.804C161.77 106.514 162.287 106.369 162.878 106.369C163.219 106.369 163.556 106.426 163.888 106.54C164.221 106.653 164.523 106.838 164.796 107.094C165.069 107.347 165.286 107.682 165.448 108.099C165.61 108.517 165.691 109.031 165.691 109.642V110.068H160.645V109.199H164.668C164.668 108.83 164.594 108.5 164.446 108.21C164.302 107.92 164.094 107.692 163.824 107.524C163.557 107.357 163.242 107.273 162.878 107.273C162.478 107.273 162.131 107.372 161.839 107.571C161.549 107.767 161.326 108.023 161.169 108.338C161.013 108.653 160.935 108.991 160.935 109.352V109.932C160.935 110.426 161.02 110.845 161.191 111.189C161.364 111.53 161.604 111.79 161.911 111.969C162.218 112.145 162.574 112.233 162.981 112.233C163.245 112.233 163.483 112.196 163.696 112.122C163.912 112.045 164.098 111.932 164.255 111.781C164.411 111.628 164.532 111.437 164.617 111.21L165.589 111.483C165.486 111.812 165.314 112.102 165.073 112.352C164.831 112.599 164.533 112.793 164.178 112.932C163.823 113.068 163.424 113.136 162.981 113.136ZM171.86 106.455V107.392H168.826V113H167.821V106.455H171.86ZM176.248 113.136C175.657 113.136 175.138 112.996 174.692 112.714C174.249 112.433 173.902 112.04 173.652 111.534C173.405 111.028 173.282 110.437 173.282 109.761C173.282 109.08 173.405 108.484 173.652 107.976C173.902 107.467 174.249 107.072 174.692 106.791C175.138 106.51 175.657 106.369 176.248 106.369C176.839 106.369 177.356 106.51 177.799 106.791C178.245 107.072 178.591 107.467 178.839 107.976C179.089 108.484 179.214 109.08 179.214 109.761C179.214 110.437 179.089 111.028 178.839 111.534C178.591 112.04 178.245 112.433 177.799 112.714C177.356 112.996 176.839 113.136 176.248 113.136ZM176.248 112.233C176.697 112.233 177.066 112.118 177.356 111.888C177.645 111.658 177.86 111.355 177.999 110.98C178.138 110.605 178.208 110.199 178.208 109.761C178.208 109.324 178.138 108.916 177.999 108.538C177.86 108.161 177.645 107.855 177.356 107.622C177.066 107.389 176.697 107.273 176.248 107.273C175.799 107.273 175.429 107.389 175.14 107.622C174.85 107.855 174.635 108.161 174.496 108.538C174.357 108.916 174.287 109.324 174.287 109.761C174.287 110.199 174.357 110.605 174.496 110.98C174.635 111.355 174.85 111.658 175.14 111.888C175.429 112.118 175.799 112.233 176.248 112.233ZM187.983 113.136C187.392 113.136 186.873 112.996 186.427 112.714C185.984 112.433 185.638 112.04 185.388 111.534C185.14 111.028 185.017 110.437 185.017 109.761C185.017 109.08 185.14 108.484 185.388 107.976C185.638 107.467 185.984 107.072 186.427 106.791C186.873 106.51 187.392 106.369 187.983 106.369C188.574 106.369 189.091 106.51 189.534 106.791C189.98 107.072 190.327 107.467 190.574 107.976C190.824 108.484 190.949 109.08 190.949 109.761C190.949 110.437 190.824 111.028 190.574 111.534C190.327 112.04 189.98 112.433 189.534 112.714C189.091 112.996 188.574 113.136 187.983 113.136ZM187.983 112.233C188.432 112.233 188.801 112.118 189.091 111.888C189.381 111.658 189.595 111.355 189.734 110.98C189.873 110.605 189.943 110.199 189.943 109.761C189.943 109.324 189.873 108.916 189.734 108.538C189.595 108.161 189.381 107.855 189.091 107.622C188.801 107.389 188.432 107.273 187.983 107.273C187.534 107.273 187.165 107.389 186.875 107.622C186.585 107.855 186.371 108.161 186.231 108.538C186.092 108.916 186.023 109.324 186.023 109.761C186.023 110.199 186.092 110.605 186.231 110.98C186.371 111.355 186.585 111.658 186.875 111.888C187.165 112.118 187.534 112.233 187.983 112.233ZM192.228 107.392V106.455H197.547V107.392H195.399V113H194.393V107.392H192.228ZM199.614 113V106.455H202.29C202.994 106.455 203.554 106.614 203.969 106.932C204.383 107.25 204.591 107.67 204.591 108.193C204.591 108.591 204.473 108.899 204.237 109.118C204.001 109.334 203.699 109.48 203.329 109.557C203.571 109.591 203.805 109.676 204.033 109.812C204.263 109.949 204.453 110.136 204.604 110.375C204.754 110.611 204.829 110.901 204.829 111.244C204.829 111.58 204.744 111.879 204.574 112.143C204.403 112.408 204.159 112.616 203.841 112.77C203.523 112.923 203.142 113 202.699 113H199.614ZM200.568 112.08H202.699C203.045 112.08 203.317 111.997 203.513 111.832C203.709 111.668 203.807 111.443 203.807 111.159C203.807 110.821 203.709 110.555 203.513 110.362C203.317 110.166 203.045 110.068 202.699 110.068H200.568V112.08ZM200.568 109.199H202.29C202.56 109.199 202.791 109.162 202.984 109.088C203.177 109.011 203.325 108.903 203.427 108.764C203.533 108.622 203.585 108.455 203.585 108.261C203.585 107.986 203.47 107.77 203.24 107.614C203.01 107.455 202.693 107.375 202.29 107.375H200.568V109.199ZM209.696 113.136C209.065 113.136 208.521 112.997 208.064 112.719C207.61 112.438 207.259 112.045 207.012 111.543C206.767 111.037 206.645 110.449 206.645 109.778C206.645 109.108 206.767 108.517 207.012 108.006C207.259 107.491 207.602 107.091 208.043 106.804C208.486 106.514 209.003 106.369 209.594 106.369C209.935 106.369 210.271 106.426 210.604 106.54C210.936 106.653 211.239 106.838 211.512 107.094C211.784 107.347 212.002 107.682 212.164 108.099C212.325 108.517 212.406 109.031 212.406 109.642V110.068H207.361V109.199H211.384C211.384 108.83 211.31 108.5 211.162 108.21C211.017 107.92 210.81 107.692 210.54 107.524C210.273 107.357 209.958 107.273 209.594 107.273C209.193 107.273 208.847 107.372 208.554 107.571C208.264 107.767 208.041 108.023 207.885 108.338C207.729 108.653 207.651 108.991 207.651 109.352V109.932C207.651 110.426 207.736 110.845 207.906 111.189C208.08 111.53 208.32 111.79 208.627 111.969C208.933 112.145 209.29 112.233 209.696 112.233C209.96 112.233 210.199 112.196 210.412 112.122C210.628 112.045 210.814 111.932 210.97 111.781C211.127 111.628 211.247 111.437 211.333 111.21L212.304 111.483C212.202 111.812 212.03 112.102 211.789 112.352C211.547 112.599 211.249 112.793 210.894 112.932C210.539 113.068 210.139 113.136 209.696 113.136ZM213.927 107.392V106.455H219.245V107.392H217.097V113H216.092V107.392H213.927ZM222.898 113.153C222.484 113.153 222.107 113.075 221.769 112.919C221.431 112.76 221.163 112.531 220.964 112.233C220.765 111.932 220.665 111.568 220.665 111.142C220.665 110.767 220.739 110.463 220.887 110.23C221.035 109.994 221.232 109.81 221.479 109.676C221.726 109.543 221.999 109.443 222.297 109.378C222.599 109.31 222.901 109.256 223.205 109.216C223.603 109.165 223.925 109.126 224.172 109.101C224.422 109.072 224.604 109.026 224.718 108.96C224.834 108.895 224.893 108.781 224.893 108.619V108.585C224.893 108.165 224.778 107.838 224.547 107.605C224.32 107.372 223.975 107.256 223.512 107.256C223.032 107.256 222.655 107.361 222.383 107.571C222.11 107.781 221.918 108.006 221.807 108.244L220.853 107.903C221.023 107.506 221.251 107.196 221.535 106.974C221.822 106.75 222.134 106.594 222.472 106.506C222.813 106.415 223.148 106.369 223.478 106.369C223.688 106.369 223.93 106.395 224.202 106.446C224.478 106.494 224.743 106.595 224.999 106.749C225.258 106.902 225.472 107.134 225.643 107.443C225.813 107.753 225.898 108.168 225.898 108.688V113H224.893V112.114H224.841C224.773 112.256 224.66 112.408 224.501 112.57C224.341 112.732 224.13 112.869 223.866 112.983C223.601 113.097 223.279 113.153 222.898 113.153ZM223.052 112.25C223.449 112.25 223.785 112.172 224.057 112.016C224.333 111.859 224.54 111.658 224.68 111.411C224.822 111.163 224.893 110.903 224.893 110.631V109.71C224.85 109.761 224.756 109.808 224.611 109.851C224.469 109.891 224.305 109.926 224.117 109.957C223.932 109.986 223.752 110.011 223.576 110.034C223.403 110.054 223.262 110.071 223.154 110.085C222.893 110.119 222.648 110.175 222.421 110.251C222.197 110.325 222.015 110.437 221.876 110.588C221.739 110.736 221.671 110.937 221.671 111.193C221.671 111.543 221.8 111.807 222.059 111.986C222.32 112.162 222.651 112.25 223.052 112.25ZM236.69 109.267V110.205H233.076V109.267H236.69ZM233.315 106.455V113H232.309V106.455H233.315ZM237.457 106.455V113H236.451V106.455H237.457ZM241.819 113.153C241.405 113.153 241.028 113.075 240.69 112.919C240.352 112.76 240.084 112.531 239.885 112.233C239.686 111.932 239.586 111.568 239.586 111.142C239.586 110.767 239.66 110.463 239.808 110.23C239.956 109.994 240.153 109.81 240.4 109.676C240.648 109.543 240.92 109.443 241.219 109.378C241.52 109.31 241.822 109.256 242.126 109.216C242.524 109.165 242.846 109.126 243.094 109.101C243.344 109.072 243.525 109.026 243.639 108.96C243.755 108.895 243.814 108.781 243.814 108.619V108.585C243.814 108.165 243.699 107.838 243.469 107.605C243.241 107.372 242.896 107.256 242.433 107.256C241.953 107.256 241.577 107.361 241.304 107.571C241.031 107.781 240.839 108.006 240.728 108.244L239.774 107.903C239.944 107.506 240.172 107.196 240.456 106.974C240.743 106.75 241.055 106.594 241.393 106.506C241.734 106.415 242.069 106.369 242.399 106.369C242.609 106.369 242.851 106.395 243.123 106.446C243.399 106.494 243.665 106.595 243.92 106.749C244.179 106.902 244.393 107.134 244.564 107.443C244.734 107.753 244.819 108.168 244.819 108.688V113H243.814V112.114H243.763C243.694 112.256 243.581 112.408 243.422 112.57C243.263 112.732 243.051 112.869 242.787 112.983C242.523 113.097 242.2 113.153 241.819 113.153ZM241.973 112.25C242.371 112.25 242.706 112.172 242.978 112.016C243.254 111.859 243.461 111.658 243.601 111.411C243.743 111.163 243.814 110.903 243.814 110.631V109.71C243.771 109.761 243.677 109.808 243.532 109.851C243.39 109.891 243.226 109.926 243.038 109.957C242.853 109.986 242.673 110.011 242.497 110.034C242.324 110.054 242.183 110.071 242.075 110.085C241.814 110.119 241.569 110.175 241.342 110.251C241.118 110.325 240.936 110.437 240.797 110.588C240.66 110.736 240.592 110.937 240.592 111.193C240.592 111.543 240.721 111.807 240.98 111.986C241.241 112.162 241.572 112.25 241.973 112.25ZM251.23 113V106.455H253.906C254.611 106.455 255.17 106.614 255.585 106.932C256 107.25 256.207 107.67 256.207 108.193C256.207 108.591 256.089 108.899 255.854 109.118C255.618 109.334 255.315 109.48 254.946 109.557C255.187 109.591 255.422 109.676 255.649 109.812C255.879 109.949 256.069 110.136 256.22 110.375C256.371 110.611 256.446 110.901 256.446 111.244C256.446 111.58 256.361 111.879 256.19 112.143C256.02 112.408 255.775 112.616 255.457 112.77C255.139 112.923 254.758 113 254.315 113H251.23ZM252.185 112.08H254.315C254.662 112.08 254.933 111.997 255.129 111.832C255.325 111.668 255.423 111.443 255.423 111.159C255.423 110.821 255.325 110.555 255.129 110.362C254.933 110.166 254.662 110.068 254.315 110.068H252.185V112.08ZM252.185 109.199H253.906C254.176 109.199 254.408 109.162 254.601 109.088C254.794 109.011 254.942 108.903 255.044 108.764C255.149 108.622 255.202 108.455 255.202 108.261C255.202 107.986 255.087 107.77 254.856 107.614C254.626 107.455 254.31 107.375 253.906 107.375H252.185V109.199ZM259.438 108.824H261.313C262.08 108.824 262.666 109.018 263.073 109.408C263.479 109.797 263.682 110.29 263.682 110.886C263.682 111.278 263.591 111.635 263.409 111.956C263.227 112.274 262.96 112.528 262.608 112.719C262.256 112.906 261.824 113 261.313 113H258.568V106.455H259.574V112.062H261.313C261.71 112.062 262.037 111.957 262.293 111.747C262.548 111.537 262.676 111.267 262.676 110.938C262.676 110.591 262.548 110.308 262.293 110.089C262.037 109.871 261.71 109.761 261.313 109.761H259.438V108.824ZM264.722 113V106.455H265.727V113H264.722ZM273.026 104L273.538 104.614C273.339 104.807 273.109 104.942 272.847 105.018C272.586 105.095 272.29 105.142 271.961 105.159C271.631 105.176 271.265 105.193 270.861 105.21C270.407 105.227 270.03 105.338 269.732 105.543C269.434 105.747 269.204 106.043 269.042 106.429C268.88 106.815 268.776 107.29 268.731 107.852H268.816C269.038 107.443 269.344 107.142 269.736 106.949C270.128 106.756 270.549 106.659 270.998 106.659C271.509 106.659 271.969 106.778 272.378 107.017C272.788 107.256 273.111 107.609 273.35 108.078C273.589 108.547 273.708 109.125 273.708 109.812C273.708 110.497 273.586 111.088 273.342 111.585C273.1 112.082 272.761 112.466 272.323 112.736C271.888 113.003 271.378 113.136 270.793 113.136C270.208 113.136 269.695 112.999 269.255 112.723C268.815 112.445 268.472 112.033 268.228 111.487C267.984 110.939 267.861 110.261 267.861 109.455V108.756C267.861 107.298 268.109 106.193 268.603 105.44C269.1 104.687 269.847 104.298 270.844 104.273C271.197 104.261 271.511 104.259 271.786 104.264C272.062 104.27 272.302 104.257 272.506 104.226C272.711 104.195 272.884 104.119 273.026 104ZM270.793 112.233C271.188 112.233 271.528 112.134 271.812 111.935C272.099 111.736 272.319 111.456 272.472 111.095C272.626 110.732 272.702 110.304 272.702 109.812C272.702 109.335 272.624 108.929 272.468 108.594C272.315 108.259 272.094 108.003 271.807 107.827C271.521 107.651 271.177 107.562 270.776 107.562C270.484 107.562 270.221 107.612 269.988 107.712C269.755 107.811 269.556 107.957 269.391 108.151C269.226 108.344 269.099 108.58 269.008 108.858C268.92 109.136 268.873 109.455 268.867 109.812C268.867 110.545 269.039 111.132 269.383 111.572C269.726 112.013 270.197 112.233 270.793 112.233ZM275.846 115.455V106.455H276.818V107.494H276.937C277.011 107.381 277.113 107.236 277.244 107.06C277.378 106.881 277.568 106.722 277.815 106.582C278.065 106.44 278.403 106.369 278.829 106.369C279.38 106.369 279.866 106.507 280.287 106.783C280.707 107.058 281.035 107.449 281.271 107.955C281.507 108.46 281.625 109.057 281.625 109.744C281.625 110.438 281.507 111.038 281.271 111.547C281.035 112.053 280.709 112.445 280.291 112.723C279.873 112.999 279.392 113.136 278.846 113.136C278.426 113.136 278.089 113.067 277.836 112.928C277.584 112.786 277.389 112.625 277.253 112.446C277.116 112.264 277.011 112.114 276.937 111.994H276.852V115.455H275.846ZM276.835 109.727C276.835 110.222 276.907 110.658 277.052 111.036C277.197 111.411 277.409 111.705 277.687 111.918C277.966 112.128 278.307 112.233 278.71 112.233C279.13 112.233 279.481 112.122 279.763 111.901C280.047 111.676 280.26 111.375 280.402 110.997C280.547 110.616 280.619 110.193 280.619 109.727C280.619 109.267 280.548 108.852 280.406 108.483C280.267 108.111 280.055 107.817 279.771 107.601C279.49 107.382 279.136 107.273 278.71 107.273C278.301 107.273 277.957 107.376 277.679 107.584C277.4 107.788 277.19 108.075 277.048 108.445C276.906 108.811 276.835 109.239 276.835 109.727ZM285.685 113.153C285.27 113.153 284.894 113.075 284.556 112.919C284.218 112.76 283.949 112.531 283.75 112.233C283.551 111.932 283.452 111.568 283.452 111.142C283.452 110.767 283.526 110.463 283.674 110.23C283.821 109.994 284.019 109.81 284.266 109.676C284.513 109.543 284.786 109.443 285.084 109.378C285.385 109.31 285.688 109.256 285.992 109.216C286.39 109.165 286.712 109.126 286.959 109.101C287.209 109.072 287.391 109.026 287.505 108.96C287.621 108.895 287.679 108.781 287.679 108.619V108.585C287.679 108.165 287.564 107.838 287.334 107.605C287.107 107.372 286.762 107.256 286.299 107.256C285.819 107.256 285.442 107.361 285.169 107.571C284.897 107.781 284.705 108.006 284.594 108.244L283.64 107.903C283.81 107.506 284.037 107.196 284.321 106.974C284.608 106.75 284.921 106.594 285.259 106.506C285.6 106.415 285.935 106.369 286.265 106.369C286.475 106.369 286.716 106.395 286.989 106.446C287.265 106.494 287.53 106.595 287.786 106.749C288.044 106.902 288.259 107.134 288.429 107.443C288.6 107.753 288.685 108.168 288.685 108.688V113H287.679V112.114H287.628C287.56 112.256 287.446 112.408 287.287 112.57C287.128 112.732 286.917 112.869 286.652 112.983C286.388 113.097 286.066 113.153 285.685 113.153ZM285.838 112.25C286.236 112.25 286.571 112.172 286.844 112.016C287.12 111.859 287.327 111.658 287.466 111.411C287.608 111.163 287.679 110.903 287.679 110.631V109.71C287.637 109.761 287.543 109.808 287.398 109.851C287.256 109.891 287.091 109.926 286.904 109.957C286.719 109.986 286.539 110.011 286.363 110.034C286.189 110.054 286.049 110.071 285.941 110.085C285.679 110.119 285.435 110.175 285.208 110.251C284.983 110.325 284.801 110.437 284.662 110.588C284.526 110.736 284.458 110.937 284.458 111.193C284.458 111.543 284.587 111.807 284.846 111.986C285.107 112.162 285.438 112.25 285.838 112.25ZM295.501 109.267V110.205H291.888V109.267H295.501ZM292.126 106.455V113H291.121V106.455H292.126ZM296.268 106.455V113H295.263V106.455H296.268ZM303.086 109.267V110.205H299.472V109.267H303.086ZM299.711 106.455V113H298.705V106.455H299.711ZM303.853 106.455V113H302.847V106.455H303.853ZM307.159 108.824H309.034C309.801 108.824 310.387 109.018 310.794 109.408C311.2 109.797 311.403 110.29 311.403 110.886C311.403 111.278 311.312 111.635 311.13 111.956C310.948 112.274 310.681 112.528 310.329 112.719C309.977 112.906 309.545 113 309.034 113H306.289V106.455H307.295V112.062H309.034C309.431 112.062 309.758 111.957 310.014 111.747C310.269 111.537 310.397 111.267 310.397 110.938C310.397 110.591 310.269 110.308 310.014 110.089C309.758 109.871 309.431 109.761 309.034 109.761H307.159V108.824ZM312.443 113V106.455H313.448V113H312.443ZM316.895 111.517L320.048 106.455H321.208V113H320.202V107.938L317.065 113H315.889V106.455H316.895V111.517ZM319.384 104.273H320.321C320.321 104.733 320.162 105.109 319.844 105.402C319.526 105.695 319.094 105.841 318.548 105.841C318.012 105.841 317.584 105.695 317.266 105.402C316.95 105.109 316.793 104.733 316.793 104.273H317.73C317.73 104.494 317.791 104.689 317.914 104.857C318.039 105.024 318.25 105.108 318.548 105.108C318.847 105.108 319.06 105.024 319.188 104.857C319.318 104.689 319.384 104.494 319.384 104.273ZM327.215 111.33H328.289C328.312 111.625 328.446 111.849 328.69 112.003C328.937 112.156 329.258 112.233 329.653 112.233C330.056 112.233 330.401 112.151 330.688 111.986C330.975 111.818 331.119 111.548 331.119 111.176C331.119 110.957 331.065 110.767 330.957 110.605C330.849 110.44 330.697 110.312 330.501 110.222C330.305 110.131 330.073 110.085 329.806 110.085H328.681V109.182H329.806C330.207 109.182 330.502 109.091 330.693 108.909C330.886 108.727 330.982 108.5 330.982 108.227C330.982 107.935 330.879 107.7 330.671 107.524C330.464 107.345 330.17 107.256 329.789 107.256C329.406 107.256 329.086 107.342 328.83 107.516C328.575 107.686 328.44 107.906 328.426 108.176H327.369C327.38 107.824 327.488 107.513 327.693 107.243C327.897 106.97 328.176 106.757 328.528 106.604C328.88 106.447 329.284 106.369 329.738 106.369C330.198 106.369 330.598 106.45 330.936 106.612C331.276 106.771 331.539 106.989 331.724 107.264C331.911 107.537 332.005 107.847 332.005 108.193C332.005 108.562 331.901 108.861 331.694 109.088C331.487 109.315 331.227 109.477 330.914 109.574V109.642C331.161 109.659 331.376 109.739 331.558 109.881C331.742 110.02 331.886 110.203 331.988 110.43C332.09 110.655 332.142 110.903 332.142 111.176C332.142 111.574 332.035 111.92 331.822 112.216C331.609 112.509 331.316 112.736 330.944 112.898C330.572 113.057 330.147 113.136 329.67 113.136C329.207 113.136 328.792 113.061 328.426 112.911C328.059 112.757 327.768 112.545 327.552 112.276C327.339 112.003 327.227 111.688 327.215 111.33ZM336.08 113.153C335.666 113.153 335.289 113.075 334.951 112.919C334.613 112.76 334.345 112.531 334.146 112.233C333.947 111.932 333.847 111.568 333.847 111.142C333.847 110.767 333.921 110.463 334.069 110.23C334.217 109.994 334.414 109.81 334.661 109.676C334.908 109.543 335.181 109.443 335.479 109.378C335.781 109.31 336.083 109.256 336.387 109.216C336.785 109.165 337.107 109.126 337.354 109.101C337.604 109.072 337.786 109.026 337.9 108.96C338.016 108.895 338.075 108.781 338.075 108.619V108.585C338.075 108.165 337.96 107.838 337.729 107.605C337.502 107.372 337.157 107.256 336.694 107.256C336.214 107.256 335.837 107.361 335.565 107.571C335.292 107.781 335.1 108.006 334.989 108.244L334.035 107.903C334.205 107.506 334.433 107.196 334.717 106.974C335.004 106.75 335.316 106.594 335.654 106.506C335.995 106.415 336.33 106.369 336.66 106.369C336.87 106.369 337.112 106.395 337.384 106.446C337.66 106.494 337.925 106.595 338.181 106.749C338.44 106.902 338.654 107.134 338.825 107.443C338.995 107.753 339.08 108.168 339.08 108.688V113H338.075V112.114H338.024C337.955 112.256 337.842 112.408 337.683 112.57C337.524 112.732 337.312 112.869 337.048 112.983C336.783 113.097 336.461 113.153 336.08 113.153ZM336.234 112.25C336.631 112.25 336.967 112.172 337.239 112.016C337.515 111.859 337.722 111.658 337.862 111.411C338.004 111.163 338.075 110.903 338.075 110.631V109.71C338.032 109.761 337.938 109.808 337.793 109.851C337.651 109.891 337.487 109.926 337.299 109.957C337.114 109.986 336.934 110.011 336.758 110.034C336.585 110.054 336.444 110.071 336.336 110.085C336.075 110.119 335.83 110.175 335.603 110.251C335.379 110.325 335.197 110.437 335.058 110.588C334.921 110.736 334.853 110.937 334.853 111.193C334.853 111.543 334.982 111.807 335.241 111.986C335.502 112.162 335.833 112.25 336.234 112.25ZM341.516 113V106.455H346.664V113H345.658V107.392H342.522V113H341.516ZM349.1 115.455V106.455H350.072V107.494H350.191C350.265 107.381 350.367 107.236 350.498 107.06C350.632 106.881 350.822 106.722 351.069 106.582C351.319 106.44 351.657 106.369 352.083 106.369C352.634 106.369 353.12 106.507 353.541 106.783C353.961 107.058 354.289 107.449 354.525 107.955C354.761 108.46 354.879 109.057 354.879 109.744C354.879 110.438 354.761 111.038 354.525 111.547C354.289 112.053 353.963 112.445 353.545 112.723C353.127 112.999 352.646 113.136 352.1 113.136C351.68 113.136 351.343 113.067 351.09 112.928C350.838 112.786 350.643 112.625 350.507 112.446C350.37 112.264 350.265 112.114 350.191 111.994H350.106V115.455H349.1ZM350.089 109.727C350.089 110.222 350.161 110.658 350.306 111.036C350.451 111.411 350.663 111.705 350.941 111.918C351.22 112.128 351.561 112.233 351.964 112.233C352.384 112.233 352.735 112.122 353.016 111.901C353.301 111.676 353.514 111.375 353.656 110.997C353.801 110.616 353.873 110.193 353.873 109.727C353.873 109.267 353.802 108.852 353.66 108.483C353.521 108.111 353.309 107.817 353.025 107.601C352.744 107.382 352.39 107.273 351.964 107.273C351.555 107.273 351.211 107.376 350.933 107.584C350.654 107.788 350.444 108.075 350.302 108.445C350.16 108.811 350.089 109.239 350.089 109.727ZM359.672 113.136C359.081 113.136 358.563 112.996 358.116 112.714C357.673 112.433 357.327 112.04 357.077 111.534C356.83 111.028 356.706 110.437 356.706 109.761C356.706 109.08 356.83 108.484 357.077 107.976C357.327 107.467 357.673 107.072 358.116 106.791C358.563 106.51 359.081 106.369 359.672 106.369C360.263 106.369 360.78 106.51 361.223 106.791C361.669 107.072 362.016 107.467 362.263 107.976C362.513 108.484 362.638 109.08 362.638 109.761C362.638 110.437 362.513 111.028 362.263 111.534C362.016 112.04 361.669 112.433 361.223 112.714C360.78 112.996 360.263 113.136 359.672 113.136ZM359.672 112.233C360.121 112.233 360.49 112.118 360.78 111.888C361.07 111.658 361.284 111.355 361.423 110.98C361.563 110.605 361.632 110.199 361.632 109.761C361.632 109.324 361.563 108.916 361.423 108.538C361.284 108.161 361.07 107.855 360.78 107.622C360.49 107.389 360.121 107.273 359.672 107.273C359.223 107.273 358.854 107.389 358.564 107.622C358.274 107.855 358.06 108.161 357.92 108.538C357.781 108.916 357.712 109.324 357.712 109.761C357.712 110.199 357.781 110.605 357.92 110.98C358.06 111.355 358.274 111.658 358.564 111.888C358.854 112.118 359.223 112.233 359.672 112.233ZM367.432 113.136C366.818 113.136 366.29 112.991 365.847 112.702C365.404 112.412 365.063 112.013 364.824 111.504C364.585 110.996 364.466 110.415 364.466 109.761C364.466 109.097 364.588 108.51 364.833 108.001C365.08 107.49 365.424 107.091 365.864 106.804C366.307 106.514 366.824 106.369 367.415 106.369C367.875 106.369 368.29 106.455 368.659 106.625C369.029 106.795 369.331 107.034 369.567 107.341C369.803 107.648 369.949 108.006 370.006 108.415H369C368.924 108.116 368.753 107.852 368.489 107.622C368.227 107.389 367.875 107.273 367.432 107.273C367.04 107.273 366.696 107.375 366.401 107.58C366.108 107.781 365.879 108.067 365.715 108.436C365.553 108.803 365.472 109.233 365.472 109.727C365.472 110.233 365.551 110.673 365.71 111.048C365.872 111.423 366.1 111.714 366.392 111.922C366.688 112.129 367.034 112.233 367.432 112.233C367.693 112.233 367.931 112.188 368.144 112.097C368.357 112.006 368.537 111.875 368.685 111.705C368.833 111.534 368.938 111.33 369 111.091H370.006C369.949 111.477 369.808 111.825 369.584 112.135C369.362 112.442 369.068 112.686 368.702 112.868C368.338 113.047 367.915 113.136 367.432 113.136ZM62.583 119.273V128H61.5262V120.21H57.1285V128H56.0717V119.273H62.583ZM65.1784 130.455V121.455H66.15V122.494H66.2693C66.3432 122.381 66.4455 122.236 66.5761 122.06C66.7097 121.881 66.9 121.722 67.1472 121.582C67.3972 121.44 67.7352 121.369 68.1614 121.369C68.7125 121.369 69.1983 121.507 69.6188 121.783C70.0392 122.058 70.3673 122.449 70.6031 122.955C70.8389 123.46 70.9568 124.057 70.9568 124.744C70.9568 125.438 70.8389 126.038 70.6031 126.547C70.3673 127.053 70.0406 127.445 69.623 127.723C69.2054 127.999 68.7239 128.136 68.1784 128.136C67.758 128.136 67.4213 128.067 67.1685 127.928C66.9156 127.786 66.721 127.625 66.5847 127.446C66.4483 127.264 66.3432 127.114 66.2693 126.994H66.1841V130.455H65.1784ZM66.1671 124.727C66.1671 125.222 66.2395 125.658 66.3844 126.036C66.5293 126.411 66.7409 126.705 67.0193 126.918C67.2977 127.128 67.6386 127.233 68.0421 127.233C68.4625 127.233 68.8134 127.122 69.0946 126.901C69.3787 126.676 69.5918 126.375 69.7338 125.997C69.8787 125.616 69.9511 125.193 69.9511 124.727C69.9511 124.267 69.8801 123.852 69.7381 123.483C69.5989 123.111 69.3872 122.817 69.1031 122.601C68.8219 122.382 68.4682 122.273 68.0421 122.273C67.633 122.273 67.2892 122.376 67.0108 122.584C66.7324 122.788 66.5222 123.075 66.3801 123.445C66.2381 123.811 66.1671 124.239 66.1671 124.727ZM75.75 128.136C75.1591 128.136 74.6406 127.996 74.1946 127.714C73.7514 127.433 73.4048 127.04 73.1548 126.534C72.9077 126.028 72.7841 125.437 72.7841 124.761C72.7841 124.08 72.9077 123.484 73.1548 122.976C73.4048 122.467 73.7514 122.072 74.1946 121.791C74.6406 121.51 75.1591 121.369 75.75 121.369C76.3409 121.369 76.858 121.51 77.3011 121.791C77.7472 122.072 78.0938 122.467 78.3409 122.976C78.5909 123.484 78.7159 124.08 78.7159 124.761C78.7159 125.437 78.5909 126.028 78.3409 126.534C78.0938 127.04 77.7472 127.433 77.3011 127.714C76.858 127.996 76.3409 128.136 75.75 128.136ZM75.75 127.233C76.1989 127.233 76.5682 127.118 76.858 126.888C77.1477 126.658 77.3622 126.355 77.5014 125.98C77.6406 125.605 77.7102 125.199 77.7102 124.761C77.7102 124.324 77.6406 123.916 77.5014 123.538C77.3622 123.161 77.1477 122.855 76.858 122.622C76.5682 122.389 76.1989 122.273 75.75 122.273C75.3011 122.273 74.9318 122.389 74.6421 122.622C74.3523 122.855 74.1378 123.161 73.9986 123.538C73.8594 123.916 73.7898 124.324 73.7898 124.761C73.7898 125.199 73.8594 125.605 73.9986 125.98C74.1378 126.355 74.3523 126.658 74.6421 126.888C74.9318 127.118 75.3011 127.233 75.75 127.233ZM83.5102 128.136C82.8965 128.136 82.3681 127.991 81.9249 127.702C81.4818 127.412 81.1408 127.013 80.9022 126.504C80.6636 125.996 80.5443 125.415 80.5443 124.761C80.5443 124.097 80.6664 123.51 80.9107 123.001C81.1579 122.49 81.5016 122.091 81.942 121.804C82.3852 121.514 82.9022 121.369 83.4931 121.369C83.9533 121.369 84.3681 121.455 84.7374 121.625C85.1068 121.795 85.4093 122.034 85.6451 122.341C85.8809 122.648 86.0272 123.006 86.084 123.415H85.0783C85.0016 123.116 84.8312 122.852 84.567 122.622C84.3056 122.389 83.9533 122.273 83.5102 122.273C83.1181 122.273 82.7744 122.375 82.4789 122.58C82.1863 122.781 81.9576 123.067 81.7928 123.436C81.6309 123.803 81.5499 124.233 81.5499 124.727C81.5499 125.233 81.6295 125.673 81.7886 126.048C81.9505 126.423 82.1778 126.714 82.4704 126.922C82.7658 127.129 83.1124 127.233 83.5102 127.233C83.7715 127.233 84.0087 127.188 84.2218 127.097C84.4349 127.006 84.6153 126.875 84.763 126.705C84.9107 126.534 85.0158 126.33 85.0783 126.091H86.084C86.0272 126.477 85.8866 126.825 85.6621 127.135C85.4406 127.442 85.1465 127.686 84.78 127.868C84.4164 128.047 83.9931 128.136 83.5102 128.136ZM91.7337 126.636L94.0178 121.455H94.9724L92.1428 128H91.3247L88.5462 121.455H89.4837L91.7337 126.636ZM89.1599 121.455V128H88.1542V121.455H89.1599ZM94.3076 128V121.455H95.3133V128H94.3076ZM100.413 128.136C99.8224 128.136 99.3039 127.996 98.8579 127.714C98.4147 127.433 98.0681 127.04 97.8181 126.534C97.571 126.028 97.4474 125.437 97.4474 124.761C97.4474 124.08 97.571 123.484 97.8181 122.976C98.0681 122.467 98.4147 122.072 98.8579 121.791C99.3039 121.51 99.8224 121.369 100.413 121.369C101.004 121.369 101.521 121.51 101.964 121.791C102.41 122.072 102.757 122.467 103.004 122.976C103.254 123.484 103.379 124.08 103.379 124.761C103.379 125.437 103.254 126.028 103.004 126.534C102.757 127.04 102.41 127.433 101.964 127.714C101.521 127.996 101.004 128.136 100.413 128.136ZM100.413 127.233C100.862 127.233 101.231 127.118 101.521 126.888C101.811 126.658 102.026 126.355 102.165 125.98C102.304 125.605 102.374 125.199 102.374 124.761C102.374 124.324 102.304 123.916 102.165 123.538C102.026 123.161 101.811 122.855 101.521 122.622C101.231 122.389 100.862 122.273 100.413 122.273C99.9644 122.273 99.5951 122.389 99.3053 122.622C99.0156 122.855 98.8011 123.161 98.6619 123.538C98.5227 123.916 98.4531 124.324 98.4531 124.761C98.4531 125.199 98.5227 125.605 98.6619 125.98C98.8011 126.355 99.0156 126.658 99.3053 126.888C99.5951 127.118 99.9644 127.233 100.413 127.233ZM104.659 122.392V121.455H109.977V122.392H107.829V128H106.824V122.392H104.659ZM112.044 130.455V121.455H113.016V122.494H113.135C113.209 122.381 113.311 122.236 113.442 122.06C113.575 121.881 113.766 121.722 114.013 121.582C114.263 121.44 114.601 121.369 115.027 121.369C115.578 121.369 116.064 121.507 116.484 121.783C116.905 122.058 117.233 122.449 117.469 122.955C117.705 123.46 117.822 124.057 117.822 124.744C117.822 125.438 117.705 126.038 117.469 126.547C117.233 127.053 116.906 127.445 116.489 127.723C116.071 127.999 115.589 128.136 115.044 128.136C114.624 128.136 114.287 128.067 114.034 127.928C113.781 127.786 113.587 127.625 113.45 127.446C113.314 127.264 113.209 127.114 113.135 126.994H113.05V130.455H112.044ZM113.033 124.727C113.033 125.222 113.105 125.658 113.25 126.036C113.395 126.411 113.607 126.705 113.885 126.918C114.163 127.128 114.504 127.233 114.908 127.233C115.328 127.233 115.679 127.122 115.96 126.901C116.244 126.676 116.457 126.375 116.599 125.997C116.744 125.616 116.817 125.193 116.817 124.727C116.817 124.267 116.746 123.852 116.604 123.483C116.464 123.111 116.253 122.817 115.969 122.601C115.688 122.382 115.334 122.273 114.908 122.273C114.499 122.273 114.155 122.376 113.876 122.584C113.598 122.788 113.388 123.075 113.246 123.445C113.104 123.811 113.033 124.239 113.033 124.727ZM126.591 128.136C126 128.136 125.481 127.996 125.035 127.714C124.592 127.433 124.245 127.04 123.995 126.534C123.748 126.028 123.625 125.437 123.625 124.761C123.625 124.08 123.748 123.484 123.995 122.976C124.245 122.467 124.592 122.072 125.035 121.791C125.481 121.51 126 121.369 126.591 121.369C127.182 121.369 127.699 121.51 128.142 121.791C128.588 122.072 128.934 122.467 129.182 122.976C129.432 123.484 129.557 124.08 129.557 124.761C129.557 125.437 129.432 126.028 129.182 126.534C128.934 127.04 128.588 127.433 128.142 127.714C127.699 127.996 127.182 128.136 126.591 128.136ZM126.591 127.233C127.039 127.233 127.409 127.118 127.699 126.888C127.988 126.658 128.203 126.355 128.342 125.98C128.481 125.605 128.551 125.199 128.551 124.761C128.551 124.324 128.481 123.916 128.342 123.538C128.203 123.161 127.988 122.855 127.699 122.622C127.409 122.389 127.039 122.273 126.591 122.273C126.142 122.273 125.772 122.389 125.483 122.622C125.193 122.855 124.978 123.161 124.839 123.538C124.7 123.916 124.63 124.324 124.63 124.761C124.63 125.199 124.7 125.605 124.839 125.98C124.978 126.355 125.193 126.658 125.483 126.888C125.772 127.118 126.142 127.233 126.591 127.233ZM130.836 122.392V121.455H136.154V122.392H134.007V128H133.001V122.392H130.836ZM138.221 128V121.455H140.898C141.602 121.455 142.162 121.614 142.576 121.932C142.991 122.25 143.199 122.67 143.199 123.193C143.199 123.591 143.081 123.899 142.845 124.118C142.609 124.334 142.307 124.48 141.937 124.557C142.179 124.591 142.413 124.676 142.64 124.812C142.871 124.949 143.061 125.136 143.211 125.375C143.362 125.611 143.437 125.901 143.437 126.244C143.437 126.58 143.352 126.879 143.182 127.143C143.011 127.408 142.767 127.616 142.449 127.77C142.13 127.923 141.75 128 141.307 128H138.221ZM139.176 127.08H141.307C141.653 127.08 141.925 126.997 142.121 126.832C142.317 126.668 142.415 126.443 142.415 126.159C142.415 125.821 142.317 125.555 142.121 125.362C141.925 125.166 141.653 125.068 141.307 125.068H139.176V127.08ZM139.176 124.199H140.898C141.167 124.199 141.399 124.162 141.592 124.088C141.785 124.011 141.933 123.903 142.035 123.764C142.14 123.622 142.193 123.455 142.193 123.261C142.193 122.986 142.078 122.77 141.848 122.614C141.618 122.455 141.301 122.375 140.898 122.375H139.176V124.199ZM148.304 128.136C147.673 128.136 147.129 127.997 146.672 127.719C146.217 127.438 145.866 127.045 145.619 126.543C145.375 126.037 145.253 125.449 145.253 124.778C145.253 124.108 145.375 123.517 145.619 123.006C145.866 122.491 146.21 122.091 146.651 121.804C147.094 121.514 147.611 121.369 148.202 121.369C148.543 121.369 148.879 121.426 149.212 121.54C149.544 121.653 149.847 121.838 150.119 122.094C150.392 122.347 150.609 122.682 150.771 123.099C150.933 123.517 151.014 124.031 151.014 124.642V125.068H145.969V124.199H149.991C149.991 123.83 149.918 123.5 149.77 123.21C149.625 122.92 149.418 122.692 149.148 122.524C148.881 122.357 148.565 122.273 148.202 122.273C147.801 122.273 147.455 122.372 147.162 122.571C146.872 122.767 146.649 123.023 146.493 123.338C146.337 123.653 146.259 123.991 146.259 124.352V124.932C146.259 125.426 146.344 125.845 146.514 126.189C146.688 126.53 146.928 126.79 147.234 126.969C147.541 127.145 147.898 127.233 148.304 127.233C148.568 127.233 148.807 127.196 149.02 127.122C149.236 127.045 149.422 126.932 149.578 126.781C149.734 126.628 149.855 126.437 149.94 126.21L150.912 126.483C150.81 126.812 150.638 127.102 150.396 127.352C150.155 127.599 149.857 127.793 149.501 127.932C149.146 128.068 148.747 128.136 148.304 128.136ZM152.535 122.392V121.455H157.853V122.392H155.705V128H154.699V122.392H152.535ZM162.239 128.136C161.648 128.136 161.13 127.996 160.684 127.714C160.24 127.433 159.894 127.04 159.644 126.534C159.397 126.028 159.273 125.437 159.273 124.761C159.273 124.08 159.397 123.484 159.644 122.976C159.894 122.467 160.24 122.072 160.684 121.791C161.13 121.51 161.648 121.369 162.239 121.369C162.83 121.369 163.347 121.51 163.79 121.791C164.236 122.072 164.583 122.467 164.83 122.976C165.08 123.484 165.205 124.08 165.205 124.761C165.205 125.437 165.08 126.028 164.83 126.534C164.583 127.04 164.236 127.433 163.79 127.714C163.347 127.996 162.83 128.136 162.239 128.136ZM162.239 127.233C162.688 127.233 163.057 127.118 163.347 126.888C163.637 126.658 163.851 126.355 163.99 125.98C164.13 125.605 164.199 125.199 164.199 124.761C164.199 124.324 164.13 123.916 163.99 123.538C163.851 123.161 163.637 122.855 163.347 122.622C163.057 122.389 162.688 122.273 162.239 122.273C161.79 122.273 161.421 122.389 161.131 122.622C160.841 122.855 160.627 123.161 160.488 123.538C160.348 123.916 160.279 124.324 160.279 124.761C160.279 125.199 160.348 125.605 160.488 125.98C160.627 126.355 160.841 126.658 161.131 126.888C161.421 127.118 161.79 127.233 162.239 127.233ZM167.34 128V121.455H170.016C170.721 121.455 171.28 121.614 171.695 121.932C172.11 122.25 172.317 122.67 172.317 123.193C172.317 123.591 172.2 123.899 171.964 124.118C171.728 124.334 171.425 124.48 171.056 124.557C171.298 124.591 171.532 124.676 171.759 124.812C171.989 124.949 172.18 125.136 172.33 125.375C172.481 125.611 172.556 125.901 172.556 126.244C172.556 126.58 172.471 126.879 172.3 127.143C172.13 127.408 171.886 127.616 171.567 127.77C171.249 127.923 170.869 128 170.425 128H167.34ZM168.295 127.08H170.425C170.772 127.08 171.043 126.997 171.239 126.832C171.435 126.668 171.533 126.443 171.533 126.159C171.533 125.821 171.435 125.555 171.239 125.362C171.043 125.166 170.772 125.068 170.425 125.068H168.295V127.08ZM168.295 124.199H170.016C170.286 124.199 170.518 124.162 170.711 124.088C170.904 124.011 171.052 123.903 171.154 123.764C171.259 123.622 171.312 123.455 171.312 123.261C171.312 122.986 171.197 122.77 170.967 122.614C170.736 122.455 170.42 122.375 170.016 122.375H168.295V124.199ZM178.653 128V121.455H183.801V128H182.795V122.392H179.659V128H178.653ZM188.897 128.136C188.306 128.136 187.788 127.996 187.341 127.714C186.898 127.433 186.552 127.04 186.302 126.534C186.055 126.028 185.931 125.437 185.931 124.761C185.931 124.08 186.055 123.484 186.302 122.976C186.552 122.467 186.898 122.072 187.341 121.791C187.788 121.51 188.306 121.369 188.897 121.369C189.488 121.369 190.005 121.51 190.448 121.791C190.894 122.072 191.241 122.467 191.488 122.976C191.738 123.484 191.863 124.08 191.863 124.761C191.863 125.437 191.738 126.028 191.488 126.534C191.241 127.04 190.894 127.433 190.448 127.714C190.005 127.996 189.488 128.136 188.897 128.136ZM188.897 127.233C189.346 127.233 189.715 127.118 190.005 126.888C190.295 126.658 190.509 126.355 190.648 125.98C190.788 125.605 190.857 125.199 190.857 124.761C190.857 124.324 190.788 123.916 190.648 123.538C190.509 123.161 190.295 122.855 190.005 122.622C189.715 122.389 189.346 122.273 188.897 122.273C188.448 122.273 188.079 122.389 187.789 122.622C187.499 122.855 187.285 123.161 187.145 123.538C187.006 123.916 186.937 124.324 186.937 124.761C186.937 125.199 187.006 125.605 187.145 125.98C187.285 126.355 187.499 126.658 187.789 126.888C188.079 127.118 188.448 127.233 188.897 127.233ZM193.418 128V127.062H193.657C193.853 127.062 194.016 127.024 194.147 126.947C194.278 126.868 194.383 126.73 194.462 126.534C194.545 126.335 194.607 126.06 194.65 125.707C194.695 125.352 194.728 124.901 194.748 124.352L194.867 121.455H199.231V128H198.225V122.392H195.822L195.72 124.727C195.697 125.264 195.649 125.737 195.575 126.146C195.504 126.553 195.394 126.893 195.247 127.169C195.102 127.445 194.908 127.652 194.667 127.791C194.425 127.93 194.123 128 193.759 128H193.418ZM202.545 123.824H204.42C205.187 123.824 205.774 124.018 206.18 124.408C206.587 124.797 206.79 125.29 206.79 125.886C206.79 126.278 206.699 126.635 206.517 126.956C206.335 127.274 206.068 127.528 205.716 127.719C205.364 127.906 204.932 128 204.42 128H201.676V121.455H202.682V127.062H204.42C204.818 127.062 205.145 126.957 205.401 126.747C205.656 126.537 205.784 126.267 205.784 125.938C205.784 125.591 205.656 125.308 205.401 125.089C205.145 124.871 204.818 124.761 204.42 124.761H202.545V123.824ZM208.512 126.33H209.585C209.608 126.625 209.742 126.849 209.986 127.003C210.233 127.156 210.554 127.233 210.949 127.233C211.352 127.233 211.698 127.151 211.985 126.986C212.271 126.818 212.415 126.548 212.415 126.176C212.415 125.957 212.361 125.767 212.253 125.605C212.145 125.44 211.993 125.312 211.797 125.222C211.601 125.131 211.369 125.085 211.102 125.085H209.977V124.182H211.102C211.503 124.182 211.798 124.091 211.989 123.909C212.182 123.727 212.279 123.5 212.279 123.227C212.279 122.935 212.175 122.7 211.967 122.524C211.76 122.345 211.466 122.256 211.085 122.256C210.702 122.256 210.382 122.342 210.127 122.516C209.871 122.686 209.736 122.906 209.722 123.176H208.665C208.676 122.824 208.784 122.513 208.989 122.243C209.193 121.97 209.472 121.757 209.824 121.604C210.176 121.447 210.58 121.369 211.034 121.369C211.494 121.369 211.894 121.45 212.232 121.612C212.573 121.771 212.835 121.989 213.02 122.264C213.208 122.537 213.301 122.847 213.301 123.193C213.301 123.562 213.198 123.861 212.99 124.088C212.783 124.315 212.523 124.477 212.21 124.574V124.642C212.458 124.659 212.672 124.739 212.854 124.881C213.039 125.02 213.182 125.203 213.284 125.43C213.387 125.655 213.438 125.903 213.438 126.176C213.438 126.574 213.331 126.92 213.118 127.216C212.905 127.509 212.612 127.736 212.24 127.898C211.868 128.057 211.443 128.136 210.966 128.136C210.503 128.136 210.088 128.061 209.722 127.911C209.355 127.757 209.064 127.545 208.848 127.276C208.635 127.003 208.523 126.688 208.512 126.33ZM218.109 128.136C217.518 128.136 217 127.996 216.554 127.714C216.111 127.433 215.764 127.04 215.514 126.534C215.267 126.028 215.143 125.437 215.143 124.761C215.143 124.08 215.267 123.484 215.514 122.976C215.764 122.467 216.111 122.072 216.554 121.791C217 121.51 217.518 121.369 218.109 121.369C218.7 121.369 219.217 121.51 219.661 121.791C220.107 122.072 220.453 122.467 220.7 122.976C220.95 123.484 221.075 124.08 221.075 124.761C221.075 125.437 220.95 126.028 220.7 126.534C220.453 127.04 220.107 127.433 219.661 127.714C219.217 127.996 218.7 128.136 218.109 128.136ZM218.109 127.233C218.558 127.233 218.928 127.118 219.217 126.888C219.507 126.658 219.722 126.355 219.861 125.98C220 125.605 220.07 125.199 220.07 124.761C220.07 124.324 220 123.916 219.861 123.538C219.722 123.161 219.507 122.855 219.217 122.622C218.928 122.389 218.558 122.273 218.109 122.273C217.661 122.273 217.291 122.389 217.001 122.622C216.712 122.855 216.497 123.161 216.358 123.538C216.219 123.916 216.149 124.324 216.149 124.761C216.149 125.199 216.219 125.605 216.358 125.98C216.497 126.355 216.712 126.658 217.001 126.888C217.291 127.118 217.661 127.233 218.109 127.233ZM223.21 128V121.455H225.887C226.591 121.455 227.151 121.614 227.566 121.932C227.98 122.25 228.188 122.67 228.188 123.193C228.188 123.591 228.07 123.899 227.834 124.118C227.598 124.334 227.296 124.48 226.926 124.557C227.168 124.591 227.402 124.676 227.629 124.812C227.86 124.949 228.05 125.136 228.201 125.375C228.351 125.611 228.426 125.901 228.426 126.244C228.426 126.58 228.341 126.879 228.171 127.143C228 127.408 227.756 127.616 227.438 127.77C227.12 127.923 226.739 128 226.296 128H223.21ZM224.165 127.08H226.296C226.642 127.08 226.914 126.997 227.11 126.832C227.306 126.668 227.404 126.443 227.404 126.159C227.404 125.821 227.306 125.555 227.11 125.362C226.914 125.166 226.642 125.068 226.296 125.068H224.165V127.08ZM224.165 124.199H225.887C226.156 124.199 226.388 124.162 226.581 124.088C226.774 124.011 226.922 123.903 227.024 123.764C227.129 123.622 227.182 123.455 227.182 123.261C227.182 122.986 227.067 122.77 226.837 122.614C226.607 122.455 226.29 122.375 225.887 122.375H224.165V124.199ZM232.475 128.153C232.06 128.153 231.684 128.075 231.346 127.919C231.008 127.76 230.739 127.531 230.54 127.233C230.341 126.932 230.242 126.568 230.242 126.142C230.242 125.767 230.316 125.463 230.463 125.23C230.611 124.994 230.809 124.81 231.056 124.676C231.303 124.543 231.576 124.443 231.874 124.378C232.175 124.31 232.478 124.256 232.782 124.216C233.179 124.165 233.502 124.126 233.749 124.101C233.999 124.072 234.181 124.026 234.294 123.96C234.411 123.895 234.469 123.781 234.469 123.619V123.585C234.469 123.165 234.354 122.838 234.124 122.605C233.897 122.372 233.552 122.256 233.088 122.256C232.608 122.256 232.232 122.361 231.959 122.571C231.687 122.781 231.495 123.006 231.384 123.244L230.429 122.903C230.6 122.506 230.827 122.196 231.111 121.974C231.398 121.75 231.711 121.594 232.049 121.506C232.39 121.415 232.725 121.369 233.054 121.369C233.265 121.369 233.506 121.395 233.779 121.446C234.054 121.494 234.32 121.595 234.576 121.749C234.834 121.902 235.049 122.134 235.219 122.443C235.39 122.753 235.475 123.168 235.475 123.688V128H234.469V127.114H234.418C234.35 127.256 234.236 127.408 234.077 127.57C233.918 127.732 233.706 127.869 233.442 127.983C233.178 128.097 232.856 128.153 232.475 128.153ZM232.628 127.25C233.026 127.25 233.361 127.172 233.634 127.016C233.91 126.859 234.117 126.658 234.256 126.411C234.398 126.163 234.469 125.903 234.469 125.631V124.71C234.427 124.761 234.333 124.808 234.188 124.851C234.046 124.891 233.881 124.926 233.694 124.957C233.509 124.986 233.329 125.011 233.152 125.034C232.979 125.054 232.838 125.071 232.731 125.085C232.469 125.119 232.225 125.175 231.998 125.251C231.773 125.325 231.591 125.437 231.452 125.588C231.316 125.736 231.248 125.937 231.248 126.193C231.248 126.543 231.377 126.807 231.635 126.986C231.897 127.162 232.228 127.25 232.628 127.25ZM237.02 122.392V121.455H242.338V122.392H240.19V128H239.185V122.392H237.02ZM246.809 128.136C246.179 128.136 245.635 127.997 245.177 127.719C244.723 127.438 244.372 127.045 244.125 126.543C243.88 126.037 243.758 125.449 243.758 124.778C243.758 124.108 243.88 123.517 244.125 123.006C244.372 122.491 244.716 122.091 245.156 121.804C245.599 121.514 246.116 121.369 246.707 121.369C247.048 121.369 247.385 121.426 247.717 121.54C248.05 121.653 248.352 121.838 248.625 122.094C248.898 122.347 249.115 122.682 249.277 123.099C249.439 123.517 249.52 124.031 249.52 124.642V125.068H244.474V124.199H248.497C248.497 123.83 248.423 123.5 248.275 123.21C248.13 122.92 247.923 122.692 247.653 122.524C247.386 122.357 247.071 122.273 246.707 122.273C246.307 122.273 245.96 122.372 245.667 122.571C245.378 122.767 245.155 123.023 244.998 123.338C244.842 123.653 244.764 123.991 244.764 124.352V124.932C244.764 125.426 244.849 125.845 245.02 126.189C245.193 126.53 245.433 126.79 245.74 126.969C246.047 127.145 246.403 127.233 246.809 127.233C247.074 127.233 247.312 127.196 247.525 127.122C247.741 127.045 247.927 126.932 248.084 126.781C248.24 126.628 248.361 126.437 248.446 126.21L249.417 126.483C249.315 126.812 249.143 127.102 248.902 127.352C248.66 127.599 248.362 127.793 248.007 127.932C247.652 128.068 247.253 128.136 246.809 128.136ZM251.07 128V127.062H251.309C251.505 127.062 251.668 127.024 251.799 126.947C251.929 126.868 252.034 126.73 252.114 126.534C252.196 126.335 252.259 126.06 252.301 125.707C252.347 125.352 252.38 124.901 252.4 124.352L252.519 121.455H256.882V128H255.877V122.392H253.473L253.371 124.727C253.348 125.264 253.3 125.737 253.226 126.146C253.155 126.553 253.046 126.893 252.898 127.169C252.753 127.445 252.56 127.652 252.319 127.791C252.077 127.93 251.775 128 251.411 128H251.07ZM262.072 128.136C261.441 128.136 260.897 127.997 260.44 127.719C259.985 127.438 259.634 127.045 259.387 126.543C259.143 126.037 259.021 125.449 259.021 124.778C259.021 124.108 259.143 123.517 259.387 123.006C259.634 122.491 259.978 122.091 260.419 121.804C260.862 121.514 261.379 121.369 261.97 121.369C262.311 121.369 262.647 121.426 262.98 121.54C263.312 121.653 263.615 121.838 263.887 122.094C264.16 122.347 264.377 122.682 264.539 123.099C264.701 123.517 264.782 124.031 264.782 124.642V125.068H259.737V124.199H263.759C263.759 123.83 263.686 123.5 263.538 123.21C263.393 122.92 263.186 122.692 262.916 122.524C262.649 122.357 262.333 122.273 261.97 122.273C261.569 122.273 261.223 122.372 260.93 122.571C260.64 122.767 260.417 123.023 260.261 123.338C260.105 123.653 260.026 123.991 260.026 124.352V124.932C260.026 125.426 260.112 125.845 260.282 126.189C260.455 126.53 260.696 126.79 261.002 126.969C261.309 127.145 261.666 127.233 262.072 127.233C262.336 127.233 262.575 127.196 262.788 127.122C263.004 127.045 263.19 126.932 263.346 126.781C263.502 126.628 263.623 126.437 263.708 126.21L264.68 126.483C264.578 126.812 264.406 127.102 264.164 127.352C263.923 127.599 263.625 127.793 263.269 127.932C262.914 128.068 262.515 128.136 262.072 128.136ZM267.918 126.517L271.071 121.455H272.23V128H271.225V122.938L268.088 128H266.912V121.455H267.918V126.517ZM270.406 119.273H271.344C271.344 119.733 271.185 120.109 270.867 120.402C270.548 120.695 270.117 120.841 269.571 120.841C269.034 120.841 268.607 120.695 268.288 120.402C267.973 120.109 267.815 119.733 267.815 119.273H268.753C268.753 119.494 268.814 119.689 268.936 119.857C269.061 120.024 269.273 120.108 269.571 120.108C269.869 120.108 270.082 120.024 270.21 119.857C270.341 119.689 270.406 119.494 270.406 119.273ZM277.948 129.875V127.062H278.494C278.627 126.923 278.742 126.773 278.839 126.611C278.936 126.449 279.019 126.257 279.09 126.036C279.164 125.811 279.227 125.538 279.278 125.217C279.329 124.893 279.374 124.503 279.414 124.045L279.636 121.455H283.795V127.062H284.801V129.875H283.795V128H278.954V129.875H277.948ZM279.636 127.062H282.789V122.392H280.573L280.403 124.045C280.332 124.73 280.244 125.328 280.139 125.839C280.034 126.351 279.866 126.759 279.636 127.062ZM286.156 128V127.062H286.395C286.591 127.062 286.754 127.024 286.885 126.947C287.015 126.868 287.12 126.73 287.2 126.534C287.282 126.335 287.345 126.06 287.387 125.707C287.433 125.352 287.466 124.901 287.485 124.352L287.605 121.455H291.968V128H290.963V122.392H288.559L288.457 124.727C288.434 125.264 288.386 125.737 288.312 126.146C288.241 126.553 288.132 126.893 287.984 127.169C287.839 127.445 287.646 127.652 287.404 127.791C287.163 127.93 286.86 128 286.497 128H286.156ZM298.351 128V122.375H296.612C296.22 122.375 295.912 122.466 295.688 122.648C295.463 122.83 295.351 123.08 295.351 123.398C295.351 123.71 295.452 123.956 295.654 124.135C295.858 124.314 296.138 124.403 296.493 124.403H298.607V125.341H296.493C296.05 125.341 295.668 125.263 295.347 125.107C295.026 124.95 294.779 124.727 294.605 124.438C294.432 124.145 294.345 123.798 294.345 123.398C294.345 122.994 294.436 122.648 294.618 122.358C294.8 122.068 295.06 121.845 295.398 121.689C295.739 121.533 296.144 121.455 296.612 121.455H299.306V128H298.351ZM293.987 128L295.845 124.744H296.936L295.078 128H293.987ZM305.727 128V121.455H308.403C309.108 121.455 309.667 121.614 310.082 121.932C310.497 122.25 310.704 122.67 310.704 123.193C310.704 123.591 310.586 123.899 310.35 124.118C310.115 124.334 309.812 124.48 309.443 124.557C309.684 124.591 309.919 124.676 310.146 124.812C310.376 124.949 310.566 125.136 310.717 125.375C310.867 125.611 310.943 125.901 310.943 126.244C310.943 126.58 310.858 126.879 310.687 127.143C310.517 127.408 310.272 127.616 309.954 127.77C309.636 127.923 309.255 128 308.812 128H305.727ZM306.681 127.08H308.812C309.159 127.08 309.43 126.997 309.626 126.832C309.822 126.668 309.92 126.443 309.92 126.159C309.92 125.821 309.822 125.555 309.626 125.362C309.43 125.166 309.159 125.068 308.812 125.068H306.681V127.08ZM306.681 124.199H308.403C308.673 124.199 308.904 124.162 309.098 124.088C309.291 124.011 309.438 123.903 309.541 123.764C309.646 123.622 309.698 123.455 309.698 123.261C309.698 122.986 309.583 122.77 309.353 122.614C309.123 122.455 308.806 122.375 308.403 122.375H306.681V124.199ZM313.934 123.824H315.809C316.577 123.824 317.163 124.018 317.569 124.408C317.976 124.797 318.179 125.29 318.179 125.886C318.179 126.278 318.088 126.635 317.906 126.956C317.724 127.274 317.457 127.528 317.105 127.719C316.753 127.906 316.321 128 315.809 128H313.065V121.455H314.071V127.062H315.809C316.207 127.062 316.534 126.957 316.79 126.747C317.045 126.537 317.173 126.267 317.173 125.938C317.173 125.591 317.045 125.308 316.79 125.089C316.534 124.871 316.207 124.761 315.809 124.761H313.934V123.824ZM319.219 128V121.455H320.224V128H319.219ZM327.523 119L328.034 119.614C327.836 119.807 327.605 119.942 327.344 120.018C327.083 120.095 326.787 120.142 326.458 120.159C326.128 120.176 325.762 120.193 325.358 120.21C324.904 120.227 324.527 120.338 324.229 120.543C323.931 120.747 323.701 121.043 323.539 121.429C323.377 121.815 323.273 122.29 323.228 122.852H323.313C323.534 122.443 323.841 122.142 324.233 121.949C324.625 121.756 325.046 121.659 325.495 121.659C326.006 121.659 326.466 121.778 326.875 122.017C327.284 122.256 327.608 122.609 327.847 123.078C328.086 123.547 328.205 124.125 328.205 124.812C328.205 125.497 328.083 126.088 327.838 126.585C327.597 127.082 327.257 127.466 326.82 127.736C326.385 128.003 325.875 128.136 325.29 128.136C324.705 128.136 324.192 127.999 323.752 127.723C323.311 127.445 322.969 127.033 322.725 126.487C322.48 125.939 322.358 125.261 322.358 124.455V123.756C322.358 122.298 322.605 121.193 323.1 120.44C323.597 119.687 324.344 119.298 325.341 119.273C325.694 119.261 326.007 119.259 326.283 119.264C326.559 119.27 326.799 119.257 327.003 119.226C327.208 119.195 327.381 119.119 327.523 119ZM325.29 127.233C325.685 127.233 326.025 127.134 326.309 126.935C326.596 126.736 326.816 126.456 326.969 126.095C327.123 125.732 327.199 125.304 327.199 124.812C327.199 124.335 327.121 123.929 326.965 123.594C326.811 123.259 326.591 123.003 326.304 122.827C326.017 122.651 325.674 122.562 325.273 122.562C324.98 122.562 324.718 122.612 324.485 122.712C324.252 122.811 324.053 122.957 323.888 123.151C323.723 123.344 323.596 123.58 323.505 123.858C323.417 124.136 323.37 124.455 323.364 124.812C323.364 125.545 323.536 126.132 323.88 126.572C324.223 127.013 324.694 127.233 325.29 127.233ZM330.343 130.455V121.455H331.315V122.494H331.434C331.508 122.381 331.61 122.236 331.741 122.06C331.874 121.881 332.065 121.722 332.312 121.582C332.562 121.44 332.9 121.369 333.326 121.369C333.877 121.369 334.363 121.507 334.784 121.783C335.204 122.058 335.532 122.449 335.768 122.955C336.004 123.46 336.122 124.057 336.122 124.744C336.122 125.438 336.004 126.038 335.768 126.547C335.532 127.053 335.205 127.445 334.788 127.723C334.37 127.999 333.889 128.136 333.343 128.136C332.923 128.136 332.586 128.067 332.333 127.928C332.08 127.786 331.886 127.625 331.749 127.446C331.613 127.264 331.508 127.114 331.434 126.994H331.349V130.455H330.343ZM331.332 124.727C331.332 125.222 331.404 125.658 331.549 126.036C331.694 126.411 331.906 126.705 332.184 126.918C332.463 127.128 332.803 127.233 333.207 127.233C333.627 127.233 333.978 127.122 334.259 126.901C334.544 126.676 334.757 126.375 334.899 125.997C335.044 125.616 335.116 125.193 335.116 124.727C335.116 124.267 335.045 123.852 334.903 123.483C334.764 123.111 334.552 122.817 334.268 122.601C333.987 122.382 333.633 122.273 333.207 122.273C332.798 122.273 332.454 122.376 332.176 122.584C331.897 122.788 331.687 123.075 331.545 123.445C331.403 123.811 331.332 124.239 331.332 124.727ZM340.182 128.153C339.767 128.153 339.391 128.075 339.053 127.919C338.715 127.76 338.446 127.531 338.247 127.233C338.048 126.932 337.949 126.568 337.949 126.142C337.949 125.767 338.023 125.463 338.171 125.23C338.318 124.994 338.516 124.81 338.763 124.676C339.01 124.543 339.283 124.443 339.581 124.378C339.882 124.31 340.185 124.256 340.489 124.216C340.886 124.165 341.209 124.126 341.456 124.101C341.706 124.072 341.888 124.026 342.001 123.96C342.118 123.895 342.176 123.781 342.176 123.619V123.585C342.176 123.165 342.061 122.838 341.831 122.605C341.604 122.372 341.259 122.256 340.796 122.256C340.315 122.256 339.939 122.361 339.666 122.571C339.394 122.781 339.202 123.006 339.091 123.244L338.136 122.903C338.307 122.506 338.534 122.196 338.818 121.974C339.105 121.75 339.418 121.594 339.756 121.506C340.097 121.415 340.432 121.369 340.761 121.369C340.972 121.369 341.213 121.395 341.486 121.446C341.761 121.494 342.027 121.595 342.283 121.749C342.541 121.902 342.756 122.134 342.926 122.443C343.097 122.753 343.182 123.168 343.182 123.688V128H342.176V127.114H342.125C342.057 127.256 341.943 127.408 341.784 127.57C341.625 127.732 341.413 127.869 341.149 127.983C340.885 128.097 340.563 128.153 340.182 128.153ZM340.335 127.25C340.733 127.25 341.068 127.172 341.341 127.016C341.617 126.859 341.824 126.658 341.963 126.411C342.105 126.163 342.176 125.903 342.176 125.631V124.71C342.134 124.761 342.04 124.808 341.895 124.851C341.753 124.891 341.588 124.926 341.401 124.957C341.216 124.986 341.036 125.011 340.859 125.034C340.686 125.054 340.546 125.071 340.438 125.085C340.176 125.119 339.932 125.175 339.705 125.251C339.48 125.325 339.298 125.437 339.159 125.588C339.023 125.736 338.955 125.937 338.955 126.193C338.955 126.543 339.084 126.807 339.342 126.986C339.604 127.162 339.935 127.25 340.335 127.25ZM349.998 124.267V125.205H346.385V124.267H349.998ZM346.623 121.455V128H345.617V121.455H346.623ZM350.765 121.455V128H349.76V121.455H350.765ZM357.583 124.267V125.205H353.969V124.267H357.583ZM354.208 121.455V128H353.202V121.455H354.208ZM358.35 121.455V128H357.344V121.455H358.35ZM363.445 128.136C362.854 128.136 362.336 127.996 361.89 127.714C361.447 127.433 361.1 127.04 360.85 126.534C360.603 126.028 360.479 125.437 360.479 124.761C360.479 124.08 360.603 123.484 360.85 122.976C361.1 122.467 361.447 122.072 361.89 121.791C362.336 121.51 362.854 121.369 363.445 121.369C364.036 121.369 364.553 121.51 364.996 121.791C365.442 122.072 365.789 122.467 366.036 122.976C366.286 123.484 366.411 124.08 366.411 124.761C366.411 125.437 366.286 126.028 366.036 126.534C365.789 127.04 365.442 127.433 364.996 127.714C364.553 127.996 364.036 128.136 363.445 128.136ZM363.445 127.233C363.894 127.233 364.264 127.118 364.553 126.888C364.843 126.658 365.058 126.355 365.197 125.98C365.336 125.605 365.406 125.199 365.406 124.761C365.406 124.324 365.336 123.916 365.197 123.538C365.058 123.161 364.843 122.855 364.553 122.622C364.264 122.389 363.894 122.273 363.445 122.273C362.996 122.273 362.627 122.389 362.337 122.622C362.048 122.855 361.833 123.161 361.694 123.538C361.555 123.916 361.485 124.324 361.485 124.761C361.485 125.199 361.555 125.605 361.694 125.98C361.833 126.355 362.048 126.658 362.337 126.888C362.627 127.118 362.996 127.233 363.445 127.233ZM372.586 121.455V122.392H369.552V128H368.546V121.455H372.586ZM376.973 128.136C376.383 128.136 375.864 127.996 375.418 127.714C374.975 127.433 374.628 127.04 374.378 126.534C374.131 126.028 374.008 125.437 374.008 124.761C374.008 124.08 374.131 123.484 374.378 122.976C374.628 122.467 374.975 122.072 375.418 121.791C375.864 121.51 376.383 121.369 376.973 121.369C377.564 121.369 378.081 121.51 378.525 121.791C378.971 122.072 379.317 122.467 379.564 122.976C379.814 123.484 379.939 124.08 379.939 124.761C379.939 125.437 379.814 126.028 379.564 126.534C379.317 127.04 378.971 127.433 378.525 127.714C378.081 127.996 377.564 128.136 376.973 128.136ZM376.973 127.233C377.422 127.233 377.792 127.118 378.081 126.888C378.371 126.658 378.586 126.355 378.725 125.98C378.864 125.605 378.934 125.199 378.934 124.761C378.934 124.324 378.864 123.916 378.725 123.538C378.586 123.161 378.371 122.855 378.081 122.622C377.792 122.389 377.422 122.273 376.973 122.273C376.525 122.273 376.155 122.389 375.865 122.622C375.576 122.855 375.361 123.161 375.222 123.538C375.083 123.916 375.013 124.324 375.013 124.761C375.013 125.199 375.083 125.605 375.222 125.98C375.361 126.355 375.576 126.658 375.865 126.888C376.155 127.118 376.525 127.233 376.973 127.233ZM55.5092 141.33H56.583C56.6058 141.625 56.7393 141.849 56.9836 142.003C57.2308 142.156 57.5518 142.233 57.9467 142.233C58.3501 142.233 58.6952 142.151 58.9822 141.986C59.2691 141.818 59.4126 141.548 59.4126 141.176C59.4126 140.957 59.3586 140.767 59.2506 140.605C59.1427 140.44 58.9907 140.312 58.7947 140.222C58.5987 140.131 58.3671 140.085 58.1001 140.085H56.9751V139.182H58.1001C58.5006 139.182 58.7961 139.091 58.9864 138.909C59.1796 138.727 59.2762 138.5 59.2762 138.227C59.2762 137.935 59.1725 137.7 58.9651 137.524C58.7577 137.345 58.4637 137.256 58.083 137.256C57.6995 137.256 57.3799 137.342 57.1242 137.516C56.8685 137.686 56.7336 137.906 56.7194 138.176H55.6626C55.6739 137.824 55.7819 137.513 55.9864 137.243C56.191 136.97 56.4694 136.757 56.8217 136.604C57.1739 136.447 57.5773 136.369 58.0319 136.369C58.4921 136.369 58.8913 136.45 59.2293 136.612C59.5702 136.771 59.833 136.989 60.0177 137.264C60.2052 137.537 60.2989 137.847 60.2989 138.193C60.2989 138.562 60.1952 138.861 59.9879 139.088C59.7805 139.315 59.5205 139.477 59.208 139.574V139.642C59.4552 139.659 59.6697 139.739 59.8515 139.881C60.0362 140.02 60.1796 140.203 60.2819 140.43C60.3842 140.655 60.4353 140.903 60.4353 141.176C60.4353 141.574 60.3288 141.92 60.1157 142.216C59.9026 142.509 59.61 142.736 59.2379 142.898C58.8657 143.057 58.441 143.136 57.9637 143.136C57.5006 143.136 57.0859 143.061 56.7194 142.911C56.3529 142.757 56.0617 142.545 55.8458 142.276C55.6327 142.003 55.5205 141.688 55.5092 141.33ZM64.3741 143.153C63.9593 143.153 63.5829 143.075 63.2448 142.919C62.9068 142.76 62.6383 142.531 62.4394 142.233C62.2406 141.932 62.1411 141.568 62.1411 141.142C62.1411 140.767 62.215 140.463 62.3627 140.23C62.5104 139.994 62.7079 139.81 62.955 139.676C63.2022 139.543 63.4749 139.443 63.7732 139.378C64.0744 139.31 64.3769 139.256 64.6809 139.216C65.0786 139.165 65.4011 139.126 65.6482 139.101C65.8982 139.072 66.08 139.026 66.1937 138.96C66.3102 138.895 66.3684 138.781 66.3684 138.619V138.585C66.3684 138.165 66.2533 137.838 66.0232 137.605C65.796 137.372 65.4508 137.256 64.9877 137.256C64.5076 137.256 64.1312 137.361 63.8585 137.571C63.5857 137.781 63.394 138.006 63.2832 138.244L62.3286 137.903C62.4991 137.506 62.7264 137.196 63.0104 136.974C63.2974 136.75 63.6099 136.594 63.9479 136.506C64.2889 136.415 64.6241 136.369 64.9536 136.369C65.1639 136.369 65.4053 136.395 65.6781 136.446C65.9536 136.494 66.2193 136.595 66.4749 136.749C66.7335 136.902 66.9479 137.134 67.1184 137.443C67.2889 137.753 67.3741 138.168 67.3741 138.688V143H66.3684V142.114H66.3173C66.2491 142.256 66.1354 142.408 65.9764 142.57C65.8173 142.732 65.6056 142.869 65.3414 142.983C65.0772 143.097 64.7548 143.153 64.3741 143.153ZM64.5275 142.25C64.9252 142.25 65.2604 142.172 65.5332 142.016C65.8087 141.859 66.0161 141.658 66.1553 141.411C66.2974 141.163 66.3684 140.903 66.3684 140.631V139.71C66.3258 139.761 66.232 139.808 66.0871 139.851C65.9451 139.891 65.7803 139.926 65.5928 139.957C65.4082 139.986 65.2278 140.011 65.0516 140.034C64.8783 140.054 64.7377 140.071 64.6298 140.085C64.3684 140.119 64.1241 140.175 63.8968 140.251C63.6724 140.325 63.4906 140.437 63.3514 140.588C63.215 140.736 63.1468 140.937 63.1468 141.193C63.1468 141.543 63.2761 141.807 63.5346 141.986C63.796 142.162 64.1269 142.25 64.5275 142.25ZM69.8097 143V136.455H74.9574V143H73.9517V137.392H70.8153V143H69.8097ZM77.394 145.455V136.455H78.3656V137.494H78.4849C78.5588 137.381 78.6611 137.236 78.7918 137.06C78.9253 136.881 79.1156 136.722 79.3628 136.582C79.6128 136.44 79.9509 136.369 80.377 136.369C80.9281 136.369 81.4139 136.507 81.8344 136.783C82.2548 137.058 82.583 137.449 82.8188 137.955C83.0545 138.46 83.1724 139.057 83.1724 139.744C83.1724 140.438 83.0545 141.038 82.8188 141.547C82.583 142.053 82.2563 142.445 81.8386 142.723C81.421 142.999 80.9395 143.136 80.394 143.136C79.9736 143.136 79.6369 143.067 79.3841 142.928C79.1313 142.786 78.9367 142.625 78.8003 142.446C78.6639 142.264 78.5588 142.114 78.4849 141.994H78.3997V145.455H77.394ZM78.3827 139.727C78.3827 140.222 78.4551 140.658 78.6 141.036C78.7449 141.411 78.9565 141.705 79.2349 141.918C79.5134 142.128 79.8543 142.233 80.2577 142.233C80.6781 142.233 81.029 142.122 81.3102 141.901C81.5943 141.676 81.8074 141.375 81.9494 140.997C82.0943 140.616 82.1668 140.193 82.1668 139.727C82.1668 139.267 82.0957 138.852 81.9537 138.483C81.8145 138.111 81.6028 137.817 81.3188 137.601C81.0375 137.382 80.6838 137.273 80.2577 137.273C79.8486 137.273 79.5048 137.376 79.2264 137.584C78.948 137.788 78.7378 138.075 78.5957 138.445C78.4537 138.811 78.3827 139.239 78.3827 139.727ZM87.9656 143.136C87.3747 143.136 86.8563 142.996 86.4102 142.714C85.967 142.433 85.6205 142.04 85.3705 141.534C85.1233 141.028 84.9997 140.437 84.9997 139.761C84.9997 139.08 85.1233 138.484 85.3705 137.976C85.6205 137.467 85.967 137.072 86.4102 136.791C86.8563 136.51 87.3747 136.369 87.9656 136.369C88.5565 136.369 89.0736 136.51 89.5168 136.791C89.9628 137.072 90.3094 137.467 90.5565 137.976C90.8065 138.484 90.9315 139.08 90.9315 139.761C90.9315 140.437 90.8065 141.028 90.5565 141.534C90.3094 142.04 89.9628 142.433 89.5168 142.714C89.0736 142.996 88.5565 143.136 87.9656 143.136ZM87.9656 142.233C88.4145 142.233 88.7838 142.118 89.0736 141.888C89.3634 141.658 89.5778 141.355 89.717 140.98C89.8563 140.605 89.9259 140.199 89.9259 139.761C89.9259 139.324 89.8563 138.916 89.717 138.538C89.5778 138.161 89.3634 137.855 89.0736 137.622C88.7838 137.389 88.4145 137.273 87.9656 137.273C87.5168 137.273 87.1474 137.389 86.8577 137.622C86.5679 137.855 86.3534 138.161 86.2142 138.538C86.075 138.916 86.0054 139.324 86.0054 139.761C86.0054 140.199 86.075 140.605 86.2142 140.98C86.3534 141.355 86.5679 141.658 86.8577 141.888C87.1474 142.118 87.5168 142.233 87.9656 142.233ZM95.7258 143.136C95.1121 143.136 94.5837 142.991 94.1406 142.702C93.6974 142.412 93.3565 142.013 93.1178 141.504C92.8792 140.996 92.7599 140.415 92.7599 139.761C92.7599 139.097 92.882 138.51 93.1264 138.001C93.3735 137.49 93.7173 137.091 94.1576 136.804C94.6008 136.514 95.1178 136.369 95.7087 136.369C96.169 136.369 96.5837 136.455 96.9531 136.625C97.3224 136.795 97.6249 137.034 97.8607 137.341C98.0965 137.648 98.2428 138.006 98.2996 138.415H97.294C97.2173 138.116 97.0468 137.852 96.7826 137.622C96.5212 137.389 96.169 137.273 95.7258 137.273C95.3337 137.273 94.99 137.375 94.6945 137.58C94.4019 137.781 94.1732 138.067 94.0085 138.436C93.8465 138.803 93.7656 139.233 93.7656 139.727C93.7656 140.233 93.8451 140.673 94.0042 141.048C94.1661 141.423 94.3934 141.714 94.686 141.922C94.9815 142.129 95.3281 142.233 95.7258 142.233C95.9871 142.233 96.2244 142.188 96.4374 142.097C96.6505 142.006 96.8309 141.875 96.9786 141.705C97.1264 141.534 97.2315 141.33 97.294 141.091H98.2996C98.2428 141.477 98.1022 141.825 97.8778 142.135C97.6562 142.442 97.3621 142.686 96.9957 142.868C96.632 143.047 96.2087 143.136 95.7258 143.136ZM102.296 143.153C101.881 143.153 101.505 143.075 101.167 142.919C100.829 142.76 100.56 142.531 100.361 142.233C100.162 141.932 100.063 141.568 100.063 141.142C100.063 140.767 100.137 140.463 100.285 140.23C100.432 139.994 100.63 139.81 100.877 139.676C101.124 139.543 101.397 139.443 101.695 139.378C101.996 139.31 102.299 139.256 102.603 139.216C103.001 139.165 103.323 139.126 103.57 139.101C103.82 139.072 104.002 139.026 104.116 138.96C104.232 138.895 104.29 138.781 104.29 138.619V138.585C104.29 138.165 104.175 137.838 103.945 137.605C103.718 137.372 103.373 137.256 102.91 137.256C102.429 137.256 102.053 137.361 101.78 137.571C101.508 137.781 101.316 138.006 101.205 138.244L100.251 137.903C100.421 137.506 100.648 137.196 100.932 136.974C101.219 136.75 101.532 136.594 101.87 136.506C102.211 136.415 102.546 136.369 102.876 136.369C103.086 136.369 103.327 136.395 103.6 136.446C103.876 136.494 104.141 136.595 104.397 136.749C104.655 136.902 104.87 137.134 105.04 137.443C105.211 137.753 105.296 138.168 105.296 138.688V143H104.29V142.114H104.239C104.171 142.256 104.057 142.408 103.898 142.57C103.739 142.732 103.527 142.869 103.263 142.983C102.999 143.097 102.677 143.153 102.296 143.153ZM102.449 142.25C102.847 142.25 103.182 142.172 103.455 142.016C103.731 141.859 103.938 141.658 104.077 141.411C104.219 141.163 104.29 140.903 104.29 140.631V139.71C104.248 139.761 104.154 139.808 104.009 139.851C103.867 139.891 103.702 139.926 103.515 139.957C103.33 139.986 103.15 140.011 102.974 140.034C102.8 140.054 102.66 140.071 102.552 140.085C102.29 140.119 102.046 140.175 101.819 140.251C101.594 140.325 101.412 140.437 101.273 140.588C101.137 140.736 101.069 140.937 101.069 141.193C101.069 141.543 101.198 141.807 101.456 141.986C101.718 142.162 102.049 142.25 102.449 142.25Z" fill="black"/>
<path d="M117.152 74.192C116.267 74.192 115.445 74.048 114.688 73.76C113.941 73.472 113.291 73.0667 112.736 72.544C112.192 72.0213 111.765 71.408 111.456 70.704C111.157 70 111.008 69.232 111.008 68.4C111.008 67.568 111.157 66.8 111.456 66.096C111.765 65.392 112.197 64.7787 112.752 64.256C113.307 63.7333 113.957 63.328 114.704 63.04C115.451 62.752 116.261 62.608 117.136 62.608C118.021 62.608 118.832 62.752 119.568 63.04C120.315 63.328 120.96 63.7333 121.504 64.256C122.059 64.7787 122.491 65.392 122.8 66.096C123.109 66.7893 123.264 67.5573 123.264 68.4C123.264 69.232 123.109 70.0053 122.8 70.72C122.491 71.424 122.059 72.0373 121.504 72.56C120.96 73.072 120.315 73.472 119.568 73.76C118.832 74.048 118.027 74.192 117.152 74.192ZM117.136 71.984C117.637 71.984 118.096 71.8987 118.512 71.728C118.939 71.5573 119.312 71.312 119.632 70.992C119.952 70.672 120.197 70.2933 120.368 69.856C120.549 69.4187 120.64 68.9333 120.64 68.4C120.64 67.8667 120.549 67.3813 120.368 66.944C120.197 66.5067 119.952 66.128 119.632 65.808C119.323 65.488 118.955 65.2427 118.528 65.072C118.101 64.9013 117.637 64.816 117.136 64.816C116.635 64.816 116.171 64.9013 115.744 65.072C115.328 65.2427 114.96 65.488 114.64 65.808C114.32 66.128 114.069 66.5067 113.888 66.944C113.717 67.3813 113.632 67.8667 113.632 68.4C113.632 68.9227 113.717 69.408 113.888 69.856C114.069 70.2933 114.315 70.672 114.624 70.992C114.944 71.312 115.317 71.5573 115.744 71.728C116.171 71.8987 116.635 71.984 117.136 71.984ZM129.341 74.192C128.637 74.192 127.997 74.0907 127.421 73.888C126.845 73.6747 126.344 73.3493 125.917 72.912C125.501 72.464 125.176 71.8933 124.941 71.2C124.717 70.5067 124.605 69.68 124.605 68.72C124.605 68.0373 124.664 67.4133 124.781 66.848C124.898 66.2827 125.074 65.7707 125.309 65.312C125.544 64.8427 125.842 64.432 126.205 64.08C126.578 63.7173 127.01 63.4187 127.501 63.184C128.002 62.9387 128.568 62.752 129.197 62.624L133.293 61.808L133.629 63.952L130.013 64.672C129.8 64.7147 129.554 64.7733 129.277 64.848C129.01 64.912 128.738 65.0133 128.461 65.152C128.194 65.2907 127.944 65.488 127.709 65.744C127.485 65.9893 127.304 66.3147 127.165 66.72C127.026 67.1147 126.957 67.6053 126.957 68.192C126.957 68.3733 126.962 68.512 126.973 68.608C126.994 68.704 127.01 68.8053 127.021 68.912C127.042 69.0187 127.053 69.184 127.053 69.408L126.253 68.624C126.488 68.1227 126.786 67.696 127.149 67.344C127.522 66.992 127.949 66.7253 128.429 66.544C128.92 66.352 129.464 66.256 130.061 66.256C130.872 66.256 131.581 66.4213 132.189 66.752C132.808 67.072 133.288 67.5253 133.629 68.112C133.97 68.6987 134.141 69.3653 134.141 70.112C134.141 70.9227 133.938 71.6373 133.533 72.256C133.128 72.864 132.562 73.3387 131.837 73.68C131.122 74.0213 130.29 74.192 129.341 74.192ZM129.469 72.256C129.885 72.256 130.253 72.1653 130.573 71.984C130.893 71.792 131.138 71.5413 131.309 71.232C131.49 70.912 131.581 70.5547 131.581 70.16C131.581 69.776 131.49 69.4347 131.309 69.136C131.138 68.8373 130.893 68.6027 130.573 68.432C130.253 68.2613 129.88 68.176 129.453 68.176C129.037 68.176 128.664 68.2613 128.333 68.432C128.002 68.592 127.746 68.816 127.565 69.104C127.384 69.392 127.293 69.728 127.293 70.112C127.293 70.5067 127.384 70.8693 127.565 71.2C127.757 71.52 128.013 71.776 128.333 71.968C128.664 72.16 129.042 72.256 129.469 72.256ZM140.907 74.128C140.181 74.128 139.547 73.968 139.003 73.648C138.459 73.328 138.032 72.8427 137.723 72.192C137.424 71.5307 137.275 70.6987 137.275 69.696C137.275 68.6827 137.419 67.8507 137.707 67.2C137.995 66.5493 138.411 66.064 138.955 65.744C139.499 65.424 140.149 65.264 140.907 65.264C141.717 65.264 142.443 65.4507 143.083 65.824C143.733 66.1867 144.245 66.6987 144.619 67.36C145.003 68.0213 145.195 68.8 145.195 69.696C145.195 70.6027 145.003 71.3867 144.619 72.048C144.245 72.7093 143.733 73.2213 143.083 73.584C142.443 73.9467 141.717 74.128 140.907 74.128ZM135.819 77.104V65.392H138.203V67.152L138.155 69.712L138.315 72.256V77.104H135.819ZM140.475 72.08C140.891 72.08 141.259 71.984 141.579 71.792C141.909 71.6 142.171 71.328 142.363 70.976C142.565 70.6133 142.667 70.1867 142.667 69.696C142.667 69.1947 142.565 68.768 142.363 68.416C142.171 68.064 141.909 67.792 141.579 67.6C141.259 67.408 140.891 67.312 140.475 67.312C140.059 67.312 139.685 67.408 139.355 67.6C139.024 67.792 138.763 68.064 138.571 68.416C138.379 68.768 138.283 69.1947 138.283 69.696C138.283 70.1867 138.379 70.6133 138.571 70.976C138.763 71.328 139.024 71.6 139.355 71.792C139.685 71.984 140.059 72.08 140.475 72.08ZM151.955 74V72.32L151.795 71.952V68.944C151.795 68.4107 151.63 67.9947 151.299 67.696C150.979 67.3973 150.483 67.248 149.811 67.248C149.353 67.248 148.899 67.3227 148.451 67.472C148.014 67.6107 147.641 67.8027 147.331 68.048L146.435 66.304C146.905 65.9733 147.47 65.7173 148.131 65.536C148.793 65.3547 149.465 65.264 150.147 65.264C151.459 65.264 152.478 65.5733 153.203 66.192C153.929 66.8107 154.291 67.776 154.291 69.088V74H151.955ZM149.331 74.128C148.659 74.128 148.083 74.016 147.603 73.792C147.123 73.5573 146.755 73.2427 146.499 72.848C146.243 72.4533 146.115 72.0107 146.115 71.52C146.115 71.008 146.238 70.56 146.483 70.176C146.739 69.792 147.139 69.4933 147.683 69.28C148.227 69.056 148.937 68.944 149.811 68.944H152.099V70.4H150.083C149.497 70.4 149.091 70.496 148.867 70.688C148.654 70.88 148.547 71.12 148.547 71.408C148.547 71.728 148.67 71.984 148.915 72.176C149.171 72.3573 149.518 72.448 149.955 72.448C150.371 72.448 150.745 72.352 151.075 72.16C151.406 71.9573 151.646 71.664 151.795 71.28L152.179 72.432C151.998 72.9867 151.667 73.408 151.187 73.696C150.707 73.984 150.089 74.128 149.331 74.128ZM160.732 74.192C160.028 74.192 159.388 74.0907 158.812 73.888C158.236 73.6747 157.734 73.3493 157.308 72.912C156.892 72.464 156.566 71.8933 156.332 71.2C156.108 70.5067 155.996 69.68 155.996 68.72C155.996 68.0373 156.054 67.4133 156.172 66.848C156.289 66.2827 156.465 65.7707 156.7 65.312C156.934 64.8427 157.233 64.432 157.596 64.08C157.969 63.7173 158.401 63.4187 158.892 63.184C159.393 62.9387 159.958 62.752 160.588 62.624L164.684 61.808L165.02 63.952L161.404 64.672C161.19 64.7147 160.945 64.7733 160.668 64.848C160.401 64.912 160.129 65.0133 159.852 65.152C159.585 65.2907 159.334 65.488 159.1 65.744C158.876 65.9893 158.694 66.3147 158.556 66.72C158.417 67.1147 158.348 67.6053 158.348 68.192C158.348 68.3733 158.353 68.512 158.364 68.608C158.385 68.704 158.401 68.8053 158.412 68.912C158.433 69.0187 158.444 69.184 158.444 69.408L157.644 68.624C157.878 68.1227 158.177 67.696 158.54 67.344C158.913 66.992 159.34 66.7253 159.82 66.544C160.31 66.352 160.854 66.256 161.452 66.256C162.262 66.256 162.972 66.4213 163.58 66.752C164.198 67.072 164.678 67.5253 165.02 68.112C165.361 68.6987 165.532 69.3653 165.532 70.112C165.532 70.9227 165.329 71.6373 164.924 72.256C164.518 72.864 163.953 73.3387 163.228 73.68C162.513 74.0213 161.681 74.192 160.732 74.192ZM160.86 72.256C161.276 72.256 161.644 72.1653 161.964 71.984C162.284 71.792 162.529 71.5413 162.7 71.232C162.881 70.912 162.972 70.5547 162.972 70.16C162.972 69.776 162.881 69.4347 162.7 69.136C162.529 68.8373 162.284 68.6027 161.964 68.432C161.644 68.2613 161.27 68.176 160.844 68.176C160.428 68.176 160.054 68.2613 159.724 68.432C159.393 68.592 159.137 68.816 158.956 69.104C158.774 69.392 158.684 69.728 158.684 70.112C158.684 70.5067 158.774 70.8693 158.956 71.2C159.148 71.52 159.404 71.776 159.724 71.968C160.054 72.16 160.433 72.256 160.86 72.256ZM171.257 74.128C170.34 74.128 169.524 73.936 168.809 73.552C168.105 73.168 167.545 72.6453 167.129 71.984C166.724 71.312 166.521 70.5493 166.521 69.696C166.521 68.832 166.724 68.0693 167.129 67.408C167.545 66.736 168.105 66.2133 168.809 65.84C169.524 65.456 170.34 65.264 171.257 65.264C172.164 65.264 172.974 65.456 173.689 65.84C174.404 66.2133 174.964 66.7307 175.369 67.392C175.774 68.0533 175.977 68.8213 175.977 69.696C175.977 70.5493 175.774 71.312 175.369 71.984C174.964 72.6453 174.404 73.168 173.689 73.552C172.974 73.936 172.164 74.128 171.257 74.128ZM171.257 72.08C171.673 72.08 172.046 71.984 172.377 71.792C172.708 71.6 172.969 71.328 173.161 70.976C173.353 70.6133 173.449 70.1867 173.449 69.696C173.449 69.1947 173.353 68.768 173.161 68.416C172.969 68.064 172.708 67.792 172.377 67.6C172.046 67.408 171.673 67.312 171.257 67.312C170.841 67.312 170.468 67.408 170.137 67.6C169.806 67.792 169.54 68.064 169.337 68.416C169.145 68.768 169.049 69.1947 169.049 69.696C169.049 70.1867 169.145 70.6133 169.337 70.976C169.54 71.328 169.806 71.6 170.137 71.792C170.468 71.984 170.841 72.08 171.257 72.08ZM179.221 74V66.864L179.781 67.44H176.309V65.392H184.613V67.44H181.141L181.701 66.864V74H179.221ZM192.04 74L189.16 69.92L191.192 68.72L194.984 74H192.04ZM185.944 74V65.392H188.44V74H185.944ZM187.704 70.736V68.736H190.712V70.736H187.704ZM191.432 69.984L189.096 69.728L192.12 65.392H194.776L191.432 69.984ZM196.893 77.232C196.445 77.232 196.002 77.1627 195.565 77.024C195.128 76.8853 194.77 76.6933 194.493 76.448L195.405 74.672C195.597 74.8427 195.816 74.976 196.061 75.072C196.317 75.168 196.568 75.216 196.813 75.216C197.165 75.216 197.442 75.1307 197.645 74.96C197.858 74.8 198.05 74.528 198.221 74.144L198.669 73.088L198.861 72.816L201.949 65.392H204.349L200.461 74.528C200.184 75.2213 199.864 75.7653 199.501 76.16C199.149 76.5547 198.754 76.832 198.317 76.992C197.89 77.152 197.416 77.232 196.893 77.232ZM198.365 74.336L194.525 65.392H197.101L200.077 72.592L198.365 74.336Z" fill="black"/>
<defs>
<filter id="filter0_d_3667_222" x="0.48999" y="0" width="463.508" height="229" filterUnits="userSpaceOnUse" color-interpolation-filters="sRGB">
<feFlood flood-opacity="0" result="BackgroundImageFix"/>
<feColorMatrix in="SourceAlpha" type="matrix" values="0 0 0 0 0 0 0 0 0 0 0 0 0 0 0 0 0 0 127 0" result="hardAlpha"/>
<feOffset dy="10"/>
<feGaussianBlur stdDeviation="20"/>
<feColorMatrix type="matrix" values="0 0 0 0 0.494444 0 0 0 0 0.608547 0 0 0 0 0.741667 0 0 0 0.35 0"/>
<feBlend mode="normal" in2="BackgroundImageFix" result="effect1_dropShadow_3667_222"/>
<feBlend mode="normal" in="SourceGraphic" in2="effect1_dropShadow_3667_222" result="shape"/>
</filter>
<clipPath id="clip0_3667_222">
<rect width="28" height="28" fill="white" transform="translate(61.9978 52)"/>
</clipPath>
</defs>
</svg>
