<svg width="464" height="229" viewBox="0 0 464 229" fill="none" xmlns="http://www.w3.org/2000/svg">
<g filter="url(#filter0_d_3667_219)">
<rect x="40" y="30" width="383.508" height="149" rx="12" fill="white"/>
</g>
<rect x="54.9808" y="45" width="41.9462" height="42" rx="7" fill="#F6F6F6"/>
<path fill-rule="evenodd" clip-rule="evenodd" d="M72.8417 53.5084C73.0605 53.2896 73.3572 53.1667 73.6667 53.1667H83C84.9331 53.1667 86.5 54.7337 86.5 56.6667V61.3334C86.5 61.9777 85.9777 62.5 85.3333 62.5C84.689 62.5 84.1667 61.9777 84.1667 61.3334V56.6667C84.1667 56.0224 83.6444 55.5 83 55.5H74.8333V61.3334C74.8333 61.9777 74.311 62.5 73.6667 62.5H67.8333V75.3334C67.8333 75.9777 68.3557 76.5 69 76.5H73.6667C74.311 76.5 74.8333 77.0223 74.8333 77.6667C74.8333 78.311 74.311 78.8334 73.6667 78.8334H69C67.067 78.8334 65.5 77.2664 65.5 75.3334V61.3334C65.5 61.0239 65.6229 60.7272 65.8417 60.5084L72.8417 53.5084ZM69.4832 60.1667H72.5V57.1499L69.4832 60.1667ZM85.5335 73.8837C86.1443 72.9615 86.5 71.8556 86.5 70.6667C86.5 67.4451 83.8883 64.8334 80.6667 64.8334C77.445 64.8334 74.8333 67.4451 74.8333 70.6667C74.8333 73.8883 77.445 76.5 80.6667 76.5C81.8556 76.5 82.9615 76.1443 83.8836 75.5336L86.8417 78.4916C87.2973 78.9472 88.036 78.9472 88.4916 78.4916C88.9472 78.0361 88.9472 77.2973 88.4916 76.8417L85.5335 73.8837ZM77.1667 70.6667C77.1667 68.7336 78.7336 67.1667 80.6667 67.1667C82.5997 67.1667 84.1667 68.7336 84.1667 70.6667C84.1667 72.5997 82.5997 74.1667 80.6667 74.1667C78.7336 74.1667 77.1667 72.5997 77.1667 70.6667Z" fill="#34E1E1"/>
<path d="M110.392 74V62.8H120.6V74H118.024V64.32L118.616 64.912H112.376L112.968 64.32V74H110.392ZM127.216 74.128C126.299 74.128 125.483 73.936 124.768 73.552C124.064 73.168 123.504 72.6453 123.088 71.984C122.683 71.312 122.48 70.5493 122.48 69.696C122.48 68.832 122.683 68.0693 123.088 67.408C123.504 66.736 124.064 66.2133 124.768 65.84C125.483 65.456 126.299 65.264 127.216 65.264C128.123 65.264 128.934 65.456 129.648 65.84C130.363 66.2133 130.923 66.7307 131.328 67.392C131.734 68.0533 131.936 68.8213 131.936 69.696C131.936 70.5493 131.734 71.312 131.328 71.984C130.923 72.6453 130.363 73.168 129.648 73.552C128.934 73.936 128.123 74.128 127.216 74.128ZM127.216 72.08C127.632 72.08 128.006 71.984 128.336 71.792C128.667 71.6 128.928 71.328 129.12 70.976C129.312 70.6133 129.408 70.1867 129.408 69.696C129.408 69.1947 129.312 68.768 129.12 68.416C128.928 68.064 128.667 67.792 128.336 67.6C128.006 67.408 127.632 67.312 127.216 67.312C126.8 67.312 126.427 67.408 126.096 67.6C125.766 67.792 125.499 68.064 125.296 68.416C125.104 68.768 125.008 69.1947 125.008 69.696C125.008 70.1867 125.104 70.6133 125.296 70.976C125.499 71.328 125.766 71.6 126.096 71.792C126.427 71.984 126.8 72.08 127.216 72.08ZM133.653 74V65.392H136.133V70.512L140.325 65.392H142.613V74H140.133V68.88L135.957 74H133.653ZM149.109 74.128C148.181 74.128 147.354 73.9413 146.629 73.568C145.903 73.184 145.333 72.656 144.917 71.984C144.511 71.312 144.309 70.5493 144.309 69.696C144.309 68.832 144.511 68.0693 144.917 67.408C145.333 66.736 145.903 66.2133 146.629 65.84C147.354 65.456 148.181 65.264 149.109 65.264C150.015 65.264 150.805 65.456 151.477 65.84C152.149 66.2133 152.645 66.752 152.965 67.456L151.029 68.496C150.805 68.0907 150.522 67.792 150.181 67.6C149.85 67.408 149.487 67.312 149.093 67.312C148.666 67.312 148.282 67.408 147.941 67.6C147.599 67.792 147.327 68.064 147.125 68.416C146.933 68.768 146.837 69.1947 146.837 69.696C146.837 70.1973 146.933 70.624 147.125 70.976C147.327 71.328 147.599 71.6 147.941 71.792C148.282 71.984 148.666 72.08 149.093 72.08C149.487 72.08 149.85 71.9893 150.181 71.808C150.522 71.616 150.805 71.312 151.029 70.896L152.965 71.952C152.645 72.6453 152.149 73.184 151.477 73.568C150.805 73.9413 150.015 74.128 149.109 74.128ZM160.577 74L157.697 69.92L159.729 68.72L163.521 74H160.577ZM154.481 74V65.392H156.977V74H154.481ZM156.241 70.736V68.736H159.249V70.736H156.241ZM159.969 69.984L157.633 69.728L160.657 65.392H163.313L159.969 69.984Z" fill="black"/>
<path d="M56.0568 113V104.273H59.108C59.7159 104.273 60.2173 104.378 60.6122 104.588C61.0071 104.795 61.3011 105.075 61.4943 105.428C61.6875 105.777 61.7841 106.165 61.7841 106.591C61.7841 106.966 61.7173 107.276 61.5838 107.52C61.4531 107.764 61.2798 107.957 61.0639 108.099C60.8509 108.241 60.6193 108.347 60.3693 108.415V108.5C60.6364 108.517 60.9048 108.611 61.1747 108.781C61.4446 108.952 61.6705 109.196 61.8523 109.514C62.0341 109.832 62.125 110.222 62.125 110.682C62.125 111.119 62.0256 111.513 61.8267 111.862C61.6278 112.212 61.3139 112.489 60.8849 112.693C60.456 112.898 59.8977 113 59.2102 113H56.0568ZM57.1136 112.062H59.2102C59.9006 112.062 60.3906 111.929 60.6804 111.662C60.973 111.392 61.1193 111.065 61.1193 110.682C61.1193 110.386 61.044 110.114 60.8935 109.864C60.7429 109.611 60.5284 109.409 60.25 109.259C59.9716 109.105 59.642 109.028 59.2614 109.028H57.1136V112.062ZM57.1136 108.108H59.0739C59.392 108.108 59.679 108.045 59.9347 107.92C60.1932 107.795 60.3977 107.619 60.5483 107.392C60.7017 107.165 60.7784 106.898 60.7784 106.591C60.7784 106.207 60.6449 105.882 60.3778 105.615C60.1108 105.345 59.6875 105.21 59.108 105.21H57.1136V108.108ZM65.1945 108.824H67.0695C67.8365 108.824 68.4232 109.018 68.8294 109.408C69.2357 109.797 69.4388 110.29 69.4388 110.886C69.4388 111.278 69.3479 111.635 69.1661 111.956C68.9842 112.274 68.7172 112.528 68.3649 112.719C68.0126 112.906 67.5808 113 67.0695 113H64.3251V106.455H65.3308V112.062H67.0695C67.4672 112.062 67.7939 111.957 68.0496 111.747C68.3053 111.537 68.4331 111.267 68.4331 110.938C68.4331 110.591 68.3053 110.308 68.0496 110.089C67.7939 109.871 67.4672 109.761 67.0695 109.761H65.1945V108.824ZM70.4786 113V106.455H71.4842V113H70.4786ZM73.9251 113V106.455H79.0729V113H78.0672V107.392H74.9308V113H73.9251ZM84.1686 113.136C83.5777 113.136 83.0592 112.996 82.6132 112.714C82.17 112.433 81.8234 112.04 81.5734 111.534C81.3263 111.028 81.2027 110.437 81.2027 109.761C81.2027 109.08 81.3263 108.484 81.5734 107.976C81.8234 107.467 82.17 107.072 82.6132 106.791C83.0592 106.51 83.5777 106.369 84.1686 106.369C84.7595 106.369 85.2766 106.51 85.7197 106.791C86.1658 107.072 86.5124 107.467 86.7595 107.976C87.0095 108.484 87.1345 109.08 87.1345 109.761C87.1345 110.437 87.0095 111.028 86.7595 111.534C86.5124 112.04 86.1658 112.433 85.7197 112.714C85.2766 112.996 84.7595 113.136 84.1686 113.136ZM84.1686 112.233C84.6175 112.233 84.9868 112.118 85.2766 111.888C85.5663 111.658 85.7808 111.355 85.92 110.98C86.0592 110.605 86.1288 110.199 86.1288 109.761C86.1288 109.324 86.0592 108.916 85.92 108.538C85.7808 108.161 85.5663 107.855 85.2766 107.622C84.9868 107.389 84.6175 107.273 84.1686 107.273C83.7197 107.273 83.3504 107.389 83.0607 107.622C82.7709 107.855 82.5564 108.161 82.4172 108.538C82.278 108.916 82.2084 109.324 82.2084 109.761C82.2084 110.199 82.278 110.605 82.4172 110.98C82.5564 111.355 82.7709 111.658 83.0607 111.888C83.3504 112.118 83.7197 112.233 84.1686 112.233ZM88.6901 113V112.062H88.9288C89.1248 112.062 89.2881 112.024 89.4188 111.947C89.5495 111.868 89.6546 111.73 89.7342 111.534C89.8165 111.335 89.879 111.06 89.9217 110.707C89.9671 110.352 89.9998 109.901 90.0197 109.352L90.139 106.455H94.5026V113H93.4969V107.392H91.0935L90.9913 109.727C90.9685 110.264 90.9202 110.737 90.8464 111.146C90.7754 111.553 90.666 111.893 90.5183 112.169C90.3734 112.445 90.1802 112.652 89.9387 112.791C89.6972 112.93 89.3947 113 89.031 113H88.6901ZM101.328 109.267V110.205H97.7148V109.267H101.328ZM97.9535 106.455V113H96.9478V106.455H97.9535ZM102.096 106.455V113H101.09V106.455H102.096ZM105.538 111.517L108.691 106.455H109.85V113H108.845V107.938L105.708 113H104.532V106.455H105.538V111.517ZM111.402 107.392V106.455H116.72V107.392H114.572V113H113.566V107.392H111.402ZM119.656 108.824H121.531C122.298 108.824 122.885 109.018 123.291 109.408C123.697 109.797 123.9 110.29 123.9 110.886C123.9 111.278 123.81 111.635 123.628 111.956C123.446 112.274 123.179 112.528 122.827 112.719C122.474 112.906 122.043 113 121.531 113H118.787V106.455H119.793V112.062H121.531C121.929 112.062 122.256 111.957 122.511 111.747C122.767 111.537 122.895 111.267 122.895 110.938C122.895 110.591 122.767 110.308 122.511 110.089C122.256 109.871 121.929 109.761 121.531 109.761H119.656V108.824ZM129.597 111.33H130.671C130.694 111.625 130.827 111.849 131.072 112.003C131.319 112.156 131.64 112.233 132.035 112.233C132.438 112.233 132.783 112.151 133.07 111.986C133.357 111.818 133.501 111.548 133.501 111.176C133.501 110.957 133.447 110.767 133.339 110.605C133.231 110.44 133.079 110.312 132.883 110.222C132.687 110.131 132.455 110.085 132.188 110.085H131.063V109.182H132.188C132.589 109.182 132.884 109.091 133.075 108.909C133.268 108.727 133.364 108.5 133.364 108.227C133.364 107.935 133.261 107.7 133.053 107.524C132.846 107.345 132.552 107.256 132.171 107.256C131.788 107.256 131.468 107.342 131.212 107.516C130.957 107.686 130.822 107.906 130.808 108.176H129.751C129.762 107.824 129.87 107.513 130.075 107.243C130.279 106.97 130.558 106.757 130.91 106.604C131.262 106.447 131.665 106.369 132.12 106.369C132.58 106.369 132.979 106.45 133.317 106.612C133.658 106.771 133.921 106.989 134.106 107.264C134.293 107.537 134.387 107.847 134.387 108.193C134.387 108.562 134.283 108.861 134.076 109.088C133.869 109.315 133.609 109.477 133.296 109.574V109.642C133.543 109.659 133.758 109.739 133.94 109.881C134.124 110.02 134.268 110.203 134.37 110.43C134.472 110.655 134.523 110.903 134.523 111.176C134.523 111.574 134.417 111.92 134.204 112.216C133.991 112.509 133.698 112.736 133.326 112.898C132.954 113.057 132.529 113.136 132.052 113.136C131.589 113.136 131.174 113.061 130.808 112.911C130.441 112.757 130.15 112.545 129.934 112.276C129.721 112.003 129.609 111.688 129.597 111.33ZM138.462 113.153C138.047 113.153 137.671 113.075 137.333 112.919C136.995 112.76 136.726 112.531 136.528 112.233C136.329 111.932 136.229 111.568 136.229 111.142C136.229 110.767 136.303 110.463 136.451 110.23C136.599 109.994 136.796 109.81 137.043 109.676C137.29 109.543 137.563 109.443 137.861 109.378C138.162 109.31 138.465 109.256 138.769 109.216C139.167 109.165 139.489 109.126 139.736 109.101C139.986 109.072 140.168 109.026 140.282 108.96C140.398 108.895 140.457 108.781 140.457 108.619V108.585C140.457 108.165 140.341 107.838 140.111 107.605C139.884 107.372 139.539 107.256 139.076 107.256C138.596 107.256 138.219 107.361 137.947 107.571C137.674 107.781 137.482 108.006 137.371 108.244L136.417 107.903C136.587 107.506 136.814 107.196 137.099 106.974C137.386 106.75 137.698 106.594 138.036 106.506C138.377 106.415 138.712 106.369 139.042 106.369C139.252 106.369 139.493 106.395 139.766 106.446C140.042 106.494 140.307 106.595 140.563 106.749C140.822 106.902 141.036 107.134 141.207 107.443C141.377 107.753 141.462 108.168 141.462 108.688V113H140.457V112.114H140.405C140.337 112.256 140.224 112.408 140.064 112.57C139.905 112.732 139.694 112.869 139.43 112.983C139.165 113.097 138.843 113.153 138.462 113.153ZM138.616 112.25C139.013 112.25 139.349 112.172 139.621 112.016C139.897 111.859 140.104 111.658 140.243 111.411C140.386 111.163 140.457 110.903 140.457 110.631V109.71C140.414 109.761 140.32 109.808 140.175 109.851C140.033 109.891 139.868 109.926 139.681 109.957C139.496 109.986 139.316 110.011 139.14 110.034C138.966 110.054 138.826 110.071 138.718 110.085C138.457 110.119 138.212 110.175 137.985 110.251C137.761 110.325 137.579 110.437 137.439 110.588C137.303 110.736 137.235 110.937 137.235 111.193C137.235 111.543 137.364 111.807 137.623 111.986C137.884 112.162 138.215 112.25 138.616 112.25ZM143.898 113V106.455H149.046V113H148.04V107.392H144.903V113H143.898ZM151.482 115.455V106.455H152.454V107.494H152.573C152.647 107.381 152.749 107.236 152.88 107.06C153.013 106.881 153.204 106.722 153.451 106.582C153.701 106.44 154.039 106.369 154.465 106.369C155.016 106.369 155.502 106.507 155.923 106.783C156.343 107.058 156.671 107.449 156.907 107.955C157.143 108.46 157.261 109.057 157.261 109.744C157.261 110.438 157.143 111.038 156.907 111.547C156.671 112.053 156.344 112.445 155.927 112.723C155.509 112.999 155.028 113.136 154.482 113.136C154.062 113.136 153.725 113.067 153.472 112.928C153.219 112.786 153.025 112.625 152.888 112.446C152.752 112.264 152.647 112.114 152.573 111.994H152.488V115.455H151.482ZM152.471 109.727C152.471 110.222 152.543 110.658 152.688 111.036C152.833 111.411 153.045 111.705 153.323 111.918C153.601 112.128 153.942 112.233 154.346 112.233C154.766 112.233 155.117 112.122 155.398 111.901C155.682 111.676 155.896 111.375 156.038 110.997C156.182 110.616 156.255 110.193 156.255 109.727C156.255 109.267 156.184 108.852 156.042 108.483C155.903 108.111 155.691 107.817 155.407 107.601C155.126 107.382 154.772 107.273 154.346 107.273C153.937 107.273 153.593 107.376 153.315 107.584C153.036 107.788 152.826 108.075 152.684 108.445C152.542 108.811 152.471 109.239 152.471 109.727ZM162.054 113.136C161.463 113.136 160.944 112.996 160.498 112.714C160.055 112.433 159.709 112.04 159.459 111.534C159.211 111.028 159.088 110.437 159.088 109.761C159.088 109.08 159.211 108.484 159.459 107.976C159.709 107.467 160.055 107.072 160.498 106.791C160.944 106.51 161.463 106.369 162.054 106.369C162.645 106.369 163.162 106.51 163.605 106.791C164.051 107.072 164.398 107.467 164.645 107.976C164.895 108.484 165.02 109.08 165.02 109.761C165.02 110.437 164.895 111.028 164.645 111.534C164.398 112.04 164.051 112.433 163.605 112.714C163.162 112.996 162.645 113.136 162.054 113.136ZM162.054 112.233C162.503 112.233 162.872 112.118 163.162 111.888C163.451 111.658 163.666 111.355 163.805 110.98C163.944 110.605 164.014 110.199 164.014 109.761C164.014 109.324 163.944 108.916 163.805 108.538C163.666 108.161 163.451 107.855 163.162 107.622C162.872 107.389 162.503 107.273 162.054 107.273C161.605 107.273 161.236 107.389 160.946 107.622C160.656 107.855 160.442 108.161 160.302 108.538C160.163 108.916 160.094 109.324 160.094 109.761C160.094 110.199 160.163 110.605 160.302 110.98C160.442 111.355 160.656 111.658 160.946 111.888C161.236 112.118 161.605 112.233 162.054 112.233ZM169.814 113.136C169.2 113.136 168.672 112.991 168.229 112.702C167.786 112.412 167.445 112.013 167.206 111.504C166.967 110.996 166.848 110.415 166.848 109.761C166.848 109.097 166.97 108.51 167.214 108.001C167.462 107.49 167.805 107.091 168.246 106.804C168.689 106.514 169.206 106.369 169.797 106.369C170.257 106.369 170.672 106.455 171.041 106.625C171.411 106.795 171.713 107.034 171.949 107.341C172.185 107.648 172.331 108.006 172.388 108.415H171.382C171.305 108.116 171.135 107.852 170.871 107.622C170.609 107.389 170.257 107.273 169.814 107.273C169.422 107.273 169.078 107.375 168.783 107.58C168.49 107.781 168.261 108.067 168.097 108.436C167.935 108.803 167.854 109.233 167.854 109.727C167.854 110.233 167.933 110.673 168.092 111.048C168.254 111.423 168.482 111.714 168.774 111.922C169.07 112.129 169.416 112.233 169.814 112.233C170.075 112.233 170.312 112.188 170.526 112.097C170.739 112.006 170.919 111.875 171.067 111.705C171.214 111.534 171.32 111.33 171.382 111.091H172.388C172.331 111.477 172.19 111.825 171.966 112.135C171.744 112.442 171.45 112.686 171.084 112.868C170.72 113.047 170.297 113.136 169.814 113.136ZM182.814 109.267V110.205H179.2V109.267H182.814ZM179.439 106.455V113H178.433V106.455H179.439ZM183.581 106.455V113H182.575V106.455H183.581ZM187.943 113.153C187.529 113.153 187.152 113.075 186.814 112.919C186.476 112.76 186.208 112.531 186.009 112.233C185.81 111.932 185.711 111.568 185.711 111.142C185.711 110.767 185.784 110.463 185.932 110.23C186.08 109.994 186.277 109.81 186.524 109.676C186.772 109.543 187.044 109.443 187.343 109.378C187.644 109.31 187.946 109.256 188.25 109.216C188.648 109.165 188.97 109.126 189.218 109.101C189.468 109.072 189.649 109.026 189.763 108.96C189.88 108.895 189.938 108.781 189.938 108.619V108.585C189.938 108.165 189.823 107.838 189.593 107.605C189.365 107.372 189.02 107.256 188.557 107.256C188.077 107.256 187.701 107.361 187.428 107.571C187.155 107.781 186.963 108.006 186.853 108.244L185.898 107.903C186.068 107.506 186.296 107.196 186.58 106.974C186.867 106.75 187.179 106.594 187.517 106.506C187.858 106.415 188.193 106.369 188.523 106.369C188.733 106.369 188.975 106.395 189.247 106.446C189.523 106.494 189.789 106.595 190.044 106.749C190.303 106.902 190.517 107.134 190.688 107.443C190.858 107.753 190.943 108.168 190.943 108.688V113H189.938V112.114H189.887C189.818 112.256 189.705 112.408 189.546 112.57C189.387 112.732 189.175 112.869 188.911 112.983C188.647 113.097 188.324 113.153 187.943 113.153ZM188.097 112.25C188.495 112.25 188.83 112.172 189.103 112.016C189.378 111.859 189.586 111.658 189.725 111.411C189.867 111.163 189.938 110.903 189.938 110.631V109.71C189.895 109.761 189.801 109.808 189.657 109.851C189.514 109.891 189.35 109.926 189.162 109.957C188.978 109.986 188.797 110.011 188.621 110.034C188.448 110.054 188.307 110.071 188.199 110.085C187.938 110.119 187.693 110.175 187.466 110.251C187.242 110.325 187.06 110.437 186.921 110.588C186.784 110.736 186.716 110.937 186.716 111.193C186.716 111.543 186.845 111.807 187.104 111.986C187.365 112.162 187.696 112.25 188.097 112.25ZM197.354 113V106.455H202.502V113H201.496V107.392H198.36V113H197.354ZM207.598 113.136C207.007 113.136 206.488 112.996 206.042 112.714C205.599 112.433 205.252 112.04 205.002 111.534C204.755 111.028 204.632 110.437 204.632 109.761C204.632 109.08 204.755 108.484 205.002 107.976C205.252 107.467 205.599 107.072 206.042 106.791C206.488 106.51 207.007 106.369 207.598 106.369C208.188 106.369 208.705 106.51 209.149 106.791C209.595 107.072 209.941 107.467 210.188 107.976C210.438 108.484 210.563 109.08 210.563 109.761C210.563 110.437 210.438 111.028 210.188 111.534C209.941 112.04 209.595 112.433 209.149 112.714C208.705 112.996 208.188 113.136 207.598 113.136ZM207.598 112.233C208.046 112.233 208.416 112.118 208.705 111.888C208.995 111.658 209.21 111.355 209.349 110.98C209.488 110.605 209.558 110.199 209.558 109.761C209.558 109.324 209.488 108.916 209.349 108.538C209.21 108.161 208.995 107.855 208.705 107.622C208.416 107.389 208.046 107.273 207.598 107.273C207.149 107.273 206.779 107.389 206.49 107.622C206.2 107.855 205.985 108.161 205.846 108.538C205.707 108.916 205.637 109.324 205.637 109.761C205.637 110.199 205.707 110.605 205.846 110.98C205.985 111.355 206.2 111.658 206.49 111.888C206.779 112.118 207.149 112.233 207.598 112.233ZM213.704 111.517L216.858 106.455H218.017V113H217.011V107.938L213.875 113H212.699V106.455H213.704V111.517ZM223.118 113.136C222.504 113.136 221.976 112.991 221.533 112.702C221.089 112.412 220.749 112.013 220.51 111.504C220.271 110.996 220.152 110.415 220.152 109.761C220.152 109.097 220.274 108.51 220.518 108.001C220.766 107.49 221.109 107.091 221.55 106.804C221.993 106.514 222.51 106.369 223.101 106.369C223.561 106.369 223.976 106.455 224.345 106.625C224.714 106.795 225.017 107.034 225.253 107.341C225.489 107.648 225.635 108.006 225.692 108.415H224.686C224.609 108.116 224.439 107.852 224.175 107.622C223.913 107.389 223.561 107.273 223.118 107.273C222.726 107.273 222.382 107.375 222.087 107.58C221.794 107.781 221.565 108.067 221.401 108.436C221.239 108.803 221.158 109.233 221.158 109.727C221.158 110.233 221.237 110.673 221.396 111.048C221.558 111.423 221.785 111.714 222.078 111.922C222.374 112.129 222.72 112.233 223.118 112.233C223.379 112.233 223.616 112.188 223.829 112.097C224.043 112.006 224.223 111.875 224.371 111.705C224.518 111.534 224.624 111.33 224.686 111.091H225.692C225.635 111.477 225.494 111.825 225.27 112.135C225.048 112.442 224.754 112.686 224.388 112.868C224.024 113.047 223.601 113.136 223.118 113.136ZM227.762 113V106.455H228.768V109.301H229.432L231.785 106.455H233.08L230.438 109.608L233.114 113H231.819L229.671 110.239H228.768V113H227.762ZM239.14 109.318C239.14 108.244 239.279 107.257 239.558 106.357C239.839 105.453 240.24 104.622 240.759 103.864H241.646C241.441 104.145 241.25 104.491 241.071 104.903C240.894 105.312 240.74 105.763 240.606 106.254C240.473 106.743 240.367 107.249 240.291 107.771C240.217 108.294 240.18 108.81 240.18 109.318C240.18 109.994 240.245 110.68 240.376 111.376C240.507 112.072 240.683 112.719 240.904 113.315C241.126 113.912 241.373 114.398 241.646 114.773H240.759C240.24 114.014 239.839 113.185 239.558 112.284C239.279 111.381 239.14 110.392 239.14 109.318ZM243.321 111.33H244.395C244.417 111.625 244.551 111.849 244.795 112.003C245.042 112.156 245.363 112.233 245.758 112.233C246.162 112.233 246.507 112.151 246.794 111.986C247.081 111.818 247.224 111.548 247.224 111.176C247.224 110.957 247.17 110.767 247.062 110.605C246.954 110.44 246.802 110.312 246.606 110.222C246.41 110.131 246.179 110.085 245.912 110.085H244.787V109.182H245.912C246.312 109.182 246.608 109.091 246.798 108.909C246.991 108.727 247.088 108.5 247.088 108.227C247.088 107.935 246.984 107.7 246.777 107.524C246.569 107.345 246.275 107.256 245.895 107.256C245.511 107.256 245.191 107.342 244.936 107.516C244.68 107.686 244.545 107.906 244.531 108.176H243.474C243.486 107.824 243.593 107.513 243.798 107.243C244.003 106.97 244.281 106.757 244.633 106.604C244.986 106.447 245.389 106.369 245.843 106.369C246.304 106.369 246.703 106.45 247.041 106.612C247.382 106.771 247.645 106.989 247.829 107.264C248.017 107.537 248.111 107.847 248.111 108.193C248.111 108.562 248.007 108.861 247.799 109.088C247.592 109.315 247.332 109.477 247.02 109.574V109.642C247.267 109.659 247.481 109.739 247.663 109.881C247.848 110.02 247.991 110.203 248.093 110.43C248.196 110.655 248.247 110.903 248.247 111.176C248.247 111.574 248.14 111.92 247.927 112.216C247.714 112.509 247.422 112.736 247.049 112.898C246.677 113.057 246.253 113.136 245.775 113.136C245.312 113.136 244.897 113.061 244.531 112.911C244.164 112.757 243.873 112.545 243.657 112.276C243.444 112.003 243.332 111.688 243.321 111.33ZM254.64 109.267V110.205H251.027V109.267H254.64ZM251.265 106.455V113H250.26V106.455H251.265ZM255.407 106.455V113H254.402V106.455H255.407ZM259.77 113.153C259.355 113.153 258.979 113.075 258.641 112.919C258.303 112.76 258.034 112.531 257.835 112.233C257.636 111.932 257.537 111.568 257.537 111.142C257.537 110.767 257.611 110.463 257.759 110.23C257.906 109.994 258.104 109.81 258.351 109.676C258.598 109.543 258.871 109.443 259.169 109.378C259.47 109.31 259.773 109.256 260.077 109.216C260.475 109.165 260.797 109.126 261.044 109.101C261.294 109.072 261.476 109.026 261.59 108.96C261.706 108.895 261.764 108.781 261.764 108.619V108.585C261.764 108.165 261.649 107.838 261.419 107.605C261.192 107.372 260.847 107.256 260.384 107.256C259.904 107.256 259.527 107.361 259.254 107.571C258.982 107.781 258.79 108.006 258.679 108.244L257.725 107.903C257.895 107.506 258.122 107.196 258.406 106.974C258.693 106.75 259.006 106.594 259.344 106.506C259.685 106.415 260.02 106.369 260.35 106.369C260.56 106.369 260.801 106.395 261.074 106.446C261.35 106.494 261.615 106.595 261.871 106.749C262.129 106.902 262.344 107.134 262.514 107.443C262.685 107.753 262.77 108.168 262.77 108.688V113H261.764V112.114H261.713C261.645 112.256 261.531 112.408 261.372 112.57C261.213 112.732 261.002 112.869 260.737 112.983C260.473 113.097 260.151 113.153 259.77 113.153ZM259.923 112.25C260.321 112.25 260.656 112.172 260.929 112.016C261.205 111.859 261.412 111.658 261.551 111.411C261.693 111.163 261.764 110.903 261.764 110.631V109.71C261.722 109.761 261.628 109.808 261.483 109.851C261.341 109.891 261.176 109.926 260.989 109.957C260.804 109.986 260.624 110.011 260.448 110.034C260.274 110.054 260.134 110.071 260.026 110.085C259.764 110.119 259.52 110.175 259.293 110.251C259.068 110.325 258.886 110.437 258.747 110.588C258.611 110.736 258.543 110.937 258.543 111.193C258.543 111.543 258.672 111.807 258.931 111.986C259.192 112.162 259.523 112.25 259.923 112.25ZM269.586 109.267V110.205H265.973V109.267H269.586ZM266.211 106.455V113H265.206V106.455H266.211ZM270.353 106.455V113H269.348V106.455H270.353ZM273.796 111.517L276.949 106.455H278.108V113H277.102V107.938L273.966 113H272.79V106.455H273.796V111.517ZM281.556 111.517L284.709 106.455H285.868V113H284.863V107.938L281.726 113H280.55V106.455H281.556V111.517ZM284.044 104.273H284.982C284.982 104.733 284.823 105.109 284.505 105.402C284.187 105.695 283.755 105.841 283.209 105.841C282.672 105.841 282.245 105.695 281.927 105.402C281.611 105.109 281.454 104.733 281.454 104.273H282.391C282.391 104.494 282.452 104.689 282.574 104.857C282.699 105.024 282.911 105.108 283.209 105.108C283.508 105.108 283.721 105.024 283.848 104.857C283.979 104.689 284.044 104.494 284.044 104.273ZM291.396 103.864L288.583 114.312H287.663L290.475 103.864H291.396ZM294.193 111.517L297.347 106.455H298.506V113H297.5V107.938L294.364 113H293.188V106.455H294.193V111.517ZM305.328 109.267V110.205H301.715V109.267H305.328ZM301.953 106.455V113H300.948V106.455H301.953ZM306.096 106.455V113H305.09V106.455H306.096ZM311.191 113.136C310.578 113.136 310.049 112.991 309.606 112.702C309.163 112.412 308.822 112.013 308.583 111.504C308.345 110.996 308.225 110.415 308.225 109.761C308.225 109.097 308.348 108.51 308.592 108.001C308.839 107.49 309.183 107.091 309.623 106.804C310.066 106.514 310.583 106.369 311.174 106.369C311.634 106.369 312.049 106.455 312.419 106.625C312.788 106.795 313.09 107.034 313.326 107.341C313.562 107.648 313.708 108.006 313.765 108.415H312.759C312.683 108.116 312.512 107.852 312.248 107.622C311.987 107.389 311.634 107.273 311.191 107.273C310.799 107.273 310.455 107.375 310.16 107.58C309.867 107.781 309.639 108.067 309.474 108.436C309.312 108.803 309.231 109.233 309.231 109.727C309.231 110.233 309.311 110.673 309.47 111.048C309.632 111.423 309.859 111.714 310.151 111.922C310.447 112.129 310.794 112.233 311.191 112.233C311.453 112.233 311.69 112.188 311.903 112.097C312.116 112.006 312.296 111.875 312.444 111.705C312.592 111.534 312.697 111.33 312.759 111.091H313.765C313.708 111.477 313.568 111.825 313.343 112.135C313.122 112.442 312.828 112.686 312.461 112.868C312.098 113.047 311.674 113.136 311.191 113.136ZM315.32 107.392V106.455H320.638V107.392H318.49V113H317.484V107.392H315.32ZM322.705 115.455V106.455H323.676V107.494H323.796C323.87 107.381 323.972 107.236 324.103 107.06C324.236 106.881 324.426 106.722 324.674 106.582C324.924 106.44 325.262 106.369 325.688 106.369C326.239 106.369 326.725 106.507 327.145 106.783C327.566 107.058 327.894 107.449 328.13 107.955C328.365 108.46 328.483 109.057 328.483 109.744C328.483 110.438 328.365 111.038 328.13 111.547C327.894 112.053 327.567 112.445 327.149 112.723C326.732 112.999 326.25 113.136 325.705 113.136C325.284 113.136 324.948 113.067 324.695 112.928C324.442 112.786 324.247 112.625 324.111 112.446C323.975 112.264 323.87 112.114 323.796 111.994H323.71V115.455H322.705ZM323.693 109.727C323.693 110.222 323.766 110.658 323.911 111.036C324.056 111.411 324.267 111.705 324.546 111.918C324.824 112.128 325.165 112.233 325.568 112.233C325.989 112.233 326.34 112.122 326.621 111.901C326.905 111.676 327.118 111.375 327.26 110.997C327.405 110.616 327.478 110.193 327.478 109.727C327.478 109.267 327.407 108.852 327.264 108.483C327.125 108.111 326.914 107.817 326.63 107.601C326.348 107.382 325.995 107.273 325.568 107.273C325.159 107.273 324.816 107.376 324.537 107.584C324.259 107.788 324.049 108.075 323.907 108.445C323.764 108.811 323.693 109.239 323.693 109.727ZM331.031 115.455C330.86 115.455 330.708 115.44 330.575 115.412C330.441 115.386 330.349 115.361 330.298 115.335L330.553 114.449C330.798 114.511 331.014 114.534 331.201 114.517C331.389 114.5 331.555 114.416 331.7 114.266C331.847 114.118 331.982 113.878 332.105 113.545L332.292 113.034L329.872 106.455H330.962L332.769 111.67H332.837L334.644 106.455H335.735L332.957 113.955C332.832 114.293 332.677 114.572 332.492 114.794C332.308 115.018 332.093 115.185 331.849 115.293C331.607 115.401 331.335 115.455 331.031 115.455ZM337.663 113V106.455H338.668V109.301H339.333L341.685 106.455H342.981L340.339 109.608L343.015 113H341.719L339.572 110.239H338.668V113H337.663ZM349.856 106.455V112.062H350.776V115.114H349.77V113H344.708V106.455H345.714V112.062H348.85V106.455H349.856ZM353.931 111.517L357.084 106.455H358.243V113H357.238V107.938L354.101 113H352.925V106.455H353.931V111.517ZM361.691 111.517L364.844 106.455H366.003V113H364.998V107.938L361.861 113H360.685V106.455H361.691V111.517ZM364.18 104.273H365.117C365.117 104.733 364.958 105.109 364.64 105.402C364.322 105.695 363.89 105.841 363.344 105.841C362.807 105.841 362.38 105.695 362.062 105.402C361.746 105.109 361.589 104.733 361.589 104.273H362.526C362.526 104.494 362.587 104.689 362.709 104.857C362.834 105.024 363.046 105.108 363.344 105.108C363.643 105.108 363.856 105.024 363.984 104.857C364.114 104.689 364.18 104.494 364.18 104.273ZM370.593 109.318C370.593 110.392 370.453 111.381 370.171 112.284C369.893 113.185 369.494 114.014 368.974 114.773H368.087C368.292 114.491 368.482 114.145 368.659 113.733C368.837 113.324 368.994 112.875 369.127 112.386C369.261 111.895 369.364 111.388 369.438 110.865C369.515 110.339 369.553 109.824 369.553 109.318C369.553 108.642 369.488 107.956 369.357 107.26C369.227 106.564 369.051 105.918 368.829 105.321C368.607 104.724 368.36 104.239 368.087 103.864H368.974C369.494 104.622 369.893 105.453 370.171 106.357C370.453 107.257 370.593 108.244 370.593 109.318ZM380.027 113.136C379.436 113.136 378.918 112.996 378.472 112.714C378.029 112.433 377.682 112.04 377.432 111.534C377.185 111.028 377.061 110.437 377.061 109.761C377.061 109.08 377.185 108.484 377.432 107.976C377.682 107.467 378.029 107.072 378.472 106.791C378.918 106.51 379.436 106.369 380.027 106.369C380.618 106.369 381.135 106.51 381.578 106.791C382.024 107.072 382.371 107.467 382.618 107.976C382.868 108.484 382.993 109.08 382.993 109.761C382.993 110.437 382.868 111.028 382.618 111.534C382.371 112.04 382.024 112.433 381.578 112.714C381.135 112.996 380.618 113.136 380.027 113.136ZM380.027 112.233C380.476 112.233 380.845 112.118 381.135 111.888C381.425 111.658 381.639 111.355 381.779 110.98C381.918 110.605 381.987 110.199 381.987 109.761C381.987 109.324 381.918 108.916 381.779 108.538C381.639 108.161 381.425 107.855 381.135 107.622C380.845 107.389 380.476 107.273 380.027 107.273C379.578 107.273 379.209 107.389 378.919 107.622C378.629 107.855 378.415 108.161 378.276 108.538C378.137 108.916 378.067 109.324 378.067 109.761C378.067 110.199 378.137 110.605 378.276 110.98C378.415 111.355 378.629 111.658 378.919 111.888C379.209 112.118 379.578 112.233 380.027 112.233ZM55.5795 122V121.233C55.5795 121 55.6207 120.753 55.7031 120.491C55.7884 120.227 55.9105 119.973 56.0696 119.729C56.2315 119.482 56.4261 119.267 56.6534 119.085L57.1989 119.528C57.0199 119.784 56.8636 120.051 56.7301 120.33C56.5994 120.605 56.5341 120.901 56.5341 121.216V122H55.5795ZM57.7614 122V121.233C57.7614 121 57.8026 120.753 57.8849 120.491C57.9702 120.227 58.0923 119.973 58.2514 119.729C58.4134 119.482 58.608 119.267 58.8352 119.085L59.3807 119.528C59.2017 119.784 59.0455 120.051 58.9119 120.33C58.7813 120.605 58.7159 120.901 58.7159 121.216V122H57.7614ZM67.7555 119.273V128H66.6987V120.21H62.301V128H61.2442V119.273H67.7555ZM70.3509 130.455V121.455H71.3225V122.494H71.4418C71.5157 122.381 71.618 122.236 71.7487 122.06C71.8822 121.881 72.0725 121.722 72.3197 121.582C72.5697 121.44 72.9077 121.369 73.3339 121.369C73.885 121.369 74.3708 121.507 74.7913 121.783C75.2117 122.058 75.5398 122.449 75.7756 122.955C76.0114 123.46 76.1293 124.057 76.1293 124.744C76.1293 125.438 76.0114 126.038 75.7756 126.547C75.5398 127.053 75.2131 127.445 74.7955 127.723C74.3779 127.999 73.8964 128.136 73.3509 128.136C72.9305 128.136 72.5938 128.067 72.341 127.928C72.0881 127.786 71.8935 127.625 71.7572 127.446C71.6208 127.264 71.5157 127.114 71.4418 126.994H71.3566V130.455H70.3509ZM71.3396 124.727C71.3396 125.222 71.412 125.658 71.5569 126.036C71.7018 126.411 71.9134 126.705 72.1918 126.918C72.4702 127.128 72.8112 127.233 73.2146 127.233C73.635 127.233 73.9859 127.122 74.2671 126.901C74.5512 126.676 74.7643 126.375 74.9063 125.997C75.0512 125.616 75.1237 125.193 75.1237 124.727C75.1237 124.267 75.0526 123.852 74.9106 123.483C74.7714 123.111 74.5597 122.817 74.2756 122.601C73.9944 122.382 73.6407 122.273 73.2146 122.273C72.8055 122.273 72.4617 122.376 72.1833 122.584C71.9049 122.788 71.6947 123.075 71.5526 123.445C71.4106 123.811 71.3396 124.239 71.3396 124.727ZM80.9225 128.136C80.3316 128.136 79.8131 127.996 79.3671 127.714C78.9239 127.433 78.5773 127.04 78.3273 126.534C78.0802 126.028 77.9566 125.437 77.9566 124.761C77.9566 124.08 78.0802 123.484 78.3273 122.976C78.5773 122.467 78.9239 122.072 79.3671 121.791C79.8131 121.51 80.3316 121.369 80.9225 121.369C81.5134 121.369 82.0305 121.51 82.4737 121.791C82.9197 122.072 83.2663 122.467 83.5134 122.976C83.7634 123.484 83.8884 124.08 83.8884 124.761C83.8884 125.437 83.7634 126.028 83.5134 126.534C83.2663 127.04 82.9197 127.433 82.4737 127.714C82.0305 127.996 81.5134 128.136 80.9225 128.136ZM80.9225 127.233C81.3714 127.233 81.7407 127.118 82.0305 126.888C82.3202 126.658 82.5347 126.355 82.6739 125.98C82.8131 125.605 82.8827 125.199 82.8827 124.761C82.8827 124.324 82.8131 123.916 82.6739 123.538C82.5347 123.161 82.3202 122.855 82.0305 122.622C81.7407 122.389 81.3714 122.273 80.9225 122.273C80.4736 122.273 80.1043 122.389 79.8146 122.622C79.5248 122.855 79.3103 123.161 79.1711 123.538C79.0319 123.916 78.9623 124.324 78.9623 124.761C78.9623 125.199 79.0319 125.605 79.1711 125.98C79.3103 126.355 79.5248 126.658 79.8146 126.888C80.1043 127.118 80.4736 127.233 80.9225 127.233ZM91.1713 121.455V127.062H92.0918V130.114H91.0861V128H86.0236V121.455H87.0293V127.062H90.1656V121.455H91.1713ZM96.9148 128.136C96.2841 128.136 95.7401 127.997 95.2827 127.719C94.8281 127.438 94.4773 127.045 94.2301 126.543C93.9858 126.037 93.8636 125.449 93.8636 124.778C93.8636 124.108 93.9858 123.517 94.2301 123.006C94.4773 122.491 94.821 122.091 95.2614 121.804C95.7045 121.514 96.2216 121.369 96.8125 121.369C97.1534 121.369 97.4901 121.426 97.8224 121.54C98.1548 121.653 98.4574 121.838 98.7301 122.094C99.0028 122.347 99.2202 122.682 99.3821 123.099C99.544 123.517 99.625 124.031 99.625 124.642V125.068H94.5795V124.199H98.6023C98.6023 123.83 98.5284 123.5 98.3807 123.21C98.2358 122.92 98.0284 122.692 97.7585 122.524C97.4915 122.357 97.1761 122.273 96.8125 122.273C96.4119 122.273 96.0653 122.372 95.7727 122.571C95.483 122.767 95.2599 123.023 95.1037 123.338C94.9474 123.653 94.8693 123.991 94.8693 124.352V124.932C94.8693 125.426 94.9545 125.845 95.125 126.189C95.2983 126.53 95.5384 126.79 95.8452 126.969C96.152 127.145 96.5085 127.233 96.9148 127.233C97.179 127.233 97.4176 127.196 97.6307 127.122C97.8466 127.045 98.0327 126.932 98.1889 126.781C98.3452 126.628 98.4659 126.437 98.5511 126.21L99.5227 126.483C99.4205 126.812 99.2486 127.102 99.0071 127.352C98.7656 127.599 98.4673 127.793 98.1122 127.932C97.7571 128.068 97.358 128.136 96.9148 128.136ZM104.414 128.136C103.8 128.136 103.272 127.991 102.829 127.702C102.386 127.412 102.045 127.013 101.806 126.504C101.567 125.996 101.448 125.415 101.448 124.761C101.448 124.097 101.57 123.51 101.814 123.001C102.062 122.49 102.405 122.091 102.846 121.804C103.289 121.514 103.806 121.369 104.397 121.369C104.857 121.369 105.272 121.455 105.641 121.625C106.011 121.795 106.313 122.034 106.549 122.341C106.785 122.648 106.931 123.006 106.988 123.415H105.982C105.905 123.116 105.735 122.852 105.471 122.622C105.209 122.389 104.857 122.273 104.414 122.273C104.022 122.273 103.678 122.375 103.383 122.58C103.09 122.781 102.861 123.067 102.697 123.436C102.535 123.803 102.454 124.233 102.454 124.727C102.454 125.233 102.533 125.673 102.692 126.048C102.854 126.423 103.082 126.714 103.374 126.922C103.67 127.129 104.016 127.233 104.414 127.233C104.675 127.233 104.912 127.188 105.126 127.097C105.339 127.006 105.519 126.875 105.667 126.705C105.814 126.534 105.92 126.33 105.982 126.091H106.988C106.931 126.477 106.79 126.825 106.566 127.135C106.344 127.442 106.05 127.686 105.684 127.868C105.32 128.047 104.897 128.136 104.414 128.136ZM111.717 128.136C111.103 128.136 110.575 127.991 110.132 127.702C109.689 127.412 109.348 127.013 109.109 126.504C108.87 125.996 108.751 125.415 108.751 124.761C108.751 124.097 108.873 123.51 109.118 123.001C109.365 122.49 109.709 122.091 110.149 121.804C110.592 121.514 111.109 121.369 111.7 121.369C112.16 121.369 112.575 121.455 112.944 121.625C113.314 121.795 113.616 122.034 113.852 122.341C114.088 122.648 114.234 123.006 114.291 123.415H113.285C113.209 123.116 113.038 122.852 112.774 122.622C112.513 122.389 112.16 122.273 111.717 122.273C111.325 122.273 110.981 122.375 110.686 122.58C110.393 122.781 110.164 123.067 110 123.436C109.838 123.803 109.757 124.233 109.757 124.727C109.757 125.233 109.836 125.673 109.995 126.048C110.157 126.423 110.385 126.714 110.677 126.922C110.973 127.129 111.319 127.233 111.717 127.233C111.978 127.233 112.216 127.188 112.429 127.097C112.642 127.006 112.822 126.875 112.97 126.705C113.118 126.534 113.223 126.33 113.285 126.091H114.291C114.234 126.477 114.093 126.825 113.869 127.135C113.647 127.442 113.353 127.686 112.987 127.868C112.623 128.047 112.2 128.136 111.717 128.136ZM118.287 128.153C117.872 128.153 117.496 128.075 117.158 127.919C116.82 127.76 116.551 127.531 116.353 127.233C116.154 126.932 116.054 126.568 116.054 126.142C116.054 125.767 116.128 125.463 116.276 125.23C116.424 124.994 116.621 124.81 116.868 124.676C117.115 124.543 117.388 124.443 117.686 124.378C117.987 124.31 118.29 124.256 118.594 124.216C118.992 124.165 119.314 124.126 119.561 124.101C119.811 124.072 119.993 124.026 120.107 123.96C120.223 123.895 120.282 123.781 120.282 123.619V123.585C120.282 123.165 120.166 122.838 119.936 122.605C119.709 122.372 119.364 122.256 118.901 122.256C118.421 122.256 118.044 122.361 117.772 122.571C117.499 122.781 117.307 123.006 117.196 123.244L116.242 122.903C116.412 122.506 116.639 122.196 116.924 121.974C117.211 121.75 117.523 121.594 117.861 121.506C118.202 121.415 118.537 121.369 118.867 121.369C119.077 121.369 119.318 121.395 119.591 121.446C119.867 121.494 120.132 121.595 120.388 121.749C120.647 121.902 120.861 122.134 121.032 122.443C121.202 122.753 121.287 123.168 121.287 123.688V128H120.282V127.114H120.23C120.162 127.256 120.049 127.408 119.889 127.57C119.73 127.732 119.519 127.869 119.255 127.983C118.99 128.097 118.668 128.153 118.287 128.153ZM118.441 127.25C118.838 127.25 119.174 127.172 119.446 127.016C119.722 126.859 119.929 126.658 120.068 126.411C120.211 126.163 120.282 125.903 120.282 125.631V124.71C120.239 124.761 120.145 124.808 120 124.851C119.858 124.891 119.693 124.926 119.506 124.957C119.321 124.986 119.141 125.011 118.965 125.034C118.791 125.054 118.651 125.071 118.543 125.085C118.282 125.119 118.037 125.175 117.81 125.251C117.586 125.325 117.404 125.437 117.264 125.588C117.128 125.736 117.06 125.937 117.06 126.193C117.06 126.543 117.189 126.807 117.448 126.986C117.709 127.162 118.04 127.25 118.441 127.25ZM124.473 121.455L126.041 124.131L127.609 121.455H128.768L126.655 124.727L128.768 128H127.609L126.041 125.46L124.473 128H123.314L125.393 124.727L123.314 121.455H124.473ZM138.358 126.636L140.642 121.455H141.596L138.767 128H137.949L135.17 121.455H136.108L138.358 126.636ZM135.784 121.455V128H134.778V121.455H135.784ZM140.932 128V121.455H141.937V128H140.932ZM146.304 128.153C145.89 128.153 145.513 128.075 145.175 127.919C144.837 127.76 144.569 127.531 144.37 127.233C144.171 126.932 144.071 126.568 144.071 126.142C144.071 125.767 144.145 125.463 144.293 125.23C144.441 124.994 144.638 124.81 144.885 124.676C145.133 124.543 145.405 124.443 145.704 124.378C146.005 124.31 146.307 124.256 146.611 124.216C147.009 124.165 147.331 124.126 147.579 124.101C147.829 124.072 148.01 124.026 148.124 123.96C148.24 123.895 148.299 123.781 148.299 123.619V123.585C148.299 123.165 148.184 122.838 147.954 122.605C147.726 122.372 147.381 122.256 146.918 122.256C146.438 122.256 146.062 122.361 145.789 122.571C145.516 122.781 145.324 123.006 145.213 123.244L144.259 122.903C144.429 122.506 144.657 122.196 144.941 121.974C145.228 121.75 145.54 121.594 145.878 121.506C146.219 121.415 146.554 121.369 146.884 121.369C147.094 121.369 147.336 121.395 147.608 121.446C147.884 121.494 148.15 121.595 148.405 121.749C148.664 121.902 148.878 122.134 149.049 122.443C149.219 122.753 149.304 123.168 149.304 123.688V128H148.299V127.114H148.248C148.179 127.256 148.066 127.408 147.907 127.57C147.748 127.732 147.536 127.869 147.272 127.983C147.008 128.097 146.685 128.153 146.304 128.153ZM146.458 127.25C146.856 127.25 147.191 127.172 147.463 127.016C147.739 126.859 147.946 126.658 148.086 126.411C148.228 126.163 148.299 125.903 148.299 125.631V124.71C148.256 124.761 148.162 124.808 148.017 124.851C147.875 124.891 147.711 124.926 147.523 124.957C147.338 124.986 147.158 125.011 146.982 125.034C146.809 125.054 146.668 125.071 146.56 125.085C146.299 125.119 146.054 125.175 145.827 125.251C145.603 125.325 145.421 125.437 145.282 125.588C145.145 125.736 145.077 125.937 145.077 126.193C145.077 126.543 145.206 126.807 145.465 126.986C145.726 127.162 146.057 127.25 146.458 127.25ZM151.74 121.455H152.746V127.062H155.217V121.455H156.223V127.062H158.695V121.455H159.7V128H151.74V121.455ZM163.143 126.517L166.296 121.455H167.455V128H166.449V122.938L163.313 128H162.137V121.455H163.143V126.517ZM174.278 124.267V125.205H170.664V124.267H174.278ZM170.903 121.455V128H169.897V121.455H170.903ZM175.045 121.455V128H174.039V121.455H175.045ZM180.14 128.136C179.55 128.136 179.031 127.996 178.585 127.714C178.142 127.433 177.795 127.04 177.545 126.534C177.298 126.028 177.175 125.437 177.175 124.761C177.175 124.08 177.298 123.484 177.545 122.976C177.795 122.467 178.142 122.072 178.585 121.791C179.031 121.51 179.55 121.369 180.14 121.369C180.731 121.369 181.248 121.51 181.692 121.791C182.138 122.072 182.484 122.467 182.731 122.976C182.981 123.484 183.106 124.08 183.106 124.761C183.106 125.437 182.981 126.028 182.731 126.534C182.484 127.04 182.138 127.433 181.692 127.714C181.248 127.996 180.731 128.136 180.14 128.136ZM180.14 127.233C180.589 127.233 180.959 127.118 181.248 126.888C181.538 126.658 181.753 126.355 181.892 125.98C182.031 125.605 182.101 125.199 182.101 124.761C182.101 124.324 182.031 123.916 181.892 123.538C181.753 123.161 181.538 122.855 181.248 122.622C180.959 122.389 180.589 122.273 180.14 122.273C179.692 122.273 179.322 122.389 179.033 122.622C178.743 122.855 178.528 123.161 178.389 123.538C178.25 123.916 178.18 124.324 178.18 124.761C178.18 125.199 178.25 125.605 178.389 125.98C178.528 126.355 178.743 126.658 179.033 126.888C179.322 127.118 179.692 127.233 180.14 127.233ZM187.901 128.136C187.287 128.136 186.759 127.991 186.315 127.702C185.872 127.412 185.531 127.013 185.293 126.504C185.054 125.996 184.935 125.415 184.935 124.761C184.935 124.097 185.057 123.51 185.301 123.001C185.548 122.49 185.892 122.091 186.332 121.804C186.776 121.514 187.293 121.369 187.884 121.369C188.344 121.369 188.759 121.455 189.128 121.625C189.497 121.795 189.8 122.034 190.036 122.341C190.271 122.648 190.418 123.006 190.475 123.415H189.469C189.392 123.116 189.222 122.852 188.957 122.622C188.696 122.389 188.344 122.273 187.901 122.273C187.509 122.273 187.165 122.375 186.869 122.58C186.577 122.781 186.348 123.067 186.183 123.436C186.021 123.803 185.94 124.233 185.94 124.727C185.94 125.233 186.02 125.673 186.179 126.048C186.341 126.423 186.568 126.714 186.861 126.922C187.156 127.129 187.503 127.233 187.901 127.233C188.162 127.233 188.399 127.188 188.612 127.097C188.825 127.006 189.006 126.875 189.153 126.705C189.301 126.534 189.406 126.33 189.469 126.091H190.475C190.418 126.477 190.277 126.825 190.053 127.135C189.831 127.442 189.537 127.686 189.171 127.868C188.807 128.047 188.384 128.136 187.901 128.136ZM192.029 122.392V121.455H197.347V122.392H195.2V128H194.194V122.392H192.029ZM199.414 130.455V121.455H200.386V122.494H200.505C200.579 122.381 200.681 122.236 200.812 122.06C200.945 121.881 201.136 121.722 201.383 121.582C201.633 121.44 201.971 121.369 202.397 121.369C202.948 121.369 203.434 121.507 203.855 121.783C204.275 122.058 204.603 122.449 204.839 122.955C205.075 123.46 205.193 124.057 205.193 124.744C205.193 125.438 205.075 126.038 204.839 126.547C204.603 127.053 204.276 127.445 203.859 127.723C203.441 127.999 202.96 128.136 202.414 128.136C201.994 128.136 201.657 128.067 201.404 127.928C201.151 127.786 200.957 127.625 200.82 127.446C200.684 127.264 200.579 127.114 200.505 126.994H200.42V130.455H199.414ZM200.403 124.727C200.403 125.222 200.475 125.658 200.62 126.036C200.765 126.411 200.977 126.705 201.255 126.918C201.534 127.128 201.874 127.233 202.278 127.233C202.698 127.233 203.049 127.122 203.33 126.901C203.614 126.676 203.828 126.375 203.97 125.997C204.114 125.616 204.187 125.193 204.187 124.727C204.187 124.267 204.116 123.852 203.974 123.483C203.835 123.111 203.623 122.817 203.339 122.601C203.058 122.382 202.704 122.273 202.278 122.273C201.869 122.273 201.525 122.376 201.247 122.584C200.968 122.788 200.758 123.075 200.616 123.445C200.474 123.811 200.403 124.239 200.403 124.727ZM209.986 128.136C209.395 128.136 208.876 127.996 208.43 127.714C207.987 127.433 207.641 127.04 207.391 126.534C207.143 126.028 207.02 125.437 207.02 124.761C207.02 124.08 207.143 123.484 207.391 122.976C207.641 122.467 207.987 122.072 208.43 121.791C208.876 121.51 209.395 121.369 209.986 121.369C210.577 121.369 211.094 121.51 211.537 121.791C211.983 122.072 212.33 122.467 212.577 122.976C212.827 123.484 212.952 124.08 212.952 124.761C212.952 125.437 212.827 126.028 212.577 126.534C212.33 127.04 211.983 127.433 211.537 127.714C211.094 127.996 210.577 128.136 209.986 128.136ZM209.986 127.233C210.435 127.233 210.804 127.118 211.094 126.888C211.384 126.658 211.598 126.355 211.737 125.98C211.876 125.605 211.946 125.199 211.946 124.761C211.946 124.324 211.876 123.916 211.737 123.538C211.598 123.161 211.384 122.855 211.094 122.622C210.804 122.389 210.435 122.273 209.986 122.273C209.537 122.273 209.168 122.389 208.878 122.622C208.588 122.855 208.374 123.161 208.234 123.538C208.095 123.916 208.026 124.324 208.026 124.761C208.026 125.199 208.095 125.605 208.234 125.98C208.374 126.355 208.588 126.658 208.878 126.888C209.168 127.118 209.537 127.233 209.986 127.233ZM216.093 126.517L219.246 121.455H220.405V128H219.399V122.938L216.263 128H215.087V121.455H216.093V126.517ZM221.956 122.392V121.455H227.275V122.392H225.127V128H224.121V122.392H221.956ZM231.746 128.136C231.115 128.136 230.571 127.997 230.114 127.719C229.659 127.438 229.309 127.045 229.061 126.543C228.817 126.037 228.695 125.449 228.695 124.778C228.695 124.108 228.817 123.517 229.061 123.006C229.309 122.491 229.652 122.091 230.093 121.804C230.536 121.514 231.053 121.369 231.644 121.369C231.985 121.369 232.321 121.426 232.654 121.54C232.986 121.653 233.289 121.838 233.561 122.094C233.834 122.347 234.051 122.682 234.213 123.099C234.375 123.517 234.456 124.031 234.456 124.642V125.068H229.411V124.199H233.434C233.434 123.83 233.36 123.5 233.212 123.21C233.067 122.92 232.86 122.692 232.59 122.524C232.323 122.357 232.007 122.273 231.644 122.273C231.243 122.273 230.897 122.372 230.604 122.571C230.314 122.767 230.091 123.023 229.935 123.338C229.779 123.653 229.701 123.991 229.701 124.352V124.932C229.701 125.426 229.786 125.845 229.956 126.189C230.13 126.53 230.37 126.79 230.676 126.969C230.983 127.145 231.34 127.233 231.746 127.233C232.01 127.233 232.249 127.196 232.462 127.122C232.678 127.045 232.864 126.932 233.02 126.781C233.176 126.628 233.297 126.437 233.382 126.21L234.354 126.483C234.252 126.812 234.08 127.102 233.838 127.352C233.597 127.599 233.299 127.793 232.943 127.932C232.588 128.068 232.189 128.136 231.746 128.136ZM236.007 128V127.062H236.245C236.441 127.062 236.605 127.024 236.735 126.947C236.866 126.868 236.971 126.73 237.051 126.534C237.133 126.335 237.195 126.06 237.238 125.707C237.284 125.352 237.316 124.901 237.336 124.352L237.455 121.455H241.819V128H240.813V122.392H238.41L238.308 124.727C238.285 125.264 238.237 125.737 238.163 126.146C238.092 126.553 237.982 126.893 237.835 127.169C237.69 127.445 237.497 127.652 237.255 127.791C237.014 127.93 236.711 128 236.347 128H236.007ZM245.134 123.824H247.009C247.776 123.824 248.362 124.018 248.768 124.408C249.175 124.797 249.378 125.29 249.378 125.886C249.378 126.278 249.287 126.635 249.105 126.956C248.923 127.274 248.656 127.528 248.304 127.719C247.952 127.906 247.52 128 247.009 128H244.264V121.455H245.27V127.062H247.009C247.406 127.062 247.733 126.957 247.989 126.747C248.244 126.537 248.372 126.267 248.372 125.938C248.372 125.591 248.244 125.308 247.989 125.089C247.733 124.871 247.406 124.761 247.009 124.761H245.134V123.824ZM255.889 124.267V125.205H252.276V124.267H255.889ZM252.514 121.455V128H251.509V121.455H252.514ZM256.656 121.455V128H255.651V121.455H256.656ZM261.752 128.136C261.161 128.136 260.643 127.996 260.197 127.714C259.754 127.433 259.407 127.04 259.157 126.534C258.91 126.028 258.786 125.437 258.786 124.761C258.786 124.08 258.91 123.484 259.157 122.976C259.407 122.467 259.754 122.072 260.197 121.791C260.643 121.51 261.161 121.369 261.752 121.369C262.343 121.369 262.86 121.51 263.303 121.791C263.749 122.072 264.096 122.467 264.343 122.976C264.593 123.484 264.718 124.08 264.718 124.761C264.718 125.437 264.593 126.028 264.343 126.534C264.096 127.04 263.749 127.433 263.303 127.714C262.86 127.996 262.343 128.136 261.752 128.136ZM261.752 127.233C262.201 127.233 262.57 127.118 262.86 126.888C263.15 126.658 263.364 126.355 263.504 125.98C263.643 125.605 263.712 125.199 263.712 124.761C263.712 124.324 263.643 123.916 263.504 123.538C263.364 123.161 263.15 122.855 262.86 122.622C262.57 122.389 262.201 122.273 261.752 122.273C261.303 122.273 260.934 122.389 260.644 122.622C260.354 122.855 260.14 123.161 260.001 123.538C259.862 123.916 259.792 124.324 259.792 124.761C259.792 125.199 259.862 125.605 260.001 125.98C260.14 126.355 260.354 126.658 260.644 126.888C260.934 127.118 261.303 127.233 261.752 127.233ZM270.893 121.455V122.392H267.859V128H266.853V121.455H270.893ZM275.28 128.136C274.689 128.136 274.171 127.996 273.725 127.714C273.282 127.433 272.935 127.04 272.685 126.534C272.438 126.028 272.314 125.437 272.314 124.761C272.314 124.08 272.438 123.484 272.685 122.976C272.935 122.467 273.282 122.072 273.725 121.791C274.171 121.51 274.689 121.369 275.28 121.369C275.871 121.369 276.388 121.51 276.831 121.791C277.277 122.072 277.624 122.467 277.871 122.976C278.121 123.484 278.246 124.08 278.246 124.761C278.246 125.437 278.121 126.028 277.871 126.534C277.624 127.04 277.277 127.433 276.831 127.714C276.388 127.996 275.871 128.136 275.28 128.136ZM275.28 127.233C275.729 127.233 276.099 127.118 276.388 126.888C276.678 126.658 276.893 126.355 277.032 125.98C277.171 125.605 277.241 125.199 277.241 124.761C277.241 124.324 277.171 123.916 277.032 123.538C276.893 123.161 276.678 122.855 276.388 122.622C276.099 122.389 275.729 122.273 275.28 122.273C274.831 122.273 274.462 122.389 274.172 122.622C273.883 122.855 273.668 123.161 273.529 123.538C273.39 123.916 273.32 124.324 273.32 124.761C273.32 125.199 273.39 125.605 273.529 125.98C273.668 126.355 273.883 126.658 274.172 126.888C274.462 127.118 274.831 127.233 275.28 127.233ZM284.356 128V121.455H289.504V128H288.498V122.392H285.362V128H284.356ZM291.941 130.455V121.455H292.912V122.494H293.032C293.106 122.381 293.208 122.236 293.338 122.06C293.472 121.881 293.662 121.722 293.91 121.582C294.16 121.44 294.498 121.369 294.924 121.369C295.475 121.369 295.961 121.507 296.381 121.783C296.802 122.058 297.13 122.449 297.365 122.955C297.601 123.46 297.719 124.057 297.719 124.744C297.719 125.438 297.601 126.038 297.365 126.547C297.13 127.053 296.803 127.445 296.385 127.723C295.968 127.999 295.486 128.136 294.941 128.136C294.52 128.136 294.184 128.067 293.931 127.928C293.678 127.786 293.483 127.625 293.347 127.446C293.211 127.264 293.106 127.114 293.032 126.994H292.946V130.455H291.941ZM292.929 124.727C292.929 125.222 293.002 125.658 293.147 126.036C293.292 126.411 293.503 126.705 293.782 126.918C294.06 127.128 294.401 127.233 294.804 127.233C295.225 127.233 295.576 127.122 295.857 126.901C296.141 126.676 296.354 126.375 296.496 125.997C296.641 125.616 296.713 125.193 296.713 124.727C296.713 124.267 296.642 123.852 296.5 123.483C296.361 123.111 296.15 122.817 295.865 122.601C295.584 122.382 295.231 122.273 294.804 122.273C294.395 122.273 294.052 122.376 293.773 122.584C293.495 122.788 293.285 123.075 293.142 123.445C293 123.811 292.929 124.239 292.929 124.727ZM302.512 128.136C301.921 128.136 301.403 127.996 300.957 127.714C300.514 127.433 300.167 127.04 299.917 126.534C299.67 126.028 299.546 125.437 299.546 124.761C299.546 124.08 299.67 123.484 299.917 122.976C300.167 122.467 300.514 122.072 300.957 121.791C301.403 121.51 301.921 121.369 302.512 121.369C303.103 121.369 303.62 121.51 304.063 121.791C304.51 122.072 304.856 122.467 305.103 122.976C305.353 123.484 305.478 124.08 305.478 124.761C305.478 125.437 305.353 126.028 305.103 126.534C304.856 127.04 304.51 127.433 304.063 127.714C303.62 127.996 303.103 128.136 302.512 128.136ZM302.512 127.233C302.961 127.233 303.331 127.118 303.62 126.888C303.91 126.658 304.125 126.355 304.264 125.98C304.403 125.605 304.473 125.199 304.473 124.761C304.473 124.324 304.403 123.916 304.264 123.538C304.125 123.161 303.91 122.855 303.62 122.622C303.331 122.389 302.961 122.273 302.512 122.273C302.063 122.273 301.694 122.389 301.404 122.622C301.115 122.855 300.9 123.161 300.761 123.538C300.622 123.916 300.552 124.324 300.552 124.761C300.552 125.199 300.622 125.605 300.761 125.98C300.9 126.355 301.115 126.658 301.404 126.888C301.694 127.118 302.063 127.233 302.512 127.233ZM308.619 126.517L311.773 121.455H312.932V128H311.926V122.938L308.79 128H307.613V121.455H308.619V126.517ZM314.964 126.33H316.038C316.061 126.625 316.195 126.849 316.439 127.003C316.686 127.156 317.007 127.233 317.402 127.233C317.805 127.233 318.151 127.151 318.438 126.986C318.724 126.818 318.868 126.548 318.868 126.176C318.868 125.957 318.814 125.767 318.706 125.605C318.598 125.44 318.446 125.312 318.25 125.222C318.054 125.131 317.822 125.085 317.555 125.085H316.43V124.182H317.555C317.956 124.182 318.251 124.091 318.442 123.909C318.635 123.727 318.732 123.5 318.732 123.227C318.732 122.935 318.628 122.7 318.42 122.524C318.213 122.345 317.919 122.256 317.538 122.256C317.155 122.256 316.835 122.342 316.58 122.516C316.324 122.686 316.189 122.906 316.175 123.176H315.118C315.129 122.824 315.237 122.513 315.442 122.243C315.646 121.97 315.925 121.757 316.277 121.604C316.629 121.447 317.033 121.369 317.487 121.369C317.947 121.369 318.347 121.45 318.685 121.612C319.026 121.771 319.288 121.989 319.473 122.264C319.661 122.537 319.754 122.847 319.754 123.193C319.754 123.562 319.651 123.861 319.443 124.088C319.236 124.315 318.976 124.477 318.663 124.574V124.642C318.911 124.659 319.125 124.739 319.307 124.881C319.491 125.02 319.635 125.203 319.737 125.43C319.839 125.655 319.891 125.903 319.891 126.176C319.891 126.574 319.784 126.92 319.571 127.216C319.358 127.509 319.065 127.736 318.693 127.898C318.321 128.057 317.896 128.136 317.419 128.136C316.956 128.136 316.541 128.061 316.175 127.911C315.808 127.757 315.517 127.545 315.301 127.276C315.088 127.003 314.976 126.688 314.964 126.33ZM321.903 128V121.455H324.579C325.284 121.455 325.844 121.614 326.258 121.932C326.673 122.25 326.881 122.67 326.881 123.193C326.881 123.591 326.763 123.899 326.527 124.118C326.291 124.334 325.989 124.48 325.619 124.557C325.861 124.591 326.095 124.676 326.322 124.812C326.552 124.949 326.743 125.136 326.893 125.375C327.044 125.611 327.119 125.901 327.119 126.244C327.119 126.58 327.034 126.879 326.864 127.143C326.693 127.408 326.449 127.616 326.131 127.77C325.812 127.923 325.432 128 324.989 128H321.903ZM322.858 127.08H324.989C325.335 127.08 325.606 126.997 325.802 126.832C325.998 126.668 326.096 126.443 326.096 126.159C326.096 125.821 325.998 125.555 325.802 125.362C325.606 125.166 325.335 125.068 324.989 125.068H322.858V127.08ZM322.858 124.199H324.579C324.849 124.199 325.081 124.162 325.274 124.088C325.467 124.011 325.615 123.903 325.717 123.764C325.822 123.622 325.875 123.455 325.875 123.261C325.875 122.986 325.76 122.77 325.53 122.614C325.3 122.455 324.983 122.375 324.579 122.375H322.858V124.199ZM331.901 128.136C331.31 128.136 330.791 127.996 330.345 127.714C329.902 127.433 329.555 127.04 329.305 126.534C329.058 126.028 328.935 125.437 328.935 124.761C328.935 124.08 329.058 123.484 329.305 122.976C329.555 122.467 329.902 122.072 330.345 121.791C330.791 121.51 331.31 121.369 331.901 121.369C332.492 121.369 333.009 121.51 333.452 121.791C333.898 122.072 334.244 122.467 334.492 122.976C334.742 123.484 334.867 124.08 334.867 124.761C334.867 125.437 334.742 126.028 334.492 126.534C334.244 127.04 333.898 127.433 333.452 127.714C333.009 127.996 332.492 128.136 331.901 128.136ZM331.901 127.233C332.35 127.233 332.719 127.118 333.009 126.888C333.298 126.658 333.513 126.355 333.652 125.98C333.791 125.605 333.861 125.199 333.861 124.761C333.861 124.324 333.791 123.916 333.652 123.538C333.513 123.161 333.298 122.855 333.009 122.622C332.719 122.389 332.35 122.273 331.901 122.273C331.452 122.273 331.082 122.389 330.793 122.622C330.503 122.855 330.288 123.161 330.149 123.538C330.01 123.916 329.94 124.324 329.94 124.761C329.94 125.199 330.01 125.605 330.149 125.98C330.288 126.355 330.503 126.658 330.793 126.888C331.082 127.118 331.452 127.233 331.901 127.233ZM336.303 129.875V127.062H336.848C336.982 126.923 337.097 126.773 337.193 126.611C337.29 126.449 337.374 126.257 337.445 126.036C337.519 125.811 337.581 125.538 337.632 125.217C337.684 124.893 337.729 124.503 337.769 124.045L337.99 121.455H342.149V127.062H343.155V129.875H342.149V128H337.309V129.875H336.303ZM337.99 127.062H341.144V122.392H338.928L338.757 124.045C338.686 124.73 338.598 125.328 338.493 125.839C338.388 126.351 338.22 126.759 337.99 127.062ZM347.749 128.136C347.135 128.136 346.607 127.991 346.164 127.702C345.721 127.412 345.38 127.013 345.141 126.504C344.902 125.996 344.783 125.415 344.783 124.761C344.783 124.097 344.905 123.51 345.15 123.001C345.397 122.49 345.741 122.091 346.181 121.804C346.624 121.514 347.141 121.369 347.732 121.369C348.192 121.369 348.607 121.455 348.976 121.625C349.346 121.795 349.648 122.034 349.884 122.341C350.12 122.648 350.266 123.006 350.323 123.415H349.317C349.241 123.116 349.07 122.852 348.806 122.622C348.545 122.389 348.192 122.273 347.749 122.273C347.357 122.273 347.013 122.375 346.718 122.58C346.425 122.781 346.197 123.067 346.032 123.436C345.87 123.803 345.789 124.233 345.789 124.727C345.789 125.233 345.868 125.673 346.027 126.048C346.189 126.423 346.417 126.714 346.709 126.922C347.005 127.129 347.351 127.233 347.749 127.233C348.01 127.233 348.248 127.188 348.461 127.097C348.674 127.006 348.854 126.875 349.002 126.705C349.15 126.534 349.255 126.33 349.317 126.091H350.323C350.266 126.477 350.125 126.825 349.901 127.135C349.679 127.442 349.385 127.686 349.019 127.868C348.655 128.047 348.232 128.136 347.749 128.136ZM351.877 122.392V121.455H357.196V122.392H355.048V128H354.042V122.392H351.877ZM359.263 128V121.455H361.939C362.643 121.455 363.203 121.614 363.618 121.932C364.033 122.25 364.24 122.67 364.24 123.193C364.24 123.591 364.122 123.899 363.886 124.118C363.65 124.334 363.348 124.48 362.979 124.557C363.22 124.591 363.454 124.676 363.682 124.812C363.912 124.949 364.102 125.136 364.253 125.375C364.403 125.611 364.479 125.901 364.479 126.244C364.479 126.58 364.393 126.879 364.223 127.143C364.052 127.408 363.808 127.616 363.49 127.77C363.172 127.923 362.791 128 362.348 128H359.263ZM360.217 127.08H362.348C362.694 127.08 362.966 126.997 363.162 126.832C363.358 126.668 363.456 126.443 363.456 126.159C363.456 125.821 363.358 125.555 363.162 125.362C362.966 125.166 362.694 125.068 362.348 125.068H360.217V127.08ZM360.217 124.199H361.939C362.209 124.199 362.44 124.162 362.633 124.088C362.827 124.011 362.974 123.903 363.077 123.764C363.182 123.622 363.234 123.455 363.234 123.261C363.234 122.986 363.119 122.77 362.889 122.614C362.659 122.455 362.342 122.375 361.939 122.375H360.217V124.199ZM368.527 128.153C368.112 128.153 367.736 128.075 367.398 127.919C367.06 127.76 366.791 127.531 366.592 127.233C366.394 126.932 366.294 126.568 366.294 126.142C366.294 125.767 366.368 125.463 366.516 125.23C366.663 124.994 366.861 124.81 367.108 124.676C367.355 124.543 367.628 124.443 367.926 124.378C368.227 124.31 368.53 124.256 368.834 124.216C369.232 124.165 369.554 124.126 369.801 124.101C370.051 124.072 370.233 124.026 370.347 123.96C370.463 123.895 370.521 123.781 370.521 123.619V123.585C370.521 123.165 370.406 122.838 370.176 122.605C369.949 122.372 369.604 122.256 369.141 122.256C368.661 122.256 368.284 122.361 368.011 122.571C367.739 122.781 367.547 123.006 367.436 123.244L366.482 122.903C366.652 122.506 366.879 122.196 367.163 121.974C367.45 121.75 367.763 121.594 368.101 121.506C368.442 121.415 368.777 121.369 369.107 121.369C369.317 121.369 369.558 121.395 369.831 121.446C370.107 121.494 370.372 121.595 370.628 121.749C370.886 121.902 371.101 122.134 371.271 122.443C371.442 122.753 371.527 123.168 371.527 123.688V128H370.521V127.114H370.47C370.402 127.256 370.288 127.408 370.129 127.57C369.97 127.732 369.759 127.869 369.494 127.983C369.23 128.097 368.908 128.153 368.527 128.153ZM368.68 127.25C369.078 127.25 369.413 127.172 369.686 127.016C369.962 126.859 370.169 126.658 370.308 126.411C370.45 126.163 370.521 125.903 370.521 125.631V124.71C370.479 124.761 370.385 124.808 370.24 124.851C370.098 124.891 369.933 124.926 369.746 124.957C369.561 124.986 369.381 125.011 369.205 125.034C369.031 125.054 368.891 125.071 368.783 125.085C368.521 125.119 368.277 125.175 368.05 125.251C367.825 125.325 367.644 125.437 367.504 125.588C367.368 125.736 367.3 125.937 367.3 126.193C367.3 126.543 367.429 126.807 367.688 126.986C367.949 127.162 368.28 127.25 368.68 127.25ZM374.849 119.273V120.04C374.849 120.273 374.806 120.521 374.721 120.786C374.639 121.047 374.517 121.301 374.355 121.548C374.196 121.793 374.002 122.006 373.775 122.188L373.23 121.744C373.409 121.489 373.563 121.223 373.694 120.947C373.828 120.669 373.894 120.372 373.894 120.057V119.273H374.849ZM377.031 119.273V120.04C377.031 120.273 376.988 120.521 376.903 120.786C376.821 121.047 376.698 121.301 376.536 121.548C376.377 121.793 376.184 122.006 375.957 122.188L375.411 121.744C375.59 121.489 375.745 121.223 375.876 120.947C376.01 120.669 376.076 120.372 376.076 120.057V119.273H377.031ZM55.9205 143V136.455H61.0682V143H60.0625V137.392H56.9261V143H55.9205ZM66.1639 143.136C65.573 143.136 65.0545 142.996 64.6085 142.714C64.1653 142.433 63.8187 142.04 63.5687 141.534C63.3216 141.028 63.198 140.437 63.198 139.761C63.198 139.08 63.3216 138.484 63.5687 137.976C63.8187 137.467 64.1653 137.072 64.6085 136.791C65.0545 136.51 65.573 136.369 66.1639 136.369C66.7548 136.369 67.2719 136.51 67.7151 136.791C68.1611 137.072 68.5077 137.467 68.7548 137.976C69.0048 138.484 69.1298 139.08 69.1298 139.761C69.1298 140.437 69.0048 141.028 68.7548 141.534C68.5077 142.04 68.1611 142.433 67.7151 142.714C67.2719 142.996 66.7548 143.136 66.1639 143.136ZM66.1639 142.233C66.6128 142.233 66.9821 142.118 67.2719 141.888C67.5616 141.658 67.7761 141.355 67.9153 140.98C68.0545 140.605 68.1241 140.199 68.1241 139.761C68.1241 139.324 68.0545 138.916 67.9153 138.538C67.7761 138.161 67.5616 137.855 67.2719 137.622C66.9821 137.389 66.6128 137.273 66.1639 137.273C65.7151 137.273 65.3457 137.389 65.056 137.622C64.7662 137.855 64.5517 138.161 64.4125 138.538C64.2733 138.916 64.2037 139.324 64.2037 139.761C64.2037 140.199 64.2733 140.605 64.4125 140.98C64.5517 141.355 64.7662 141.658 65.056 141.888C65.3457 142.118 65.7151 142.233 66.1639 142.233ZM75.24 143V136.455H76.2457V139.301H76.9104L79.2627 136.455H80.5582L77.9161 139.608L80.5923 143H79.2968L77.1491 140.239H76.2457V143H75.24ZM81.7058 143V142.062H81.9444C82.1404 142.062 82.3038 142.024 82.4344 141.947C82.5651 141.868 82.6702 141.73 82.7498 141.534C82.8322 141.335 82.8947 141.06 82.9373 140.707C82.9827 140.352 83.0154 139.901 83.0353 139.352L83.1546 136.455H87.5183V143H86.5126V137.392H84.1092L84.0069 139.727C83.9842 140.264 83.9359 140.737 83.862 141.146C83.791 141.553 83.6816 141.893 83.5339 142.169C83.389 142.445 83.1958 142.652 82.9543 142.791C82.7129 142.93 82.4103 143 82.0467 143H81.7058ZM93.0998 139.318V140.256H89.6396V139.318H93.0998ZM90.4918 136.455V143H89.4862V136.455H90.4918ZM95.1112 143.136C94.5202 143.136 94.0018 142.996 93.5558 142.714C93.1126 142.433 92.766 142.04 92.516 141.534C92.2688 141.028 92.1452 140.437 92.1452 139.761C92.1452 139.08 92.2688 138.484 92.516 137.976C92.766 137.467 93.1126 137.072 93.5558 136.791C94.0018 136.51 94.5202 136.369 95.1112 136.369C95.7021 136.369 96.2191 136.51 96.6623 136.791C97.1083 137.072 97.4549 137.467 97.7021 137.976C97.9521 138.484 98.0771 139.08 98.0771 139.761C98.0771 140.437 97.9521 141.028 97.7021 141.534C97.4549 142.04 97.1083 142.433 96.6623 142.714C96.2191 142.996 95.7021 143.136 95.1112 143.136ZM95.1112 142.233C95.56 142.233 95.9293 142.118 96.2191 141.888C96.5089 141.658 96.7234 141.355 96.8626 140.98C97.0018 140.605 97.0714 140.199 97.0714 139.761C97.0714 139.324 97.0018 138.916 96.8626 138.538C96.7234 138.161 96.5089 137.855 96.2191 137.622C95.9293 137.389 95.56 137.273 95.1112 137.273C94.6623 137.273 94.293 137.389 94.0032 137.622C93.7134 137.855 93.4989 138.161 93.3597 138.538C93.2205 138.916 93.1509 139.324 93.1509 139.761C93.1509 140.199 93.2205 140.605 93.3597 140.98C93.4989 141.355 93.7134 141.658 94.0032 141.888C94.293 142.118 94.6623 142.233 95.1112 142.233ZM105.359 136.455V143H104.353V136.455H105.359ZM104.967 139.574V140.511C104.74 140.597 104.514 140.672 104.289 140.737C104.065 140.8 103.829 140.849 103.582 140.886C103.335 140.92 103.063 140.938 102.768 140.938C102.026 140.938 101.431 140.737 100.982 140.337C100.536 139.936 100.313 139.335 100.313 138.534V136.438H101.319V138.534C101.319 138.869 101.383 139.145 101.511 139.361C101.639 139.577 101.812 139.737 102.031 139.842C102.25 139.947 102.495 140 102.768 140C103.194 140 103.579 139.962 103.923 139.885C104.269 139.805 104.617 139.702 104.967 139.574ZM110.548 143.136C109.918 143.136 109.374 142.997 108.916 142.719C108.462 142.438 108.111 142.045 107.864 141.543C107.619 141.037 107.497 140.449 107.497 139.778C107.497 139.108 107.619 138.517 107.864 138.006C108.111 137.491 108.455 137.091 108.895 136.804C109.338 136.514 109.855 136.369 110.446 136.369C110.787 136.369 111.124 136.426 111.456 136.54C111.788 136.653 112.091 136.838 112.364 137.094C112.636 137.347 112.854 137.682 113.016 138.099C113.178 138.517 113.259 139.031 113.259 139.642V140.068H108.213V139.199H112.236C112.236 138.83 112.162 138.5 112.014 138.21C111.869 137.92 111.662 137.692 111.392 137.524C111.125 137.357 110.81 137.273 110.446 137.273C110.046 137.273 109.699 137.372 109.406 137.571C109.117 137.767 108.894 138.023 108.737 138.338C108.581 138.653 108.503 138.991 108.503 139.352V139.932C108.503 140.426 108.588 140.845 108.759 141.189C108.932 141.53 109.172 141.79 109.479 141.969C109.786 142.145 110.142 142.233 110.548 142.233C110.813 142.233 111.051 142.196 111.264 142.122C111.48 142.045 111.666 141.932 111.823 141.781C111.979 141.628 112.1 141.437 112.185 141.21L113.156 141.483C113.054 141.812 112.882 142.102 112.641 142.352C112.399 142.599 112.101 142.793 111.746 142.932C111.391 143.068 110.992 143.136 110.548 143.136ZM115.388 143V136.455H118.065C118.769 136.455 119.329 136.614 119.744 136.932C120.158 137.25 120.366 137.67 120.366 138.193C120.366 138.591 120.248 138.899 120.012 139.118C119.776 139.334 119.474 139.48 119.104 139.557C119.346 139.591 119.58 139.676 119.807 139.812C120.038 139.949 120.228 140.136 120.378 140.375C120.529 140.611 120.604 140.901 120.604 141.244C120.604 141.58 120.519 141.879 120.349 142.143C120.178 142.408 119.934 142.616 119.616 142.77C119.298 142.923 118.917 143 118.474 143H115.388ZM116.343 142.08H118.474C118.82 142.08 119.092 141.997 119.288 141.832C119.484 141.668 119.582 141.443 119.582 141.159C119.582 140.821 119.484 140.555 119.288 140.362C119.092 140.166 118.82 140.068 118.474 140.068H116.343V142.08ZM116.343 139.199H118.065C118.334 139.199 118.566 139.162 118.759 139.088C118.952 139.011 119.1 138.903 119.202 138.764C119.307 138.622 119.36 138.455 119.36 138.261C119.36 137.986 119.245 137.77 119.015 137.614C118.785 137.455 118.468 137.375 118.065 137.375H116.343V139.199ZM123.596 138.824H125.471C126.238 138.824 126.825 139.018 127.231 139.408C127.637 139.797 127.84 140.29 127.84 140.886C127.84 141.278 127.749 141.635 127.568 141.956C127.386 142.274 127.119 142.528 126.766 142.719C126.414 142.906 125.982 143 125.471 143H122.727V136.455H123.732V142.062H125.471C125.869 142.062 126.195 141.957 126.451 141.747C126.707 141.537 126.835 141.267 126.835 140.938C126.835 140.591 126.707 140.308 126.451 140.089C126.195 139.871 125.869 139.761 125.471 139.761H123.596V138.824ZM128.88 143V136.455H129.886V143H128.88ZM135.906 141.636L138.19 136.455H139.145L136.315 143H135.497L132.719 136.455H133.656L135.906 141.636ZM133.332 136.455V143H132.327V136.455H133.332ZM138.48 143V136.455H139.486V143H138.48ZM148.561 143.136C147.947 143.136 147.419 142.991 146.976 142.702C146.532 142.412 146.191 142.013 145.953 141.504C145.714 140.996 145.595 140.415 145.595 139.761C145.595 139.097 145.717 138.51 145.961 138.001C146.209 137.49 146.552 137.091 146.993 136.804C147.436 136.514 147.953 136.369 148.544 136.369C149.004 136.369 149.419 136.455 149.788 136.625C150.157 136.795 150.46 137.034 150.696 137.341C150.932 137.648 151.078 138.006 151.135 138.415H150.129C150.052 138.116 149.882 137.852 149.618 137.622C149.356 137.389 149.004 137.273 148.561 137.273C148.169 137.273 147.825 137.375 147.53 137.58C147.237 137.781 147.008 138.067 146.843 138.436C146.682 138.803 146.601 139.233 146.601 139.727C146.601 140.233 146.68 140.673 146.839 141.048C147.001 141.423 147.228 141.714 147.521 141.922C147.816 142.129 148.163 142.233 148.561 142.233C148.822 142.233 149.059 142.188 149.272 142.097C149.486 142.006 149.666 141.875 149.814 141.705C149.961 141.534 150.066 141.33 150.129 141.091H151.135C151.078 141.477 150.937 141.825 150.713 142.135C150.491 142.442 150.197 142.686 149.831 142.868C149.467 143.047 149.044 143.136 148.561 143.136ZM152.625 143V142.062H152.864C153.06 142.062 153.223 142.024 153.354 141.947C153.485 141.868 153.59 141.73 153.669 141.534C153.752 141.335 153.814 141.06 153.857 140.707C153.902 140.352 153.935 139.901 153.955 139.352L154.074 136.455H158.438V143H157.432V137.392H155.029L154.926 139.727C154.904 140.264 154.855 140.737 154.782 141.146C154.711 141.553 154.601 141.893 154.453 142.169C154.309 142.445 154.115 142.652 153.874 142.791C153.632 142.93 153.33 143 152.966 143H152.625ZM163.542 143.136C162.951 143.136 162.433 142.996 161.987 142.714C161.543 142.433 161.197 142.04 160.947 141.534C160.7 141.028 160.576 140.437 160.576 139.761C160.576 139.08 160.7 138.484 160.947 137.976C161.197 137.467 161.543 137.072 161.987 136.791C162.433 136.51 162.951 136.369 163.542 136.369C164.133 136.369 164.65 136.51 165.093 136.791C165.539 137.072 165.886 137.467 166.133 137.976C166.383 138.484 166.508 139.08 166.508 139.761C166.508 140.437 166.383 141.028 166.133 141.534C165.886 142.04 165.539 142.433 165.093 142.714C164.65 142.996 164.133 143.136 163.542 143.136ZM163.542 142.233C163.991 142.233 164.36 142.118 164.65 141.888C164.94 141.658 165.154 141.355 165.293 140.98C165.433 140.605 165.502 140.199 165.502 139.761C165.502 139.324 165.433 138.916 165.293 138.538C165.154 138.161 164.94 137.855 164.65 137.622C164.36 137.389 163.991 137.273 163.542 137.273C163.093 137.273 162.724 137.389 162.434 137.622C162.144 137.855 161.93 138.161 161.791 138.538C161.651 138.916 161.582 139.324 161.582 139.761C161.582 140.199 161.651 140.605 161.791 140.98C161.93 141.355 162.144 141.658 162.434 141.888C162.724 142.118 163.093 142.233 163.542 142.233ZM168.643 143V136.455H171.319C172.024 136.455 172.583 136.614 172.998 136.932C173.413 137.25 173.62 137.67 173.62 138.193C173.62 138.591 173.502 138.899 173.267 139.118C173.031 139.334 172.728 139.48 172.359 139.557C172.6 139.591 172.835 139.676 173.062 139.812C173.292 139.949 173.483 140.136 173.633 140.375C173.784 140.611 173.859 140.901 173.859 141.244C173.859 141.58 173.774 141.879 173.603 142.143C173.433 142.408 173.189 142.616 172.87 142.77C172.552 142.923 172.172 143 171.728 143H168.643ZM169.598 142.08H171.728C172.075 142.08 172.346 141.997 172.542 141.832C172.738 141.668 172.836 141.443 172.836 141.159C172.836 140.821 172.738 140.555 172.542 140.362C172.346 140.166 172.075 140.068 171.728 140.068H169.598V142.08ZM169.598 139.199H171.319C171.589 139.199 171.821 139.162 172.014 139.088C172.207 139.011 172.355 138.903 172.457 138.764C172.562 138.622 172.615 138.455 172.615 138.261C172.615 137.986 172.5 137.77 172.27 137.614C172.039 137.455 171.723 137.375 171.319 137.375H169.598V139.199ZM177.908 143.153C177.493 143.153 177.116 143.075 176.778 142.919C176.44 142.76 176.172 142.531 175.973 142.233C175.774 141.932 175.675 141.568 175.675 141.142C175.675 140.767 175.748 140.463 175.896 140.23C176.044 139.994 176.241 139.81 176.488 139.676C176.736 139.543 177.008 139.443 177.307 139.378C177.608 139.31 177.91 139.256 178.214 139.216C178.612 139.165 178.935 139.126 179.182 139.101C179.432 139.072 179.613 139.026 179.727 138.96C179.844 138.895 179.902 138.781 179.902 138.619V138.585C179.902 138.165 179.787 137.838 179.557 137.605C179.329 137.372 178.984 137.256 178.521 137.256C178.041 137.256 177.665 137.361 177.392 137.571C177.119 137.781 176.927 138.006 176.817 138.244L175.862 137.903C176.033 137.506 176.26 137.196 176.544 136.974C176.831 136.75 177.143 136.594 177.481 136.506C177.822 136.415 178.158 136.369 178.487 136.369C178.697 136.369 178.939 136.395 179.212 136.446C179.487 136.494 179.753 136.595 180.008 136.749C180.267 136.902 180.481 137.134 180.652 137.443C180.822 137.753 180.908 138.168 180.908 138.688V143H179.902V142.114H179.851C179.783 142.256 179.669 142.408 179.51 142.57C179.351 142.732 179.139 142.869 178.875 142.983C178.611 143.097 178.288 143.153 177.908 143.153ZM178.061 142.25C178.459 142.25 178.794 142.172 179.067 142.016C179.342 141.859 179.55 141.658 179.689 141.411C179.831 141.163 179.902 140.903 179.902 140.631V139.71C179.859 139.761 179.765 139.808 179.621 139.851C179.479 139.891 179.314 139.926 179.126 139.957C178.942 139.986 178.761 140.011 178.585 140.034C178.412 140.054 178.271 140.071 178.163 140.085C177.902 140.119 177.658 140.175 177.43 140.251C177.206 140.325 177.024 140.437 176.885 140.588C176.748 140.736 176.68 140.937 176.68 141.193C176.68 141.543 176.81 141.807 177.068 141.986C177.329 142.162 177.66 142.25 178.061 142.25ZM186.923 141.636L189.207 136.455H190.161L187.332 143H186.514L183.735 136.455H184.673L186.923 141.636ZM184.349 136.455V143H183.343V136.455H184.349ZM189.497 143V136.455H190.502V143H189.497ZM194.443 141.807L194.375 142.267C194.327 142.591 194.253 142.938 194.153 143.307C194.057 143.676 193.956 144.024 193.851 144.351C193.746 144.678 193.659 144.938 193.591 145.131H192.824C192.861 144.949 192.909 144.709 192.969 144.411C193.028 144.112 193.088 143.778 193.148 143.409C193.21 143.043 193.261 142.668 193.301 142.284L193.352 141.807H194.443ZM200.881 143V136.455H201.887V139.301H202.552L204.904 136.455H206.2L203.558 139.608L206.234 143H204.938L202.79 140.239H201.887V143H200.881ZM210.316 143.136C209.725 143.136 209.207 142.996 208.761 142.714C208.318 142.433 207.971 142.04 207.721 141.534C207.474 141.028 207.35 140.437 207.35 139.761C207.35 139.08 207.474 138.484 207.721 137.976C207.971 137.467 208.318 137.072 208.761 136.791C209.207 136.51 209.725 136.369 210.316 136.369C210.907 136.369 211.424 136.51 211.867 136.791C212.313 137.072 212.66 137.467 212.907 137.976C213.157 138.484 213.282 139.08 213.282 139.761C213.282 140.437 213.157 141.028 212.907 141.534C212.66 142.04 212.313 142.433 211.867 142.714C211.424 142.996 210.907 143.136 210.316 143.136ZM210.316 142.233C210.765 142.233 211.134 142.118 211.424 141.888C211.714 141.658 211.928 141.355 212.068 140.98C212.207 140.605 212.276 140.199 212.276 139.761C212.276 139.324 212.207 138.916 212.068 138.538C211.928 138.161 211.714 137.855 211.424 137.622C211.134 137.389 210.765 137.273 210.316 137.273C209.867 137.273 209.498 137.389 209.208 137.622C208.919 137.855 208.704 138.161 208.565 138.538C208.426 138.916 208.356 139.324 208.356 139.761C208.356 140.199 208.426 140.605 208.565 140.98C208.704 141.355 208.919 141.658 209.208 141.888C209.498 142.118 209.867 142.233 210.316 142.233ZM214.562 137.392V136.455H219.88V137.392H217.732V143H216.727V137.392H214.562ZM224.266 143.136C223.675 143.136 223.157 142.996 222.711 142.714C222.268 142.433 221.921 142.04 221.671 141.534C221.424 141.028 221.3 140.437 221.3 139.761C221.3 139.08 221.424 138.484 221.671 137.976C221.921 137.467 222.268 137.072 222.711 136.791C223.157 136.51 223.675 136.369 224.266 136.369C224.857 136.369 225.374 136.51 225.817 136.791C226.263 137.072 226.61 137.467 226.857 137.976C227.107 138.484 227.232 139.08 227.232 139.761C227.232 140.437 227.107 141.028 226.857 141.534C226.61 142.04 226.263 142.433 225.817 142.714C225.374 142.996 224.857 143.136 224.266 143.136ZM224.266 142.233C224.715 142.233 225.084 142.118 225.374 141.888C225.664 141.658 225.878 141.355 226.018 140.98C226.157 140.605 226.226 140.199 226.226 139.761C226.226 139.324 226.157 138.916 226.018 138.538C225.878 138.161 225.664 137.855 225.374 137.622C225.084 137.389 224.715 137.273 224.266 137.273C223.817 137.273 223.448 137.389 223.158 137.622C222.869 137.855 222.654 138.161 222.515 138.538C222.376 138.916 222.306 139.324 222.306 139.761C222.306 140.199 222.376 140.605 222.515 140.98C222.654 141.355 222.869 141.658 223.158 141.888C223.448 142.118 223.817 142.233 224.266 142.233ZM229.367 145.455V136.455H230.339V137.494H230.458C230.532 137.381 230.634 137.236 230.765 137.06C230.899 136.881 231.089 136.722 231.336 136.582C231.586 136.44 231.924 136.369 232.35 136.369C232.901 136.369 233.387 136.507 233.808 136.783C234.228 137.058 234.556 137.449 234.792 137.955C235.028 138.46 235.146 139.057 235.146 139.744C235.146 140.438 235.028 141.038 234.792 141.547C234.556 142.053 234.23 142.445 233.812 142.723C233.394 142.999 232.913 143.136 232.367 143.136C231.947 143.136 231.61 143.067 231.357 142.928C231.105 142.786 230.91 142.625 230.774 142.446C230.637 142.264 230.532 142.114 230.458 141.994H230.373V145.455H229.367ZM230.356 139.727C230.356 140.222 230.428 140.658 230.573 141.036C230.718 141.411 230.93 141.705 231.208 141.918C231.487 142.128 231.828 142.233 232.231 142.233C232.651 142.233 233.002 142.122 233.284 141.901C233.568 141.676 233.781 141.375 233.923 140.997C234.068 140.616 234.14 140.193 234.14 139.727C234.14 139.267 234.069 138.852 233.927 138.483C233.788 138.111 233.576 137.817 233.292 137.601C233.011 137.382 232.657 137.273 232.231 137.273C231.822 137.273 231.478 137.376 231.2 137.584C230.921 137.788 230.711 138.075 230.569 138.445C230.427 138.811 230.356 139.239 230.356 139.727ZM238.149 138.824H240.024C240.791 138.824 241.378 139.018 241.784 139.408C242.19 139.797 242.393 140.29 242.393 140.886C242.393 141.278 242.303 141.635 242.121 141.956C241.939 142.274 241.672 142.528 241.32 142.719C240.967 142.906 240.536 143 240.024 143H237.28V136.455H238.286V142.062H240.024C240.422 142.062 240.749 141.957 241.004 141.747C241.26 141.537 241.388 141.267 241.388 140.938C241.388 140.591 241.26 140.308 241.004 140.089C240.749 139.871 240.422 139.761 240.024 139.761H238.149V138.824ZM243.433 143V136.455H244.439V143H243.433ZM249.624 143.136C248.993 143.136 248.449 142.997 247.992 142.719C247.538 142.438 247.187 142.045 246.939 141.543C246.695 141.037 246.573 140.449 246.573 139.778C246.573 139.108 246.695 138.517 246.939 138.006C247.187 137.491 247.53 137.091 247.971 136.804C248.414 136.514 248.931 136.369 249.522 136.369C249.863 136.369 250.199 136.426 250.532 136.54C250.864 136.653 251.167 136.838 251.439 137.094C251.712 137.347 251.93 137.682 252.091 138.099C252.253 138.517 252.334 139.031 252.334 139.642V140.068H247.289V139.199H251.312C251.312 138.83 251.238 138.5 251.09 138.21C250.945 137.92 250.738 137.692 250.468 137.524C250.201 137.357 249.886 137.273 249.522 137.273C249.121 137.273 248.775 137.372 248.482 137.571C248.192 137.767 247.969 138.023 247.813 138.338C247.657 138.653 247.579 138.991 247.579 139.352V139.932C247.579 140.426 247.664 140.845 247.834 141.189C248.008 141.53 248.248 141.79 248.555 141.969C248.861 142.145 249.218 142.233 249.624 142.233C249.888 142.233 250.127 142.196 250.34 142.122C250.556 142.045 250.742 141.932 250.898 141.781C251.055 141.628 251.175 141.437 251.261 141.21L252.232 141.483C252.13 141.812 251.958 142.102 251.716 142.352C251.475 142.599 251.177 142.793 250.822 142.932C250.466 143.068 250.067 143.136 249.624 143.136ZM258.439 143V136.455H261.115C261.82 136.455 262.38 136.614 262.794 136.932C263.209 137.25 263.416 137.67 263.416 138.193C263.416 138.591 263.299 138.899 263.063 139.118C262.827 139.334 262.524 139.48 262.155 139.557C262.397 139.591 262.631 139.676 262.858 139.812C263.088 139.949 263.279 140.136 263.429 140.375C263.58 140.611 263.655 140.901 263.655 141.244C263.655 141.58 263.57 141.879 263.399 142.143C263.229 142.408 262.985 142.616 262.666 142.77C262.348 142.923 261.968 143 261.524 143H258.439ZM259.394 142.08H261.524C261.871 142.08 262.142 141.997 262.338 141.832C262.534 141.668 262.632 141.443 262.632 141.159C262.632 140.821 262.534 140.555 262.338 140.362C262.142 140.166 261.871 140.068 261.524 140.068H259.394V142.08ZM259.394 139.199H261.115C261.385 139.199 261.617 139.162 261.81 139.088C262.003 139.011 262.151 138.903 262.253 138.764C262.358 138.622 262.411 138.455 262.411 138.261C262.411 137.986 262.296 137.77 262.066 137.614C261.836 137.455 261.519 137.375 261.115 137.375H259.394V139.199ZM265.777 143V136.455H268.454C269.158 136.455 269.718 136.614 270.133 136.932C270.547 137.25 270.755 137.67 270.755 138.193C270.755 138.591 270.637 138.899 270.401 139.118C270.165 139.334 269.863 139.48 269.493 139.557C269.735 139.591 269.969 139.676 270.197 139.812C270.427 139.949 270.617 140.136 270.768 140.375C270.918 140.611 270.993 140.901 270.993 141.244C270.993 141.58 270.908 141.879 270.738 142.143C270.567 142.408 270.323 142.616 270.005 142.77C269.687 142.923 269.306 143 268.863 143H265.777ZM266.732 142.08H268.863C269.209 142.08 269.481 141.997 269.677 141.832C269.873 141.668 269.971 141.443 269.971 141.159C269.971 140.821 269.873 140.555 269.677 140.362C269.481 140.166 269.209 140.068 268.863 140.068H266.732V142.08ZM266.732 139.199H268.454C268.724 139.199 268.955 139.162 269.148 139.088C269.341 139.011 269.489 138.903 269.591 138.764C269.697 138.622 269.749 138.455 269.749 138.261C269.749 137.986 269.634 137.77 269.404 137.614C269.174 137.455 268.857 137.375 268.454 137.375H266.732V139.199ZM275.86 143.136C275.229 143.136 274.685 142.997 274.228 142.719C273.773 142.438 273.423 142.045 273.175 141.543C272.931 141.037 272.809 140.449 272.809 139.778C272.809 139.108 272.931 138.517 273.175 138.006C273.423 137.491 273.766 137.091 274.207 136.804C274.65 136.514 275.167 136.369 275.758 136.369C276.099 136.369 276.435 136.426 276.768 136.54C277.1 136.653 277.403 136.838 277.675 137.094C277.948 137.347 278.165 137.682 278.327 138.099C278.489 138.517 278.57 139.031 278.57 139.642V140.068H273.525V139.199H277.548C277.548 138.83 277.474 138.5 277.326 138.21C277.181 137.92 276.974 137.692 276.704 137.524C276.437 137.357 276.121 137.273 275.758 137.273C275.357 137.273 275.011 137.372 274.718 137.571C274.428 137.767 274.205 138.023 274.049 138.338C273.893 138.653 273.815 138.991 273.815 139.352V139.932C273.815 140.426 273.9 140.845 274.07 141.189C274.244 141.53 274.484 141.79 274.79 141.969C275.097 142.145 275.454 142.233 275.86 142.233C276.124 142.233 276.363 142.196 276.576 142.122C276.792 142.045 276.978 141.932 277.134 141.781C277.29 141.628 277.411 141.437 277.496 141.21L278.468 141.483C278.366 141.812 278.194 142.102 277.952 142.352C277.711 142.599 277.413 142.793 277.058 142.932C276.702 143.068 276.303 143.136 275.86 143.136ZM280.001 144.875V142.062H280.547C280.68 141.923 280.795 141.773 280.892 141.611C280.989 141.449 281.072 141.257 281.143 141.036C281.217 140.811 281.28 140.538 281.331 140.217C281.382 139.893 281.427 139.503 281.467 139.045L281.689 136.455H285.848V142.062H286.854V144.875H285.848V143H281.007V144.875H280.001ZM281.689 142.062H284.842V137.392H282.626L282.456 139.045C282.385 139.73 282.297 140.328 282.192 140.839C282.087 141.351 281.919 141.759 281.689 142.062ZM291.533 143.136C290.902 143.136 290.358 142.997 289.901 142.719C289.446 142.438 289.095 142.045 288.848 141.543C288.604 141.037 288.482 140.449 288.482 139.778C288.482 139.108 288.604 138.517 288.848 138.006C289.095 137.491 289.439 137.091 289.879 136.804C290.323 136.514 290.84 136.369 291.43 136.369C291.771 136.369 292.108 136.426 292.44 136.54C292.773 136.653 293.075 136.838 293.348 137.094C293.621 137.347 293.838 137.682 294 138.099C294.162 138.517 294.243 139.031 294.243 139.642V140.068H289.198V139.199H293.22C293.22 138.83 293.146 138.5 292.999 138.21C292.854 137.92 292.646 137.692 292.376 137.524C292.109 137.357 291.794 137.273 291.43 137.273C291.03 137.273 290.683 137.372 290.391 137.571C290.101 137.767 289.878 138.023 289.722 138.338C289.565 138.653 289.487 138.991 289.487 139.352V139.932C289.487 140.426 289.573 140.845 289.743 141.189C289.916 141.53 290.156 141.79 290.463 141.969C290.77 142.145 291.126 142.233 291.533 142.233C291.797 142.233 292.036 142.196 292.249 142.122C292.465 142.045 292.651 141.932 292.807 141.781C292.963 141.628 293.084 141.437 293.169 141.21L294.141 141.483C294.038 141.812 293.867 142.102 293.625 142.352C293.384 142.599 293.085 142.793 292.73 142.932C292.375 143.068 291.976 143.136 291.533 143.136ZM290.152 135.364C289.973 135.364 289.814 135.295 289.675 135.159C289.538 135.02 289.47 134.861 289.47 134.682C289.47 134.486 289.538 134.324 289.675 134.196C289.814 134.065 289.973 134 290.152 134C290.348 134 290.51 134.065 290.638 134.196C290.769 134.324 290.834 134.486 290.834 134.682C290.834 134.861 290.769 135.02 290.638 135.159C290.51 135.295 290.348 135.364 290.152 135.364ZM292.607 135.364C292.428 135.364 292.269 135.295 292.129 135.159C291.993 135.02 291.925 134.861 291.925 134.682C291.925 134.486 291.993 134.324 292.129 134.196C292.269 134.065 292.428 134 292.607 134C292.803 134 292.965 134.065 293.092 134.196C293.223 134.324 293.288 134.486 293.288 134.682C293.288 134.861 293.223 135.02 293.092 135.159C292.965 135.295 292.803 135.364 292.607 135.364ZM295.763 137.392V136.455H301.082V137.392H298.934V143H297.928V137.392H295.763ZM55.9205 158V151.455H61.0682V158H60.0625V152.392H56.9261V158H55.9205ZM66.1639 158.136C65.573 158.136 65.0545 157.996 64.6085 157.714C64.1653 157.433 63.8187 157.04 63.5687 156.534C63.3216 156.028 63.198 155.437 63.198 154.761C63.198 154.08 63.3216 153.484 63.5687 152.976C63.8187 152.467 64.1653 152.072 64.6085 151.791C65.0545 151.51 65.573 151.369 66.1639 151.369C66.7548 151.369 67.2719 151.51 67.7151 151.791C68.1611 152.072 68.5077 152.467 68.7548 152.976C69.0048 153.484 69.1298 154.08 69.1298 154.761C69.1298 155.437 69.0048 156.028 68.7548 156.534C68.5077 157.04 68.1611 157.433 67.7151 157.714C67.2719 157.996 66.7548 158.136 66.1639 158.136ZM66.1639 157.233C66.6128 157.233 66.9821 157.118 67.2719 156.888C67.5616 156.658 67.7761 156.355 67.9153 155.98C68.0545 155.605 68.1241 155.199 68.1241 154.761C68.1241 154.324 68.0545 153.916 67.9153 153.538C67.7761 153.161 67.5616 152.855 67.2719 152.622C66.9821 152.389 66.6128 152.273 66.1639 152.273C65.7151 152.273 65.3457 152.389 65.056 152.622C64.7662 152.855 64.5517 153.161 64.4125 153.538C64.2733 153.916 64.2037 154.324 64.2037 154.761C64.2037 155.199 64.2733 155.605 64.4125 155.98C64.5517 156.355 64.7662 156.658 65.056 156.888C65.3457 157.118 65.7151 157.233 66.1639 157.233ZM70.6854 158V157.062H70.9241C71.1201 157.062 71.2835 157.024 71.4141 156.947C71.5448 156.868 71.6499 156.73 71.7295 156.534C71.8119 156.335 71.8744 156.06 71.917 155.707C71.9624 155.352 71.9951 154.901 72.015 154.352L72.1343 151.455H76.4979V158H75.4923V152.392H73.0888L72.9866 154.727C72.9638 155.264 72.9156 155.737 72.8417 156.146C72.7707 156.553 72.6613 156.893 72.5136 157.169C72.3687 157.445 72.1755 157.652 71.934 157.791C71.6925 157.93 71.39 158 71.0263 158H70.6854ZM79.8124 153.824H81.6874C82.4545 153.824 83.0411 154.018 83.4474 154.408C83.8536 154.797 84.0567 155.29 84.0567 155.886C84.0567 156.278 83.9658 156.635 83.784 156.956C83.6022 157.274 83.3352 157.528 82.9829 157.719C82.6306 157.906 82.1988 158 81.6874 158H78.9431V151.455H79.9488V157.062H81.6874C82.0852 157.062 82.4119 156.957 82.6675 156.747C82.9232 156.537 83.0511 156.267 83.0511 155.938C83.0511 155.591 82.9232 155.308 82.6675 155.089C82.4119 154.871 82.0852 154.761 81.6874 154.761H79.8124V153.824ZM85.7786 156.33H86.8524C86.8751 156.625 87.0087 156.849 87.253 157.003C87.5001 157.156 87.8212 157.233 88.2161 157.233C88.6195 157.233 88.9646 157.151 89.2516 156.986C89.5385 156.818 89.682 156.548 89.682 156.176C89.682 155.957 89.628 155.767 89.52 155.605C89.4121 155.44 89.2601 155.312 89.0641 155.222C88.868 155.131 88.6365 155.085 88.3695 155.085H87.2445V154.182H88.3695C88.77 154.182 89.0655 154.091 89.2558 153.909C89.449 153.727 89.5456 153.5 89.5456 153.227C89.5456 152.935 89.4419 152.7 89.2345 152.524C89.0271 152.345 88.7331 152.256 88.3524 152.256C87.9689 152.256 87.6493 152.342 87.3936 152.516C87.1379 152.686 87.003 152.906 86.9888 153.176H85.932C85.9433 152.824 86.0513 152.513 86.2558 152.243C86.4604 151.97 86.7388 151.757 87.0911 151.604C87.4433 151.447 87.8467 151.369 88.3013 151.369C88.7615 151.369 89.1607 151.45 89.4987 151.612C89.8396 151.771 90.1024 151.989 90.2871 152.264C90.4746 152.537 90.5683 152.847 90.5683 153.193C90.5683 153.562 90.4646 153.861 90.2572 154.088C90.0499 154.315 89.7899 154.477 89.4774 154.574V154.642C89.7246 154.659 89.9391 154.739 90.1209 154.881C90.3055 155.02 90.449 155.203 90.5513 155.43C90.6536 155.655 90.7047 155.903 90.7047 156.176C90.7047 156.574 90.5982 156.92 90.3851 157.216C90.172 157.509 89.8794 157.736 89.5072 157.898C89.1351 158.057 88.7104 158.136 88.2331 158.136C87.77 158.136 87.3553 158.061 86.9888 157.911C86.6223 157.757 86.3311 157.545 86.1152 157.276C85.9021 157.003 85.7899 156.688 85.7786 156.33ZM95.3764 158.136C94.7855 158.136 94.267 157.996 93.821 157.714C93.3778 157.433 93.0312 157.04 92.7812 156.534C92.5341 156.028 92.4105 155.437 92.4105 154.761C92.4105 154.08 92.5341 153.484 92.7812 152.976C93.0312 152.467 93.3778 152.072 93.821 151.791C94.267 151.51 94.7855 151.369 95.3764 151.369C95.9673 151.369 96.4844 151.51 96.9276 151.791C97.3736 152.072 97.7202 152.467 97.9673 152.976C98.2173 153.484 98.3423 154.08 98.3423 154.761C98.3423 155.437 98.2173 156.028 97.9673 156.534C97.7202 157.04 97.3736 157.433 96.9276 157.714C96.4844 157.996 95.9673 158.136 95.3764 158.136ZM95.3764 157.233C95.8253 157.233 96.1946 157.118 96.4844 156.888C96.7741 156.658 96.9886 156.355 97.1278 155.98C97.267 155.605 97.3366 155.199 97.3366 154.761C97.3366 154.324 97.267 153.916 97.1278 153.538C96.9886 153.161 96.7741 152.855 96.4844 152.622C96.1946 152.389 95.8253 152.273 95.3764 152.273C94.9276 152.273 94.5582 152.389 94.2685 152.622C93.9787 152.855 93.7642 153.161 93.625 153.538C93.4858 153.916 93.4162 154.324 93.4162 154.761C93.4162 155.199 93.4858 155.605 93.625 155.98C93.7642 156.355 93.9787 156.658 94.2685 156.888C94.5582 157.118 94.9276 157.233 95.3764 157.233ZM100.477 158V151.455H103.154C103.858 151.455 104.418 151.614 104.833 151.932C105.247 152.25 105.455 152.67 105.455 153.193C105.455 153.591 105.337 153.899 105.101 154.118C104.865 154.334 104.563 154.48 104.193 154.557C104.435 154.591 104.669 154.676 104.897 154.812C105.127 154.949 105.317 155.136 105.468 155.375C105.618 155.611 105.693 155.901 105.693 156.244C105.693 156.58 105.608 156.879 105.438 157.143C105.267 157.408 105.023 157.616 104.705 157.77C104.387 157.923 104.006 158 103.563 158H100.477ZM101.432 157.08H103.563C103.909 157.08 104.181 156.997 104.377 156.832C104.573 156.668 104.671 156.443 104.671 156.159C104.671 155.821 104.573 155.555 104.377 155.362C104.181 155.166 103.909 155.068 103.563 155.068H101.432V157.08ZM101.432 154.199H103.154C103.424 154.199 103.655 154.162 103.848 154.088C104.041 154.011 104.189 153.903 104.291 153.764C104.397 153.622 104.449 153.455 104.449 153.261C104.449 152.986 104.334 152.77 104.104 152.614C103.874 152.455 103.557 152.375 103.154 152.375H101.432V154.199ZM109.742 158.153C109.327 158.153 108.951 158.075 108.613 157.919C108.275 157.76 108.006 157.531 107.807 157.233C107.608 156.932 107.509 156.568 107.509 156.142C107.509 155.767 107.583 155.463 107.731 155.23C107.878 154.994 108.076 154.81 108.323 154.676C108.57 154.543 108.843 154.443 109.141 154.378C109.442 154.31 109.745 154.256 110.049 154.216C110.446 154.165 110.769 154.126 111.016 154.101C111.266 154.072 111.448 154.026 111.562 153.96C111.678 153.895 111.736 153.781 111.736 153.619V153.585C111.736 153.165 111.621 152.838 111.391 152.605C111.164 152.372 110.819 152.256 110.356 152.256C109.875 152.256 109.499 152.361 109.226 152.571C108.954 152.781 108.762 153.006 108.651 153.244L107.696 152.903C107.867 152.506 108.094 152.196 108.378 151.974C108.665 151.75 108.978 151.594 109.316 151.506C109.657 151.415 109.992 151.369 110.321 151.369C110.532 151.369 110.773 151.395 111.046 151.446C111.321 151.494 111.587 151.595 111.843 151.749C112.101 151.902 112.316 152.134 112.486 152.443C112.657 152.753 112.742 153.168 112.742 153.688V158H111.736V157.114H111.685C111.617 157.256 111.503 157.408 111.344 157.57C111.185 157.732 110.973 157.869 110.709 157.983C110.445 158.097 110.123 158.153 109.742 158.153ZM109.895 157.25C110.293 157.25 110.628 157.172 110.901 157.016C111.177 156.859 111.384 156.658 111.523 156.411C111.665 156.163 111.736 155.903 111.736 155.631V154.71C111.694 154.761 111.6 154.808 111.455 154.851C111.313 154.891 111.148 154.926 110.961 154.957C110.776 154.986 110.596 155.011 110.419 155.034C110.246 155.054 110.106 155.071 109.998 155.085C109.736 155.119 109.492 155.175 109.265 155.251C109.04 155.325 108.858 155.437 108.719 155.588C108.583 155.736 108.515 155.937 108.515 156.193C108.515 156.543 108.644 156.807 108.902 156.986C109.164 157.162 109.495 157.25 109.895 157.25ZM114.287 152.392V151.455H119.605V152.392H117.457V158H116.452V152.392H114.287ZM124.076 158.136C123.446 158.136 122.902 157.997 122.444 157.719C121.99 157.438 121.639 157.045 121.392 156.543C121.148 156.037 121.025 155.449 121.025 154.778C121.025 154.108 121.148 153.517 121.392 153.006C121.639 152.491 121.983 152.091 122.423 151.804C122.866 151.514 123.383 151.369 123.974 151.369C124.315 151.369 124.652 151.426 124.984 151.54C125.317 151.653 125.619 151.838 125.892 152.094C126.165 152.347 126.382 152.682 126.544 153.099C126.706 153.517 126.787 154.031 126.787 154.642V155.068H121.741V154.199H125.764C125.764 153.83 125.69 153.5 125.542 153.21C125.398 152.92 125.19 152.692 124.92 152.524C124.653 152.357 124.338 152.273 123.974 152.273C123.574 152.273 123.227 152.372 122.934 152.571C122.645 152.767 122.422 153.023 122.265 153.338C122.109 153.653 122.031 153.991 122.031 154.352V154.932C122.031 155.426 122.116 155.845 122.287 156.189C122.46 156.53 122.7 156.79 123.007 156.969C123.314 157.145 123.67 157.233 124.076 157.233C124.341 157.233 124.579 157.196 124.792 157.122C125.008 157.045 125.194 156.932 125.351 156.781C125.507 156.628 125.628 156.437 125.713 156.21L126.684 156.483C126.582 156.812 126.41 157.102 126.169 157.352C125.927 157.599 125.629 157.793 125.274 157.932C124.919 158.068 124.52 158.136 124.076 158.136ZM128.337 158V157.062H128.576C128.772 157.062 128.935 157.024 129.066 156.947C129.196 156.868 129.301 156.73 129.381 156.534C129.463 156.335 129.526 156.06 129.569 155.707C129.614 155.352 129.647 154.901 129.667 154.352L129.786 151.455H134.15V158H133.144V152.392H130.74L130.638 154.727C130.615 155.264 130.567 155.737 130.493 156.146C130.422 156.553 130.313 156.893 130.165 157.169C130.02 157.445 129.827 157.652 129.586 157.791C129.344 157.93 129.042 158 128.678 158H128.337ZM137.464 153.824H139.339C140.106 153.824 140.693 154.018 141.099 154.408C141.505 154.797 141.708 155.29 141.708 155.886C141.708 156.278 141.617 156.635 141.436 156.956C141.254 157.274 140.987 157.528 140.634 157.719C140.282 157.906 139.85 158 139.339 158H136.595V151.455H137.6V157.062H139.339C139.737 157.062 140.063 156.957 140.319 156.747C140.575 156.537 140.703 156.267 140.703 155.938C140.703 155.591 140.575 155.308 140.319 155.089C140.063 154.871 139.737 154.761 139.339 154.761H137.464V153.824Z" fill="black"/>
<defs>
<filter id="filter0_d_3667_219" x="0" y="0" width="463.508" height="229" filterUnits="userSpaceOnUse" color-interpolation-filters="sRGB">
<feFlood flood-opacity="0" result="BackgroundImageFix"/>
<feColorMatrix in="SourceAlpha" type="matrix" values="0 0 0 0 0 0 0 0 0 0 0 0 0 0 0 0 0 0 127 0" result="hardAlpha"/>
<feOffset dy="10"/>
<feGaussianBlur stdDeviation="20"/>
<feColorMatrix type="matrix" values="0 0 0 0 0.494444 0 0 0 0 0.608547 0 0 0 0 0.741667 0 0 0 0.35 0"/>
<feBlend mode="normal" in2="BackgroundImageFix" result="effect1_dropShadow_3667_219"/>
<feBlend mode="normal" in="SourceGraphic" in2="effect1_dropShadow_3667_219" result="shape"/>
</filter>
</defs>
</svg>
