<svg width="464" height="229" viewBox="0 0 464 229" fill="none" xmlns="http://www.w3.org/2000/svg">
<g filter="url(#filter0_d_3667_220)">
<rect x="40.4923" y="30" width="383.508" height="149" rx="12" fill="white"/>
</g>
<rect x="55.4732" y="45" width="41.9462" height="42" rx="7" fill="#F6F6F6"/>
<path fill-rule="evenodd" clip-rule="evenodd" d="M76.0001 52.8003L89.0626 59.2547V73.9325L76.0001 80.387L62.9376 73.9325V59.2547L76.0001 52.8003ZM65.3126 61.9038V72.4569L74.8126 77.151V66.5979L65.3126 61.9038ZM77.1876 66.5979V77.151L86.6876 72.4569V61.9038L83.1251 63.6641V68.3749L80.7501 69.5624V64.8377L77.1876 66.5979ZM85.1945 59.9925L82.1002 61.5214C82.0324 61.4654 81.9572 61.4162 81.8752 61.3752L72.9941 56.9347L76.0001 55.4494L85.1945 59.9925ZM70.3231 58.2545L79.463 62.8245L76.0001 64.5356L66.8057 59.9925L70.3231 58.2545Z" fill="#34E0E0"/>
<path d="M63.0584 104.273V113H62.0016V105.21H57.6039V113H56.5471V104.273H63.0584ZM65.6538 115.455V106.455H66.6254V107.494H66.7447C66.8186 107.381 66.9209 107.236 67.0515 107.06C67.1851 106.881 67.3754 106.722 67.6226 106.582C67.8726 106.44 68.2106 106.369 68.6368 106.369C69.1879 106.369 69.6737 106.507 70.0942 106.783C70.5146 107.058 70.8427 107.449 71.0785 107.955C71.3143 108.46 71.4322 109.057 71.4322 109.744C71.4322 110.438 71.3143 111.038 71.0785 111.547C70.8427 112.053 70.516 112.445 70.0984 112.723C69.6808 112.999 69.1993 113.136 68.6538 113.136C68.2334 113.136 67.8967 113.067 67.6439 112.928C67.391 112.786 67.1964 112.625 67.0601 112.446C66.9237 112.264 66.8186 112.114 66.7447 111.994H66.6595V115.455H65.6538ZM66.6425 109.727C66.6425 110.222 66.7149 110.658 66.8598 111.036C67.0047 111.411 67.2163 111.705 67.4947 111.918C67.7731 112.128 68.114 112.233 68.5175 112.233C68.9379 112.233 69.2888 112.122 69.57 111.901C69.8541 111.676 70.0672 111.375 70.2092 110.997C70.3541 110.616 70.4265 110.193 70.4265 109.727C70.4265 109.267 70.3555 108.852 70.2135 108.483C70.0743 108.111 69.8626 107.817 69.5785 107.601C69.2973 107.382 68.9436 107.273 68.5175 107.273C68.1084 107.273 67.7646 107.376 67.4862 107.584C67.2078 107.788 66.9976 108.075 66.8555 108.445C66.7135 108.811 66.6425 109.239 66.6425 109.727ZM76.2254 113.136C75.6345 113.136 75.116 112.996 74.67 112.714C74.2268 112.433 73.8802 112.04 73.6302 111.534C73.3831 111.028 73.2595 110.437 73.2595 109.761C73.2595 109.08 73.3831 108.484 73.6302 107.976C73.8802 107.467 74.2268 107.072 74.67 106.791C75.116 106.51 75.6345 106.369 76.2254 106.369C76.8163 106.369 77.3334 106.51 77.7765 106.791C78.2226 107.072 78.5692 107.467 78.8163 107.976C79.0663 108.484 79.1913 109.08 79.1913 109.761C79.1913 110.437 79.0663 111.028 78.8163 111.534C78.5692 112.04 78.2226 112.433 77.7765 112.714C77.3334 112.996 76.8163 113.136 76.2254 113.136ZM76.2254 112.233C76.6743 112.233 77.0436 112.118 77.3334 111.888C77.6231 111.658 77.8376 111.355 77.9768 110.98C78.116 110.605 78.1856 110.199 78.1856 109.761C78.1856 109.324 78.116 108.916 77.9768 108.538C77.8376 108.161 77.6231 107.855 77.3334 107.622C77.0436 107.389 76.6743 107.273 76.2254 107.273C75.7765 107.273 75.4072 107.389 75.1175 107.622C74.8277 107.855 74.6132 108.161 74.474 108.538C74.3348 108.916 74.2652 109.324 74.2652 109.761C74.2652 110.199 74.3348 110.605 74.474 110.98C74.6132 111.355 74.8277 111.658 75.1175 111.888C75.4072 112.118 75.7765 112.233 76.2254 112.233ZM83.9856 113.136C83.3719 113.136 82.8435 112.991 82.4003 112.702C81.9572 112.412 81.6162 112.013 81.3776 111.504C81.139 110.996 81.0197 110.415 81.0197 109.761C81.0197 109.097 81.1418 108.51 81.3861 108.001C81.6333 107.49 81.977 107.091 82.4174 106.804C82.8606 106.514 83.3776 106.369 83.9685 106.369C84.4287 106.369 84.8435 106.455 85.2128 106.625C85.5822 106.795 85.8847 107.034 86.1205 107.341C86.3563 107.648 86.5026 108.006 86.5594 108.415H85.5537C85.477 108.116 85.3066 107.852 85.0424 107.622C84.781 107.389 84.4287 107.273 83.9856 107.273C83.5935 107.273 83.2498 107.375 82.9543 107.58C82.6617 107.781 82.433 108.067 82.2682 108.436C82.1063 108.803 82.0253 109.233 82.0253 109.727C82.0253 110.233 82.1049 110.673 82.264 111.048C82.4259 111.423 82.6532 111.714 82.9458 111.922C83.2412 112.129 83.5878 112.233 83.9856 112.233C84.2469 112.233 84.4841 112.188 84.6972 112.097C84.9103 112.006 85.0907 111.875 85.2384 111.705C85.3861 111.534 85.4912 111.33 85.5537 111.091H86.5594C86.5026 111.477 86.362 111.825 86.1376 112.135C85.916 112.442 85.6219 112.686 85.2554 112.868C84.8918 113.047 84.4685 113.136 83.9856 113.136ZM92.2091 111.636L94.4932 106.455H95.4478L92.6182 113H91.8001L89.0216 106.455H89.9591L92.2091 111.636ZM89.6353 106.455V113H88.6296V106.455H89.6353ZM94.783 113V106.455H95.7887V113H94.783ZM100.889 113.136C100.298 113.136 99.7793 112.996 99.3333 112.714C98.8901 112.433 98.5435 112.04 98.2935 111.534C98.0464 111.028 97.9228 110.437 97.9228 109.761C97.9228 109.08 98.0464 108.484 98.2935 107.976C98.5435 107.467 98.8901 107.072 99.3333 106.791C99.7793 106.51 100.298 106.369 100.889 106.369C101.48 106.369 101.997 106.51 102.44 106.791C102.886 107.072 103.232 107.467 103.48 107.976C103.73 108.484 103.855 109.08 103.855 109.761C103.855 110.437 103.73 111.028 103.48 111.534C103.232 112.04 102.886 112.433 102.44 112.714C101.997 112.996 101.48 113.136 100.889 113.136ZM100.889 112.233C101.338 112.233 101.707 112.118 101.997 111.888C102.286 111.658 102.501 111.355 102.64 110.98C102.779 110.605 102.849 110.199 102.849 109.761C102.849 109.324 102.779 108.916 102.64 108.538C102.501 108.161 102.286 107.855 101.997 107.622C101.707 107.389 101.338 107.273 100.889 107.273C100.44 107.273 100.071 107.389 99.7807 107.622C99.491 107.855 99.2765 108.161 99.1373 108.538C98.9981 108.916 98.9285 109.324 98.9285 109.761C98.9285 110.199 98.9981 110.605 99.1373 110.98C99.2765 111.355 99.491 111.658 99.7807 111.888C100.071 112.118 100.44 112.233 100.889 112.233ZM105.134 107.392V106.455H110.452V107.392H108.305V113H107.299V107.392H105.134ZM112.519 115.455V106.455H113.491V107.494H113.61C113.684 107.381 113.786 107.236 113.917 107.06C114.051 106.881 114.241 106.722 114.488 106.582C114.738 106.44 115.076 106.369 115.502 106.369C116.054 106.369 116.539 106.507 116.96 106.783C117.38 107.058 117.708 107.449 117.944 107.955C118.18 108.46 118.298 109.057 118.298 109.744C118.298 110.438 118.18 111.038 117.944 111.547C117.708 112.053 117.382 112.445 116.964 112.723C116.546 112.999 116.065 113.136 115.519 113.136C115.099 113.136 114.762 113.067 114.509 112.928C114.257 112.786 114.062 112.625 113.926 112.446C113.789 112.264 113.684 112.114 113.61 111.994H113.525V115.455H112.519ZM113.508 109.727C113.508 110.222 113.581 110.658 113.725 111.036C113.87 111.411 114.082 111.705 114.36 111.918C114.639 112.128 114.98 112.233 115.383 112.233C115.804 112.233 116.154 112.122 116.436 111.901C116.72 111.676 116.933 111.375 117.075 110.997C117.22 110.616 117.292 110.193 117.292 109.727C117.292 109.267 117.221 108.852 117.079 108.483C116.94 108.111 116.728 107.817 116.444 107.601C116.163 107.382 115.809 107.273 115.383 107.273C114.974 107.273 114.63 107.376 114.352 107.584C114.073 107.788 113.863 108.075 113.721 108.445C113.579 108.811 113.508 109.239 113.508 109.727ZM124.407 113V106.455H127.083C127.788 106.455 128.347 106.614 128.762 106.932C129.177 107.25 129.384 107.67 129.384 108.193C129.384 108.591 129.266 108.899 129.031 109.118C128.795 109.334 128.492 109.48 128.123 109.557C128.364 109.591 128.599 109.676 128.826 109.812C129.056 109.949 129.246 110.136 129.397 110.375C129.548 110.611 129.623 110.901 129.623 111.244C129.623 111.58 129.538 111.879 129.367 112.143C129.197 112.408 128.952 112.616 128.634 112.77C128.316 112.923 127.935 113 127.492 113H124.407ZM125.361 112.08H127.492C127.839 112.08 128.11 111.997 128.306 111.832C128.502 111.668 128.6 111.443 128.6 111.159C128.6 110.821 128.502 110.555 128.306 110.362C128.11 110.166 127.839 110.068 127.492 110.068H125.361V112.08ZM125.361 109.199H127.083C127.353 109.199 127.584 109.162 127.778 109.088C127.971 109.011 128.119 108.903 128.221 108.764C128.326 108.622 128.379 108.455 128.379 108.261C128.379 107.986 128.263 107.77 128.033 107.614C127.803 107.455 127.486 107.375 127.083 107.375H125.361V109.199ZM134.404 113.136C133.791 113.136 133.262 112.991 132.819 112.702C132.376 112.412 132.035 112.013 131.796 111.504C131.558 110.996 131.438 110.415 131.438 109.761C131.438 109.097 131.561 108.51 131.805 108.001C132.052 107.49 132.396 107.091 132.836 106.804C133.279 106.514 133.796 106.369 134.387 106.369C134.847 106.369 135.262 106.455 135.632 106.625C136.001 106.795 136.303 107.034 136.539 107.341C136.775 107.648 136.921 108.006 136.978 108.415H135.972C135.896 108.116 135.725 107.852 135.461 107.622C135.2 107.389 134.847 107.273 134.404 107.273C134.012 107.273 133.669 107.375 133.373 107.58C133.08 107.781 132.852 108.067 132.687 108.436C132.525 108.803 132.444 109.233 132.444 109.727C132.444 110.233 132.524 110.673 132.683 111.048C132.845 111.423 133.072 111.714 133.365 111.922C133.66 112.129 134.007 112.233 134.404 112.233C134.666 112.233 134.903 112.188 135.116 112.097C135.329 112.006 135.509 111.875 135.657 111.705C135.805 111.534 135.91 111.33 135.972 111.091H136.978C136.921 111.477 136.781 111.825 136.556 112.135C136.335 112.442 136.041 112.686 135.674 112.868C135.311 113.047 134.887 113.136 134.404 113.136ZM141.793 113.136C141.162 113.136 140.618 112.997 140.161 112.719C139.706 112.438 139.355 112.045 139.108 111.543C138.864 111.037 138.742 110.449 138.742 109.778C138.742 109.108 138.864 108.517 139.108 108.006C139.355 107.491 139.699 107.091 140.139 106.804C140.582 106.514 141.099 106.369 141.69 106.369C142.031 106.369 142.368 106.426 142.7 106.54C143.033 106.653 143.335 106.838 143.608 107.094C143.881 107.347 144.098 107.682 144.26 108.099C144.422 108.517 144.503 109.031 144.503 109.642V110.068H139.457V109.199H143.48C143.48 108.83 143.406 108.5 143.259 108.21C143.114 107.92 142.906 107.692 142.636 107.524C142.369 107.357 142.054 107.273 141.69 107.273C141.29 107.273 140.943 107.372 140.651 107.571C140.361 107.767 140.138 108.023 139.982 108.338C139.825 108.653 139.747 108.991 139.747 109.352V109.932C139.747 110.426 139.832 110.845 140.003 111.189C140.176 111.53 140.416 111.79 140.723 111.969C141.03 112.145 141.386 112.233 141.793 112.233C142.057 112.233 142.296 112.196 142.509 112.122C142.724 112.045 142.911 111.932 143.067 111.781C143.223 111.628 143.344 111.437 143.429 111.21L144.401 111.483C144.298 111.812 144.126 112.102 143.885 112.352C143.644 112.599 143.345 112.793 142.99 112.932C142.635 113.068 142.236 113.136 141.793 113.136ZM147.207 106.455L148.775 109.131L150.343 106.455H151.502L149.389 109.727L151.502 113H150.343L148.775 110.46L147.207 113H146.048L148.127 109.727L146.048 106.455H147.207ZM160.172 113.136C159.558 113.136 159.029 112.991 158.586 112.702C158.143 112.412 157.802 112.013 157.564 111.504C157.325 110.996 157.206 110.415 157.206 109.761C157.206 109.097 157.328 108.51 157.572 108.001C157.819 107.49 158.163 107.091 158.603 106.804C159.047 106.514 159.564 106.369 160.154 106.369C160.615 106.369 161.029 106.455 161.399 106.625C161.768 106.795 162.071 107.034 162.306 107.341C162.542 107.648 162.689 108.006 162.745 108.415H161.74C161.663 108.116 161.493 107.852 161.228 107.622C160.967 107.389 160.615 107.273 160.172 107.273C159.779 107.273 159.436 107.375 159.14 107.58C158.848 107.781 158.619 108.067 158.454 108.436C158.292 108.803 158.211 109.233 158.211 109.727C158.211 110.233 158.291 110.673 158.45 111.048C158.612 111.423 158.839 111.714 159.132 111.922C159.427 112.129 159.774 112.233 160.172 112.233C160.433 112.233 160.67 112.188 160.883 112.097C161.096 112.006 161.277 111.875 161.424 111.705C161.572 111.534 161.677 111.33 161.74 111.091H162.745C162.689 111.477 162.548 111.825 162.323 112.135C162.102 112.442 161.808 112.686 161.441 112.868C161.078 113.047 160.654 113.136 160.172 113.136ZM165.463 115.455C165.293 115.455 165.141 115.44 165.007 115.412C164.874 115.386 164.781 115.361 164.73 115.335L164.986 114.449C165.23 114.511 165.446 114.534 165.634 114.517C165.821 114.5 165.987 114.416 166.132 114.266C166.28 114.118 166.415 113.878 166.537 113.545L166.725 113.034L164.304 106.455H165.395L167.202 111.67H167.27L169.077 106.455H170.168L167.389 113.955C167.264 114.293 167.11 114.572 166.925 114.794C166.74 115.018 166.526 115.185 166.281 115.293C166.04 115.401 165.767 115.455 165.463 115.455ZM181.027 112.062L180.908 114.875H179.868V113H179.016V112.062H181.027ZM172.095 106.455H173.101V112.062H175.572V106.455H176.578V112.062H179.05V106.455H180.055V113H172.095V106.455ZM185.764 113.136C185.133 113.136 184.589 112.997 184.132 112.719C183.677 112.438 183.326 112.045 183.079 111.543C182.835 111.037 182.713 110.449 182.713 109.778C182.713 109.108 182.835 108.517 183.079 108.006C183.326 107.491 183.67 107.091 184.11 106.804C184.554 106.514 185.071 106.369 185.661 106.369C186.002 106.369 186.339 106.426 186.671 106.54C187.004 106.653 187.306 106.838 187.579 107.094C187.852 107.347 188.069 107.682 188.231 108.099C188.393 108.517 188.474 109.031 188.474 109.642V110.068H183.429V109.199H187.451C187.451 108.83 187.377 108.5 187.23 108.21C187.085 107.92 186.877 107.692 186.608 107.524C186.34 107.357 186.025 107.273 185.661 107.273C185.261 107.273 184.914 107.372 184.622 107.571C184.332 107.767 184.109 108.023 183.953 108.338C183.796 108.653 183.718 108.991 183.718 109.352V109.932C183.718 110.426 183.804 110.845 183.974 111.189C184.147 111.53 184.387 111.79 184.694 111.969C185.001 112.145 185.358 112.233 185.764 112.233C186.028 112.233 186.267 112.196 186.48 112.122C186.696 112.045 186.882 111.932 187.038 111.781C187.194 111.628 187.315 111.437 187.4 111.21L188.372 111.483C188.269 111.812 188.098 112.102 187.856 112.352C187.615 112.599 187.316 112.793 186.961 112.932C186.606 113.068 186.207 113.136 185.764 113.136ZM193.263 113.136C192.649 113.136 192.121 112.991 191.678 112.702C191.235 112.412 190.894 112.013 190.655 111.504C190.416 110.996 190.297 110.415 190.297 109.761C190.297 109.097 190.419 108.51 190.663 108.001C190.911 107.49 191.254 107.091 191.695 106.804C192.138 106.514 192.655 106.369 193.246 106.369C193.706 106.369 194.121 106.455 194.49 106.625C194.86 106.795 195.162 107.034 195.398 107.341C195.634 107.648 195.78 108.006 195.837 108.415H194.831C194.754 108.116 194.584 107.852 194.32 107.622C194.058 107.389 193.706 107.273 193.263 107.273C192.871 107.273 192.527 107.375 192.232 107.58C191.939 107.781 191.71 108.067 191.546 108.436C191.384 108.803 191.303 109.233 191.303 109.727C191.303 110.233 191.382 110.673 191.541 111.048C191.703 111.423 191.931 111.714 192.223 111.922C192.519 112.129 192.865 112.233 193.263 112.233C193.524 112.233 193.761 112.188 193.975 112.097C194.188 112.006 194.368 111.875 194.516 111.705C194.663 111.534 194.769 111.33 194.831 111.091H195.837C195.78 111.477 195.639 111.825 195.415 112.135C195.193 112.442 194.899 112.686 194.533 112.868C194.169 113.047 193.746 113.136 193.263 113.136ZM197.391 107.392V106.455H202.709V107.392H200.562V113H199.556V107.392H197.391ZM204.776 113V106.455H207.453C208.157 106.455 208.717 106.614 209.132 106.932C209.546 107.25 209.754 107.67 209.754 108.193C209.754 108.591 209.636 108.899 209.4 109.118C209.164 109.334 208.862 109.48 208.492 109.557C208.734 109.591 208.968 109.676 209.196 109.812C209.426 109.949 209.616 110.136 209.767 110.375C209.917 110.611 209.992 110.901 209.992 111.244C209.992 111.58 209.907 111.879 209.737 112.143C209.566 112.408 209.322 112.616 209.004 112.77C208.686 112.923 208.305 113 207.862 113H204.776ZM205.731 112.08H207.862C208.208 112.08 208.48 111.997 208.676 111.832C208.872 111.668 208.97 111.443 208.97 111.159C208.97 110.821 208.872 110.555 208.676 110.362C208.48 110.166 208.208 110.068 207.862 110.068H205.731V112.08ZM205.731 109.199H207.453C207.722 109.199 207.954 109.162 208.147 109.088C208.34 109.011 208.488 108.903 208.59 108.764C208.696 108.622 208.748 108.455 208.748 108.261C208.748 107.986 208.633 107.77 208.403 107.614C208.173 107.455 207.856 107.375 207.453 107.375H205.731V109.199ZM212.762 115.455C212.592 115.455 212.44 115.44 212.307 115.412C212.173 115.386 212.081 115.361 212.03 115.335L212.285 114.449C212.53 114.511 212.745 114.534 212.933 114.517C213.12 114.5 213.287 114.416 213.432 114.266C213.579 114.118 213.714 113.878 213.836 113.545L214.024 113.034L211.603 106.455H212.694L214.501 111.67H214.569L216.376 106.455H217.467L214.689 113.955C214.564 114.293 214.409 114.572 214.224 114.794C214.039 115.018 213.825 115.185 213.581 115.293C213.339 115.401 213.066 115.455 212.762 115.455ZM222.531 109.318V110.256H219.071V109.318H222.531ZM219.923 106.455V113H218.917V106.455H219.923ZM224.542 113.136C223.951 113.136 223.433 112.996 222.987 112.714C222.544 112.433 222.197 112.04 221.947 111.534C221.7 111.028 221.576 110.437 221.576 109.761C221.576 109.08 221.7 108.484 221.947 107.976C222.197 107.467 222.544 107.072 222.987 106.791C223.433 106.51 223.951 106.369 224.542 106.369C225.133 106.369 225.65 106.51 226.093 106.791C226.539 107.072 226.886 107.467 227.133 107.976C227.383 108.484 227.508 109.08 227.508 109.761C227.508 110.437 227.383 111.028 227.133 111.534C226.886 112.04 226.539 112.433 226.093 112.714C225.65 112.996 225.133 113.136 224.542 113.136ZM224.542 112.233C224.991 112.233 225.36 112.118 225.65 111.888C225.94 111.658 226.154 111.355 226.294 110.98C226.433 110.605 226.502 110.199 226.502 109.761C226.502 109.324 226.433 108.916 226.294 108.538C226.154 108.161 225.94 107.855 225.65 107.622C225.36 107.389 224.991 107.273 224.542 107.273C224.093 107.273 223.724 107.389 223.434 107.622C223.144 107.855 222.93 108.161 222.791 108.538C222.652 108.916 222.582 109.324 222.582 109.761C222.582 110.199 222.652 110.605 222.791 110.98C222.93 111.355 223.144 111.658 223.434 111.888C223.724 112.118 224.093 112.233 224.542 112.233ZM238.676 112.062L238.557 114.875H237.517V113H236.665V112.062H238.676ZM229.744 106.455H230.75V112.062H233.222V106.455H234.227V112.062H236.699V106.455H237.705V113H229.744V106.455ZM241.745 111.517L244.898 106.455H246.057V113H245.051V107.938L241.915 113H240.739V106.455H241.745V111.517ZM249.249 106.455L250.817 109.131L252.385 106.455H253.545L251.431 109.727L253.545 113H252.385L250.817 110.46L249.249 113H248.09L250.17 109.727L248.09 106.455H249.249ZM259.146 111.33H260.219C260.242 111.625 260.376 111.849 260.62 112.003C260.867 112.156 261.188 112.233 261.583 112.233C261.986 112.233 262.332 112.151 262.619 111.986C262.905 111.818 263.049 111.548 263.049 111.176C263.049 110.957 262.995 110.767 262.887 110.605C262.779 110.44 262.627 110.312 262.431 110.222C262.235 110.131 262.003 110.085 261.736 110.085H260.611V109.182H261.736C262.137 109.182 262.432 109.091 262.623 108.909C262.816 108.727 262.913 108.5 262.913 108.227C262.913 107.935 262.809 107.7 262.601 107.524C262.394 107.345 262.1 107.256 261.719 107.256C261.336 107.256 261.016 107.342 260.761 107.516C260.505 107.686 260.37 107.906 260.356 108.176H259.299C259.31 107.824 259.418 107.513 259.623 107.243C259.827 106.97 260.106 106.757 260.458 106.604C260.81 106.447 261.214 106.369 261.668 106.369C262.128 106.369 262.528 106.45 262.866 106.612C263.207 106.771 263.469 106.989 263.654 107.264C263.842 107.537 263.935 107.847 263.935 108.193C263.935 108.562 263.832 108.861 263.624 109.088C263.417 109.315 263.157 109.477 262.844 109.574V109.642C263.092 109.659 263.306 109.739 263.488 109.881C263.672 110.02 263.816 110.203 263.918 110.43C264.021 110.655 264.072 110.903 264.072 111.176C264.072 111.574 263.965 111.92 263.752 112.216C263.539 112.509 263.246 112.736 262.874 112.898C262.502 113.057 262.077 113.136 261.6 113.136C261.137 113.136 260.722 113.061 260.356 112.911C259.989 112.757 259.698 112.545 259.482 112.276C259.269 112.003 259.157 111.688 259.146 111.33ZM268.01 113.153C267.596 113.153 267.219 113.075 266.881 112.919C266.543 112.76 266.275 112.531 266.076 112.233C265.877 111.932 265.777 111.568 265.777 111.142C265.777 110.767 265.851 110.463 265.999 110.23C266.147 109.994 266.344 109.81 266.591 109.676C266.839 109.543 267.111 109.443 267.41 109.378C267.711 109.31 268.013 109.256 268.317 109.216C268.715 109.165 269.037 109.126 269.285 109.101C269.535 109.072 269.716 109.026 269.83 108.96C269.947 108.895 270.005 108.781 270.005 108.619V108.585C270.005 108.165 269.89 107.838 269.66 107.605C269.432 107.372 269.087 107.256 268.624 107.256C268.144 107.256 267.768 107.361 267.495 107.571C267.222 107.781 267.03 108.006 266.92 108.244L265.965 107.903C266.135 107.506 266.363 107.196 266.647 106.974C266.934 106.75 267.246 106.594 267.584 106.506C267.925 106.415 268.26 106.369 268.59 106.369C268.8 106.369 269.042 106.395 269.314 106.446C269.59 106.494 269.856 106.595 270.111 106.749C270.37 106.902 270.584 107.134 270.755 107.443C270.925 107.753 271.01 108.168 271.01 108.688V113H270.005V112.114H269.954C269.885 112.256 269.772 112.408 269.613 112.57C269.454 112.732 269.242 112.869 268.978 112.983C268.714 113.097 268.391 113.153 268.01 113.153ZM268.164 112.25C268.562 112.25 268.897 112.172 269.17 112.016C269.445 111.859 269.652 111.658 269.792 111.411C269.934 111.163 270.005 110.903 270.005 110.631V109.71C269.962 109.761 269.868 109.808 269.723 109.851C269.581 109.891 269.417 109.926 269.229 109.957C269.045 109.986 268.864 110.011 268.688 110.034C268.515 110.054 268.374 110.071 268.266 110.085C268.005 110.119 267.76 110.175 267.533 110.251C267.309 110.325 267.127 110.437 266.988 110.588C266.851 110.736 266.783 110.937 266.783 111.193C266.783 111.543 266.912 111.807 267.171 111.986C267.432 112.162 267.763 112.25 268.164 112.25ZM273.446 113V106.455H278.594V113H277.588V107.392H274.452V113H273.446ZM281.03 115.455V106.455H282.002V107.494H282.121C282.195 107.381 282.297 107.236 282.428 107.06C282.562 106.881 282.752 106.722 282.999 106.582C283.249 106.44 283.587 106.369 284.013 106.369C284.564 106.369 285.05 106.507 285.471 106.783C285.891 107.058 286.219 107.449 286.455 107.955C286.691 108.46 286.809 109.057 286.809 109.744C286.809 110.438 286.691 111.038 286.455 111.547C286.219 112.053 285.893 112.445 285.475 112.723C285.057 112.999 284.576 113.136 284.03 113.136C283.61 113.136 283.273 113.067 283.02 112.928C282.768 112.786 282.573 112.625 282.437 112.446C282.3 112.264 282.195 112.114 282.121 111.994H282.036V115.455H281.03ZM282.019 109.727C282.019 110.222 282.091 110.658 282.236 111.036C282.381 111.411 282.593 111.705 282.871 111.918C283.15 112.128 283.491 112.233 283.894 112.233C284.314 112.233 284.665 112.122 284.947 111.901C285.231 111.676 285.444 111.375 285.586 110.997C285.731 110.616 285.803 110.193 285.803 109.727C285.803 109.267 285.732 108.852 285.59 108.483C285.451 108.111 285.239 107.817 284.955 107.601C284.674 107.382 284.32 107.273 283.894 107.273C283.485 107.273 283.141 107.376 282.863 107.584C282.584 107.788 282.374 108.075 282.232 108.445C282.09 108.811 282.019 109.239 282.019 109.727ZM291.602 113.136C291.011 113.136 290.493 112.996 290.047 112.714C289.603 112.433 289.257 112.04 289.007 111.534C288.76 111.028 288.636 110.437 288.636 109.761C288.636 109.08 288.76 108.484 289.007 107.976C289.257 107.467 289.603 107.072 290.047 106.791C290.493 106.51 291.011 106.369 291.602 106.369C292.193 106.369 292.71 106.51 293.153 106.791C293.599 107.072 293.946 107.467 294.193 107.976C294.443 108.484 294.568 109.08 294.568 109.761C294.568 110.437 294.443 111.028 294.193 111.534C293.946 112.04 293.599 112.433 293.153 112.714C292.71 112.996 292.193 113.136 291.602 113.136ZM291.602 112.233C292.051 112.233 292.42 112.118 292.71 111.888C293 111.658 293.214 111.355 293.353 110.98C293.493 110.605 293.562 110.199 293.562 109.761C293.562 109.324 293.493 108.916 293.353 108.538C293.214 108.161 293 107.855 292.71 107.622C292.42 107.389 292.051 107.273 291.602 107.273C291.153 107.273 290.784 107.389 290.494 107.622C290.204 107.855 289.99 108.161 289.851 108.538C289.711 108.916 289.642 109.324 289.642 109.761C289.642 110.199 289.711 110.605 289.851 110.98C289.99 111.355 290.204 111.658 290.494 111.888C290.784 112.118 291.153 112.233 291.602 112.233ZM299.362 113.136C298.748 113.136 298.22 112.991 297.777 112.702C297.334 112.412 296.993 112.013 296.754 111.504C296.516 110.996 296.396 110.415 296.396 109.761C296.396 109.097 296.518 108.51 296.763 108.001C297.01 107.49 297.354 107.091 297.794 106.804C298.237 106.514 298.754 106.369 299.345 106.369C299.805 106.369 300.22 106.455 300.589 106.625C300.959 106.795 301.261 107.034 301.497 107.341C301.733 107.648 301.879 108.006 301.936 108.415H300.93C300.854 108.116 300.683 107.852 300.419 107.622C300.158 107.389 299.805 107.273 299.362 107.273C298.97 107.273 298.626 107.375 298.331 107.58C298.038 107.781 297.81 108.067 297.645 108.436C297.483 108.803 297.402 109.233 297.402 109.727C297.402 110.233 297.481 110.673 297.641 111.048C297.802 111.423 298.03 111.714 298.322 111.922C298.618 112.129 298.964 112.233 299.362 112.233C299.623 112.233 299.861 112.188 300.074 112.097C300.287 112.006 300.467 111.875 300.615 111.705C300.763 111.534 300.868 111.33 300.93 111.091H301.936C301.879 111.477 301.739 111.825 301.514 112.135C301.293 112.442 300.998 112.686 300.632 112.868C300.268 113.047 299.845 113.136 299.362 113.136ZM306.665 113.136C306.074 113.136 305.556 112.996 305.11 112.714C304.667 112.433 304.32 112.04 304.07 111.534C303.823 111.028 303.699 110.437 303.699 109.761C303.699 109.08 303.823 108.484 304.07 107.976C304.32 107.467 304.667 107.072 305.11 106.791C305.556 106.51 306.074 106.369 306.665 106.369C307.256 106.369 307.773 106.51 308.216 106.791C308.662 107.072 309.009 107.467 309.256 107.976C309.506 108.484 309.631 109.08 309.631 109.761C309.631 110.437 309.506 111.028 309.256 111.534C309.009 112.04 308.662 112.433 308.216 112.714C307.773 112.996 307.256 113.136 306.665 113.136ZM306.665 112.233C307.114 112.233 307.483 112.118 307.773 111.888C308.063 111.658 308.277 111.355 308.417 110.98C308.556 110.605 308.625 110.199 308.625 109.761C308.625 109.324 308.556 108.916 308.417 108.538C308.277 108.161 308.063 107.855 307.773 107.622C307.483 107.389 307.114 107.273 306.665 107.273C306.216 107.273 305.847 107.389 305.557 107.622C305.268 107.855 305.053 108.161 304.914 108.538C304.775 108.916 304.705 109.324 304.705 109.761C304.705 110.199 304.775 110.605 304.914 110.98C305.053 111.355 305.268 111.658 305.557 111.888C305.847 112.118 306.216 112.233 306.665 112.233ZM311.766 113V106.455H314.442C315.147 106.455 315.707 106.614 316.121 106.932C316.536 107.25 316.744 107.67 316.744 108.193C316.744 108.591 316.626 108.899 316.39 109.118C316.154 109.334 315.852 109.48 315.482 109.557C315.724 109.591 315.958 109.676 316.185 109.812C316.415 109.949 316.606 110.136 316.756 110.375C316.907 110.611 316.982 110.901 316.982 111.244C316.982 111.58 316.897 111.879 316.727 112.143C316.556 112.408 316.312 112.616 315.994 112.77C315.675 112.923 315.295 113 314.852 113H311.766ZM312.721 112.08H314.852C315.198 112.08 315.469 111.997 315.665 111.832C315.861 111.668 315.959 111.443 315.959 111.159C315.959 110.821 315.861 110.555 315.665 110.362C315.469 110.166 315.198 110.068 314.852 110.068H312.721V112.08ZM312.721 109.199H314.442C314.712 109.199 314.944 109.162 315.137 109.088C315.33 109.011 315.478 108.903 315.58 108.764C315.685 108.622 315.738 108.455 315.738 108.261C315.738 107.986 315.623 107.77 315.393 107.614C315.163 107.455 314.846 107.375 314.442 107.375H312.721V109.199ZM56.3937 128V121.455H61.5414V128H60.5357V122.392H57.3993V128H56.3937ZM66.6371 128.136C66.0462 128.136 65.5278 127.996 65.0817 127.714C64.6385 127.433 64.292 127.04 64.042 126.534C63.7948 126.028 63.6712 125.437 63.6712 124.761C63.6712 124.08 63.7948 123.484 64.042 122.976C64.292 122.467 64.6385 122.072 65.0817 121.791C65.5278 121.51 66.0462 121.369 66.6371 121.369C67.228 121.369 67.7451 121.51 68.1883 121.791C68.6343 122.072 68.9809 122.467 69.228 122.976C69.478 123.484 69.603 124.08 69.603 124.761C69.603 125.437 69.478 126.028 69.228 126.534C68.9809 127.04 68.6343 127.433 68.1883 127.714C67.7451 127.996 67.228 128.136 66.6371 128.136ZM66.6371 127.233C67.086 127.233 67.4553 127.118 67.7451 126.888C68.0349 126.658 68.2493 126.355 68.3885 125.98C68.5278 125.605 68.5974 125.199 68.5974 124.761C68.5974 124.324 68.5278 123.916 68.3885 123.538C68.2493 123.161 68.0349 122.855 67.7451 122.622C67.4553 122.389 67.086 122.273 66.6371 122.273C66.1883 122.273 65.8189 122.389 65.5292 122.622C65.2394 122.855 65.0249 123.161 64.8857 123.538C64.7465 123.916 64.6769 124.324 64.6769 124.761C64.6769 125.199 64.7465 125.605 64.8857 125.98C65.0249 126.355 65.2394 126.658 65.5292 126.888C65.8189 127.118 66.1883 127.233 66.6371 127.233ZM71.1586 128V127.062H71.3973C71.5933 127.062 71.7567 127.024 71.8873 126.947C72.018 126.868 72.1231 126.73 72.2027 126.534C72.2851 126.335 72.3476 126.06 72.3902 125.707C72.4356 125.352 72.4683 124.901 72.4882 124.352L72.6075 121.455H76.9711V128H75.9655V122.392H73.5621L73.4598 124.727C73.4371 125.264 73.3888 125.737 73.3149 126.146C73.2439 126.553 73.1345 126.893 72.9868 127.169C72.8419 127.445 72.6487 127.652 72.4072 127.791C72.1657 127.93 71.8632 128 71.4996 128H71.1586ZM80.2856 123.824H82.1606C82.9277 123.824 83.5143 124.018 83.9206 124.408C84.3268 124.797 84.53 125.29 84.53 125.886C84.53 126.278 84.439 126.635 84.2572 126.956C84.0754 127.274 83.8084 127.528 83.4561 127.719C83.1038 127.906 82.672 128 82.1606 128H79.4163V121.455H80.422V127.062H82.1606C82.5584 127.062 82.8851 126.957 83.1407 126.747C83.3964 126.537 83.5243 126.267 83.5243 125.938C83.5243 125.591 83.3964 125.308 83.1407 125.089C82.8851 124.871 82.5584 124.761 82.1606 124.761H80.2856V123.824ZM86.2518 126.33H87.3256C87.3483 126.625 87.4819 126.849 87.7262 127.003C87.9733 127.156 88.2944 127.233 88.6893 127.233C89.0927 127.233 89.4378 127.151 89.7248 126.986C90.0117 126.818 90.1552 126.548 90.1552 126.176C90.1552 125.957 90.1012 125.767 89.9932 125.605C89.8853 125.44 89.7333 125.312 89.5373 125.222C89.3412 125.131 89.1097 125.085 88.8427 125.085H87.7177V124.182H88.8427C89.2432 124.182 89.5387 124.091 89.729 123.909C89.9222 123.727 90.0188 123.5 90.0188 123.227C90.0188 122.935 89.9151 122.7 89.7077 122.524C89.5003 122.345 89.2063 122.256 88.8256 122.256C88.4421 122.256 88.1225 122.342 87.8668 122.516C87.6111 122.686 87.4762 122.906 87.462 123.176H86.4052C86.4165 122.824 86.5245 122.513 86.729 122.243C86.9336 121.97 87.212 121.757 87.5643 121.604C87.9165 121.447 88.3199 121.369 88.7745 121.369C89.2347 121.369 89.6339 121.45 89.9719 121.612C90.3128 121.771 90.5756 121.989 90.7603 122.264C90.9478 122.537 91.0415 122.847 91.0415 123.193C91.0415 123.562 90.9378 123.861 90.7304 124.088C90.5231 124.315 90.2631 124.477 89.9506 124.574V124.642C90.1978 124.659 90.4123 124.739 90.5941 124.881C90.7787 125.02 90.9222 125.203 91.0245 125.43C91.1268 125.655 91.1779 125.903 91.1779 126.176C91.1779 126.574 91.0714 126.92 90.8583 127.216C90.6452 127.509 90.3526 127.736 89.9804 127.898C89.6083 128.057 89.1836 128.136 88.7063 128.136C88.2432 128.136 87.8285 128.061 87.462 127.911C87.0955 127.757 86.8043 127.545 86.5884 127.276C86.3753 127.003 86.2631 126.688 86.2518 126.33ZM95.8496 128.136C95.2587 128.136 94.7403 127.996 94.2942 127.714C93.851 127.433 93.5045 127.04 93.2545 126.534C93.0073 126.028 92.8837 125.437 92.8837 124.761C92.8837 124.08 93.0073 123.484 93.2545 122.976C93.5045 122.467 93.851 122.072 94.2942 121.791C94.7403 121.51 95.2587 121.369 95.8496 121.369C96.4405 121.369 96.9576 121.51 97.4008 121.791C97.8468 122.072 98.1934 122.467 98.4405 122.976C98.6905 123.484 98.8155 124.08 98.8155 124.761C98.8155 125.437 98.6905 126.028 98.4405 126.534C98.1934 127.04 97.8468 127.433 97.4008 127.714C96.9576 127.996 96.4405 128.136 95.8496 128.136ZM95.8496 127.233C96.2985 127.233 96.6678 127.118 96.9576 126.888C97.2474 126.658 97.4618 126.355 97.601 125.98C97.7403 125.605 97.8099 125.199 97.8099 124.761C97.8099 124.324 97.7403 123.916 97.601 123.538C97.4618 123.161 97.2474 122.855 96.9576 122.622C96.6678 122.389 96.2985 122.273 95.8496 122.273C95.4008 122.273 95.0314 122.389 94.7417 122.622C94.4519 122.855 94.2374 123.161 94.0982 123.538C93.959 123.916 93.8894 124.324 93.8894 124.761C93.8894 125.199 93.959 125.605 94.0982 125.98C94.2374 126.355 94.4519 126.658 94.7417 126.888C95.0314 127.118 95.4008 127.233 95.8496 127.233ZM100.951 128V121.455H103.627C104.331 121.455 104.891 121.614 105.306 121.932C105.721 122.25 105.928 122.67 105.928 123.193C105.928 123.591 105.81 123.899 105.574 124.118C105.338 124.334 105.036 124.48 104.667 124.557C104.908 124.591 105.142 124.676 105.37 124.812C105.6 124.949 105.79 125.136 105.941 125.375C106.091 125.611 106.167 125.901 106.167 126.244C106.167 126.58 106.081 126.879 105.911 127.143C105.74 127.408 105.496 127.616 105.178 127.77C104.86 127.923 104.479 128 104.036 128H100.951ZM101.905 127.08H104.036C104.383 127.08 104.654 126.997 104.85 126.832C105.046 126.668 105.144 126.443 105.144 126.159C105.144 125.821 105.046 125.555 104.85 125.362C104.654 125.166 104.383 125.068 104.036 125.068H101.905V127.08ZM101.905 124.199H103.627C103.897 124.199 104.128 124.162 104.321 124.088C104.515 124.011 104.662 123.903 104.765 123.764C104.87 123.622 104.922 123.455 104.922 123.261C104.922 122.986 104.807 122.77 104.577 122.614C104.347 122.455 104.03 122.375 103.627 122.375H101.905V124.199ZM110.215 128.153C109.8 128.153 109.424 128.075 109.086 127.919C108.748 127.76 108.479 127.531 108.28 127.233C108.082 126.932 107.982 126.568 107.982 126.142C107.982 125.767 108.056 125.463 108.204 125.23C108.351 124.994 108.549 124.81 108.796 124.676C109.043 124.543 109.316 124.443 109.614 124.378C109.915 124.31 110.218 124.256 110.522 124.216C110.92 124.165 111.242 124.126 111.489 124.101C111.739 124.072 111.921 124.026 112.035 123.96C112.151 123.895 112.209 123.781 112.209 123.619V123.585C112.209 123.165 112.094 122.838 111.864 122.605C111.637 122.372 111.292 122.256 110.829 122.256C110.349 122.256 109.972 122.361 109.699 122.571C109.427 122.781 109.235 123.006 109.124 123.244L108.17 122.903C108.34 122.506 108.567 122.196 108.851 121.974C109.138 121.75 109.451 121.594 109.789 121.506C110.13 121.415 110.465 121.369 110.795 121.369C111.005 121.369 111.246 121.395 111.519 121.446C111.795 121.494 112.06 121.595 112.316 121.749C112.574 121.902 112.789 122.134 112.959 122.443C113.13 122.753 113.215 123.168 113.215 123.688V128H112.209V127.114H112.158C112.09 127.256 111.976 127.408 111.817 127.57C111.658 127.732 111.447 127.869 111.182 127.983C110.918 128.097 110.596 128.153 110.215 128.153ZM110.369 127.25C110.766 127.25 111.101 127.172 111.374 127.016C111.65 126.859 111.857 126.658 111.996 126.411C112.138 126.163 112.209 125.903 112.209 125.631V124.71C112.167 124.761 112.073 124.808 111.928 124.851C111.786 124.891 111.621 124.926 111.434 124.957C111.249 124.986 111.069 125.011 110.893 125.034C110.719 125.054 110.579 125.071 110.471 125.085C110.209 125.119 109.965 125.175 109.738 125.251C109.513 125.325 109.332 125.437 109.192 125.588C109.056 125.736 108.988 125.937 108.988 126.193C108.988 126.543 109.117 126.807 109.376 126.986C109.637 127.162 109.968 127.25 110.369 127.25ZM114.76 122.392V121.455H120.078V122.392H117.931V128H116.925V122.392H114.76ZM124.55 128.136C123.919 128.136 123.375 127.997 122.918 127.719C122.463 127.438 122.112 127.045 121.865 126.543C121.621 126.037 121.499 125.449 121.499 124.778C121.499 124.108 121.621 123.517 121.865 123.006C122.112 122.491 122.456 122.091 122.896 121.804C123.339 121.514 123.857 121.369 124.447 121.369C124.788 121.369 125.125 121.426 125.457 121.54C125.79 121.653 126.092 121.838 126.365 122.094C126.638 122.347 126.855 122.682 127.017 123.099C127.179 123.517 127.26 124.031 127.26 124.642V125.068H122.214V124.199H126.237C126.237 123.83 126.163 123.5 126.016 123.21C125.871 122.92 125.663 122.692 125.393 122.524C125.126 122.357 124.811 122.273 124.447 122.273C124.047 122.273 123.7 122.372 123.408 122.571C123.118 122.767 122.895 123.023 122.739 123.338C122.582 123.653 122.504 123.991 122.504 124.352V124.932C122.504 125.426 122.589 125.845 122.76 126.189C122.933 126.53 123.173 126.79 123.48 126.969C123.787 127.145 124.143 127.233 124.55 127.233C124.814 127.233 125.053 127.196 125.266 127.122C125.482 127.045 125.668 126.932 125.824 126.781C125.98 126.628 126.101 126.437 126.186 126.21L127.158 126.483C127.055 126.812 126.884 127.102 126.642 127.352C126.401 127.599 126.102 127.793 125.747 127.932C125.392 128.068 124.993 128.136 124.55 128.136ZM128.81 128V127.062H129.049C129.245 127.062 129.408 127.024 129.539 126.947C129.67 126.868 129.775 126.73 129.854 126.534C129.937 126.335 129.999 126.06 130.042 125.707C130.087 125.352 130.12 124.901 130.14 124.352L130.259 121.455H134.623V128H133.617V122.392H131.214L131.111 124.727C131.089 125.264 131.04 125.737 130.966 126.146C130.895 126.553 130.786 126.893 130.638 127.169C130.493 127.445 130.3 127.652 130.059 127.791C129.817 127.93 129.515 128 129.151 128H128.81ZM139.812 128.136C139.182 128.136 138.637 127.997 138.18 127.719C137.726 127.438 137.375 127.045 137.128 126.543C136.883 126.037 136.761 125.449 136.761 124.778C136.761 124.108 136.883 123.517 137.128 123.006C137.375 122.491 137.718 122.091 138.159 121.804C138.602 121.514 139.119 121.369 139.71 121.369C140.051 121.369 140.387 121.426 140.72 121.54C141.052 121.653 141.355 121.838 141.628 122.094C141.9 122.347 142.118 122.682 142.28 123.099C142.441 123.517 142.522 124.031 142.522 124.642V125.068H137.477V124.199H141.5C141.5 123.83 141.426 123.5 141.278 123.21C141.133 122.92 140.926 122.692 140.656 122.524C140.389 122.357 140.074 122.273 139.71 122.273C139.309 122.273 138.963 122.372 138.67 122.571C138.38 122.767 138.157 123.023 138.001 123.338C137.845 123.653 137.767 123.991 137.767 124.352V124.932C137.767 125.426 137.852 125.845 138.022 126.189C138.196 126.53 138.436 126.79 138.743 126.969C139.049 127.145 139.406 127.233 139.812 127.233C140.076 127.233 140.315 127.196 140.528 127.122C140.744 127.045 140.93 126.932 141.086 126.781C141.243 126.628 141.363 126.437 141.449 126.21L142.42 126.483C142.318 126.812 142.146 127.102 141.905 127.352C141.663 127.599 141.365 127.793 141.01 127.932C140.655 128.068 140.255 128.136 139.812 128.136ZM145.658 126.517L148.811 121.455H149.97V128H148.965V122.938L145.828 128H144.652V121.455H145.658V126.517ZM148.147 119.273H149.084C149.084 119.733 148.925 120.109 148.607 120.402C148.289 120.695 147.857 120.841 147.311 120.841C146.774 120.841 146.347 120.695 146.029 120.402C145.713 120.109 145.556 119.733 145.556 119.273H146.493C146.493 119.494 146.554 119.689 146.676 119.857C146.801 120.024 147.013 120.108 147.311 120.108C147.61 120.108 147.823 120.024 147.951 119.857C148.081 119.689 148.147 119.494 148.147 119.273ZM160.768 124.267V125.205H157.154V124.267H160.768ZM157.393 121.455V128H156.387V121.455H157.393ZM161.535 121.455V128H160.529V121.455H161.535ZM165.898 128.153C165.483 128.153 165.107 128.075 164.769 127.919C164.431 127.76 164.162 127.531 163.963 127.233C163.764 126.932 163.665 126.568 163.665 126.142C163.665 125.767 163.739 125.463 163.887 125.23C164.034 124.994 164.232 124.81 164.479 124.676C164.726 124.543 164.999 124.443 165.297 124.378C165.598 124.31 165.901 124.256 166.205 124.216C166.602 124.165 166.925 124.126 167.172 124.101C167.422 124.072 167.604 124.026 167.718 123.96C167.834 123.895 167.892 123.781 167.892 123.619V123.585C167.892 123.165 167.777 122.838 167.547 122.605C167.32 122.372 166.975 122.256 166.512 122.256C166.031 122.256 165.655 122.361 165.382 122.571C165.11 122.781 164.918 123.006 164.807 123.244L163.852 122.903C164.023 122.506 164.25 122.196 164.534 121.974C164.821 121.75 165.134 121.594 165.472 121.506C165.813 121.415 166.148 121.369 166.477 121.369C166.688 121.369 166.929 121.395 167.202 121.446C167.477 121.494 167.743 121.595 167.999 121.749C168.257 121.902 168.472 122.134 168.642 122.443C168.813 122.753 168.898 123.168 168.898 123.688V128H167.892V127.114H167.841C167.773 127.256 167.659 127.408 167.5 127.57C167.341 127.732 167.129 127.869 166.865 127.983C166.601 128.097 166.279 128.153 165.898 128.153ZM166.051 127.25C166.449 127.25 166.784 127.172 167.057 127.016C167.333 126.859 167.54 126.658 167.679 126.411C167.821 126.163 167.892 125.903 167.892 125.631V124.71C167.85 124.761 167.756 124.808 167.611 124.851C167.469 124.891 167.304 124.926 167.117 124.957C166.932 124.986 166.752 125.011 166.575 125.034C166.402 125.054 166.262 125.071 166.154 125.085C165.892 125.119 165.648 125.175 165.421 125.251C165.196 125.325 165.014 125.437 164.875 125.588C164.739 125.736 164.671 125.937 164.671 126.193C164.671 126.543 164.8 126.807 165.058 126.986C165.32 127.162 165.651 127.25 166.051 127.25ZM175.666 124.318C175.666 123.244 175.806 122.257 176.084 121.357C176.365 120.453 176.766 119.622 177.286 118.864H178.172C177.968 119.145 177.776 119.491 177.597 119.903C177.421 120.312 177.266 120.763 177.132 121.254C176.999 121.743 176.894 122.249 176.817 122.771C176.743 123.294 176.706 123.81 176.706 124.318C176.706 124.994 176.772 125.68 176.902 126.376C177.033 127.072 177.209 127.719 177.431 128.315C177.652 128.912 177.899 129.398 178.172 129.773H177.286C176.766 129.014 176.365 128.185 176.084 127.284C175.806 126.381 175.666 125.392 175.666 124.318ZM179.847 126.33H180.921C180.944 126.625 181.077 126.849 181.322 127.003C181.569 127.156 181.89 127.233 182.285 127.233C182.688 127.233 183.033 127.151 183.32 126.986C183.607 126.818 183.75 126.548 183.75 126.176C183.75 125.957 183.697 125.767 183.589 125.605C183.481 125.44 183.329 125.312 183.133 125.222C182.937 125.131 182.705 125.085 182.438 125.085H181.313V124.182H182.438C182.839 124.182 183.134 124.091 183.324 123.909C183.518 123.727 183.614 123.5 183.614 123.227C183.614 122.935 183.51 122.7 183.303 122.524C183.096 122.345 182.802 122.256 182.421 122.256C182.037 122.256 181.718 122.342 181.462 122.516C181.206 122.686 181.072 122.906 181.057 123.176H180C180.012 122.824 180.12 122.513 180.324 122.243C180.529 121.97 180.807 121.757 181.16 121.604C181.512 121.447 181.915 121.369 182.37 121.369C182.83 121.369 183.229 121.45 183.567 121.612C183.908 121.771 184.171 121.989 184.356 122.264C184.543 122.537 184.637 122.847 184.637 123.193C184.637 123.562 184.533 123.861 184.326 124.088C184.118 124.315 183.858 124.477 183.546 124.574V124.642C183.793 124.659 184.008 124.739 184.189 124.881C184.374 125.02 184.518 125.203 184.62 125.43C184.722 125.655 184.773 125.903 184.773 126.176C184.773 126.574 184.667 126.92 184.454 127.216C184.241 127.509 183.948 127.736 183.576 127.898C183.204 128.057 182.779 128.136 182.302 128.136C181.839 128.136 181.424 128.061 181.057 127.911C180.691 127.757 180.4 127.545 180.184 127.276C179.971 127.003 179.858 126.688 179.847 126.33ZM191.167 124.267V125.205H187.553V124.267H191.167ZM187.792 121.455V128H186.786V121.455H187.792ZM191.934 121.455V128H190.928V121.455H191.934ZM196.296 128.153C195.882 128.153 195.505 128.075 195.167 127.919C194.829 127.76 194.561 127.531 194.362 127.233C194.163 126.932 194.063 126.568 194.063 126.142C194.063 125.767 194.137 125.463 194.285 125.23C194.433 124.994 194.63 124.81 194.877 124.676C195.124 124.543 195.397 124.443 195.696 124.378C195.997 124.31 196.299 124.256 196.603 124.216C197.001 124.165 197.323 124.126 197.571 124.101C197.821 124.072 198.002 124.026 198.116 123.96C198.232 123.895 198.291 123.781 198.291 123.619V123.585C198.291 123.165 198.176 122.838 197.946 122.605C197.718 122.372 197.373 122.256 196.91 122.256C196.43 122.256 196.053 122.361 195.781 122.571C195.508 122.781 195.316 123.006 195.205 123.244L194.251 122.903C194.421 122.506 194.649 122.196 194.933 121.974C195.22 121.75 195.532 121.594 195.87 121.506C196.211 121.415 196.546 121.369 196.876 121.369C197.086 121.369 197.328 121.395 197.6 121.446C197.876 121.494 198.142 121.595 198.397 121.749C198.656 121.902 198.87 122.134 199.041 122.443C199.211 122.753 199.296 123.168 199.296 123.688V128H198.291V127.114H198.24C198.171 127.256 198.058 127.408 197.899 127.57C197.74 127.732 197.528 127.869 197.264 127.983C196.999 128.097 196.677 128.153 196.296 128.153ZM196.45 127.25C196.847 127.25 197.183 127.172 197.455 127.016C197.731 126.859 197.938 126.658 198.078 126.411C198.22 126.163 198.291 125.903 198.291 125.631V124.71C198.248 124.761 198.154 124.808 198.009 124.851C197.867 124.891 197.703 124.926 197.515 124.957C197.33 124.986 197.15 125.011 196.974 125.034C196.801 125.054 196.66 125.071 196.552 125.085C196.291 125.119 196.046 125.175 195.819 125.251C195.595 125.325 195.413 125.437 195.274 125.588C195.137 125.736 195.069 125.937 195.069 126.193C195.069 126.543 195.198 126.807 195.457 126.986C195.718 127.162 196.049 127.25 196.45 127.25ZM206.113 124.267V125.205H202.499V124.267H206.113ZM202.738 121.455V128H201.732V121.455H202.738ZM206.88 121.455V128H205.874V121.455H206.88ZM210.322 126.517L213.475 121.455H214.634V128H213.629V122.938L210.492 128H209.316V121.455H210.322V126.517ZM219.821 128.136C219.19 128.136 218.646 127.997 218.189 127.719C217.734 127.438 217.383 127.045 217.136 126.543C216.892 126.037 216.77 125.449 216.77 124.778C216.77 124.108 216.892 123.517 217.136 123.006C217.383 122.491 217.727 122.091 218.167 121.804C218.611 121.514 219.128 121.369 219.719 121.369C220.059 121.369 220.396 121.426 220.728 121.54C221.061 121.653 221.363 121.838 221.636 122.094C221.909 122.347 222.126 122.682 222.288 123.099C222.45 123.517 222.531 124.031 222.531 124.642V125.068H217.486V124.199H221.508C221.508 123.83 221.434 123.5 221.287 123.21C221.142 122.92 220.934 122.692 220.665 122.524C220.397 122.357 220.082 122.273 219.719 122.273C219.318 122.273 218.971 122.372 218.679 122.571C218.389 122.767 218.166 123.023 218.01 123.338C217.853 123.653 217.775 123.991 217.775 124.352V124.932C217.775 125.426 217.861 125.845 218.031 126.189C218.204 126.53 218.444 126.79 218.751 126.969C219.058 127.145 219.415 127.233 219.821 127.233C220.085 127.233 220.324 127.196 220.537 127.122C220.753 127.045 220.939 126.932 221.095 126.781C221.251 126.628 221.372 126.437 221.457 126.21L222.429 126.483C222.326 126.812 222.155 127.102 221.913 127.352C221.672 127.599 221.373 127.793 221.018 127.932C220.663 128.068 220.264 128.136 219.821 128.136ZM227.746 118.864L224.934 129.312H224.013L226.826 118.864H227.746ZM230.544 126.517L233.697 121.455H234.856V128H233.851V122.938L230.714 128H229.538V121.455H230.544V126.517ZM241.679 124.267V125.205H238.065V124.267H241.679ZM238.304 121.455V128H237.298V121.455H238.304ZM242.446 121.455V128H241.44V121.455H242.446ZM243.992 122.392V121.455H249.31V122.392H247.163V128H246.157V122.392H243.992ZM253.697 128.136C253.083 128.136 252.554 127.991 252.111 127.702C251.668 127.412 251.327 127.013 251.089 126.504C250.85 125.996 250.731 125.415 250.731 124.761C250.731 124.097 250.853 123.51 251.097 123.001C251.344 122.49 251.688 122.091 252.128 121.804C252.572 121.514 253.089 121.369 253.679 121.369C254.14 121.369 254.554 121.455 254.924 121.625C255.293 121.795 255.596 122.034 255.831 122.341C256.067 122.648 256.214 123.006 256.27 123.415H255.265C255.188 123.116 255.018 122.852 254.753 122.622C254.492 122.389 254.14 122.273 253.697 122.273C253.304 122.273 252.961 122.375 252.665 122.58C252.373 122.781 252.144 123.067 251.979 123.436C251.817 123.803 251.736 124.233 251.736 124.727C251.736 125.233 251.816 125.673 251.975 126.048C252.137 126.423 252.364 126.714 252.657 126.922C252.952 127.129 253.299 127.233 253.697 127.233C253.958 127.233 254.195 127.188 254.408 127.097C254.621 127.006 254.802 126.875 254.949 126.705C255.097 126.534 255.202 126.33 255.265 126.091H256.27C256.214 126.477 256.073 126.825 255.848 127.135C255.627 127.442 255.333 127.686 254.966 127.868C254.603 128.047 254.179 128.136 253.697 128.136ZM258.341 130.455V121.455H259.312V122.494H259.431C259.505 122.381 259.608 122.236 259.738 122.06C259.872 121.881 260.062 121.722 260.309 121.582C260.559 121.44 260.897 121.369 261.323 121.369C261.875 121.369 262.36 121.507 262.781 121.783C263.201 122.058 263.529 122.449 263.765 122.955C264.001 123.46 264.119 124.057 264.119 124.744C264.119 125.438 264.001 126.038 263.765 126.547C263.529 127.053 263.203 127.445 262.785 127.723C262.368 127.999 261.886 128.136 261.341 128.136C260.92 128.136 260.583 128.067 260.331 127.928C260.078 127.786 259.883 127.625 259.747 127.446C259.61 127.264 259.505 127.114 259.431 126.994H259.346V130.455H258.341ZM259.329 124.727C259.329 125.222 259.402 125.658 259.546 126.036C259.691 126.411 259.903 126.705 260.181 126.918C260.46 127.128 260.801 127.233 261.204 127.233C261.625 127.233 261.975 127.122 262.257 126.901C262.541 126.676 262.754 126.375 262.896 125.997C263.041 125.616 263.113 125.193 263.113 124.727C263.113 124.267 263.042 123.852 262.9 123.483C262.761 123.111 262.549 122.817 262.265 122.601C261.984 122.382 261.63 122.273 261.204 122.273C260.795 122.273 260.451 122.376 260.173 122.584C259.895 122.788 259.684 123.075 259.542 123.445C259.4 123.811 259.329 124.239 259.329 124.727ZM266.666 130.455C266.496 130.455 266.344 130.44 266.21 130.412C266.077 130.386 265.985 130.361 265.933 130.335L266.189 129.449C266.433 129.511 266.649 129.534 266.837 129.517C267.024 129.5 267.191 129.416 267.335 129.266C267.483 129.118 267.618 128.878 267.74 128.545L267.928 128.034L265.507 121.455H266.598L268.405 126.67H268.473L270.28 121.455H271.371L268.593 128.955C268.468 129.293 268.313 129.572 268.128 129.794C267.943 130.018 267.729 130.185 267.485 130.293C267.243 130.401 266.97 130.455 266.666 130.455ZM273.298 128V121.455H274.304V124.301H274.969L277.321 121.455H278.617L275.974 124.608L278.651 128H277.355L275.207 125.239H274.304V128H273.298ZM285.491 121.455V127.062H286.412V130.114H285.406V128H280.344V121.455H281.349V127.062H284.486V121.455H285.491ZM289.567 126.517L292.72 121.455H293.879V128H292.873V122.938L289.737 128H288.561V121.455H289.567V126.517ZM299.457 124.318V125.256H295.997V124.318H299.457ZM296.849 121.455V128H295.844V121.455H296.849ZM301.469 128.136C300.878 128.136 300.359 127.996 299.913 127.714C299.47 127.433 299.124 127.04 298.874 126.534C298.626 126.028 298.503 125.437 298.503 124.761C298.503 124.08 298.626 123.484 298.874 122.976C299.124 122.467 299.47 122.072 299.913 121.791C300.359 121.51 300.878 121.369 301.469 121.369C302.06 121.369 302.577 121.51 303.02 121.791C303.466 122.072 303.812 122.467 304.06 122.976C304.31 123.484 304.435 124.08 304.435 124.761C304.435 125.437 304.31 126.028 304.06 126.534C303.812 127.04 303.466 127.433 303.02 127.714C302.577 127.996 302.06 128.136 301.469 128.136ZM301.469 127.233C301.918 127.233 302.287 127.118 302.577 126.888C302.866 126.658 303.081 126.355 303.22 125.98C303.359 125.605 303.429 125.199 303.429 124.761C303.429 124.324 303.359 123.916 303.22 123.538C303.081 123.161 302.866 122.855 302.577 122.622C302.287 122.389 301.918 122.273 301.469 122.273C301.02 122.273 300.651 122.389 300.361 122.622C300.071 122.855 299.857 123.161 299.717 123.538C299.578 123.916 299.508 124.324 299.508 124.761C299.508 125.199 299.578 125.605 299.717 125.98C299.857 126.355 300.071 126.658 300.361 126.888C300.651 127.118 301.02 127.233 301.469 127.233ZM308.678 124.318C308.678 125.392 308.537 126.381 308.256 127.284C307.978 128.185 307.579 129.014 307.059 129.773H306.172C306.377 129.491 306.567 129.145 306.743 128.733C306.922 128.324 307.079 127.875 307.212 127.386C307.346 126.895 307.449 126.388 307.523 125.865C307.6 125.339 307.638 124.824 307.638 124.318C307.638 123.642 307.573 122.956 307.442 122.26C307.312 121.564 307.135 120.918 306.914 120.321C306.692 119.724 306.445 119.239 306.172 118.864H307.059C307.579 119.622 307.978 120.453 308.256 121.357C308.537 122.257 308.678 123.244 308.678 124.318ZM312.978 126.807L312.91 127.267C312.862 127.591 312.788 127.938 312.688 128.307C312.592 128.676 312.491 129.024 312.386 129.351C312.281 129.678 312.194 129.938 312.126 130.131H311.359C311.396 129.949 311.444 129.709 311.504 129.411C311.563 129.112 311.623 128.778 311.683 128.409C311.745 128.043 311.796 127.668 311.836 127.284L311.887 126.807H312.978ZM59.0528 143.136C58.4618 143.136 57.9434 142.996 57.4974 142.714C57.0542 142.433 56.7076 142.04 56.4576 141.534C56.2104 141.028 56.0868 140.437 56.0868 139.761C56.0868 139.08 56.2104 138.484 56.4576 137.976C56.7076 137.467 57.0542 137.072 57.4974 136.791C57.9434 136.51 58.4618 136.369 59.0528 136.369C59.6437 136.369 60.1607 136.51 60.6039 136.791C61.0499 137.072 61.3965 137.467 61.6437 137.976C61.8937 138.484 62.0187 139.08 62.0187 139.761C62.0187 140.437 61.8937 141.028 61.6437 141.534C61.3965 142.04 61.0499 142.433 60.6039 142.714C60.1607 142.996 59.6437 143.136 59.0528 143.136ZM59.0528 142.233C59.5016 142.233 59.8709 142.118 60.1607 141.888C60.4505 141.658 60.665 141.355 60.8042 140.98C60.9434 140.605 61.013 140.199 61.013 139.761C61.013 139.324 60.9434 138.916 60.8042 138.538C60.665 138.161 60.4505 137.855 60.1607 137.622C59.8709 137.389 59.5016 137.273 59.0528 137.273C58.6039 137.273 58.2346 137.389 57.9448 137.622C57.655 137.855 57.4405 138.161 57.3013 138.538C57.1621 138.916 57.0925 139.324 57.0925 139.761C57.0925 140.199 57.1621 140.605 57.3013 140.98C57.4405 141.355 57.655 141.658 57.9448 141.888C58.2346 142.118 58.6039 142.233 59.0528 142.233ZM63.2983 137.392V136.455H68.6165V137.392H66.4688V143H65.4631V137.392H63.2983ZM73.0028 143.136C72.3891 143.136 71.8607 142.991 71.4175 142.702C70.9743 142.412 70.6334 142.013 70.3948 141.504C70.1562 140.996 70.0368 140.415 70.0368 139.761C70.0368 139.097 70.159 138.51 70.4033 138.001C70.6505 137.49 70.9942 137.091 71.4346 136.804C71.8778 136.514 72.3948 136.369 72.9857 136.369C73.4459 136.369 73.8607 136.455 74.23 136.625C74.5993 136.795 74.9019 137.034 75.1377 137.341C75.3735 137.648 75.5198 138.006 75.5766 138.415H74.5709C74.4942 138.116 74.3238 137.852 74.0596 137.622C73.7982 137.389 73.4459 137.273 73.0028 137.273C72.6107 137.273 72.267 137.375 71.9715 137.58C71.6789 137.781 71.4502 138.067 71.2854 138.436C71.1235 138.803 71.0425 139.233 71.0425 139.727C71.0425 140.233 71.1221 140.673 71.2812 141.048C71.4431 141.423 71.6704 141.714 71.963 141.922C72.2584 142.129 72.605 142.233 73.0028 142.233C73.2641 142.233 73.5013 142.188 73.7144 142.097C73.9275 142.006 74.1079 141.875 74.2556 141.705C74.4033 141.534 74.5084 141.33 74.5709 141.091H75.5766C75.5198 141.477 75.3792 141.825 75.1547 142.135C74.9331 142.442 74.6391 142.686 74.2726 142.868C73.909 143.047 73.4857 143.136 73.0028 143.136ZM80.3059 143.136C79.715 143.136 79.1965 142.996 78.7505 142.714C78.3073 142.433 77.9607 142.04 77.7107 141.534C77.4635 141.028 77.34 140.437 77.34 139.761C77.34 139.08 77.4635 138.484 77.7107 137.976C77.9607 137.467 78.3073 137.072 78.7505 136.791C79.1965 136.51 79.715 136.369 80.3059 136.369C80.8968 136.369 81.4138 136.51 81.857 136.791C82.303 137.072 82.6496 137.467 82.8968 137.976C83.1468 138.484 83.2718 139.08 83.2718 139.761C83.2718 140.437 83.1468 141.028 82.8968 141.534C82.6496 142.04 82.303 142.433 81.857 142.714C81.4138 142.996 80.8968 143.136 80.3059 143.136ZM80.3059 142.233C80.7547 142.233 81.1241 142.118 81.4138 141.888C81.7036 141.658 81.9181 141.355 82.0573 140.98C82.1965 140.605 82.2661 140.199 82.2661 139.761C82.2661 139.324 82.1965 138.916 82.0573 138.538C81.9181 138.161 81.7036 137.855 81.4138 137.622C81.1241 137.389 80.7547 137.273 80.3059 137.273C79.857 137.273 79.4877 137.389 79.1979 137.622C78.9081 137.855 78.6937 138.161 78.5545 138.538C78.4153 138.916 78.3456 139.324 78.3456 139.761C78.3456 140.199 78.4153 140.605 78.5545 140.98C78.6937 141.355 78.9081 141.658 79.1979 141.888C79.4877 142.118 79.857 142.233 80.3059 142.233ZM85.4069 145.455V136.455H86.3785V137.494H86.4979C86.5717 137.381 86.674 137.236 86.8047 137.06C86.9382 136.881 87.1285 136.722 87.3757 136.582C87.6257 136.44 87.9638 136.369 88.3899 136.369C88.941 136.369 89.4268 136.507 89.8473 136.783C90.2677 137.058 90.5959 137.449 90.8317 137.955C91.0675 138.46 91.1853 139.057 91.1853 139.744C91.1853 140.438 91.0675 141.038 90.8317 141.547C90.5959 142.053 90.2692 142.445 89.8515 142.723C89.4339 142.999 88.9524 143.136 88.4069 143.136C87.9865 143.136 87.6498 143.067 87.397 142.928C87.1442 142.786 86.9496 142.625 86.8132 142.446C86.6768 142.264 86.5717 142.114 86.4979 141.994H86.4126V145.455H85.4069ZM86.3956 139.727C86.3956 140.222 86.468 140.658 86.6129 141.036C86.7578 141.411 86.9694 141.705 87.2479 141.918C87.5263 142.128 87.8672 142.233 88.2706 142.233C88.691 142.233 89.0419 142.122 89.3231 141.901C89.6072 141.676 89.8203 141.375 89.9623 140.997C90.1072 140.616 90.1797 140.193 90.1797 139.727C90.1797 139.267 90.1086 138.852 89.9666 138.483C89.8274 138.111 89.6157 137.817 89.3317 137.601C89.0504 137.382 88.6967 137.273 88.2706 137.273C87.8615 137.273 87.5177 137.376 87.2393 137.584C86.9609 137.788 86.7507 138.075 86.6086 138.445C86.4666 138.811 86.3956 139.239 86.3956 139.727ZM92.464 137.392V136.455H97.7822V137.392H95.6344V143H94.6287V137.392H92.464ZM100.855 141.517L104.008 136.455H105.167V143H104.162V137.938L101.025 143H99.8491V136.455H100.855V141.517ZM107.609 145.455V136.455H108.581V137.494H108.7C108.774 137.381 108.876 137.236 109.007 137.06C109.141 136.881 109.331 136.722 109.578 136.582C109.828 136.44 110.166 136.369 110.592 136.369C111.143 136.369 111.629 136.507 112.05 136.783C112.47 137.058 112.798 137.449 113.034 137.955C113.27 138.46 113.388 139.057 113.388 139.744C113.388 140.438 113.27 141.038 113.034 141.547C112.798 142.053 112.472 142.445 112.054 142.723C111.636 142.999 111.155 143.136 110.609 143.136C110.189 143.136 109.852 143.067 109.599 142.928C109.347 142.786 109.152 142.625 109.016 142.446C108.879 142.264 108.774 142.114 108.7 141.994H108.615V145.455H107.609ZM108.598 139.727C108.598 140.222 108.67 140.658 108.815 141.036C108.96 141.411 109.172 141.705 109.45 141.918C109.729 142.128 110.07 142.233 110.473 142.233C110.893 142.233 111.244 142.122 111.525 141.901C111.81 141.676 112.023 141.375 112.165 140.997C112.31 140.616 112.382 140.193 112.382 139.727C112.382 139.267 112.311 138.852 112.169 138.483C112.03 138.111 111.818 137.817 111.534 137.601C111.253 137.382 110.899 137.273 110.473 137.273C110.064 137.273 109.72 137.376 109.442 137.584C109.163 137.788 108.953 138.075 108.811 138.445C108.669 138.811 108.598 139.239 108.598 139.727ZM118.181 143.136C117.59 143.136 117.072 142.996 116.625 142.714C116.182 142.433 115.836 142.04 115.586 141.534C115.339 141.028 115.215 140.437 115.215 139.761C115.215 139.08 115.339 138.484 115.586 137.976C115.836 137.467 116.182 137.072 116.625 136.791C117.072 136.51 117.59 136.369 118.181 136.369C118.772 136.369 119.289 136.51 119.732 136.791C120.178 137.072 120.525 137.467 120.772 137.976C121.022 138.484 121.147 139.08 121.147 139.761C121.147 140.437 121.022 141.028 120.772 141.534C120.525 142.04 120.178 142.433 119.732 142.714C119.289 142.996 118.772 143.136 118.181 143.136ZM118.181 142.233C118.63 142.233 118.999 142.118 119.289 141.888C119.579 141.658 119.793 141.355 119.932 140.98C120.072 140.605 120.141 140.199 120.141 139.761C120.141 139.324 120.072 138.916 119.932 138.538C119.793 138.161 119.579 137.855 119.289 137.622C118.999 137.389 118.63 137.273 118.181 137.273C117.732 137.273 117.363 137.389 117.073 137.622C116.783 137.855 116.569 138.161 116.429 138.538C116.29 138.916 116.221 139.324 116.221 139.761C116.221 140.199 116.29 140.605 116.429 140.98C116.569 141.355 116.783 141.658 117.073 141.888C117.363 142.118 117.732 142.233 118.181 142.233ZM123.282 143V136.455H125.958C126.663 136.455 127.222 136.614 127.637 136.932C128.052 137.25 128.259 137.67 128.259 138.193C128.259 138.591 128.141 138.899 127.906 139.118C127.67 139.334 127.367 139.48 126.998 139.557C127.239 139.591 127.474 139.676 127.701 139.812C127.931 139.949 128.121 140.136 128.272 140.375C128.423 140.611 128.498 140.901 128.498 141.244C128.498 141.58 128.413 141.879 128.242 142.143C128.072 142.408 127.827 142.616 127.509 142.77C127.191 142.923 126.81 143 126.367 143H123.282ZM124.236 142.08H126.367C126.714 142.08 126.985 141.997 127.181 141.832C127.377 141.668 127.475 141.443 127.475 141.159C127.475 140.821 127.377 140.555 127.181 140.362C126.985 140.166 126.714 140.068 126.367 140.068H124.236V142.08ZM124.236 139.199H125.958C126.228 139.199 126.459 139.162 126.653 139.088C126.846 139.011 126.994 138.903 127.096 138.764C127.201 138.622 127.254 138.455 127.254 138.261C127.254 137.986 127.138 137.77 126.908 137.614C126.678 137.455 126.361 137.375 125.958 137.375H124.236V139.199ZM132.546 143.153C132.132 143.153 131.755 143.075 131.417 142.919C131.079 142.76 130.811 142.531 130.612 142.233C130.413 141.932 130.313 141.568 130.313 141.142C130.313 140.767 130.387 140.463 130.535 140.23C130.683 139.994 130.88 139.81 131.127 139.676C131.374 139.543 131.647 139.443 131.946 139.378C132.247 139.31 132.549 139.256 132.853 139.216C133.251 139.165 133.573 139.126 133.821 139.101C134.071 139.072 134.252 139.026 134.366 138.96C134.482 138.895 134.541 138.781 134.541 138.619V138.585C134.541 138.165 134.426 137.838 134.196 137.605C133.968 137.372 133.623 137.256 133.16 137.256C132.68 137.256 132.303 137.361 132.031 137.571C131.758 137.781 131.566 138.006 131.455 138.244L130.501 137.903C130.671 137.506 130.899 137.196 131.183 136.974C131.47 136.75 131.782 136.594 132.12 136.506C132.461 136.415 132.796 136.369 133.126 136.369C133.336 136.369 133.578 136.395 133.85 136.446C134.126 136.494 134.392 136.595 134.647 136.749C134.906 136.902 135.12 137.134 135.291 137.443C135.461 137.753 135.546 138.168 135.546 138.688V143H134.541V142.114H134.49C134.421 142.256 134.308 142.408 134.149 142.57C133.99 142.732 133.778 142.869 133.514 142.983C133.249 143.097 132.927 143.153 132.546 143.153ZM132.7 142.25C133.097 142.25 133.433 142.172 133.705 142.016C133.981 141.859 134.188 141.658 134.328 141.411C134.47 141.163 134.541 140.903 134.541 140.631V139.71C134.498 139.761 134.404 139.808 134.259 139.851C134.117 139.891 133.953 139.926 133.765 139.957C133.58 139.986 133.4 140.011 133.224 140.034C133.051 140.054 132.91 140.071 132.802 140.085C132.541 140.119 132.296 140.175 132.069 140.251C131.845 140.325 131.663 140.437 131.524 140.588C131.387 140.736 131.319 140.937 131.319 141.193C131.319 141.543 131.448 141.807 131.707 141.986C131.968 142.162 132.299 142.25 132.7 142.25ZM142.363 139.267V140.205H138.749V139.267H142.363ZM138.988 136.455V143H137.982V136.455H138.988ZM143.13 136.455V143H142.124V136.455H143.13ZM149.947 139.267V140.205H146.333V139.267H149.947ZM146.572 136.455V143H145.566V136.455H146.572ZM150.714 136.455V143H149.708V136.455H150.714ZM154.02 138.824H155.895C156.662 138.824 157.249 139.018 157.655 139.408C158.061 139.797 158.264 140.29 158.264 140.886C158.264 141.278 158.173 141.635 157.992 141.956C157.81 142.274 157.543 142.528 157.19 142.719C156.838 142.906 156.406 143 155.895 143H153.151V136.455H154.156V142.062H155.895C156.293 142.062 156.619 141.957 156.875 141.747C157.131 141.537 157.259 141.267 157.259 140.938C157.259 140.591 157.131 140.308 156.875 140.089C156.619 139.871 156.293 139.761 155.895 139.761H154.02V138.824ZM159.304 143V136.455H160.31V143H159.304ZM163.501 136.455L165.069 139.131L166.637 136.455H167.796L165.683 139.727L167.796 143H166.637L165.069 140.46L163.501 143H162.342L164.421 139.727L162.342 136.455H163.501ZM173.806 143V136.455H176.482C177.187 136.455 177.746 136.614 178.161 136.932C178.576 137.25 178.783 137.67 178.783 138.193C178.783 138.591 178.666 138.899 178.43 139.118C178.194 139.334 177.891 139.48 177.522 139.557C177.764 139.591 177.998 139.676 178.225 139.812C178.455 139.949 178.646 140.136 178.796 140.375C178.947 140.611 179.022 140.901 179.022 141.244C179.022 141.58 178.937 141.879 178.766 142.143C178.596 142.408 178.352 142.616 178.033 142.77C177.715 142.923 177.335 143 176.891 143H173.806ZM174.761 142.08H176.891C177.238 142.08 177.509 141.997 177.705 141.832C177.901 141.668 177.999 141.443 177.999 141.159C177.999 140.821 177.901 140.555 177.705 140.362C177.509 140.166 177.238 140.068 176.891 140.068H174.761V142.08ZM174.761 139.199H176.482C176.752 139.199 176.984 139.162 177.177 139.088C177.37 139.011 177.518 138.903 177.62 138.764C177.725 138.622 177.778 138.455 177.778 138.261C177.778 137.986 177.663 137.77 177.433 137.614C177.202 137.455 176.886 137.375 176.482 137.375H174.761V139.199ZM185.119 143V136.455H190.267V143H189.261V137.392H186.125V143H185.119ZM195.363 143.136C194.772 143.136 194.254 142.996 193.808 142.714C193.364 142.433 193.018 142.04 192.768 141.534C192.521 141.028 192.397 140.437 192.397 139.761C192.397 139.08 192.521 138.484 192.768 137.976C193.018 137.467 193.364 137.072 193.808 136.791C194.254 136.51 194.772 136.369 195.363 136.369C195.954 136.369 196.471 136.51 196.914 136.791C197.36 137.072 197.707 137.467 197.954 137.976C198.204 138.484 198.329 139.08 198.329 139.761C198.329 140.437 198.204 141.028 197.954 141.534C197.707 142.04 197.36 142.433 196.914 142.714C196.471 142.996 195.954 143.136 195.363 143.136ZM195.363 142.233C195.812 142.233 196.181 142.118 196.471 141.888C196.761 141.658 196.975 141.355 197.114 140.98C197.254 140.605 197.323 140.199 197.323 139.761C197.323 139.324 197.254 138.916 197.114 138.538C196.975 138.161 196.761 137.855 196.471 137.622C196.181 137.389 195.812 137.273 195.363 137.273C194.914 137.273 194.545 137.389 194.255 137.622C193.965 137.855 193.751 138.161 193.611 138.538C193.472 138.916 193.403 139.324 193.403 139.761C193.403 140.199 193.472 140.605 193.611 140.98C193.751 141.355 193.965 141.658 194.255 141.888C194.545 142.118 194.914 142.233 195.363 142.233ZM200.464 145.455V136.455H201.436V137.494H201.555C201.629 137.381 201.731 137.236 201.862 137.06C201.995 136.881 202.186 136.722 202.433 136.582C202.683 136.44 203.021 136.369 203.447 136.369C203.998 136.369 204.484 136.507 204.904 136.783C205.325 137.058 205.653 137.449 205.889 137.955C206.124 138.46 206.242 139.057 206.242 139.744C206.242 140.438 206.124 141.038 205.889 141.547C205.653 142.053 205.326 142.445 204.909 142.723C204.491 142.999 204.009 143.136 203.464 143.136C203.044 143.136 202.707 143.067 202.454 142.928C202.201 142.786 202.007 142.625 201.87 142.446C201.734 142.264 201.629 142.114 201.555 141.994H201.47V145.455H200.464ZM201.453 139.727C201.453 140.222 201.525 140.658 201.67 141.036C201.815 141.411 202.026 141.705 202.305 141.918C202.583 142.128 202.924 142.233 203.328 142.233C203.748 142.233 204.099 142.122 204.38 141.901C204.664 141.676 204.877 141.375 205.019 140.997C205.164 140.616 205.237 140.193 205.237 139.727C205.237 139.267 205.166 138.852 205.024 138.483C204.884 138.111 204.673 137.817 204.389 137.601C204.107 137.382 203.754 137.273 203.328 137.273C202.919 137.273 202.575 137.376 202.296 137.584C202.018 137.788 201.808 138.075 201.666 138.445C201.524 138.811 201.453 139.239 201.453 139.727ZM212.314 143V137.375H210.575C210.183 137.375 209.875 137.466 209.651 137.648C209.426 137.83 209.314 138.08 209.314 138.398C209.314 138.71 209.415 138.956 209.617 139.135C209.821 139.314 210.101 139.403 210.456 139.403H212.57V140.341H210.456C210.013 140.341 209.631 140.263 209.31 140.107C208.989 139.95 208.742 139.727 208.568 139.438C208.395 139.145 208.308 138.798 208.308 138.398C208.308 137.994 208.399 137.648 208.581 137.358C208.763 137.068 209.023 136.845 209.361 136.689C209.702 136.533 210.107 136.455 210.575 136.455H213.269V143H212.314ZM207.95 143L209.808 139.744H210.899L209.041 143H207.95ZM215.016 144.875V142.062H215.561C215.695 141.923 215.81 141.773 215.907 141.611C216.003 141.449 216.087 141.257 216.158 141.036C216.232 140.811 216.294 140.538 216.345 140.217C216.397 139.893 216.442 139.503 216.482 139.045L216.703 136.455H220.862V142.062H221.868V144.875H220.862V143H216.022V144.875H215.016ZM216.703 142.062H219.857V137.392H217.641L217.47 139.045C217.399 139.73 217.311 140.328 217.206 140.839C217.101 141.351 216.934 141.759 216.703 142.062ZM223.803 143V136.455H224.809V139.301H225.473L227.826 136.455H229.121L226.479 139.608L229.155 143H227.86L225.712 140.239H224.809V143H223.803ZM233.323 143.136C232.692 143.136 232.148 142.997 231.691 142.719C231.236 142.438 230.886 142.045 230.638 141.543C230.394 141.037 230.272 140.449 230.272 139.778C230.272 139.108 230.394 138.517 230.638 138.006C230.886 137.491 231.229 137.091 231.67 136.804C232.113 136.514 232.63 136.369 233.221 136.369C233.562 136.369 233.898 136.426 234.231 136.54C234.563 136.653 234.866 136.838 235.138 137.094C235.411 137.347 235.629 137.682 235.79 138.099C235.952 138.517 236.033 139.031 236.033 139.642V140.068H230.988V139.199H235.011C235.011 138.83 234.937 138.5 234.789 138.21C234.644 137.92 234.437 137.692 234.167 137.524C233.9 137.357 233.584 137.273 233.221 137.273C232.82 137.273 232.474 137.372 232.181 137.571C231.891 137.767 231.668 138.023 231.512 138.338C231.356 138.653 231.278 138.991 231.278 139.352V139.932C231.278 140.426 231.363 140.845 231.533 141.189C231.707 141.53 231.947 141.79 232.254 141.969C232.56 142.145 232.917 142.233 233.323 142.233C233.587 142.233 233.826 142.196 234.039 142.122C234.255 142.045 234.441 141.932 234.597 141.781C234.754 141.628 234.874 141.437 234.959 141.21L235.931 141.483C235.829 141.812 235.657 142.102 235.415 142.352C235.174 142.599 234.876 142.793 234.521 142.932C234.165 143.068 233.766 143.136 233.323 143.136ZM243.144 141.517L246.297 136.455H247.456V143H246.451V137.938L243.314 143H242.138V136.455H243.144V141.517ZM250.648 136.455L252.217 139.131L253.785 136.455H254.944L252.83 139.727L254.944 143H253.785L252.217 140.46L250.648 143H249.489L251.569 139.727L249.489 136.455H250.648ZM260.255 144.875V142.062H260.8C260.934 141.923 261.049 141.773 261.146 141.611C261.242 141.449 261.326 141.257 261.397 141.036C261.471 140.811 261.533 140.538 261.584 140.217C261.636 139.893 261.681 139.503 261.721 139.045L261.942 136.455H266.102V142.062H267.107V144.875H266.102V143H261.261V144.875H260.255ZM261.942 142.062H265.096V137.392H262.88L262.709 139.045C262.638 139.73 262.55 140.328 262.445 140.839C262.34 141.351 262.173 141.759 261.942 142.062ZM271.701 143.136C271.11 143.136 270.592 142.996 270.146 142.714C269.703 142.433 269.356 142.04 269.106 141.534C268.859 141.028 268.735 140.437 268.735 139.761C268.735 139.08 268.859 138.484 269.106 137.976C269.356 137.467 269.703 137.072 270.146 136.791C270.592 136.51 271.11 136.369 271.701 136.369C272.292 136.369 272.809 136.51 273.252 136.791C273.698 137.072 274.045 137.467 274.292 137.976C274.542 138.484 274.667 139.08 274.667 139.761C274.667 140.437 274.542 141.028 274.292 141.534C274.045 142.04 273.698 142.433 273.252 142.714C272.809 142.996 272.292 143.136 271.701 143.136ZM271.701 142.233C272.15 142.233 272.519 142.118 272.809 141.888C273.099 141.658 273.313 141.355 273.453 140.98C273.592 140.605 273.661 140.199 273.661 139.761C273.661 139.324 273.592 138.916 273.453 138.538C273.313 138.161 273.099 137.855 272.809 137.622C272.519 137.389 272.15 137.273 271.701 137.273C271.252 137.273 270.883 137.389 270.593 137.622C270.303 137.855 270.089 138.161 269.95 138.538C269.811 138.916 269.741 139.324 269.741 139.761C269.741 140.199 269.811 140.605 269.95 140.98C270.089 141.355 270.303 141.658 270.593 141.888C270.883 142.118 271.252 142.233 271.701 142.233ZM281.66 134L282.172 134.614C281.973 134.807 281.743 134.942 281.481 135.018C281.22 135.095 280.924 135.142 280.595 135.159C280.265 135.176 279.899 135.193 279.495 135.21C279.041 135.227 278.664 135.338 278.366 135.543C278.068 135.747 277.838 136.043 277.676 136.429C277.514 136.815 277.41 137.29 277.365 137.852H277.45C277.672 137.443 277.978 137.142 278.37 136.949C278.762 136.756 279.183 136.659 279.632 136.659C280.143 136.659 280.603 136.778 281.012 137.017C281.422 137.256 281.745 137.609 281.984 138.078C282.223 138.547 282.342 139.125 282.342 139.812C282.342 140.497 282.22 141.088 281.976 141.585C281.734 142.082 281.395 142.466 280.957 142.736C280.522 143.003 280.012 143.136 279.427 143.136C278.842 143.136 278.329 142.999 277.889 142.723C277.449 142.445 277.106 142.033 276.862 141.487C276.618 140.939 276.495 140.261 276.495 139.455V138.756C276.495 137.298 276.743 136.193 277.237 135.44C277.734 134.687 278.481 134.298 279.478 134.273C279.831 134.261 280.145 134.259 280.42 134.264C280.696 134.27 280.936 134.257 281.14 134.226C281.345 134.195 281.518 134.119 281.66 134ZM279.427 142.233C279.822 142.233 280.162 142.134 280.446 141.935C280.733 141.736 280.953 141.456 281.106 141.095C281.26 140.732 281.336 140.304 281.336 139.812C281.336 139.335 281.258 138.929 281.102 138.594C280.949 138.259 280.728 138.003 280.441 137.827C280.155 137.651 279.811 137.562 279.41 137.562C279.118 137.562 278.855 137.612 278.622 137.712C278.389 137.811 278.19 137.957 278.025 138.151C277.86 138.344 277.733 138.58 277.642 138.858C277.554 139.136 277.507 139.455 277.501 139.812C277.501 140.545 277.673 141.132 278.017 141.572C278.36 142.013 278.831 142.233 279.427 142.233ZM286.407 143.153C285.992 143.153 285.615 143.075 285.277 142.919C284.939 142.76 284.671 142.531 284.472 142.233C284.273 141.932 284.174 141.568 284.174 141.142C284.174 140.767 284.247 140.463 284.395 140.23C284.543 139.994 284.74 139.81 284.987 139.676C285.235 139.543 285.507 139.443 285.806 139.378C286.107 139.31 286.409 139.256 286.713 139.216C287.111 139.165 287.434 139.126 287.681 139.101C287.931 139.072 288.112 139.026 288.226 138.96C288.343 138.895 288.401 138.781 288.401 138.619V138.585C288.401 138.165 288.286 137.838 288.056 137.605C287.828 137.372 287.483 137.256 287.02 137.256C286.54 137.256 286.164 137.361 285.891 137.571C285.618 137.781 285.426 138.006 285.316 138.244L284.361 137.903C284.532 137.506 284.759 137.196 285.043 136.974C285.33 136.75 285.642 136.594 285.98 136.506C286.321 136.415 286.657 136.369 286.986 136.369C287.196 136.369 287.438 136.395 287.71 136.446C287.986 136.494 288.252 136.595 288.507 136.749C288.766 136.902 288.98 137.134 289.151 137.443C289.321 137.753 289.407 138.168 289.407 138.688V143H288.401V142.114H288.35C288.282 142.256 288.168 142.408 288.009 142.57C287.85 142.732 287.638 142.869 287.374 142.983C287.11 143.097 286.787 143.153 286.407 143.153ZM286.56 142.25C286.958 142.25 287.293 142.172 287.566 142.016C287.841 141.859 288.049 141.658 288.188 141.411C288.33 141.163 288.401 140.903 288.401 140.631V139.71C288.358 139.761 288.264 139.808 288.12 139.851C287.978 139.891 287.813 139.926 287.625 139.957C287.441 139.986 287.26 140.011 287.084 140.034C286.911 140.054 286.77 140.071 286.662 140.085C286.401 140.119 286.157 140.175 285.929 140.251C285.705 140.325 285.523 140.437 285.384 140.588C285.247 140.736 285.179 140.937 285.179 141.193C285.179 141.543 285.309 141.807 285.567 141.986C285.828 142.162 286.159 142.25 286.56 142.25ZM291.842 143V136.455H294.518C295.223 136.455 295.782 136.614 296.197 136.932C296.612 137.25 296.819 137.67 296.819 138.193C296.819 138.591 296.701 138.899 296.466 139.118C296.23 139.334 295.927 139.48 295.558 139.557C295.799 139.591 296.034 139.676 296.261 139.812C296.491 139.949 296.682 140.136 296.832 140.375C296.983 140.611 297.058 140.901 297.058 141.244C297.058 141.58 296.973 141.879 296.802 142.143C296.632 142.408 296.388 142.616 296.069 142.77C295.751 142.923 295.371 143 294.927 143H291.842ZM292.797 142.08H294.927C295.274 142.08 295.545 141.997 295.741 141.832C295.937 141.668 296.035 141.443 296.035 141.159C296.035 140.821 295.937 140.555 295.741 140.362C295.545 140.166 295.274 140.068 294.927 140.068H292.797V142.08ZM292.797 139.199H294.518C294.788 139.199 295.02 139.162 295.213 139.088C295.406 139.011 295.554 138.903 295.656 138.764C295.761 138.622 295.814 138.455 295.814 138.261C295.814 137.986 295.699 137.77 295.469 137.614C295.238 137.455 294.922 137.375 294.518 137.375H292.797V139.199ZM298.601 143V142.062H298.839C299.035 142.062 299.199 142.024 299.33 141.947C299.46 141.868 299.565 141.73 299.645 141.534C299.727 141.335 299.79 141.06 299.832 140.707C299.878 140.352 299.91 139.901 299.93 139.352L300.05 136.455H304.413V143H303.408V137.392H301.004L300.902 139.727C300.879 140.264 300.831 140.737 300.757 141.146C300.686 141.553 300.577 141.893 300.429 142.169C300.284 142.445 300.091 142.652 299.849 142.791C299.608 142.93 299.305 143 298.942 143H298.601ZM309.603 143.136C308.972 143.136 308.428 142.997 307.971 142.719C307.516 142.438 307.165 142.045 306.918 141.543C306.674 141.037 306.552 140.449 306.552 139.778C306.552 139.108 306.674 138.517 306.918 138.006C307.165 137.491 307.509 137.091 307.949 136.804C308.393 136.514 308.91 136.369 309.501 136.369C309.841 136.369 310.178 136.426 310.51 136.54C310.843 136.653 311.145 136.838 311.418 137.094C311.691 137.347 311.908 137.682 312.07 138.099C312.232 138.517 312.313 139.031 312.313 139.642V140.068H307.268V139.199H311.29C311.29 138.83 311.216 138.5 311.069 138.21C310.924 137.92 310.716 137.692 310.447 137.524C310.18 137.357 309.864 137.273 309.501 137.273C309.1 137.273 308.753 137.372 308.461 137.571C308.171 137.767 307.948 138.023 307.792 138.338C307.635 138.653 307.557 138.991 307.557 139.352V139.932C307.557 140.426 307.643 140.845 307.813 141.189C307.986 141.53 308.226 141.79 308.533 141.969C308.84 142.145 309.197 142.233 309.603 142.233C309.867 142.233 310.106 142.196 310.319 142.122C310.535 142.045 310.721 141.932 310.877 141.781C311.033 141.628 311.154 141.437 311.239 141.21L312.211 141.483C312.109 141.812 311.937 142.102 311.695 142.352C311.454 142.599 311.155 142.793 310.8 142.932C310.445 143.068 310.046 143.136 309.603 143.136ZM318.824 139.267V140.205H315.21V139.267H318.824ZM315.449 136.455V143H314.443V136.455H315.449ZM319.591 136.455V143H318.585V136.455H319.591ZM323.033 141.517L326.186 136.455H327.345V143H326.34V137.938L323.203 143H322.027V136.455H323.033V141.517ZM333.725 143V137.375H331.986C331.594 137.375 331.286 137.466 331.062 137.648C330.837 137.83 330.725 138.08 330.725 138.398C330.725 138.71 330.826 138.956 331.027 139.135C331.232 139.314 331.512 139.403 331.867 139.403H333.981V140.341H331.867C331.424 140.341 331.042 140.263 330.721 140.107C330.4 139.95 330.152 139.727 329.979 139.438C329.806 139.145 329.719 138.798 329.719 138.398C329.719 137.994 329.81 137.648 329.992 137.358C330.174 137.068 330.434 136.845 330.772 136.689C331.113 136.533 331.518 136.455 331.986 136.455H334.679V143H333.725ZM329.361 143L331.219 139.744H332.31L330.452 143H329.361Z" fill="black"/>
<path d="M110.416 62.8H113.408L115.728 66.192L118.048 62.8H121.088L117.36 68.16L121.392 74H118.336L115.728 70.288L113.152 74H110.16L114.16 68.272L110.416 62.8ZM127.663 74.128C126.937 74.128 126.303 73.968 125.759 73.648C125.215 73.328 124.788 72.8427 124.479 72.192C124.18 71.5307 124.031 70.6987 124.031 69.696C124.031 68.6827 124.175 67.8507 124.463 67.2C124.751 66.5493 125.167 66.064 125.711 65.744C126.255 65.424 126.905 65.264 127.663 65.264C128.473 65.264 129.199 65.4507 129.839 65.824C130.489 66.1867 131.001 66.6987 131.375 67.36C131.759 68.0213 131.951 68.8 131.951 69.696C131.951 70.6027 131.759 71.3867 131.375 72.048C131.001 72.7093 130.489 73.2213 129.839 73.584C129.199 73.9467 128.473 74.128 127.663 74.128ZM122.575 77.104V65.392H124.959V67.152L124.911 69.712L125.071 72.256V77.104H122.575ZM127.231 72.08C127.647 72.08 128.015 71.984 128.335 71.792C128.665 71.6 128.927 71.328 129.119 70.976C129.321 70.6133 129.423 70.1867 129.423 69.696C129.423 69.1947 129.321 68.768 129.119 68.416C128.927 68.064 128.665 67.792 128.335 67.6C128.015 67.408 127.647 67.312 127.231 67.312C126.815 67.312 126.441 67.408 126.111 67.6C125.78 67.792 125.519 68.064 125.327 68.416C125.135 68.768 125.039 69.1947 125.039 69.696C125.039 70.1867 125.135 70.6133 125.327 70.976C125.519 71.328 125.78 71.6 126.111 71.792C126.441 71.984 126.815 72.08 127.231 72.08ZM138.711 74V72.32L138.551 71.952V68.944C138.551 68.4107 138.386 67.9947 138.055 67.696C137.735 67.3973 137.239 67.248 136.567 67.248C136.109 67.248 135.655 67.3227 135.207 67.472C134.77 67.6107 134.397 67.8027 134.087 68.048L133.191 66.304C133.661 65.9733 134.226 65.7173 134.887 65.536C135.549 65.3547 136.221 65.264 136.903 65.264C138.215 65.264 139.234 65.5733 139.959 66.192C140.685 66.8107 141.047 67.776 141.047 69.088V74H138.711ZM136.087 74.128C135.415 74.128 134.839 74.016 134.359 73.792C133.879 73.5573 133.511 73.2427 133.255 72.848C132.999 72.4533 132.871 72.0107 132.871 71.52C132.871 71.008 132.994 70.56 133.239 70.176C133.495 69.792 133.895 69.4933 134.439 69.28C134.983 69.056 135.693 68.944 136.567 68.944H138.855V70.4H136.839C136.253 70.4 135.847 70.496 135.623 70.688C135.41 70.88 135.303 71.12 135.303 71.408C135.303 71.728 135.426 71.984 135.671 72.176C135.927 72.3573 136.274 72.448 136.711 72.448C137.127 72.448 137.501 72.352 137.831 72.16C138.162 71.9573 138.402 71.664 138.551 71.28L138.935 72.432C138.754 72.9867 138.423 73.408 137.943 73.696C137.463 73.984 136.845 74.128 136.087 74.128ZM143.216 74V65.392H145.696V68.752H149.44V65.392H151.936V74H149.44V70.784H145.696V74H143.216ZM158.533 74.128C157.552 74.128 156.688 73.936 155.941 73.552C155.205 73.168 154.634 72.6453 154.229 71.984C153.824 71.312 153.621 70.5493 153.621 69.696C153.621 68.832 153.818 68.0693 154.213 67.408C154.618 66.736 155.168 66.2133 155.861 65.84C156.554 65.456 157.338 65.264 158.213 65.264C159.056 65.264 159.813 65.4453 160.485 65.808C161.168 66.16 161.706 66.672 162.101 67.344C162.496 68.0053 162.693 68.8 162.693 69.728C162.693 69.824 162.688 69.936 162.677 70.064C162.666 70.1813 162.656 70.2933 162.645 70.4H155.653V68.944H161.333L160.373 69.376C160.373 68.928 160.282 68.5387 160.101 68.208C159.92 67.8773 159.669 67.6213 159.349 67.44C159.029 67.248 158.656 67.152 158.229 67.152C157.802 67.152 157.424 67.248 157.093 67.44C156.773 67.6213 156.522 67.8827 156.341 68.224C156.16 68.5547 156.069 68.9493 156.069 69.408V69.792C156.069 70.2613 156.17 70.6773 156.373 71.04C156.586 71.392 156.88 71.664 157.253 71.856C157.637 72.0373 158.085 72.128 158.597 72.128C159.056 72.128 159.456 72.0587 159.797 71.92C160.149 71.7813 160.469 71.5733 160.757 71.296L162.085 72.736C161.69 73.184 161.194 73.5307 160.597 73.776C160 74.0107 159.312 74.128 158.533 74.128ZM164.606 74V65.392H167.086V68.752H170.83V65.392H173.326V74H170.83V70.784H167.086V74H164.606ZM175.716 74V65.392H178.196V70.512L182.388 65.392H184.676V74H182.196V68.88L178.02 74H175.716ZM191.283 74.128C190.302 74.128 189.438 73.936 188.691 73.552C187.955 73.168 187.384 72.6453 186.979 71.984C186.574 71.312 186.371 70.5493 186.371 69.696C186.371 68.832 186.568 68.0693 186.963 67.408C187.368 66.736 187.918 66.2133 188.611 65.84C189.304 65.456 190.088 65.264 190.963 65.264C191.806 65.264 192.563 65.4453 193.235 65.808C193.918 66.16 194.456 66.672 194.851 67.344C195.246 68.0053 195.443 68.8 195.443 69.728C195.443 69.824 195.438 69.936 195.427 70.064C195.416 70.1813 195.406 70.2933 195.395 70.4H188.403V68.944H194.083L193.123 69.376C193.123 68.928 193.032 68.5387 192.851 68.208C192.67 67.8773 192.419 67.6213 192.099 67.44C191.779 67.248 191.406 67.152 190.979 67.152C190.552 67.152 190.174 67.248 189.843 67.44C189.523 67.6213 189.272 67.8827 189.091 68.224C188.91 68.5547 188.819 68.9493 188.819 69.408V69.792C188.819 70.2613 188.92 70.6773 189.123 71.04C189.336 71.392 189.63 71.664 190.003 71.856C190.387 72.0373 190.835 72.128 191.347 72.128C191.806 72.128 192.206 72.0587 192.547 71.92C192.899 71.7813 193.219 71.5733 193.507 71.296L194.835 72.736C194.44 73.184 193.944 73.5307 193.347 73.776C192.75 74.0107 192.062 74.128 191.283 74.128Z" fill="black"/>
<defs>
<filter id="filter0_d_3667_220" x="0.49231" y="0" width="463.508" height="229" filterUnits="userSpaceOnUse" color-interpolation-filters="sRGB">
<feFlood flood-opacity="0" result="BackgroundImageFix"/>
<feColorMatrix in="SourceAlpha" type="matrix" values="0 0 0 0 0 0 0 0 0 0 0 0 0 0 0 0 0 0 127 0" result="hardAlpha"/>
<feOffset dy="10"/>
<feGaussianBlur stdDeviation="20"/>
<feColorMatrix type="matrix" values="0 0 0 0 0.494444 0 0 0 0 0.608547 0 0 0 0 0.741667 0 0 0 0.35 0"/>
<feBlend mode="normal" in2="BackgroundImageFix" result="effect1_dropShadow_3667_220"/>
<feBlend mode="normal" in="SourceGraphic" in2="effect1_dropShadow_3667_220" result="shape"/>
</filter>
</defs>
</svg>
